<svg height="56" viewBox="0 0 52 56" width="52" xmlns="http://www.w3.org/2000/svg"><g fill="#fff" fill-rule="evenodd"><path d="m15.8792806 33.914608c-1.251165 0-2.2645519-1.00352-2.2645519-2.23664 0-1.23648 1.0133869-2.24 2.2645519-2.24 1.2489003 0 2.2622873 1.00352 2.2622873 2.24 0 1.23312-1.013387 2.23664-2.2622873 2.23664m-4.8053792-4.75216c-1.25003262 0-2.26341959-1.00352-2.26341959-2.24 0-1.2376 1.01338697-2.24 2.26341959-2.24 1.251165 0 2.2656842 1.0024 2.2656842 2.24 0 1.23648-1.0145192 2.24-2.2656842 2.24m0 9.50544c-1.25003262 0-2.26341959-1.00352-2.26341959-2.24s1.01338697-2.24 2.26341959-2.24c1.251165 0 2.2656842 1.00352 2.2656842 2.24s-1.0145192 2.24-2.2656842 2.24m-4.80424683-4.75104c-1.25003265 0-2.2645519-1.00464-2.2645519-2.23888 0-1.2376 1.01451925-2.24224 2.2645519-2.24224 1.2522972 0 2.2645519 1.00464 2.2645519 2.24224 0 1.23424-1.0122547 2.23888-2.2645519 2.23888m4.80537913-25.0152c2.7661502 0 5.0091888 2.2176 5.0091888 4.95488 0 2.73616-2.2430386 4.95264-5.0091888 4.95264-2.76728242 0-5.01032108-2.21648-5.01032108-4.95264 0-2.73728 2.24303866-4.95488 5.01032108-4.95488m10.6128225-8.90176h-9.5269699c-6.61588834 0-11.97947952 5.30544-11.97947952 11.84848v32.29968c0 6.54528 5.36472346 11.85184 11.98287642 11.85184h9.523573c.1562541 0 .283069-.12544.283069-.28v-55.44c0-.15456-.1268149-.28-.283069-.28"/><path d="m45.7424926 17.494064c-1.2511649 0-2.2645519-1.00352-2.2645519-2.23664 0-1.23648 1.013387-2.24 2.2645519-2.24 1.2489004 0 2.2622874 1.00352 2.2622874 2.24 0 1.23312-1.013387 2.23664-2.2622874 2.23664m-4.8053791 20.53408c-2.7684147 0-5.0114534-2.21648-5.0114534-4.95488 0-2.73728 2.2430387-4.95376 5.0114534-4.95376 2.7650179 0 5.0080565 2.21648 5.0080565 4.95376 0 2.7384-2.2430386 4.95488-5.0080565 4.95488m-7.0687988-22.77072c0-1.2376 1.0145193-2.24224 2.2645519-2.24224 1.2522972 0 2.2645519 1.00464 2.2645519 2.24224 0 1.23424-1.0122547 2.23888-2.2645519 2.23888-1.2500326 0-2.2645519-1.00464-2.2645519-2.23888m7.0687988 2.50992c1.2511649 0 2.2656842 1.00352 2.2656842 2.24s-1.0145193 2.24-2.2656842 2.24c-1.2500326 0-2.2634196-1.00352-2.2634196-2.24s1.013387-2.24 2.2634196-2.24m0-9.50544c1.2511649 0 2.2656842 1.0024 2.2656842 2.24 0 1.23648-1.0145193 2.24-2.2656842 2.24-1.2500326 0-2.2634196-1.00352-2.2634196-2.24 0-1.2376 1.013387-2.24 2.2634196-2.24m-1.0858526-8.26224h-9.5281022c-.156254 0-.283069.12544-.283069.28v55.44c0 .15456.126815.28.283069.28h9.5235731c6.6181529 0 11.9828763-5.30656 11.9828763-11.85184v-32.29856c0-6.54416-5.3635911-11.8496-11.9783472-11.8496"/></g></svg>