<svg xmlns="http://www.w3.org/2000/svg" viewBox="0 0 445.444 222.647"><path fill="#FFF" d="M158.583 130.729c-20.655 0-79.822.129-103.39.129v69.645c14.902 0 93.57-.108 103.499-.108.251-2.166.147-68.768-.109-69.666z"/><path fill="#FFF" d="M213.833 120.473H.07v10.393c0 26.41.004 52.819-.009 79.229 0 1.731.215 3.409.86 5.014 1.919 4.773 6.549 7.564 11.078 7.532 6.709-.047 13.418-.011 20.127-.011 22.479 0 44.957 0 67.435-.002.47 0 .94-.023 1.411-.035-3.344-1.504-5.378-3.888-5.458-7.511-.086-3.9 2.031-6.441 5.583-8.025h-1.346c-15.042 0-30.085.001-45.127-.002-.598 0-1.199.007-1.792-.056-2.318-.246-3.972-1.995-4.115-4.334-.031-.511-.021-1.025-.021-1.538v-70.921c0-.47-.009-.941.01-1.41.104-2.551 1.757-4.315 4.298-4.577.424-.044.854-.039 1.28-.039 35.128-.001 70.255-.002 105.383.003.596 0 1.2.022 1.786.123a4.529 4.529 0 0 1 3.745 4.144c.029.383.019.769.019 1.153v72.076c0 .342.008.685-.013 1.025-.138 2.242-1.805 4.023-4.035 4.282-.592.069-1.194.068-1.791.068-15.085.003-30.17.002-45.256.005-.438 0-.876.031-1.315.047 3.414 1.44 5.478 3.852 5.588 7.518.116 3.84-1.957 6.38-5.43 8.005h88.001c.47 0 .95.051 1.408-.024 1.215-.2 2.473-.309 3.62-.716 4.803-1.708 7.872-6.227 7.875-11.488.009-15.213.003-30.427.003-45.64l-.001-42.82c-.005-.491-.027-.983-.038-1.468zM24.384 132.807c6.94.008 12.547 5.607 12.551 12.534.004 6.949-5.707 12.627-12.661 12.59-6.905-.038-12.471-5.684-12.456-12.636.015-6.948 5.598-12.496 12.566-12.488zm14.316 55.56c-.02.95-.556 1.342-1.654 1.354-1.835.021-3.671.006-5.507.007-.299 0-.598-.01-.896.004-1.062.049-1.478.416-1.504 1.479-.04 1.579-.013 3.159-.015 4.738 0 .555.014 1.11-.005 1.665-.044 1.308-.377 1.634-1.723 1.643-2.049.013-4.098.015-6.147-.001-1.282-.01-1.683-.405-1.695-1.682-.019-2.049.005-4.098-.01-6.147-.01-1.332-.351-1.681-1.662-1.692-2.006-.018-4.013.003-6.02-.009-1.463-.009-1.82-.368-1.845-1.798v-.128-2.946c0-.982-.008-1.964.002-2.946.016-1.447.352-1.784 1.838-1.797 1.793-.016 3.586-.004 5.379-.004.299 0 .599.012.896-.01 1.012-.074 1.386-.42 1.403-1.435.032-1.792.01-3.586.011-5.379 0-.427-.018-.855.008-1.28.057-.955.475-1.426 1.428-1.441 2.219-.036 4.44-.035 6.659-.004 1.052.015 1.445.427 1.468 1.515.035 1.664.011 3.33.013 4.995 0 .47-.014.939.005 1.409.049 1.232.399 1.605 1.631 1.623 1.878.026 3.757.007 5.635.009.341 0 .687-.02 1.023.021.827.101 1.268.487 1.283 1.324a167.7 167.7 0 0 1 .001 6.913zm137.85-62.229c3.403-.008 6.1 2.658 6.122 6.051.022 3.435-2.74 6.216-6.144 6.186a6.12 6.12 0 0 1-6.07-6.142c.014-3.4 2.7-6.087 6.092-6.095zm1.078 38.07c-3.267-.034-5.813-2.614-5.81-5.885a5.873 5.873 0 0 1 5.818-5.904c3.249-.041 5.973 2.656 5.973 5.913-.001 3.271-2.687 5.91-5.981 5.876zm12.426-23.46c3.323.002 5.947 2.639 5.918 5.946-.028 3.228-2.667 5.849-5.903 5.862-3.275.013-5.933-2.673-5.913-5.975.021-3.249 2.636-5.835 5.898-5.833zm-.075 35.184c-3.238-.023-5.829-2.655-5.821-5.914a5.9 5.9 0 0 1 5.987-5.892 5.917 5.917 0 0 1 5.828 5.93c-.008 3.295-2.665 5.899-5.994 5.876zm12.338-11.724c-3.24-.049-5.834-2.693-5.809-5.921.025-3.217 2.679-5.861 5.89-5.868a5.889 5.889 0 0 1 5.913 5.949c-.016 3.306-2.668 5.891-5.994 5.84zM385.339 140.824h-85.124v61.125h85.124v-61.125zM344.792 214.201a40.983 40.983 0 0 0-3.824-.005c-.831.037-1.301.599-1.263 1.312.037.699.533 1.129 1.4 1.169.552.025 1.105.005 1.658.004.638 0 1.277.028 1.913-.007.847-.046 1.32-.517 1.317-1.241-.002-.68-.424-1.195-1.201-1.232zM212.935 55.911c-1.068.018-1.43.589-1.438 2.319-.011 2.304-.004 6.608-.001 8.912 0 .34.005.684.037 1.02.077.814.394 1.378.883 1.433.809.092.455.025 1.305.025V55.91c-.694-.001-.154-.01-.786.001zM1.227 114.987c.25.044.511.038.766.038 4.612.002 9.224.003 13.836-.003.329 0 .659-.062 1.035-.101v-7.525c-.434-.032-.806-.083-1.177-.083-4.655-.005-9.31-.004-13.964-.001-.298 0-.6.003-.893.049-.532.083-.837.385-.831.955.02 1.793.01 3.587.064 5.379.025.787.41 1.158 1.164 1.292zM212.969 107.341a8.899 8.899 0 0 0-.766-.03c-4.691-.002-9.381-.004-14.072.004-.361 0-.723.07-1.109.11v7.53c.423.03.714.068 1.005.068 4.648.004 9.296.003 13.944.001.255 0 .515-.001.764-.048.661-.124 1.115-.517 1.117-1.203.005-1.875-.04-3.75-.073-5.625-.01-.516-.32-.764-.81-.807z"/><path fill="#FFF" d="M.142 50.568c.255.075.418.122.58.171 3.728 1.126 5.974 3.924 6.091 7.794.086 2.86.092 5.729-.006 8.588-.129 3.752-2.354 6.55-5.912 7.677-.272.086-.535.206-.75.289v26.656h213.654V75.03l-.77-.239c-3.583-1.116-5.877-3.047-5.967-6.782a219.414 219.414 0 0 1 0-9.461c.089-3.677 2.355-6.607 5.858-7.736.278-.09.558-.171.885-.271.023-.328.061-.619.061-.91.003-12.564.074-25.129-.034-37.692-.043-5.006-2.546-8.672-7.077-10.866C204.909.177 202.915 0 200.883 0 138.277.009 75.671.007 13.064.007c-.427 0-.855-.008-1.282.008C5.167.263.09 5.437.077 12.025.053 24.504.069 36.982.072 49.461c.001.373.046.746.07 1.107zm106.763-47.8c2.582-.021 4.663 2.035 4.647 4.59-.016 2.482-2.078 4.555-4.561 4.583-2.55.029-4.63-2.051-4.622-4.624.009-2.54 1.991-4.529 4.536-4.549zM40.76 15.08c44.016.044 132.818.014 133.2.05 1.777.168 2.956 1.422 3.033 3.213.015.341.006.684.006 1.025 0 25.469-.026 48.938.037 74.407.007 2.783-1.274 4.274-4.223 4.265-22.05-.069-44.101-.038-66.151-.038H41.151c-.47 0-.94.012-1.41-.005-1.854-.067-3.119-1.287-3.242-3.126-.026-.383-.009-.769-.009-1.153 0-25.427.027-48.853-.036-74.279-.008-3.142 1.603-4.362 4.306-4.359z"/><path fill="#FFF" d="M170.526 21.623H42.986v69.854h127.54V21.623zM190.504 114.807v-7.351c-7.832 0-161.327.036-167.078.036v7.368c1.406.276 151.502-.053 167.078-.053zM2.364 57.675c-.007-1.002-.361-1.66-.963-1.723-.788-.082-.581-.02-1.402-.02v13.704c.837 0 .632.06 1.421-.02.588-.059.937-.731.944-1.749.02-2.729.021-7.461 0-10.192zM110.547 213.466a193.446 193.446 0 0 0-7.146-.003c-.348.005-.752.196-1.025.426-.407.343-.572.836-.375 1.385.207.574.603.945 1.222.958 1.233.024 2.467.007 3.7.007v.014c1.191 0 2.383.032 3.573-.011.904-.033 1.414-.532 1.455-1.289.044-.81-.483-1.467-1.404-1.487zM289.042 123.443h107.432V61.762c-2.109 0-105.443.062-107.432.062v61.619z"/><path fill="#FFF" d="M437.646 54.386c-6.658-7.89-15.286-11.81-25.539-11.824-46.114-.063-92.228-.033-138.342-.006-1.87.001-3.766.167-5.604.501-11.505 2.091-19.783 8.441-24.684 19.071-2.198 4.768-2.998 9.842-2.995 15.085.022 41.584.02 83.167.002 124.751-.004 8.276 2.108 20.541 12.738 20.547 27.694.015 55.388.013 83.082.011.267 0 .535-.037 1.105-.078-2.717-1.681-4.157-3.851-4.255-6.766-.1-2.951 1.28-5.201 3.536-7.125-2.782 0-38.802.008-39.313-.028-1.745-.122-3.099-1.168-3.552-2.834-.165-.605-.179-1.265-.179-1.899-.009-21.925-.007-42.849-.007-64.773 0-.342-.01-.685.009-1.025.109-1.956 1.463-3.454 3.415-3.739.546-.08 1.107-.076 1.662-.076 29.361-.003 58.721-.003 88.082-.002.427 0 .857-.014 1.282.021 2.287.189 3.74 1.731 3.812 4.03.01.341.005.684.005 1.025v64.26c0 .47.012.942-.024 1.41-.147 1.93-1.613 3.417-3.552 3.59-.552.049-30.253.042-39.366.042.207.207.394.364.394.364 4.384 3.238 4.228 10.021-.298 13.031-.175.116-.301.307-.494.509h58.545c.026-.903.028-1.747.078-2.587.134-2.271 1.611-3.757 3.864-3.767l18.976-.001c2.31.01 3.83 1.547 3.917 3.852.028.724.004 1.45.004 2.431 1.014 0 11.482-.811 11.482-19.944.023-41.541.016-83.082.004-124.623 0-1.707-.06-3.42-.23-5.117-.688-6.857-3.107-13.038-7.56-18.317zm-94.718-8.845c2.211.029 3.986 1.832 3.96 4.021-.026 2.188-1.842 3.993-4.018 3.993-2.218 0-4.09-1.912-4.029-4.114a4.012 4.012 0 0 1 4.087-3.9zM261.96 94.546c6.578.005 11.902 5.35 11.863 11.907-.04 6.527-5.318 11.792-11.836 11.808-6.592.016-11.916-5.276-11.918-11.845a11.84 11.84 0 0 1 11.891-11.87zm13.41 51.176c-.012 1.152-.281 1.412-1.459 1.423-1.964.018-3.929.002-5.894.006-1.667.003-1.769.102-1.774 1.721-.005 1.965.008 3.929-.005 5.894-.009 1.261-.155 1.407-1.4 1.416-1.922.013-3.844.013-5.766 0-1.238-.008-1.422-.18-1.437-1.4-.021-1.836-.006-3.673-.007-5.509 0-.299.012-.599-.006-.897-.059-.993-.248-1.197-1.229-1.219-1.11-.024-2.221-.005-3.331-.005v-.003c-1.068 0-2.136.021-3.203-.006-1.021-.025-1.307-.294-1.318-1.295-.023-2.05-.025-4.1.002-6.15.012-.926.303-1.202 1.258-1.212 2.092-.023 4.186-.002 6.278-.01 1.368-.005 1.536-.168 1.546-1.555.014-2.007-.009-4.015.009-6.022.012-1.304.171-1.452 1.506-1.46 1.922-.011 3.844-.016 5.766.002 1.161.011 1.321.175 1.331 1.352.016 2.05-.004 4.1.008 6.15.008 1.342.204 1.527 1.579 1.533 2.007.008 4.015-.006 6.022.005 1.291.008 1.514.218 1.525 1.476.018 1.921.019 3.843-.001 5.765zm122.837-15.654c-36.919-.05-73.838-.052-110.757.003-2.881.004-5.059-1.763-5.05-5.078.053-20.554.026-40.107.026-60.66 0-1.624-.037-3.249.013-4.871.065-2.147 1.426-4.232 3.259-4.232.614-.141 51.167-.125 57.033-.125 11.321 0 29.998.01 42.554.011l13.081-.015c2.767 0 4.785 1.955 4.779 4.777-.045 22.091-.049 43.183.004 65.274.006 2.915-1.998 4.92-4.942 4.916zm25.658-39.877c3.097.015 5.5 2.454 5.483 5.567a5.508 5.508 0 0 1-5.559 5.513c-3.054-.02-5.525-2.527-5.506-5.588.019-3.071 2.495-5.507 5.582-5.492zm-16.629 16.54c.02-3.078 2.486-5.501 5.582-5.482 3.09.018 5.497 2.465 5.479 5.573-.017 3.082-2.481 5.512-5.57 5.495a5.52 5.52 0 0 1-5.491-5.586zm9.293 45.634c-1.954-.027-3.45-1.548-3.452-3.512-.002-2.015 1.55-3.546 3.57-3.521 1.952.024 3.447 1.547 3.449 3.512.002 2.014-1.553 3.549-3.567 3.521zm3.566 10.977a3.502 3.502 0 0 1-3.523 3.464 3.5 3.5 0 0 1-3.492-3.494c-.02-2.016 1.523-3.583 3.522-3.577 1.992.005 3.527 1.591 3.493 3.607zm-3.567 44.187c-2.546-.038-4.523-2.045-4.521-4.591a4.568 4.568 0 0 1 4.661-4.592 4.57 4.57 0 0 1 4.521 4.604c-.004 2.595-2.062 4.617-4.661 4.579zm7.156-84.158c-3.058-.056-5.475-2.594-5.4-5.669.074-3.059 2.597-5.453 5.687-5.396 3.054.056 5.435 2.573 5.376 5.683-.058 3.081-2.539 5.439-5.663 5.382zm11.222-11.055c-3.058.007-5.559-2.472-5.57-5.522-.011-3.057 2.464-5.537 5.536-5.545 3.1-.008 5.528 2.407 5.539 5.511.011 3.087-2.427 5.548-5.505 5.556z"/><path fill="#FFF" d="M427.483 219.573c-1.759-.074-11.969-.074-13.729-.006-1.149.043-1.746.16-1.746 1.555s.737 1.338 1.937 1.385c.763.03 12.5.038 13.379-.003 1.172-.055 1.822-.099 1.822-1.471s-.588-1.415-1.663-1.46z"/></svg>
