<svg width="24" height="24" viewBox="0 0 24 24" xmlns="http://www.w3.org/2000/svg"><path d="M11.47 4.36V0c-.744.032-1.47.132-2.173.294C8.584.9 7.923 1.75 7.34 2.82c-.363.668-.68 1.398-.952 2.175a23.83 23.83 0 0 1 5.08-.636zm1.06 0a23.83 23.83 0 0 1 5.08.636 14.676 14.676 0 0 0-.951-2.175c-.582-1.07-1.243-1.92-1.956-2.527A11.992 11.992 0 0 0 12.53 0v4.36zm-1.06 15.28a23.829 23.829 0 0 1-5.08-.636c.27.777.588 1.507.951 2.175.582 1.07 1.243 1.92 1.956 2.527.703.162 1.429.262 2.173.294v-4.36zm1.06 0V24a11.99 11.99 0 0 0 2.173-.294c.713-.607 1.374-1.457 1.956-2.527.363-.668.68-1.398.952-2.175-1.586.383-3.305.6-5.08.636zM5.283 12c0 .105 0 .21.002.314h6.185V5.42c-1.928.04-3.78.304-5.448.766-.484 1.78-.74 3.758-.74 5.813zm14.457 1.375a23.197 23.197 0 0 1-.575 4.066 14.645 14.645 0 0 0 2.008-.878c1.077-.575 1.93-1.23 2.538-1.935.092-.41.162-.828.21-1.253h-4.18zm-.575-6.816a23.792 23.792 0 0 1 .61 5.755h4.221a12.11 12.11 0 0 0-.285-2.943c-.608-.704-1.46-1.36-2.538-1.934a14.642 14.642 0 0 0-2.008-.878zM17.59 2.314c.495.912.912 1.927 1.245 3.019 1.023.317 1.976.708 2.837 1.167.513.274.982.567 1.406.876A12.048 12.048 0 0 0 16.738.96c.3.41.585.861.852 1.353zm1.088 11.06H12.53v5.205c1.928-.04 3.78-.304 5.448-.766.375-1.379.612-2.877.7-4.438zM6.41 21.687a16.266 16.266 0 0 1-1.245-3.019A16.255 16.255 0 0 1 2.328 17.5a11.904 11.904 0 0 1-1.406-.876 12.048 12.048 0 0 0 6.34 6.415c-.3-.41-.585-.861-.852-1.353zM.004 12.314h4.22a23.792 23.792 0 0 1 .61-5.754 14.65 14.65 0 0 0-2.007.877C1.75 8.012.897 8.667.29 9.37a12.063 12.063 0 0 0-.285 2.943zM21.672 17.5c-.86.46-1.814.85-2.837 1.167a16.267 16.267 0 0 1-1.245 3.019c-.267.492-.552.943-.852 1.353a12.048 12.048 0 0 0 6.34-6.415c-.424.309-.893.602-1.406.876zM18.717 12c0-2.055-.255-4.034-.738-5.813-1.67-.462-3.52-.725-5.449-.766v6.893h6.185l.002-.314zm-7.247 6.579v-5.204H5.322c.088 1.56.325 3.06.7 4.438 1.669.462 3.52.725 5.448.766zM2.328 6.5c.86-.46 1.814-.85 2.837-1.167.333-1.092.75-2.107 1.245-3.019.267-.492.552-.943.852-1.353a12.048 12.048 0 0 0-6.34 6.415c.424-.309.893-.602 1.406-.876zm2.507 10.94a23.199 23.199 0 0 1-.575-4.065H.079c.048.425.118.843.21 1.253.607.705 1.46 1.36 2.538 1.935.62.331 1.292.624 2.008.878z" fill="#fff" fill-rule="evenodd"/></svg>
