<svg viewBox="0 0 232.475 224.759" xmlns="http://www.w3.org/2000/svg"><path d="m222.712 81.651h-64.476c-4.995 0-10.216-5.048-10.216-9.877v-62.336c0-5.795-3.769-9.438-9.762-9.438h-41.772c-5.994 0-12.032 3.644-12.032 9.438v62.335c0 4.829-2.952 9.877-7.946 9.877h-64.476c-5.993.001-12.032 3.644-12.032 9.439v40.386c0 5.794 6.039 11.633 12.032 11.633h64.476c4.994 0 7.946 2.853 7.946 7.682v62.335c0 5.795 6.039 11.633 12.032 11.633h41.773c5.993 0 9.762-5.838 9.762-11.633v-62.335c0-4.829 5.222-7.682 10.216-7.682h64.476c5.993 0 9.762-5.839 9.762-11.633v-40.386c0-5.795-3.769-9.438-9.763-9.438zm-151.88 32.923h-39.048c-1.254 0-2.271-.982-2.271-2.195s1.017-2.195 2.271-2.195h39.048c1.253 0 2.271.982 2.271 2.195s-1.018 2.195-2.271 2.195zm47.675 79.456c0 1.212-1.016 2.195-2.27 2.195s-2.271-.983-2.271-2.195v-37.752c0-1.212 1.016-2.195 2.271-2.195 1.254 0 2.27.982 2.27 2.195zm0-125.549c0 1.213-1.016 2.195-2.27 2.195s-2.271-.982-2.271-2.195v-37.752c0-1.213 1.016-2.195 2.271-2.195 1.254 0 2.27.982 2.27 2.195zm82.184 46.093h-39.048c-1.254 0-2.271-.982-2.271-2.195s1.017-2.195 2.271-2.195h39.048c1.253 0 2.271.982 2.271 2.195s-1.018 2.195-2.271 2.195z" fill="#fff"/></svg>