<svg class="nav-flag" xmlns="http://www.w3.org/2000/svg" width="612" height="393.428" viewBox="0 199.286 612 393.428"><path fill="#FFF" d="M568.286 199.286H43.715C19.584 199.286 0 218.848 0 243v306c0 24.152 19.584 43.714 43.714 43.714h524.572c24.13 0 43.714-19.562 43.714-43.714V243c0-24.152-19.584-43.714-43.714-43.714z"/><path fill="#BF0A30" d="M0 286.714h612v43.714H0zM612 243H0c0-24.152 19.562-43.714 43.714-43.714h524.572C592.438 199.286 612 218.848 612 243zM612 549H0c0 24.152 19.562 43.714 43.714 43.714h524.572C592.438 592.714 612 573.152 612 549zM0 374.143h612v43.714H0zM0 461.571h612v43.715H0z"/><path fill="#002868" d="M306 417.857H0V243.065c0-24.174 19.606-43.78 43.78-43.78H306v218.572z"/></svg>
