<svg enable-background="new 0 0 38.532 58.252" height="58.252" viewBox="0 0 38.532 58.252" width="38.532" xmlns="http://www.w3.org/2000/svg"><path d="m38.532 0v58.252h-38.532v-58.252z"/><g fill="#fff"><path d="m1.939 2.07h34.376v9.658h-34.376z"/><path d="m1.923 13.836h34.396v35.51h-34.396z"/><path d="m1.93 56.15v-4.714h6.905v1.103h-4.131v.674h3.497v1.099h-3.497v.739h4.292v1.099z"/><path d="m14.863 52.809c-.044-.158-.199-.262-.401-.318-.197-.061-.442-.088-.716-.088-.61 0-.883.1-.883.275 0 .697 4.87.26 4.87 1.975 0 1.092-1.637 1.625-3.963 1.625-2.235 0-3.691-.727-3.75-1.578h2.656c.06.17.225.291.46.371.223.078.514.119.789.119.693 0 1.155-.123 1.155-.346 0-.715-4.873-.225-4.873-2.021 0-1.002 1.553-1.504 3.671-1.504 2.35 0 3.421.666 3.624 1.49z"/><path d="m21.886 53.48h1.091c.858 0 1.319-.125 1.319-.449 0-.332-.47-.492-1.117-.492h-1.293zm0 1.028v1.643h-2.774v-4.715h3.999c2.818 0 3.749.432 3.749 1.348 0 .545-.434.998-1.422 1.156.893.18 1.435.291 1.435 1.242 0 .613-.036.826.293.826v.143h-2.812c-.069-.105-.139-.406-.139-.824 0-.619-.188-.818-1.481-.818h-.848z"/><path d="m31.337 52.539v.789h1.156c.553 0 .954-.143.954-.412 0-.369-.547-.377-1.13-.377zm0 1.643v.869h1.211c.688 0 1.203-.08 1.203-.432 0-.412-.645-.438-1.531-.438h-.883zm-2.772 1.968v-4.715h4.047c1.906 0 3.423.256 3.423 1.189 0 .486-.566.84-1.105 1.023.916.133 1.407.574 1.407 1.08 0 1.051-1.442 1.422-3.646 1.422h-4.126z"/></g><path d="m4.793 22.453 26.61-6.637 2.047 7.092-8.55 2.131 5.733 19.926-9.513 2.373-5.738-19.926-8.545 2.133z"/><path d="m28.243 4.162h2.259l2.622 2.984-.091-1.248v-1.736h2.31v5.465h-2.257l-2.626-2.977.044 1.29.049 1.687h-2.31z"/><path d="m20.103 4.162h5.992v1.27h-3.585v.787h3.033v1.275h-3.033v.856h3.728v1.277h-6.135z"/><path d="m11.68 4.162h5.993v1.27h-3.585v.787h3.032v1.275h-3.032v.856h3.73v1.277h-6.138z"/><path d="m2.894 4.162h6.739v1.434h-2.162v4.031h-2.414v-4.031h-2.163z"/><path d="m33.381 46.35c.322-.008.4-.141.4-.291 0-.154-.078-.238-.354-.238h-.413v.529zm-.367.324v.883h-.345v-2.061h.717c.405 0 .819.105.819.57 0 .236-.148.428-.444.484v.006c.299.055.339.188.373.408.032.193.055.408.13.592h-.439c-.026-.113-.06-.25-.072-.367-.023-.178-.023-.346-.125-.439-.088-.076-.203-.066-.323-.076zm1.944-.119c0-.795-.688-1.438-1.541-1.438-.859 0-1.556.643-1.556 1.438s.697 1.445 1.556 1.445c.854 0 1.541-.65 1.541-1.445m-3.428 0c0-.965.837-1.748 1.888-1.748 1.036 0 1.873.783 1.873 1.748 0 .969-.837 1.752-1.873 1.752-1.051 0-1.888-.784-1.888-1.752"/></svg>