<?xml version="1.0" encoding="utf-8"?>
<!-- Generator: Adobe Illustrator 16.0.4, SVG Export Plug-In . SVG Version: 6.00 Build 0)  -->
<!DOCTYPE svg PUBLIC "-//W3C//DTD SVG 1.1//EN" "http://www.w3.org/Graphics/SVG/1.1/DTD/svg11.dtd">
<svg version="1.1" id="Layer_1" xmlns="http://www.w3.org/2000/svg" xmlns:xlink="http://www.w3.org/1999/xlink" x="0px" y="0px"
	 width="38.532px" height="58.252px" viewBox="0 0 38.532 58.252" enable-background="new 0 0 38.532 58.252" xml:space="preserve">
<g>
	<g>
		<path d="M38.532,0v58.252H0V0H38.532"/>
	</g>
	<rect x="1.939" y="2.07" fill="#FFFFFF" width="34.376" height="9.658"/>
	<rect x="1.923" y="13.836" fill="#FFFFFF" width="34.396" height="35.51"/>
	<g>
		<polygon fill="#FFFFFF" points="1.93,56.15 1.93,51.436 8.835,51.436 8.835,52.539 4.704,52.539 4.704,53.213 8.201,53.213 
			8.201,54.312 4.704,54.312 4.704,55.051 8.996,55.051 8.996,56.15 		"/>
		<path fill="#FFFFFF" d="M14.863,52.809c-0.044-0.158-0.199-0.262-0.401-0.318c-0.197-0.061-0.442-0.088-0.716-0.088
			c-0.61,0-0.883,0.1-0.883,0.275c0,0.697,4.87,0.26,4.87,1.975c0,1.092-1.637,1.625-3.963,1.625c-2.235,0-3.691-0.727-3.75-1.578
			h2.656c0.06,0.17,0.225,0.291,0.46,0.371c0.223,0.078,0.514,0.119,0.789,0.119c0.693,0,1.155-0.123,1.155-0.346
			c0-0.715-4.873-0.225-4.873-2.021c0-1.002,1.553-1.504,3.671-1.504c2.35,0,3.421,0.666,3.624,1.49H14.863z"/>
		<path fill="#FFFFFF" d="M21.886,53.48h1.091c0.858,0,1.319-0.125,1.319-0.449c0-0.332-0.47-0.492-1.117-0.492h-1.293V53.48z
			 M21.886,54.508v1.643h-2.774v-4.715h3.999c2.818,0,3.749,0.432,3.749,1.348c0,0.545-0.434,0.998-1.422,1.156
			c0.893,0.18,1.435,0.291,1.435,1.242c0,0.613-0.036,0.826,0.293,0.826v0.143h-2.812c-0.069-0.105-0.139-0.406-0.139-0.824
			c0-0.619-0.188-0.818-1.481-0.818H21.886z"/>
		<path fill="#FFFFFF" d="M31.337,52.539v0.789h1.156c0.553,0,0.954-0.143,0.954-0.412c0-0.369-0.547-0.377-1.13-0.377H31.337z
			 M31.337,54.182v0.869h1.211c0.688,0,1.203-0.08,1.203-0.432c0-0.412-0.645-0.438-1.531-0.438H31.337z M28.565,56.15v-4.715h4.047
			c1.906,0,3.423,0.256,3.423,1.189c0,0.486-0.566,0.84-1.105,1.023c0.916,0.133,1.407,0.574,1.407,1.08
			c0,1.051-1.442,1.422-3.646,1.422H28.565z"/>
	</g>
	<polygon points="4.793,22.453 31.403,15.816 33.45,22.908 24.9,25.039 30.633,44.965 21.12,47.338 15.382,27.412 6.837,29.545 	"/>
	<g>
		<polygon points="28.243,4.162 30.502,4.162 33.124,7.146 33.033,5.898 33.033,4.162 35.343,4.162 35.343,9.627 33.086,9.627 
			30.46,6.65 30.504,7.94 30.553,9.627 28.243,9.627 		"/>
		<polygon points="20.103,4.162 26.095,4.162 26.095,5.432 22.51,5.432 22.51,6.219 25.543,6.219 25.543,7.494 22.51,7.494 
			22.51,8.35 26.238,8.35 26.238,9.627 20.103,9.627 		"/>
		<polygon points="11.68,4.162 17.673,4.162 17.673,5.432 14.088,5.432 14.088,6.219 17.12,6.219 17.12,7.494 14.088,7.494 
			14.088,8.35 17.818,8.35 17.818,9.627 11.68,9.627 		"/>
		<polygon points="2.894,4.162 9.633,4.162 9.633,5.596 7.471,5.596 7.471,9.627 5.057,9.627 5.057,5.596 2.894,5.596 		"/>
	</g>
	<path d="M33.381,46.35c0.322-0.008,0.4-0.141,0.4-0.291c0-0.154-0.078-0.238-0.354-0.238h-0.413v0.529H33.381z M33.014,46.674
		v0.883h-0.345v-2.061h0.717c0.405,0,0.819,0.105,0.819,0.57c0,0.236-0.148,0.428-0.444,0.484v0.006
		c0.299,0.055,0.339,0.188,0.373,0.408c0.032,0.193,0.055,0.408,0.13,0.592h-0.439c-0.026-0.113-0.06-0.25-0.072-0.367
		c-0.023-0.178-0.023-0.346-0.125-0.439c-0.088-0.076-0.203-0.066-0.323-0.076H33.014 M34.958,46.555
		c0-0.795-0.688-1.438-1.541-1.438c-0.859,0-1.556,0.643-1.556,1.438S32.558,48,33.417,48C34.271,48,34.958,47.35,34.958,46.555
		 M31.53,46.555c0-0.965,0.837-1.748,1.888-1.748c1.036,0,1.873,0.783,1.873,1.748c0,0.969-0.837,1.752-1.873,1.752
		C32.367,48.307,31.53,47.523,31.53,46.555"/>
</g>
</svg>
