<svg xmlns="http://www.w3.org/2000/svg" viewBox="0 0 169 230.357"><path fill="#FFF" d="M161.924 230.357l7.076-8.778v-27.77l-5.64-5.669h-20.146c.8-5.921-.133-15.055-13.492-16.431.03-.296 2.834-3.479-2.561-4.929-.696-.977-5.892-12.168-10.317-21.685 1.361-.696 2.243-1.806 2.161-3.449 0 0 1.629-.829 2.502-1.554 2.746-2.28 3.426-5.492 2.797-8.422.718.296 1.354.422 1.91.422 2.923 0 3.656-3.472 2.79-4.256 2.857-1.258 9.208-7.268 11.383-11.516 4.411-8.615-.621-15.942-5.536-19.376-5.787-5.196-13.189-10.214-20.109-12.464-3.493-1.14-6.469-2.028-8.674-2.709.118-.089.207-.193.207-.193.096-.059.348-.074.688-.074.355 0 .822.015 1.332.015 1.155 0 2.531-.089 3.338-.681 1.709-1.332.91-2.606.977-2.753v-.178c.969.4 1.991.599 2.953.599 2.221 0 4.167-1.066 4.67-3.22.281-1.288-.629-2.19-.725-3.271.755.096 1.621.466 2.598.466.244 0 .496-.022.755-.081 4.863-1.081 8.149-4.381 10.177-8.275.48-.888.844-1.954 1.117-3.035.037-.399.096-.814.111-1.199.118-.533.185-1.791-.111-2.235.037-1.037 1.769-2.502 2.324-3.286 1.51-2.146 3.293-6.602 2.25-10.451-.584-1.969-1.576-3.508-2.635-4.944-.688-.888-2.361-1.628-2.813-2.62-.126-.34-.037-.621-.126-1.036-.303-1.051-.503-2.221-.806-3.271-.925-2.798-1.658-5.552-2.798-8.142-4.352-10.05-10.732-18.251-21.16-22.277C105.586.556 102.433 0 99.324 0c-3.908 0-7.734.874-10.68 2.68-4.448 2.709-7.727 6.409-10.465 10.791-.844 1.303-1.517 2.738-2.221 4.13-.296.578-.415 1.317-.814 1.747-.562.459-1.539.503-2.235.814a16.16 16.16 0 0 0-2.783 1.657c-2.857 2.147-2.028 7.165.481 9 .57.444 1.14.947 1.761 1.303.362.237.999.385 1.258.696.104.37.252.666.311.992.163.296.474.637.578.932-.067.296-.148.503-.148.903-4.537.503-7.298 5.625-4.493 13.307 0 0-4.196 5.566-1.932 11.679-4.308-4.796-16.076-16.949-17.63-18.858-.651-.785-1.776-1.629-2.176-2.62-.029-.015.185-.666.281-.903.304-.725.955-2.043.585-3.212-.666-2.028-1.961-3.168-4.086-3.404.363-1.214.296-4.693-.177-6.217-.333-1.051-.814-2.546-.622-3.775.474-2.694 1.865-4.307 2.635-6.616.711-2.176-.333-3.612-1.836-4.382a5.563 5.563 0 0 0-1.842-.606 2.88 2.88 0 0 0-.465-.038c-.94 0-1.968.377-2.494.614-2.487 1.125-3.996 2.946-5.144 5.196-.348.666-.415 1.732-.903 2.28-.459.547-1.688 1.021-2.302 1.495-.941.755-1.747 2.073-2.938 2.531-1.088.437-2.228.607-3.345.607-1.672 0-3.323-.363-4.76-.711-1.961-.488-3.908-.592-5.95-.932a9.33 9.33 0 0 0-1.495-.126c-2.598 0-4.877 1.132-5.684 2.775-3.182.118-6.18.918-5.936 4.189-3.789 2.117-.118 6.824 1.495 8.719.599.459 1.154.903 1.746 1.377.696.606 1.288 1.465 2.073 1.983 1.058.681 2.109 1.258 3.168 1.909.762.444 1.384 1.244 2.168 1.717 1.191.711 2.465 1.332 3.693 1.954 1.813.696 3.626 1.421 5.403 2.087.977.355 2.124.459 2.909.963.407.547.333 1.583.629 2.205.54 1.05 1.687 1.717 2.909 1.983h1.339c.045.008.118.008.214.008.733 0 2.82-.141 3.072-.363.778 0 15.246 21.131 25.594 34.712v.873c-.2.444-.799.829-.925 1.362-.141.415.155.681 0 1.006-.318.562-.866 1.125-1.229 1.673-.999 1.717-1.828 3.642-2.612 5.521-.851 1.999-7.787 19.613 3.426 32.166.629 1.939.703 3.967 1.266 5.965 1.207 4.263 1.814 8.911 3.013 13.145.37 1.258.37 2.368.732 3.611.97 3.405 1.458 7.105 2.494 10.51.067.325.289 1.361.43 2.265h-.052c-1.503 0-2.753 1.051-2.753 2.339 0 .474.244.947.562 1.332a16.481 16.481 0 0 0-2.243-.149c-4.788 0-8.882 2.154-10.214 6.75-1.199 4.115.171 9.073 3.138 12.597H16.357l-5.684 5.669v27.77l7.082 8.778h144.169zm-41.883-119.678l-5.447 5.003c-.489-.296-1.036-.385-1.547-.385a57.913 57.913 0 0 0-1.155-6.838l8.149 2.22zm-18.407 60.971c.466 2.339-.792 2.19-.792 4.204 0 1.495.762 2.117 1.562 2.65-.696 3.094-.918 7.194.148 9.637h-9.436v-1.673c.074-.163.452-.282.614-.415.208-.149.481-.577.644-.784.851-1.244 2.294-6.588.518-7.993.155-.4.481-.74.696-1.185.399-.281.769-.637.947-1.125.399-1.377-.711-2.975-2.539-3.671-.2-.562-.37-1.14-.584-1.747-1.525-4.603-7.372-25.504-7.372-25.504.281 1.006 15.261 26.022 15.594 27.606z"/></svg>
