<svg xmlns="http://www.w3.org/2000/svg" width="190" height="172.979" viewBox="-7 0 190 172.979"><path d="M173.664 116.537c-6.34 7.008-16.598 6.83-21.536 4.928-7.693-2.964-14.464-9.49-17.571-33.002 0 0-9.6 1.308-12.816 1.637a55.874 55.874 0 0 0-1.197-7.802l12.616-1.868c-2.905-20.362-5.381-34.642 11.083-40.386 14.294-4.985 23.83 6 25.554 12.798 2.273 8.972-.101 15.823-5.102 21.255l1.327 9.376c4.665 1.029 10.119 6.771 11.585 11.216 2.955 8.969.492 16.944-3.943 21.848zm-55.526-15.705c-2.152 20.355-20.364 44.168-49.797 44.711-19.755.367-50.95-14.666-51.223-51.007-.216-28.79 24.538-50.49 49.986-50.437 29.124.062 54.501 23.95 51.034 56.733zm-1.981 38.114c2.958-.921 7.663-1.588 10.685.678 3.537 2.653 4.15 10.045 0 16.837-3.33 5.449-11.283 13.99-20.328 12.387-1.521-.271-8.805-4.191-6.174-13.39.849-2.963 4.022-8.583 10.06-13.25l-6.263-7.433a54.781 54.781 0 0 0 4.056-4.188l7.964 8.359zm-90.904 6.424c.915 3.18.867 10.405-2.457 12.622-4.945 3.297-10.453 1.396-16.353-3.832-4.779-4.236-11.357-13.739-8.504-22.471.48-1.469 5.52-9.336 14.259-5.443 2.815 1.256 6.775 6.23 10.55 12.861l6.645-5.854a54.388 54.388 0 0 0 4.435 3.905l-8.575 8.212zM56.562 33.722c.484-1.649 1.503-1.746 6.791-2.183 10.25-.847 20.438 1.389 25.465 3.201 4.171 1.504 5.1 2.304 4.754 4.657-.168 1.147-.596 4.453-.988 6.866-6.586-3.463-13.692-5.488-20.656-5.853-5.75-.302-11.177.187-16.247 1.316.136-3.006.33-6.118.881-8.004zM81.645 7.985c.71-1.088.83-1.389 2.746.095 2.489 1.927 1.961.833-.094 4.734-.631 1.198-3.673 6.147-5.932 15.472a87.569 87.569 0 0 0-4.722-.508c2.407-10.93 7.24-18.627 8.002-19.793zm87.534 72.827l-.577-5.622c10.544-13.528 4.663-25.771 3.035-29.043-4.048-8.141-16.373-16.611-31.104-9.352-13.901 6.851-15.404 17.913-11.473 40.268l-9.514 1.564c-3.99-13.079-12.574-23.399-22.912-30.008 1.359-13.531 4.269-13.615-7.962-18.049-1.731-.628-4.098-1.23-6.852-1.734 1.475-7.955 5.62-15.4 9.355-20.538 1.892-2.601.946-3.074-.662-4.304-.653-.5-3.508-2.81-4.46-3.354-1.83-1.045-2.208-.95-4.052 1.32-1.083 1.333-7.329 8.485-12.029 25.598a80.28 80.28 0 0 0-6.619.003c-11.3.493-11.003 2.336-12.44 15.436-22.75 7.246-37.021 28.21-37.427 50.487-.285 15.585 5.323 27.87 13.035 36.717l-3.068 3.122c-3.114-5.569-6.195-10.162-11.447-11.848-11.337-3.639-22.422 6.084-18.016 20.377 1.703 5.525 5.136 11.592 11.088 16.247 2.448 1.915 10.444 8.466 18.441 4.082 3.927-2.153 6.466-6.905 6.021-15.657l7.673-6.914c.514.344 1.029.68 1.546.999 9.558 5.905 20.609 8.169 29.096 8.132 13.716-.059 24.96-4.672 33.583-11.638l4.244 4.964c-5.077 3.863-8.794 9.369-9.643 14.152-2.081 11.725 7.803 20.883 20.881 14.846 6.313-2.913 10.198-7.283 14.014-13.805.408-.699 5.689-11.586.625-18.315-1.721-2.285-5.897-6.173-14.5-4.509l-6.418-6.842c7.107-9.385 10.945-20.553 11.283-30.588.035-1.021.042-2.031.025-3.03l9.496-1.202c3.88 29.02 17.894 33.167 24.738 33.878 14.021 1.456 22.312-6.214 25.746-15.82 1.606-4.489 3.713-22.23-12.75-30.02zm-9.576 27.127c-2.979.248-5.765-1.945-6.012-4.925-.249-2.979 2.13-5.67 5.106-5.948 2.912-.271 5.572 2.053 5.82 5.033.249 2.98-1.935 5.592-4.914 5.84zm-1.287-14.744c-5.33.474-8.913 5.041-8.492 10.098.422 5.059 5.01 8.855 10.068 8.436 5.059-.422 8.994-4.937 8.572-9.995-.419-5.059-5.091-8.988-10.148-8.539zm-12.812-34.153c-.248-2.979 2.171-5.646 5.15-5.894 2.98-.248 5.471 2.009 5.719 4.989.249 2.98-1.938 5.655-4.918 5.903s-5.703-2.019-5.951-4.998zm6.302 8.713c5.059-.421 8.995-4.936 8.573-9.995-.421-5.058-5.053-8.9-10.111-8.479-5.059.421-8.949 4.973-8.527 10.032.419 5.059 5.005 8.864 10.065 8.442zM37.119 80.137c-1.598 6.799-4.439 11.158-6.546 12.463-.55.34-1.028.466-1.42.373-.493-.115-.883-.604-1.124-.992-1.342-2.167-1.983-7.391-.389-14.176 1.609-6.851 4.625-11.384 6.747-12.698.38-.236.931-.492 1.403-.382 1.232.29 2.298 3.166 2.298 7.563-.001 2.261-.283 4.926-.969 7.849zm-.638-18.359c-1.171-.275-2.446-.014-3.688.754-3.323 2.059-6.502 7.781-8.099 14.579-1.577 6.709-1.277 13.171.762 16.462.778 1.256 1.816 2.066 3.004 2.346 1.184.278 2.467.02 3.707-.747 3.268-2.023 6.295-7.519 7.899-14.344 1.964-8.364 1.376-17.884-3.585-19.05zm28.406 20.178c-1.202 6.108-3.781 11.373-6.418 13.097-.665.436-1.275.596-1.813.477-2.446-.541-3.892-7.039-2.147-15.851 1.229-6.201 3.804-11.501 6.411-13.189.619-.4 1.183-.545 1.678-.432 2.165.497 4.084 6.786 2.289 15.898zm-1.612-18.849c-1.305-.3-2.687-.008-4.001.841-3.351 2.17-6.315 7.972-7.735 15.142-2.056 10.383-.222 18.359 4.462 19.394 1.346.298 2.771-.013 4.125-.898 3.377-2.211 6.339-7.976 7.731-15.046a38.88 38.88 0 0 0 .74-7.4c0-5.994-1.596-11.176-5.322-12.033zm43.952 10.751c3.416 6.145 4.896 13.258 4.896 20.214 0 9.34-2.653 18.365-6.769 24.369L94.7 112.662c3.066-6.311 4.107-12.498 4.107-17.948 0-7.927-2.154-14.252-3.365-17.187l11.785-3.669zM94.16 77.394c1.847 4.268 7.254 19.42-.705 35.258l-.247.492 12.511 6.785.291-.408c7.825-10.981 10.711-31.425 1.992-46.628l-.226-.395-13.866 4.316.25.58z" opacity=".1"/></svg>
