<svg xmlns="http://www.w3.org/2000/svg" width="496.809" height="395.955" viewBox="0 0.045 496.809 395.955"><path d="M109.73 178.937c-3.344-1.622-8.082 3.175-8.398 8.506-.036.61.073.599.489.107 1.289-1.515 3.974-5.741 6.61-5.309 1.351.222 1.886 1.663 1.814 3.188-.006.153.201.158.31-.001 1.692-2.523 1.018-5.598-.825-6.491zm-27.511 2.4c-1 .42-1.333 4.047.127 5.667.301.334.399.227.351-.105-.13-.892.27-1.586.94-1.744.905-.213 2.167 1.263 3.169 3.983.125.338.326.332.316-.087-.1-4.12-2.636-8.663-4.903-7.714zm373.744 101.308c-2.994.374-6.256-2.273-7.197-6.059 1.81-2.229 2.91-4.559 2.946-6.024a1.66 1.66 0 0 0-.158-.675c5.767-1.592 12.771 3.189 12.882 4.118.112.958-4.695 8.167-8.473 8.64zm-28.652-16.057c.13 1.086-4.408 8.027-7.242 8.973-4.995 1.666-8.761-.705-10.312-4.527-1.533-3.777.646-8.4 2.599-9.17 5.98-2.362 14.825 3.636 14.955 4.724zm20.465 25.346c-4.35 9.557-10.516 14.609-18.786 19.687 1.688-3.189 2.084-6.815 1.153-9.847-3.133-10.225-22.066-15.219-42.696-3.834-15.08 8.32-21.475 20.715-20.59 28.629.544 4.869 4.011 8.689 10.443 10.23-3.679-.265-7.309-1.002-10.799-2.315-7.307-2.747-12.71-8.286-15.629-16.021-3.958-10.482-2.672-24.797 1.97-35.857 1.27-3.019 0-1.771-.942-.746-1.774 1.92-3.337 4.732-4.58 8.049-3.142-6.516-5.042-15.184-4.306-25.568.749-10.582 3.771-22.155 7.942-29.555 1.194-2.118-.086-1.43-2.046.631-2.327 2.44-4.552 6.668-6.344 11.669-9.015-12.215-14.653-17.171-23.282-24.013a32.91 32.91 0 0 0 3.77-5.537c5.061-1.528 10.944-5.748 15.459-11.927 2.419.265 5.094-.42 7.846-1.737 1.9.527 4.844.971 7.786 1.26-5.356 3.898-9.539 8.242-12.006 12.18-1.531 2.443-2.641 4.598.789 1.417 14.167-13.146 37.229-25.898 59.964-22.461 11.082 1.675 20.339 7.364 25.766 15.538.158 2.562-.799 5.008-3.14 5.27-5.517.619-6.648-7.398-6.903-9.348.041-1.143-.136-1.359-.713.257-.418 1.173-1.77 4.763-5.252 4.369-5.517-.624-5.75-8.397-5.776-8.923-.069-1.351-.397-.826-.602.302-.688 3.817-.059 10.901 6.494 11.396 2.928.22 4.427-2.025 5.17-4.118.381 3.119 2.02 7.206 5.581 8.216-.121 2.804-1.994 5.65-5.672 5.289-3.604-.354-5.195-5.077-5.669-6.906-.184-.709-.468-.786-.53.174-.153 2.379.413 8.562 6.199 9.211 2.972.335 5.045-1.617 6.22-3.811.259 5.179 2.823 7.621 4.878 7.915 2.479.354 3.832-1.949 3.838-2.923.005-.973-.15-1.023-.474-.473-.413.709-1.594 1.24-3.129 1.063-2.963-.342-4.236-4.474-3.839-9.312.156-.002.312-.004.476-.017 2.388-.189 4.069-2.364 4.209-5.37 6.004 10.933 5.737 25.703-.769 42.828-.768.103-1.525.288-2.26.562-1.438.535-3.386 1.73-1.733 1.73 5.445 0 9.206 1.238 11.667 3.987-1.506-.026-3.009.142-4.444.575-.765.23-1.467.83-2.062 1.666-1.042-1.814-4.337-4.195-8.382-5.613-.991-2.588-3.772-4.526-6.646-5.504-5.991-2.038-13.433-.03-17.564 3.748-1.049.959-3.067 3.424-.116 1.889 3.637-1.892 13.345-4.816 17.97-1.344-1.553-.034-3.104.139-4.59.596-4.092 1.26-6.648 8.822-4.289 13.618 1.782 3.623 6.636 7.528 13.449 5.853-.676 1.784-1.946 3.032-3.059 4.064-1.654 1.535-.235 1.379 2.243.553 1.805-.603 4.709-2.206 5.477-6.887 1.379-1.129 2.615-2.59 3.594-4.102.021 1.449.3 2.877.899 4.098 1.806 3.671 6.635 6.787 10.104 6.182a9.91 9.91 0 0 0 .612-.126c-1.151 3.093-3.372 4.425-5.1 5.401-1.966 1.107-1.188 1.317 1.417 1.1 1.783-.147 6.795-1.703 8.143-8.504.667-.446 1.3-.939 1.895-1.465 1.801 4.305 4.828 6.399 8.541 6.508.361.01.731-.02 1.104-.082-1.178 2.532-3.689 5.429-8.349 6.536zm-22.387 21.833l-.002.002-.307.406c-6.512 8.645-17.112 16.21-28.783 20.054-10.472 3.039-25.668 1.229-26.253-7.816-.639-9.877 8.305-20.152 18.806-25.838 17.646-9.556 35.548-8.09 39.24 2.312 1.222 3.445-.35 7.521-2.701 10.88zm-80.415-14.865c-12.078 2.775-24.218 3.451-35.585 2.917 4.594-1.077 9.258-2.792 13.465-5.163 6.427-3.621 12.793-8.646 17.125-13.504 1.193 4.757 3.085 8.979 5.639 12.48a52.513 52.513 0 0 0-.644 3.27zm-43.707 2.326c-11.552-1.128-22.013-3.359-30.388-5.651 11.121-.792 23.976-5.437 34.111-11.669 13.12-8.052 24.345-18.94 31.026-29.233 2.03-3.29 1.545-3.571-.958-.732-8.358 9.22-21.887 21.305-33.221 27.758-10.243 5.834-25.305 11.043-37.059 12.094-.992-.311-1.949-.616-2.852-.914-9.648-3.195-18.687-7.113-26.594-11.395 10.854.969 31.337-4.169 45.037-11.92 16.074-8.917 30.151-21.19 38.724-33.115 2.559-3.865 2.062-4.132-.94-.758-9.913 10.34-20.332 20.779-39.224 30.855-18.355 9.791-36.738 12.893-47.442 12.775-8.182-4.778-14.915-9.914-19.523-14.945 13.624 1.13 32.819-4.925 47.595-13.165 12.57-7.071 24.359-16.454 31.558-26.907-.082 6.82 2.592 12.812 4.266 13.472 2.251.886 9.834-3.456 14.688-8.247 2.14-.522 4.253-1.75 6.203-3.416 8.954 7.089 15.326 12.635 24.808 25.653-1.096 3.933-1.908 8.118-2.301 12.164-.539 5.569-.375 10.854.448 15.686-6.736 8.276-21.064 18.407-37.962 21.61zm-34.497 24.356c-2.205.473-1.605.831 2.479 1.141 4 .304 11.846-.594 20.244-3.957 2.283 4.275 5.684 13.185 7.23 21.728 6.059 5.53 8.6 10.665 8.805 16.153.172 4.561-1.531 8.875-4.922 12.479-4.428 4.703-15.18 8.189-31.17 9.773-6.892 3.531-29.309 11.32-42.701 8.174.527-2.326-.15-5.865-2.118-9.405-3.54-6.376-11.8-9.435-12.948-8.734-.338.207-.675.444-1.012.696.32-1.27.855-2.472 1.595-3.512 1.417-1.994 3.333-3.488 5.519-4.036 1.416-.354 1.18-.707-.592-1.298-2.137-.714-5.864.197-8.225 3.029-1.207 1.449-1.842 3.156-1.979 5.023-3.026-3.164-6.867-4.539-9.334-3.209a7.34 7.34 0 0 1 1-3.584c1.299-2.242 3.543-3.779 5.904-4.488 2.281-.684 1.59-1.082-.355-1.18-2.36-.119-5.72.654-8.161 3.09-.542.541-1.165 1.457-1.682 2.525-1.979-1.767-4.285-2.775-5.968-2.805-.51-4.512 4.885-8.126 9.134-7.913 1.83-2.724 4.748-5.827 7.105-7.06 5.784 2.353 11.529 3.893 15.276 4.291 2.999.318 3.857-.119 1.889-.827-9.278-3.341-22.041-8.721-29.506-15.506-2.992-2.721-5.332-5.511-7.071-8.451 1.276.464 2.745.54 3.854-.156 2.339-1.47 2.339-4.46 1.947-5.799-.325-1.101-.632-1.034-.71-.079-.158 1.969-.676 3.242-2.125 3.7-1.981.626-3.7-.283-4.93-1.687a27.32 27.32 0 0 1-1.559-5.877c1.638-.777 2.812-2.896 3.359-5.068.389 2.441 1.988 6.502 6.828 6.65 5.115.156 6.613-6.613 5.747-9.683-.219-.773-.518-1.261-.552-.077-.08 2.676-1.573 7.476-5.037 7.318-3.496-.158-5.758-3.752-6.65-7.097a6.624 6.624 0 0 0-.119-1.09c-.166-.784-.483-1.417-.552 0-.066 1.409-1.165 5.152-3.291 6.571-.251-3.77.152-7.839 1.165-12.318 2.758-12.178 13.121-22.346 28.255-33.546 10.407 10.626 28.188 21.553 49.438 28.588 10.137 3.356 27.113 7.214 45.688 8.205-10.889 12.137-29.546 17.24-39.192 19.308zm-44.987 64.94c-3.07 1.536-17.072 2.737-17.891 1.024-1.002-2.086 6.055-13.797 8.326-14.483 3.202-.972 6.899 2.558 9.211 5.548 2.007 2.598 2.007 7.084.354 7.911zm-30.535-4.717c-.931-1.502 4.847-12.575 7.918-13.4 3.005-.811 5.258 2.035 7.191 4.867.1.143.189.295.284.443-2.009 2.557-3.784 5.594-5.021 8.377-4.407.509-9.785.662-10.372-.287zm-9.453-6.971c-.786-2.44 5.014-11.775 6.81-12.319 1.751-.53 3.673.728 4.87 1.944-.342 1.544-.265 3.08.662 4.11-1.734 1.917-3.318 4.331-4.557 6.71-3.518.336-7.519.374-7.785-.445zm2.047-149.38a88.652 88.652 0 0 0-.432 4.104c-3.367-1.158-7.113-2.022-10.962-2.579-.231-4.641.673-12.027 1.713-12.254 1.075-.233 5.716 4.617 9.681 10.729zm4.962-21.363a111.224 111.224 0 0 0-2.635 9.005c-2.615-3.456-6.028-8.199-5.712-8.918.383-.866 5.276-.825 8.347-.087zm7.848-17.219a81.712 81.712 0 0 0-3.867 7.298c-2.302-3.435-4.074-7.926-3.59-8.726.401-.663 4.557.512 7.457 1.428zm-11.607-10.16a52.055 52.055 0 0 0 2.773-10.094c3.268 3.859 8.141 11.007 7.516 12.567-.239.599-6.447-1.183-10.289-2.473zm-9.962 16.663a60.938 60.938 0 0 0 5.423-7.5c2.09 4.804 4.183 9.988 3.611 10.667-.583.692-5.527-1.149-9.034-3.167zm-22.643 17.045a53.957 53.957 0 0 0 3.04-1.442 63.478 63.478 0 0 0 8.314-5.12c.475 5.758.12 15.248-.812 15.592-1.029.38-6.466-4.404-10.542-9.03zm11.802 12.336c1.618-.543 3.373-8.714 2.689-21.326a64.075 64.075 0 0 0 5.871-5.498c4.424 2.196 12.561 3.908 13.5 2.6.932-1.299-1.247-9.994-3.961-15.89.182-.345.355-.691.53-1.038a40.431 40.431 0 0 1 2.853-1.479c4.804 1.251 11.113 1.734 11.5.479.229-.746.102-1.98-.31-3.493a33.74 33.74 0 0 1 3.985-.078c.282.97.504 1.875.666 2.682a63.767 63.767 0 0 0-3.311 4.601c-4.231-.989-10.775-1.704-11.484-.763-1.008 1.337.678 8.418 4.528 13.966a98.224 98.224 0 0 0-1.509 3.812c-4.204-.416-11.432-.315-12.167 1.353-.77 1.741 3.145 8.089 7.655 14.297a109.388 109.388 0 0 0-.677 3.489c-4.507-5.953-10.431-10.041-11.858-9.52-1.854.673-3.941 9.564-3.996 15.584-5.012-.469-10.041-.432-14.477.135a51.051 51.051 0 0 0-9.008 1.966 34.864 34.864 0 0 0-2.39-3.119c.348-4.612 2.144-9.792 5.556-13.513.164-.058.328-.114.492-.174 6.607 8.556 14.212 11.3 15.323 10.927zm-22.137 7.02c-3.586 1.446-6.682 3.254-9.218 5.299-.867-5.028-1.212-13.296-.133-13.896 1.114-.615 5.898 3.663 9.351 8.597zm65.731 22.124c-12.01 15.227-46.27 10.369-60.439 1.555-2.595-1.615-1.15.662 1.574 3.147.308.279.641.558.991.831-3.385 9.48-18.127 11.898-25.633 3.168-7.631-8.879-4.078-20.736 3.547-30.605 0 0-1.904-9.629-5.145-15.573a53.11 53.11 0 0 0 10.435.546c.326.801.494 1.925.682 3.117-1.084-.502-1.965-.7-2.509-.525-2.152.689-3.057 8.477-1.107 19.939a22.936 22.936 0 0 0-2.986 3.832c-1.807 2.946-3.325 8.644-.473 4.564 12.439-17.79 43.608-20.465 67.696-8.5 1.018.506 2.109.271-1.574-2.834-1.46-1.232-3.246-2.329-5.264-3.293 1.145-14.887 6.324-35.613 17.85-49.674l.621-.759-.174-.964c-2.824-15.689-11.301-24.065-21.22-24.773-2.355-.169-7.657 1.065-4.133 1.652 1.799.3 3.456.785 4.983 1.415-1.697 19.502-14.08 37.992-31.982 47.083-10.338 5.248-22.937 7.302-34.802 5.477-4.938-.759-11.024-3.404-13.307-7.688-.199-.375-.561-.666-.597-.035-.109 1.986 1.174 3.96 3.218 5.684-3.773 1.292-9.411 2.096-15.163.372-5.825-1.743-15.647-7.699-20.613-17.638-5.545-11.1-3.797-23.844 1.316-28.786 2.695-2.605 6.236-3.106 10.325-1.506-3.252 3.989-4.985 8.986-4.095 13.767.309 1.668 1.171 3.773 1.338.944.315-5.353 4.34-13.75 12.708-17.109 11.693-4.694 26.176 1.367 32.947 12.702 1.065 1.784 1.265.413.865-1.103a17.9 17.9 0 0 0-2.083-4.813c5.43-2.705 16.501-3.922 27.513.286 5.467-14.01 13.49-25.983 24.635-31.875 9.764-5.159 21.497-5.824 31.39-1.777 8.383 3.429 13.885 10.287 14.886 18.442-3.105 5.321-5.953 12.675-5.545 19.123.201 3.171 1.683 6.483 4.015 8.8.087 1.949.536 4.109 1.176 6.165-1.221 1.568-2.136 3.539-2.759 5.78-1.963 1.618-4.133 2.794-5.269 3.457l-1.079.629.023 1.249c.164 8.13-.762 21.514-7.73 30.367l-.822 1.044.58 1.196c1.761 3.635 7.05 16.064 1.189 23.497zM32.47 266.271c3.779-2.203 7.347-2.349 8.66-.786 2.48 2.95 2.867 14.71 1.417 15.82-2.362 1.812-11.651-3.069-14.562-6.925-1.484-1.966 1.827-6.556 4.485-8.109zm91.771 17.451c6.086 9.3 4.981 24.214.395 31.885-.892 1.493-2.166 3.119-3.855 4.179-1.244-2.319-4.763-4.637-8.854-5.738-5.384-1.449-11.47-.732-12.229 2.037-.009.034-.016.07-.024.105a9.014 9.014 0 0 1-1.277-1.705c-2.206-3.736-2.362-10.626-.236-19.008.504-1.984.205-2.06-1.299-.236-1.584 1.921-2.751 5.04-3.382 8.396-2.155-1.57-4.634-4.373-4.883-7.689-.201-2.688-.896-1.689-1.18.236-.941 6.396 2.853 10.357 5.549 12.012a25.485 25.485 0 0 0 .121 3.762c-11.715 11.541-26.76 10.62-36.537 8.816 0 0-2.634 3.146-5.979 7.061-.481-.322-.98-.623-1.502-.896.161-.115.302-.234.406-.369 1.74-2.24-.053-10.364-2.979-15.39 2.426-4.489 2.447-8.595.774-12.869-.486-1.247-1.336-2.466-2.411-3.604 3.401-8.068 10.233-17.817 17.369-24.496 1.73-1.621.849-1.873-1.892-.316-7.588 4.316-14.328 13.129-18.368 22.325-2.3-1.63-4.98-2.878-7.448-3.433-3.466-.78-5.015-.652-2.835.551 4.564 2.519 8.974 6.258 10.98 9.682 1.514 2.582 1.599 5.544.492 8.514-2.556-1.021-6.754 1.055-10.228 4.118-3.729 3.289-5.424 8.224-4.17 10.706-4.127.631-8.478-.553-12.504-3.188-6.745-4.414-11.356-12.104-11.97-20.231-.653-8.647 6.765-18.153 11.711-22.628 3.237 3.083 7.057 4.757 12.77 3.695 5.451 3.512 13.666 5.355 15.354 3.9 1.783-1.535 2.686-7.297 2.177-12.593 2.393-2.991 3.887-6.972 3.963-11.021.132-7.095-3.936-13.067-8.499-16.374-1.813-1.312-3.761-2.22-1.733.158 3.62 4.251 6.406 9.726 6.297 15.586-.026 1.451-.507 3.631-1.401 5.704a9.624 9.624 0 0 0-.959-1.769c-1.823-2.585-7.76-2.443-12.28 0-5.825 3.149-8.659 9.446-7.24 12.156.044.082.097.163.145.245-4.891-.261-7.389-4.558-9.071-6.778-4.614-6.096-7.413-17.058-4.449-24.518 2.326-5.855 6.258-9.805 11.689-11.738 7.124-2.537 16.844-1.508 24.974 3.365 6.625 3.968 12.292 8.689 16.384 14.043 1.71 2.238 1.977 1.943 1.574-.118a13.375 13.375 0 0 0-.618-2.141c17.74-1.989 35.688 11.323 39.937 23.63-1.004.296-2.126.775.59 1.182 7.909 1.179 14.829 4.971 18.641 10.797zm-6.244 38.32c-1.096 3.655-10.074 11.655-12.279 10.628-1.771-.827-3.826-10.082-3.189-15.115.279-2.188 5.668-1.77 8.622-.871 3.05.929 7.554 2.996 6.846 5.358zm-60.965 33.179c-1.262 1.259-10.629.863-14.169-1.89-1.676-1.301.645-6.181 2.25-8.256 1.528-1.978 5.481-3.514 6.882-2.45 2.641 2.015 6.138 11.493 5.037 12.596zm-21.743-41.819c2.173-1.754 6.287-4.109 7.73-2.734 2.729 2.596 5.435 13.143 4.25 14.326-1.889 1.889-11.16-.188-14.808-3.727-1.725-1.675.489-5.976 2.828-7.865zm-2.086 40.727c-7.028-1.742-12.545-8.512-15.058-12.447-4.231-6.631-5.667-12.352-3.452-18.438 5.475 3.381 12.499 4.36 18.49 2.446 3.349 1.497 7.618 2.246 10.982 2.234 4.87 1.929 9.124 5.972 8.021 11.25-2.508-.612-6.473 1.273-9.246 4.317-2.902 3.185-4.632 8.366-3.676 10.826-1.716.615-3.113.544-6.061-.188zm9.659-125.799c.388-.645 4.407-1.339 8.895-1.377a50.393 50.393 0 0 0-3.474 4.861 42.72 42.72 0 0 0-5.667-2.386c-.001-.414.067-.797.246-1.098zm70.312 43.726a29.974 29.974 0 0 0-4.663-.628c-2.557-7.359-9.288-15.152-17.239-20.309-8.842-5.734-20.108-7.909-27.844-6.265-1.374-2.185-3.209-4.26-5.219-6.118 10.85-2.307 23.97-.206 34.717 6.283 11.467 6.924 18.371 18.405 20.248 27.037zm2.568-55.242c.654.222 1.314.418 1.974.589.33.085.661.166.995.245 2.487 4.984 4.769 11.228 6.174 15.721a65.178 65.178 0 0 0-3.591 5.033c-2.674-4.206-5.766-7.654-9.115-10.473 1.485-2.986 2.93-7.05 3.563-11.115zm-7.679 11.778c-1.398.137-4.731-5.925-6.604-11.322 3.968-.144 7.598-1.053 10.004-2.314.346.186.699.368 1.059.543-.753 5.554-3.338 12.981-4.459 13.093zm8.294 28.846c-4.182-2.752-5.929-9.531-3.438-13.521.599-.958 3.501-.98 5.644-.589-2.145 4.606-3.122 9.318-2.206 14.11zm-56.335-33.829a40.77 40.77 0 0 1 10.556-3.247c-1.839 2.175-3.213 4.2-3.393 5.254-.727 4.247 3.701 8.577 11.611 9.523 6.733.804 12.416-1.746 12.831-5.038.266-2.119-1.117-5.681-3.004-9.09a55.02 55.02 0 0 1 12.823 4.63c2.791 4.663 5.734 6.915 7.064 6.939.431.009 1.025-.489 1.691-1.357 3.533 2.811 6.388 5.919 8.303 9.063-3.277-.832-6.371-.488-7.632 1.111-3.86 4.899-1.555 16.799 6.513 19.588.84 2.146 2.084 4.308 3.802 6.482a16.775 16.775 0 0 0 2.514 2.545 111.386 111.386 0 0 1-3.057 4.912 24.493 24.493 0 0 0-5.247-2.299c-1.995-9.312-9.937-22.428-21.869-29.369-12.796-7.445-25.572-8.793-37.112-6.09a45.805 45.805 0 0 0-5.237-3.744c2.66-4.197 5.618-7.705 8.843-9.813zm28.544 5.645c-.678 2.068-4.076 4.018-9.495 3.327-6.495-.825-9.053-4.604-8.816-6.492.181-1.448 8.502-10.825 10.39-10.825 1.89 0 8.475 12.299 7.921 13.99zm-10.85-21.007c4.528 3.646 9.849 6.452 14.896 7.962 1.664.498 3.386.801 5.099.954a45.62 45.62 0 0 0 1.042 2.944c-4.208-1.596-8.487-2.572-12.62-3.093-2-2.861-4.037-5.002-5.133-5.056-1.426-.071-4.242 2.061-6.961 4.703-1.5.1-2.931.251-4.279.439 2.243-3.273 5.207-6.229 7.956-8.853zm14.249-51.412l1.721-.458-.467-1.718c-.838-3.07-1.834-9.773-.722-15.78 1.338.255 2.36 1.217 3.417 2.512-1.369 2.115-1.872 5.305-1.358 8.899.395 2.745 1.319 5.247 2.566 7.101a21.437 21.437 0 0 0-4.79 1.392 21.848 21.848 0 0 0-5.686 3.578 21.229 21.229 0 0 0-2.16-.859c2.335-2.394 4.84-3.962 7.479-4.667zm-4.471-19.539c-.512-1.795-.195-5.471.472-8.068.198-.412.276-.669-.158-.512-1.495.472-3.424 1.928-4.566 3.188-.51-2.48 1.417-8.935 5.866-11.415.614-.343.471-.368.039-.393-.668-.04-1.417.039-2.4.393.866-2.283 3.701-5.469 6.809-5.509 3.031-.04 4.926 2.149 5.984 4.683 1.968 4.722 1.952 11.751 6.848 15.096-1.09 3.811-1.437 7.911-1.048 11.622-5.618-2.357-7.958-11.47-13.947-11.015-1.372.105-2.704.801-3.899 1.93zm-12.045-47.85c.437-9.366 4.066-17.929 7.47-22.259 1.204-1.533 1.944-2.106 2.394-1.794.45.312.427.691.228 2.281C84.077 79.386 89.249 91.04 98.949 98.7c-4.604 2.725-9.229 8.125-11.726 16.305a14.904 14.904 0 0 0-2.24 2.329c-8.382-9.421-9.874-20.631-9.534-27.888zm32.055 10.14c-3.959 4.025-7.333 8.597-9.939 13.556-1.286-.576-2.834-.866-4.718-.759-.088.005-.178.016-.268.025 3.464-9.331 11.236-14.048 14.925-12.822zm-7.675 51.703c.199 1.373.925 2.615 1.988 3.407.952.71 2.095.988 3.227.845 1.08-.137 1.882-.547 2.605-1.401.816 1.399 1.835 2.534 3.052 3.311-.087.323-.2.649-.332.971-3.336-1.034-6.833-1.527-10.215-1.363-1.383-1.542-2.484-4.204-2.909-7.168-.34-2.376-.178-4.609.411-6.242.915 1.18 1.961 2.434 3.292 3.596-.893 1.066-1.34 2.543-1.119 4.044zm4.746 1.631c.855 0 1.589-.492 1.955-1.204.206.562.432 1.102.686 1.611-.6.834-1.436 1.134-2.303 1.318-.88.188-1.797-.109-2.556-.674-.872-.651-1.467-1.676-1.633-2.813-.182-1.247.185-2.469.919-3.34.501.395 1.044.773 1.63 1.129a2.2 2.2 0 0 0 1.302 3.973zm24.28-62.803c11.123-4.666 23.318-5.547 35.77-2.684-1.702 2.166-2.242 4.912-2.06 7.045-2.383-.275-4.833-.181-7.218.351-13.287 2.965-21.018 20.859-25.831 31.482l-.027.06c-2.193 4.84-3.925 6.917-5.236 6.989-1.583.087-2.558-1.101-2.835-2.833-.173-1.091-.155-1.415-1.179.434-2.833 5.116-3.937 15.327-.63 19.836.774 1.055 1.615 1.862 2.538 2.46-1.44 2.169-5.056 3.876-8.639 2.184-9.415-4.445-4.918-22.906-1.063-29.597 1.62-2.809 1.227-2.794-.865-.629-1.607 1.665-2.906 3.715-3.906 5.972-3.149-.576-3.318-7.159-5.362-12.514-.485-1.271-1.118-2.431-1.942-3.403 6.618-11.293 16.68-20.2 28.485-25.153zm-26.858-18.096c.191-9.228 3.396-16.997 9.427-22.454 3.99-3.61 9.997-6.376 15.349-6.376-2.249 2.523-8.658 10.548-5.982 20.151.9 3.232 1.175 2.631 1.732.63 4.565-16.372 17.724-18.042 29.212-19.149 8.72-.839 17.708-1.724 24.925-9.114 2.044 3.842 2.137 13.847-3.404 21.257-.485.649-.402.89.353.59 6.219-3.163 11.809-2.833 15.468-.708-2.832 1.181-6.542 4.458-6.375 4.959.11.331 2.066.047 7.004.769-1.873 7.774-5.104 16.412-10.663 22.225-4.026-1.129-7.159-1.155-9.562-.502-14.661-4.229-29.137-3.611-42.27 1.899-5.22 2.19-10.139 5.164-14.566 8.743-4.895-4.006-10.885-11.355-10.648-22.92zm88.802-51.058c1.589-.501 13.937 9.945 20.926 16.771-3.534 1.842-6.766 3.804-9.659 5.852a35.015 35.015 0 0 0-2.126-2.205c-2.243-2.125-4.633-3.107-6.259-2.479-1.335.515-1.298 2.833-1.415 5.786-.005.107-.119 3.674-.842 8.796a13.251 13.251 0 0 0-2.666-1.437c-.744-8.767.328-30.543 2.041-31.084zm41.963 13.408a77.197 77.197 0 0 0-.927 3.997c-4.758 1.588-8.575 4.514-10.001 8.411-1.209 3.307-.866 6.837 1.263 9.731 6.527 8.875 25.898 9.865 37.558 7.775-2.313 3.408-4.442 6.807-6.426 9.997-6.57 10.558-13.318 17.871-17.727 17.871-2.967 0-5.272-1.466-7.179-3.082 6.532-7.498 7.491-17.835 5.685-22.895-.591-1.653-1.354-.842-1.89-.59-5.339 2.506-12.992 3.398-20.546-1.956-1.77-6.429-4.57-12.127-7.816-16.663 7.906-5.023 17.43-9.346 28.006-12.596zm21.373 17.637c3.937-.364 17.791-2.833 17.189-9.749a20.836 20.836 0 0 0-.168-1.382c2.65 1.155 4.707 2.923 5.913 4.495-5.104 4.174-9.538 9.348-13.462 14.714-3.294 1.031-9.846 2.028-17.344 1.524-9.865-.662-17.002-3.604-19.654-7.494-1.248-1.832-1.439-3.836-.783-5.877.713-2.21 2.647-4.502 5.35-5.936-.066.517-.12 1.022-.166 1.519-.647 7.241 14.613 8.974 23.125 8.186zm-4.8-48.081c1.966-.093 17.787 32.023 18.146 38.886.147 2.818-6.891 5.056-13.347 5.653-8.152.754-19.678-1.181-19.678-4.959.001-8.489 12.913-39.487 14.879-39.58zm99.001 44.776c-.07.081-.145.151-.214.235-5.196 6.376.98 19.971 9.053 28.574.425.453.874.902 1.336 1.349a106.44 106.44 0 0 0-6.935-.667c-8.733-17.903-24.656-41.333-48.412-42.223-8.89-.333-16.448 2.499-22.973 7.041-1.936-2.716-5.582-4.935-9.914-6.122-.74-2.683-1.812-5.631-3.088-8.66 26.62-1.538 55.136 4.603 81.147 20.473zM324.611 8.227c1.513.6 3.676 16.536 4.527 25.136a146.154 146.154 0 0 0-23.849-6.975c7.669-8.684 17.96-18.7 19.322-18.161zm26.743 43.594c1.594-2.219 4.82-2.763 8.302-.778-1.893 2.464.479 11.024 6.963 17.81 5.709 5.974 17.662 13.517 21.405 11.189.715 2.792.725 6.439-2.119 7.861-.67.335-1.597.459-2.697.402-4.421-3.636-9.932-6.481-17.966-8.275a45.976 45.976 0 0 1-5.494-4.943c-7.715-8.223-11.469-18.985-8.394-23.266zm11.723 1.447c6.562-6.458 34.637-13.696 36.152-12.161 1.298 1.316-7.655 30.501-13.557 35.344-1.42 1.166-10.236-3.19-16.22-9.645-4.765-5.144-7.859-12.077-6.375-13.538zm45.304 71.283c-5.227 2.156-8.982 13.008-6.575 28.764 2.598 17.003 9.907 24.636 15.632 24.727.191.002.379-.01.568-.021.084 3.633-.318 7.077-.432 10.635-10.365-5.782-19.664-17.981-30.082-35.035 5.228-8.738 8.751-19.065 9.591-29.328 1.032-12.632-2.47-23.675-8.108-30.251a53.78 53.78 0 0 0-2.266-2.495c.875-.197 1.663-.515 2.345-.969.719-.479 1.377-1.188 1.92-2.085 7.259 10.865 13.081 22.956 17.407 36.058zm16.983-27.6c.5 1.447-8.911 12.144-15.005 18.609-2.816-7.492-6.13-14.658-9.943-21.431 11.302.249 24.492 1.494 24.948 2.822zm-8.977 33.959c-2.433 2.049-4.496 10.113-3.433 17.925 1.086 7.977 4.933 20.538 9.271 19.809-.643 3.192-2.746 5.339-5.078 5.156-3.053-.24-9.57-6.099-11.824-20.807-2.347-15.332 1.993-23.843 5.161-24.635 2.188-.546 4.356.436 5.903 2.552zm2.579 3.434c8.659-1.102 34.116 8.704 34.401 10.391.279 1.687-20.861 17.632-29.993 19.994-2.481.642-6.225-7.863-7.201-15.955-.778-6.449.884-14.186 2.793-14.43zm-53.417 52.947c.054-.064.105-.128.156-.191a70.407 70.407 0 0 0 7.533 8.135 74.644 74.644 0 0 0-8.217 3.408c.411-3.933.677-8.685.528-11.352zm-12.001 6.598c4.02-13.354-5.018-35.902-19.979-49.808-17.32-16.1-36.045-20.865-46.815-16.759 6.785-5.978 16.343-12.044 18.548-12.931 3.177-1.279 8.47-1.469 13.363-.892-2.586 1.937-4.682 3.928-5.178 5.418-1.732 5.195 1.994 9.293 10.076 11.808 7.085 2.204 13.502 1.407 14.954-4.409.341-1.364-.068-3.728-.852-6.349a57.03 57.03 0 0 1 12.481 9.57c4.413 4.492 9.983 11.664 13.909 19.924-3.84-1.184-7.829-2.049-9.321-1.733-5.984 1.259-6.456 8.186-4.095 14.326 2.255 5.866 8.343 11.965 13.541 9.446 1.439-.698 3.102-3.203 4.575-6.143.413 5.288-.555 10.191-.893 11.456-.481 1.812-7.211 10.438-14.314 17.076zm8.516-2.596c.262 4.011-.231 10.512-.876 11.062-.656.562-6.228-.395-9.941-1.385 3.812-2.667 7.569-6.165 10.817-9.677zm-16.303-8.262l-.004-.227-.054-.222c-2.684-11.446-8.716-22.147-17.438-30.949-8.241-8.318-18.353-14.261-28.467-16.734l-.042-.01-.042-.009c-5.934-1.199-12.911-.923-19.785.675.35-1.079 1.135-2.311 2.225-3.624 5.373-5.028 24.247-9.338 49.675 13.591 15.677 14.138 26.588 42.427 16.021 53.12-2.587 1.854-5 3.092-6.936 3.247 3.018-5.316 4.975-11.712 4.847-18.858zm-117.52-40.568c1.396.825 2.276 2.397 2.482 4.302-.667.447-1.293.92-1.856 1.423-.455.407-.956.939-1.483 1.57-.8-2.677-2.02-5.21-3.61-7.524 1.669-.568 3.225-.505 4.467.229zm8.262-3.711c.772.075 1.541.106 2.311.12a14.993 14.993 0 0 1-.566 4.491c-1.67.508-3.248 1.103-4.688 1.795-.547-2.3-1.854-4.214-3.758-5.338-2.306-1.362-5.121-1.376-7.987-.113a29.047 29.047 0 0 0-7.094-5.872 40.942 40.942 0 0 0-.27-2.762c4.766 3.864 13.956 6.904 22.052 7.679zm6.562-.114c5.068-.636 10.04-2.52 14.821-5.333-.122 2.959.031 5.509.254 8.026-4.961-.341-10.344-.054-15.299.904.169-1.071.257-2.242.224-3.597zm59.304-72.395l.075-.384c2.325-2.112 6.08-4.816 6.831-4.641.692.16 2.23 2.602 3.979 5.537-3.893-.306-7.557-.413-10.582-.502l-.303-.01zm-10.715 28.192a132.09 132.09 0 0 0 5.784-12.356c1.745 1.589 2.308 4.146 1.745 6.327-.636 2.479-3.099 5.473-7.529 6.029zm-10.608 33.492c-2.715 2.953-4.737 5.974-5.363 8.791-.342.108-.686.219-1.025.333-1.896-.922-2.344-3.351-2.089-5.39.416-3.324 3.068-7.871 8.684-8.271a37.827 37.827 0 0 0-.207 4.537zm16.37-13.129c-3.99 2.553-8.857 6.023-12.992 9.789.316-4.911 1.009-9.552 1.827-10.236.989-.825 6.04-.362 11.165.447zm4.061-2.469l-.487.282c-7.821-1.484-15.533-1.636-16.894-.83-.656.388-1.761 4.155-2.446 8.515-7.091.187-11.432 5.421-12.126 10.986-.357 2.856.346 5.335 1.81 7.003a50.956 50.956 0 0 0-7.435 3.765c-.473-.09-.957-.172-1.447-.248-.336-3.595-.561-6.956-.086-11.434 10.693-7.746 20.202-19.856 27.359-32.428 7.133.09 10.961-4.122 12.113-8.386 1.101-4.076-.18-8.93-2.979-11.169a94.88 94.88 0 0 0 2.518-7.921l1.17.037c4.146.121 9.521.279 14.948.948a7.183 7.183 0 0 0-1.372.63c-8.978 5.421-14.908 23.438-14.646 40.25zm6.897-2.519c-1.457.208-2.656.474-3.467.762-.292.105-.761.319-1.364.629-.424-13.624 4.178-28.067 10.803-35.467 3.483-3.892 7.612-3.929 9.888-2.133 1.184 1.221 2.22 2.996 2.82 4.726-1.245.07-2.515.15-3.813.239-.387-.7-1.548-1.293-2.669-1.054-6.338 1.358-12.525 21.223-12.198 32.298zm27.155 14.773c-.315 5.825-6.754 4.976-11.494 3.621-4.407-1.259-9.193-4.754-7.241-8.659 1.574-3.148 12.249-10.13 13.381-9.917 1.461.275 5.532 11.622 5.354 14.955zm27.076 43.924c-3.167 1.479-7.398-3.122-9.289-7.242-1.73-3.779-1.888-9.288 2.206-10.233 3.312-.763 14.245 2.253 14.64 3.306.472 1.26-5.193 13.067-7.557 14.169zm17.751-72.222c-.987 2.822-2.108 11.36 2.424 14.191-.7 3.358-1.485 11.398 3.448 12.463 2.598.561 3.868-3.601 3.81-4.633-.054-.947-.147-.945-.473-.089-.265.698-1.473 2.313-2.863 2.213-2.939-.212-2.979-5.344-2.766-9.403.179.062.362.118.552.164 1.565.384 2.569-.348 3.131-1.389.174 1.979.865 4.133 2.979 4.548.798.157 1.558-.225 2.106-.89.394 3.274.445 6.78.141 10.485-1.324 16.171-9.481 31.979-20.192 40.947a54.509 54.509 0 0 0-1.022-6.452c.828-2.46 1.272-4.452 1.051-5.047-.185-.496-1.402-1.202-3.128-1.949a43.476 43.476 0 0 0-.821-2.03c-3.52-8.049-9.188-16.38-15.552-22.858-5.175-5.267-11.28-9.482-17.693-12.466-1.698-3.9-3.627-7.164-4.524-7.297-.828-.123-3.886 1.308-7.225 3.312a41.939 41.939 0 0 0-5.361-.654c11.802-10.597 20.694-14.298 28.564-17.654 1.536-.655 3.551-1.277.943-1.181-9.314.345-25.685 7.637-35.586 18.818-.123.006-.244.014-.367.021.311-11.685 4.764-25.067 8.955-26.907 43.136-3.78 56.281 4.172 64.783 13.854 3.492 3.977 5.727 9.079 6.739 15.029-.323 1.131-1.009 1.499-1.544 1.422-1.948-.275-2.362-4.92-2.598-5.943-.17-.732-.289-1.169-.399-1.013-.056.014-.121.204-.251.571-.276.781-.889 2.581-2.951 2.213-4.31-.768-3.58-11.547-3.601-12.633-.021-1.084-.296-.944-.709.237zM213.721 68.723c5.859 3.333 13.689 2.522 18.925.76.587 5.119-3.497 22.643-20.056 23.296 2.336-8.389 2.451-16.599 1.131-24.056zm-87.861 85.758c.043.004.083.012.127.014 1.701.104 3.062-.238 4.268-.949.642 3.153 2.179 5.106 4.85 6.133a14.25 14.25 0 0 0-1.051 1.31c-1.122 1.614-.837 1.968.709.828 6.155-4.536 13.899-8.769 23.937-10.634-3.011 4.712-5.401 9.671-7.052 14.175-8.895-3.335-21.554-2.691-27.931 1.535-2.563-3.011-6.018-5.461-9.865-7.167.166-.312.316-.648.443-.987 4.342.843 8.147-.374 11.565-4.258zm11.579-2.04c2.97 0 5.385-2.715 5.385-6.054 0-2.41-1.262-4.488-3.078-5.461 3.368-5.186 7.385-10.569 13.377-13.455 5.203 4.092 7.195 13.638 3.891 20.979-7.907 1.336-15.567 5.458-20.048 9.4-2.513-.829-4.424-2.956-4.72-5.931.412-.432.816-.912 1.22-1.439.989 1.215 2.406 1.961 3.973 1.961zm.07-8.011c.536-.844 1.085-1.712 1.647-2.592 1.517.767 2.578 2.517 2.578 4.549 0 2.739-1.925 4.967-4.295 4.967-1.32 0-2.512-.682-3.303-1.779.357-.503.723-1.043 1.097-1.613a2.432 2.432 0 0 0 2.166 1.338 2.44 2.44 0 0 0 2.44-2.44 2.434 2.434 0 0 0-2.33-2.43zm34.683-42.712c-1.573.038-3.463.432-4.328.904-.465.253-.631.423-.253.601 8.123 6.523 9.303 12.899 8.478 19.865-1.771-2.361-3.542-3.896-6.699-4.747-.582-.133-.776-.093-.582.261 1.241 2.745 1.726 5.747.905 9.682-3.012-2.598-8.266-8.03-17.002-4.25-6.723 2.906-12.163 10.744-16.887 17.829-3.222 4.834-6.021 8.855-10.057 8.975-2.691.08-6.708-4.134-4.82-14.407.602.367 1.765 1.038 3.07.827 4.368-.709 8.227-8.385 8.699-9.424l.025-.06c4.541-10.023 12.144-26.797 23.702-29.41 4.032-.909 9.727-1.489 15.749 3.354zm7.619-12.264c15.203-12.599 15.3-36.368 15.523-42.806.07-2.009-.012-3.856.394-4.086 2.187-1.234 11.532 12.987 13.948 27.457.376 2.242.562 4.799.562 7.594 0 7.356-.508 16.544-6.021 26.026-1.562 2.682-8.174 3.784-15.73-.466-8.226-4.626-12.124-10.863-8.676-13.719zm6.629 15.923c12.058 6.303 17.675 4.02 20.329.748 1.996 2.473 2.87 6.893 1.553 9.052-4.232 6.948-21.73 3.712-29.572-3.551-.925-3.051-2.636-5.801-5.376-7.665a8.615 8.615 0 0 1 3.699.314c.4.129.7.096.133-.877-2.278-3.917-6.204-6.726-10.704-8.108-.885-6.091 4.439-8.543 9.531-7.745-3.804 3.865.975 12.902 10.407 17.832zm-29.703 20.829c5.723-1.089 10.12 2.632 13.095 5.855.472.394.482.521.809-.148.922-1.898 2.143-5.047 2.13-8.901a18.638 18.638 0 0 1 3.555 4.091c.589 1.062.671 1.523 1.417-.118 1.235-2.721 1.966-6.318 1.856-9.951 7.392 5.541 20.952 8.196 28.223 4.252 1.285 3.561 2.063 6.94 2.72 10.484-11.014-4.451-23.93-3.313-34.746 2.403-5.769 3.049-10.832 8.136-14.957 13.863-.267.012-.531.024-.798.044 2.572-6.297 2.011-16.21-3.304-21.874zm52.044-23.536a56.648 56.648 0 0 0 2.172-4.945c5.93-.487 10.6-2.302 14.209-4.877 2.909 2.119 6.66 4.452 10.712 4.343 8.401-.227 15.629-9.903 22.655-21.197 10.01-16.091 22.772-36.059 43.779-35.244 12.726.493 23.24 7.806 32.116 18.026 4.646 5.351 9.291 12.839 12.812 19.204-4.692-.16-9.936-.122-15.82.128-1.187-4.412-4.745-9.733-9.26-10.264l.123.018a82.463 82.463 0 0 0-4.844-.7c-2.391-4.175-6.422-9.666-7.877-9.691-1.453-.025-4.145 2.001-6.373 3.777.093-1.069.129-2.161.068-2.942-.109-1.431-.528-.336-1.574 2.362-5.982 15.429-13.859 33.555-25.266 48.529-13.158 17.274-27.677 26.007-40.383 25.306-8.256-.456-18.905-4.998-22.733-9.438a59.648 59.648 0 0 0-2.113-6.765c2.885-4.482.285-12.046-2.403-15.63zm79.793 113.767c-5.117-1.202-10.746-4.365-14.756-9.661 1.789-1.236 3.448-2.643 4.674-4.032.954-.019 1.833-.142 2.596-.396 5.135-1.707 9.874-6.421 12.479-11.512.78.032 1.712.025 2.635-.046-.361.468-.718.951-1.07 1.458-6.236 8.986-8.367 17.252-6.558 24.189zm-25.838-19.625c2.533 2.271 7.14 4.472 11.422 5.432-3.039 3.018-8.241 6.595-9.632 5.621-1.386-.97-2.161-5.909-1.79-11.053zm-47.937 50.362c0-2.236-.413-4.469-1.016-6.576 7.28-.906 15.477-4.66 19.933-7.429 2.33 1.067 4.876 1.379 7.687 1.003 4.293 3.415 12.607 5.012 15.883 4.078 1.479-.422 1.994-8.034.836-13.914 2.082-2.404 2.454-5.686 1.928-8.962a61.518 61.518 0 0 0 4.05-4.726c1.461.21 3.72-.497 6.104-1.709 4.717 5.785 13.566 10.385 20.226 12.033l.192.33c-7.852 9.959-19.312 19.728-32.234 27.022-15.048 8.356-31.802 13.644-48.197 13.985a35.586 35.586 0 0 1-1.115-1.457 23.428 23.428 0 0 0 2.098-2.317c2.676-3.396 3.625-7.396 3.625-11.361zm40.596-11.757c-2.045.835-9.456-1.378-12.586-4.231-1.362-1.243.375-5.252 3.569-7.516 3.193-2.266 6.965-2.238 7.894-1.045 1.755 2.25 2.277 12.318 1.123 12.792zm6.006-27.614c.263.564.536 1.047.8 1.441a81.531 81.531 0 0 1-2.981 2.794 24.324 24.324 0 0 0-1.122-2.86c1.166-.256 2.155-.695 3.303-1.375zm-35.288-27.96c.567-1.995 5.666-2.677 8.626-1.74 3.828 1.212 6.153 4.018 5.699 5.675-.855 3.128-8.815 11.335-10.862 10.706-2.007-.619-4.661-10.431-3.463-14.641zm2.677 17.474c2.084.549 7.524-3.214 11.276-7.284 3.39.106 7.037-1.056 9.494-3.085 2.938-2.427 5.15-6 6.041-10.013 1.208.125 2.468-.132 3.656-.586-2.055 6.598-1.642 12.505.826 16.991-.824 4.342-.558 8.107.135 10.996-1.178.89-2.513 1.405-4.043 1.584-1.56-2.124-3.503-3.742-5.818-4.668-2.362-.944-2.359-.549-.475 1.575 2.921 3.282 5.16 6.372 6.457 10.862.475 1.643.658 3.688-.016 5.896-1.943-1.463-7.77-.391-11.61 2.071-3.302 2.114-5.335 6.124-5.466 8.771-5.254.546-8.958-4.9-10.932-8.552-5.078-9.399-6.503-22.886-2.952-28.949 1.155 2.386 2.441 4.132 3.427 4.391zm-11.179 4.408a39.993 39.993 0 0 0 2.386-1.61c-.587 7.782 1.265 16.969 4.823 23.556 1.882 3.484 3.915 6.065 6.156 7.816-5.815 3.248-9.967 5.651-17.861 7.017-.943-2.687-2.09-5.072-2.904-6.866 8.346-8.973 8.502-24.089 7.4-29.913zm87.28 28.101c-3.194 3.175-7.401 6.091-8.407 5.59-1.11-.559-2.284-5.349-2.325-9.93 2.945 2.507 6.733 4.018 10.732 4.34zm20.954-23.221c-.247-1.414-.401-1.822-1.259.63-1.732 4.96-8.266 18.419-16.451 18.577-5.549.106-11.807-2.361-13.968-5.457-4.319-6.188-2.47-15.7 4.457-25.685 4.55-6.556 9.275-9.475 14.785-9.475 1.023 0 .943-.394-.553-.944-5.308-1.957-10.211-.396-14.614 4.167a26.093 26.093 0 0 1-3.555-.148c.5-1.388.82-2.77.932-4.097.235-2.834.155-3.774-1.182-1.102-2.834 5.667-8.477 13.486-14.474 15.18-3.944 1.113-10.411-.414-15.081-5.313-4.288-4.498-2.981-12.578-.326-18.639 3.576-8.17 11.029-16.387 18.354-16.26 4.601.079 10.345 1.732 13.572 6.691.849 1.3.632-.552.157-2.046-1.523-4.826-8.63-8.814-13.662-8.896-9.451-.152-18.016 9.323-22.112 18.356a13.411 13.411 0 0 1-4.845 1.211 17.37 17.37 0 0 0-.469-4.375c-.473-1.968-.662-2.087-1.183.157-1.415 6.141-3.462 11.415-7.517 14.534-.901.695-2.084 1.445-3.53 1.83.099-.211.19-.418.265-.62.965-2.605-2.834-7.557-8.438-9.229-4.67-1.397-9.392-.051-11.352 1.876-.593-1.147-.945-2.497-1.045-4.078-.526-8.294 5.956-19.417 8.948-22.093 7.821-6.997 29.536-7.492 41.444-4.3 1.911.515 2.175.315.59-1.062-1.072-.931-2.518-1.726-4.226-2.394 10.294-5.244 19.999-6.932 29.374-5.044 9.351 2.296 18.998 8.065 26.686 15.822 8.119 8.192 13.647 17.547 16.178 28.154 0 .106.005.214.005.319 0 13.483-8.314 24.657-16.389 29.091.553-1.986.748-3.834.484-5.338zm110.655-8.547c1.518 4.789.448 10.018-2.7 14.055-.113-.209-.225-.422-.342-.626-5.86-10.258-16.751-17.387-29.902-19.418-8.667-1.339-17.437-.51-25.588 1.705-3.32-2.917-6.318-5.91-9.588-10.156 1.727-2.398 2.92-4.418 3.356-5.665.688-1.958 1.084-4.658 1.137-7.769 4.453-3.256 8.545-7.583 12.058-12.608 12.527 20.342 22.52 32.752 35.925 34.23 3.244.359 3.404-.114-.216-1.648.216-1.166.419-2.329.604-3.486 7.848 1.321 13.355 5.39 15.256 11.386zm10.822-14.631c.964.453 2.312 14.043 1.054 20.272a24.267 24.267 0 0 0-6.657-2.67 17.694 17.694 0 0 0-3.641-9.722c3.144-3.765 8.22-8.36 9.244-7.88zm8.953 27.428c-1.14-1.674-2.766-3.436-4.775-5.028.357-1.632.584-3.417.706-5.264a213.331 213.331 0 0 1 9.28-4.716c.221 1.315.473 2.361.746 2.983 1.277 2.904 9.448 1.553 13.724-.568 5.454-2.707 8.031-6.77 7.243-8.974-.247-.693-.734-1.487-1.396-2.336 5.701-1.943 9.495-2.946 10.369-1.916 3.411 4.036-10.763 49.21-45.842 74.476-2.479-.497-5.014-.454-7.291.307-1.797-1.444-3.934-2.435-6.138-2.832 6.375-14.779 7.222-29.291 2.852-40.647 2.953-3.045 4.938-6.816 5.672-10.773 5.57 1.305 10.94 4.158 14.537 7.18 1.884 1.579 2.678 1.573.313-1.892zm8.189-33.532c1.268-.364 13.757 9.22 15.114 12.752.786 2.046-3.306 5.038-5.511 5.983-2.203.943-8.29 2.117-8.816-.316-1.259-5.825-2.054-18.054-.787-18.419zm-16.253 93.559c.119 1-4.514 7.884-9.016 9.008-1.574.394-5.62-1.589-7.047-5.101-1.412-3.473.243-7.393 2.062-8.031 6.116-2.151 13.881 3.123 14.001 4.124zm4.225-4.234c-.999.068-1.997.24-2.98.537a2.755 2.755 0 0 0-.32.126c-1.656-1.216-3.977-2.409-6.565-3.2a13.1 13.1 0 0 0-.864-1.438c3.78-.264 8.018.557 10.729 3.975zm5.345.534c-1.179-2.163-3.244-4.094-5.728-5.516 34.247-27.51 49.48-72.319 43.475-79.39-2.175-2.561-8.561-1.452-16.89 1.314-5.722-5.307-14.787-10.977-16.536-10.045-1.683.896-1.794 10.717-1.143 18.008a179.135 179.135 0 0 0-8.652 4.652c-.126-7.652-1.739-15.076-3.429-15.89-2.269-1.094-10.261 4.364-13.563 8.108-3.436-2.927-8.065-4.891-13.518-5.754.252-2.153.417-4.284.468-6.38 1.826-1.621 3.099-4.417 3.345-8.578 12.759-4.488 32.503-20.562 32.241-23.684-.273-3.219-24.592-12.92-38.077-13.591-1.746-3.145-3.994-5.061-6.321-5.871a166.649 166.649 0 0 0-1.698-5.148c7.434-7.506 18.118-21.283 17.079-23.964-1.035-2.671-17.888-5.4-30.76-5.329a137.844 137.844 0 0 0-5.662-8.598c-.133-1.716-.577-3.577-1.424-5.512 7.14-11.985 13.467-35.264 11.21-37.702-2.636-2.851-27.589 3.291-39.13 10.241-3.291-1.978-6.414-2.901-9.119-2.684a144.133 144.133 0 0 0-21.021-10.974c-.584-10.268-4.336-29.266-7.199-30.277-2.796-.988-16.676 10.863-24.931 20.928-12.218-2.088-24.241-2.583-35.645-1.848C259.491 11.743 251.657.052 249.21.046c-2.682-.006-10.34 14.679-14.865 28.865-6.889 1.945-13.259 4.324-18.967 7.014-7.494-7.841-22.963-19.567-26.102-18.435-3.159 1.139-5.492 20.306-4.387 33.705-1.384-.094-2.88-.012-4.553.223 3.295-9.365.75-17.593-2.732-21.433-.517-.583-.892-.799-1.32.021-4.018 7.679-16.295 9.752-24.958 10.586-9.523.918-19.307 1.872-26.382 11.312 1.341-3.896 3.705-7.349 6.709-9.185 1.417-.866 1.889-.944-.315-1.575-6.325-1.807-16.215.551-22.513 6.061-6.981 6.109-11.308 13.802-11.335 24.167-.036 14.186 7.803 22.309 12.199 26.109-.051.048-.105.093-.157.141-1.68-1.084-3.996-1.307-6.54-.646-9.853-7.001-15.719-19.281-14.475-29.226.499-4.002-1.102-5.274-1.967-5.55-1.227-.395-3.429.538-5.591 2.795-6.956 7.265-17.018 35.973 2.189 55.663-.415 1.189-.598 2.436-.457 3.69-1.023 1.495-4.055 7.124-1.221 12.083.244.427.354.158.512-.079.688-1.033 1.496-2.322 2.597-3.031-1.26 4.88.694 8.379 2.445 9.698.231.141.344.097.437-.131.387-.955.793-1.699 1.209-2.276-.54 5.11.14 10.263.753 13.329-3.232 1.225-6.232 3.489-8.954 6.738-4.745-.325-8 1.872-9.797 3.609-7.192 6.952-8.143 21.064-2.164 33.033 1.55 3.102 3.835 6.01 6.552 8.602-3.52 3.153-8.125 8.088-11.603 12.469-2.287.655-3.972 1.391-4.854 2.067-1.529 1.026-3.027 2.323-4.46 3.8-6.435-.443-13.425.857-14.116 2.065-.332.578-.298 1.444-.104 2.31-6.525-1.705-13.058-1.647-18.594.324-6.54 2.33-11.454 7.23-14.213 14.174-3.502 8.811-.701 20.936 5.082 28.74.495.668.992 1.311 1.494 1.926C8.018 278.115-.723 289.066.046 299.255c.626 8.303 5.106 16.432 11.529 21.74-3.028 6.74-1.616 15.141 3.394 22.992 4.224 6.621 11.126 12.686 17.659 14.381 3.973 1.029 7.394.822 10.45-1.331 5.67 2.169 14.44 1.834 15.999-.086 1.574-1.936-.178-9.212-3.001-13.927 1.462-4.658.354-9.08-2.389-12.383 1.527-2.277 2.751-4.083 3.975-6.121 12.232 3.742 28.671-.281 36.335-8.698.15.368.318.71.503 1.023a10.53 10.53 0 0 0 4.827 4.263c.375 6.402 3.152 14.286 5.092 15.062 2.659 1.064 11.86-6.045 15.438-11.338 3.312-.807 6.263-3.039 8.492-6.767 5.342-8.937 6.495-25.634-.551-36.406a20.922 20.922 0 0 0-3.706-4.241 116.777 116.777 0 0 0 3.199-5.121c9.516 4.545 22.692.797 25.598-8.934 12.277 6.956 38.229 10.246 52.884.181a46.837 46.837 0 0 0 2.187 2.784c-11.332 7.021-25.538 18.904-29.563 35.006-3.833 15.332-.228 27.754 11.022 37.982 2.996 2.723 7.044 5.164 11.319 7.19-2.083 1.054-4.222 3.138-6.057 6.169-3.8-.225-12.451 4.417-10.574 13.517-4.12 4.9-7.207 12.651-6.269 14.493.687 1.35 5.168 2.093 10.225 1.915-1.004 2.574-1.422 4.755-.943 5.696.84 1.646 6.73 2.486 12.996 2.062-.361 1.509-.409 2.723-.051 3.417 1.311 2.538 14.078 3.146 22.714.532 14.292 5.354 40.533-3.322 47.888-7.918 10.863-.472 26.533-3.443 33.035-10.35 3.992-4.247 6.164-9.172 6.075-15.555-.079-5.505-3.877-12.828-9.592-18.256-.847-8.05-3.976-16.466-7.168-21.014 6.546-3.143 13.141-7.862 18.289-14.74 11.022.242 22.419-.614 33.15-3.241-.451 5.778.062 11.671 1.902 16.516 3.446 9.083 9.818 15.612 18.471 18.868 10.812 4.066 23.751 3.594 36.439-1.332 11.21-4.354 20.69-13.081 26.514-20.954 8.505-4.251 16.423-9.503 22.851-20.842 6.98-3.368 9.188-6.165 10.471-12.526 3.561-2.771 6.422-7.142 6.038-9.452-.311-1.853-4.346-5.038-9.361-6.329z" opacity=".1"/></svg>
