<svg xmlns="http://www.w3.org/2000/svg" width="115.962" height="115.43" viewBox="0.273 0.183 115.962 115.43"><path d="M107.157 74.293h-14.59c-2.728-.203-4.22-1.876-4.22-4.762V46.305c0-3.085 1.705-4.784 4.799-4.784h13.953c3.094 0 4.799 1.699 4.799 4.784v23.226c0 2.978-1.594 4.659-4.489 4.771-.084-.001-.165-.009-.252-.009zm4.8 9.047v23.226c0 3.085-1.705 4.783-4.8 4.783H65.184c-3.024 0-4.716-1.626-4.792-4.579.001-.069.009-.135.009-.204V83.34c0-.07-.008-.135-.009-.204.07-2.761 1.554-4.36 4.217-4.558h14.638c.229 0 .452-.01.675-.021h12.55c.223.012.446.021.675.021H107.1c.103 0 .202-.01.305-.014 2.936.091 4.552 1.775 4.552 4.776zm-55.841 23.43c-.075 2.953-1.768 4.579-4.792 4.579H9.35c-3.095 0-4.799-1.698-4.799-4.783V83.34c0-3.001 1.617-4.685 4.553-4.775.103.004.202.014.306.014h13.952c.229 0 .453-.01.675-.021h12.562c.222.012.446.021.675.021h14.625c2.664.197 4.147 1.797 4.218 4.558-.001.069-.009.134-.009.204v23.226c-.001.068.007.133.008.203zM4.61 69.531V46.305c0-3.085 1.705-4.784 4.8-4.784h13.952c3.095 0 4.8 1.699 4.8 4.784v23.226c0 2.886-1.493 4.559-4.22 4.762H9.351c-.085 0-.167.008-.251.01-2.897-.113-4.49-1.794-4.49-4.772zM4.551 9.229c0-3.085 1.705-4.784 4.799-4.784h41.974c3.024 0 4.717 1.626 4.792 4.579-.001.068-.009.134-.009.205v23.225c0 .069.008.135.009.204-.075 2.953-1.768 4.579-4.792 4.579H9.35c-3.095 0-4.799-1.699-4.799-4.783V9.229zm79.496 60.302c0 2.886-1.492 4.559-4.221 4.762H65.184c-.229 0-.452.008-.675.021H51.997a10.668 10.668 0 0 0-.674-.021h-14.63c-2.728-.203-4.22-1.876-4.22-4.762V46.305c0-3.085 1.705-4.784 4.799-4.784h41.973c3.095 0 4.8 1.699 4.8 4.784v23.226zM60.393 9.025c.076-2.953 1.768-4.579 4.792-4.579h41.973c3.095 0 4.8 1.699 4.8 4.784v23.225c0 3.084-1.705 4.783-4.8 4.783H65.185c-3.024 0-4.716-1.626-4.792-4.579.001-.069.009-.135.009-.204V9.23c-.001-.071-.008-.137-.009-.205zm55.842 23.43V9.23c0-5.412-3.647-9.047-9.078-9.047H65.184c-2.929 0-5.331 1.064-6.93 2.889-1.6-1.824-4.003-2.889-6.931-2.889H9.349C3.92.183.272 3.818.272 9.23v23.225c0 2.946 1.088 5.358 2.948 6.952C1.396 41.001.331 43.392.331 46.306v23.226c0 2.9 1.056 5.284 2.866 6.878C1.351 78.003.272 80.407.272 83.341v23.226c0 5.411 3.648 9.047 9.077 9.047h41.974c2.928 0 5.331-1.065 6.931-2.89 1.599 1.824 4.001 2.89 6.93 2.89h41.973c5.431 0 9.078-3.636 9.078-9.047V83.34c0-2.934-1.079-5.338-2.925-6.931 1.81-1.594 2.865-3.978 2.865-6.878V46.305c0-2.914-1.064-5.305-2.889-6.899 1.861-1.593 2.949-4.006 2.949-6.951z" opacity=".1"/></svg>
