<svg xmlns="http://www.w3.org/2000/svg" viewBox="0 0 271.391 197.231"><path fill="#FFF" d="M255.846 0c2.063 0 4.126.41 6.189 1.229 2.062.82 3.712 2.048 4.951 3.687 1.237 1.229 2.269 2.765 3.094 4.608a14.116 14.116 0 0 1 1.237 5.838l.074 166.508c0 2.048-.412 3.995-1.237 5.838s-1.856 3.379-3.094 4.609c-1.238 1.639-2.889 2.867-4.951 3.686-2.063.82-4.126 1.23-6.189 1.23H15.545c-2.072 0-4.13-.41-6.189-1.23-2.071-.819-3.712-2.048-4.951-3.686-1.237-1.23-2.273-2.766-3.094-4.609-.833-1.843-1.237-3.789-1.237-5.838L0 15.361c0-2.048.404-3.994 1.237-5.838.82-1.843 1.856-3.379 3.094-4.608 1.238-1.639 2.88-2.867 4.951-3.687C11.341.41 13.399 0 15.471 0h240.375zm4.614 149.34V47.232c-2.212 1.317-4.644 2.306-7.298 2.964-2.65.659-5.303.988-7.957.988-3.981 0-7.745-.769-11.279-2.306-3.548-1.537-6.634-3.623-9.289-6.259-2.653-2.635-4.76-5.71-6.302-9.223-1.558-3.513-2.322-7.246-2.322-11.199 0-1.757.216-3.623.663-5.599a23.31 23.31 0 0 1 1.99-5.6H48.154a24.484 24.484 0 0 1 1.99 5.6c.433 1.976.663 3.842.663 5.599 0 3.953-.778 7.685-2.321 11.199-1.558 3.513-3.65 6.588-6.303 9.223-2.654 2.636-5.755 4.721-9.289 6.259-3.548 1.537-7.298 2.306-11.279 2.306-1.774 0-3.548-.22-5.308-.659-1.774-.439-3.548-.879-5.308-1.318v97.498c1.76-.439 3.534-.879 5.308-1.317a21.885 21.885 0 0 1 5.308-.659c3.981 0 7.731.768 11.279 2.305 3.534 1.537 6.634 3.624 9.289 6.259 2.653 2.636 4.745 5.71 6.303 9.223 1.543 3.513 2.321 7.246 2.321 11.199 0 2.196-.331 4.392-.995 6.587-.663 2.196-1.443 4.172-2.322 5.929h171.84c-.894-1.757-1.659-3.733-2.322-5.929a22.68 22.68 0 0 1-.995-6.587c0-3.953.764-7.685 2.322-11.199 1.543-3.513 3.649-6.587 6.302-9.223 2.654-2.635 5.741-4.721 9.289-6.259 3.534-1.537 7.298-2.305 11.279-2.305 2.654 0 5.308.438 7.957 1.317 2.654.879 5.086 1.977 7.298 3.294zM160.281 34.057c6.634 2.195 12.708 5.489 18.245 9.881 5.525 4.392 10.283 9.223 14.264 14.493 3.981 5.71 7.068 11.968 9.289 18.775 2.207 6.808 3.318 13.944 3.318 21.41 0 9.661-1.774 18.665-5.308 27.009-3.548 8.344-8.626 15.591-15.26 21.739-6.202 6.587-13.5 11.638-21.894 15.152-8.409 3.513-17.481 5.27-27.203 5.27-2.653 0-5.091-.11-7.298-.33-2.22-.219-4.644-.549-7.298-.988v-19.105l45.116-25.033v-17.128c3.534-.878 6.404-2.855 8.625-5.929 2.207-3.074 3.317-6.368 3.317-9.882 0-2.196-.446-4.391-1.327-6.587-.894-2.196-1.99-3.953-3.317-5.27-1.774-1.757-3.65-3.074-5.64-3.953-1.99-.878-4.312-1.317-6.967-1.317-2.22 0-4.312.439-6.302 1.317-1.991.879-3.88 2.196-5.64 3.953-1.327 1.317-2.437 3.074-3.318 5.27-.894 2.196-1.327 4.391-1.327 6.587 0 3.513 1.096 6.808 3.318 9.882 2.207 3.074 4.861 5.051 7.961 5.929v11.199l-44.452 25.033v21.739c-6.634-2.196-12.722-5.489-18.246-9.882a71.192 71.192 0 0 1-14.264-15.152c-3.981-5.27-7.082-11.309-9.289-18.116-2.221-6.807-3.318-13.943-3.318-21.409 0-9.662 1.761-18.665 5.308-27.009 3.534-8.345 8.625-15.591 15.26-21.739 6.188-6.588 13.486-11.638 21.894-15.152 8.395-3.513 17.467-5.27 27.202-5.27a78 78 0 0 1 6.967.329 67.3 67.3 0 0 1 6.967.988V47.23L104.55 72.266v16.469c-3.548.878-6.418 2.855-8.626 5.929-2.221 3.074-3.318 6.368-3.318 9.882 0 2.635.433 4.94 1.328 6.917.879 1.976 2.206 3.842 3.98 5.599 1.328 1.318 3.088 2.415 5.308 3.294 2.207.878 4.414 1.317 6.635 1.317 2.206 0 4.413-.439 6.634-1.317 2.207-.879 3.981-1.976 5.308-3.294 1.76-1.757 3.087-3.623 3.981-5.599.879-1.977 1.327-4.283 1.327-6.917 0-3.513-1.111-6.808-3.318-9.882-2.22-3.074-5.091-5.051-8.625-5.929v-10.54l45.115-25.033V34.057h.002zm-57.059 70.488c0-1.757.663-3.294 1.991-4.611 1.327-1.317 2.87-1.976 4.644-1.976 1.76 0 3.317.659 4.643 1.976 1.328 1.317 1.991 2.855 1.991 4.611 0 2.196-.663 3.842-1.991 4.94-1.327 1.098-2.884 1.647-4.643 1.647-1.774 0-3.318-.549-4.644-1.647-1.328-1.098-1.991-2.744-1.991-4.94zm64.357-15.152c0 1.757-.663 3.294-1.99 4.611-1.327 1.317-2.885 1.976-4.644 1.976-1.774 0-3.317-.659-4.644-1.976s-1.99-2.855-1.99-4.611.663-3.294 1.99-4.611c1.328-1.317 2.87-1.976 4.644-1.976 1.76 0 3.318.659 4.644 1.976s1.99 2.854 1.99 4.611z"/></svg>
