<svg width="131" height="158" viewBox="0 0 131 158" xmlns="http://www.w3.org/2000/svg"><path d="M104.402 85.287c-1.975-1.564-4.923-3.62-8.892-5.725 4.686-6.082 9.914-9.57 10.337-9.325.422.246.566 7.135-1.445 15.05M36.337 70.57a44.993 44.993 0 0 0-3.894.79c.628-9.11 1.98-14.335 2.567-14.393.6-.06 4.899 5.491 8.187 12.743-3.237.25-5.456.637-6.86.86m70.089 16.435c2.158-7.4 2.48-17.887.582-18.757-1.717-.787-8.28 3.25-13.851 10.125-6.352-3.073-14.875-6.06-25.714-7.553-9.081-1.252-15.902-1.466-20.92-1.294-4.547-8.205-9.418-15.448-11.845-14.882-2.23.52-4.076 7.805-4.891 17.546-1.351.535-2.286 1.159-2.324 1.852-.101 1.814 2.57.841 4.783.172 1.873-.566 14.452-3.93 35.278-.822 22.111 3.299 33.27 12.598 36.313 15.134 1.391 1.158 3.834 3.694 4.581 3.197 1.201-.802.212-2.37-1.078-3.816a14.651 14.651 0 0 0-.914-.902m-5.844 15.51c-10.144-.76-19.066-7.865-37.287-10.13-14.682-1.824-20.953.799-32.707-2.676-8.734-2.583-16.315-9.467-16.949-19.612C12.364 49.697 29.09 45.32 34.773 38.48c5.642-6.79 11.21-19.22 21.725-26.638 2.923 3.5 5.415 9.383 7.291 13.672-3.115-.835-5.832.048-7.323.725-10.74 4.881-16.435 27.51-5.172 32.848 10.179 4.824 19.336-4.796 19.72-21.23.126.077.252.15.381.215 1.31 1.969 3.742 2.908 5.857 2.156.222-.08.436-.178.645-.286-2.195 5.331-2.975 12.95-.803 18.39 2.112 5.286 8.773 9.151 15.218 6.398 11.285-4.822 12.152-23.303 5.28-31.066-1.467-1.656-3.93-3.34-6.58-3.504 3.302-3.34 7.531-7.737 11.553-9.64 5.876 9.963 9.17 24.23 11.577 29.562 2.323 5.142 8.151 10.496 11.45 20.762 5.042 15.694-8.4 32.917-25.01 31.67M87.768 123.31c8.935.139 23.23 5.327 21.043 20.282-1.346 9.192-14.19 13.16-26.742 7.41-9.803-4.491-14.912-12.598-13.35-17.178 4.201-.244 8.324-1.277 12.023-3.283 3.31-1.795 5.594-4.296 7.026-7.23m-39.553 1.19c.171-6.19-2.041-13.409-6.51-19.361 1.599-5.89 5.178-8.478 7.673-9.979 4.225-.09 8.877-.099 14.559.634 8.511 1.099 14.412 3.163 19.408 5.186 3.434 9.298 4.32 23.444-8.022 27.459-9.48 3.083-20.19.756-27.108-3.939m-4.661 6.247c-1.958 3.97-5.724 5.594-10.154 5.64 3.207-1.97 5.223-6.436 2.26-13.33-4.32-10.057-13.432-14.202-20.034-14.202-6.442 0-10.905 3.21-11.193 8.41-1.272-3.73-1.258-7.634.436-11.354 3.1-6.808 10.824-9.953 17.916-8.71 19.73 3.462 24.782 25.407 20.769 33.546m-13.4 5.416c-4.725-.666-9.852-2.755-14.212-5.494-3.442-2.162-6.336-4.797-8.464-7.69l-.852-1.44c-1.651-2.794-.262-10.259 8.666-10.43 8.535-.164 15.563 5.489 18.817 13.161 2.761 6.512-.43 11.122-3.956 11.893m36.768-93.391c-.225 1.055-.936 1.832-1.688 1.637-.86-.224-.959-1.1-.734-2.155.224-1.056.787-1.836 1.618-1.652.83.183 1.029 1.114.804 2.17m-.299-4.084c-2.007-.516-3.988 1.444-4.679 4.502-.628 2.786.108 5.638 2.103 6.207 1.08.307 2.126-.163 2.968-1.095-2.06 5.533-5.793 10.197-11.615 9.452-8.073-1.033-8.735-10.963-6.4-18.124 2.256-6.923 8.852-14.926 16.058-11.286 1.019 2.264 2.194 5.424 3.921 7.635.104 1.492.032 3.327-.233 5.295-.277-1.282-.947-2.283-2.123-2.586m13.99 6.42c.132-1.096.634-1.88 1.355-1.798.863.097 1.013 1.076.884 2.174-.13 1.097-.722 1.94-1.419 1.787-.798-.174-.95-1.066-.82-2.163m4.188 2.98c.496-2.916-.118-5.982-2.383-6.416-1.518-.291-2.729.69-3.519 2.233.454-1.908 1.08-3.682 1.814-5.175 3.437-1.228 6.417-4.778 8.443-6.725a.376.376 0 0 1 .012-.01c6.609-.552 11.031 7.63 10.184 16.907-.776 8.498-5.9 16.141-14.28 13.84-4.08-1.12-6.298-4.861-6.823-9.552a23.191 23.191 0 0 1-.143-3.146c.34 1.366 1.094 2.376 2.256 2.628 2.023.439 3.941-1.668 4.439-4.584M64.705 7.612c10.12-3.483 23.889-1.658 32.432 5.973.019.016.036.035.054.051-7.344 6.355-12.365 18.556-15.675 20.733.057-.258.11-.522.155-.795.55-3.364-.467-6.16-1.222-6.102-.453.035.63 1.81-.647 6.766-1.64 6.363-8.752 5.02-7.472-1.713.999-5.25 3.022-5.902 2.323-6.064-.588-.136-3.423 1.889-4.133 5.731-2.428-4.561-3.023-16.999-6.138-24.46.109-.038.214-.082.323-.12m62.379 56.355c-3.446-7.47-7.735-11.285-9.764-15.596-2.259-4.801-5.119-18.523-10.819-28.984 3.861-.55 7.486.487 10.056 3.765.259.276.502.02.468-.38-.893-10.515-7.362-14.662-14.259-12.444-.737.238-1.456.549-2.156.92-.052-.05-.102-.106-.154-.157C91.066 2.053 75.228-.46 62.357 4.174a8.258 8.258 0 0 0-.638-.71c-5.34-5.19-13.168-5.094-18.737 4.055-.21.343-.15.672.213.563 3.494-1.454 7.007-.905 10.118 1.016-10.688 8.04-16.45 21.089-21.499 27.016-2.916 3.423-7.186 5.55-14.413 12.13-8.496 7.735-12.288 26.27-1.141 37.575 5.96 6.044 14.281 8.524 21.302 9.215 2.165.213 4.283.253 6.448.234-2.02 1.477-3.929 3.632-5.33 6.408-3.165-3.137-7.09-5.68-11.769-7.15-11.364-3.566-22.19 1.649-25.614 10.652-3.958 10.41 1.522 20.795 11.285 27.008 7.193 4.577 22.699 11.8 31.574 3.17 1.735-1.686 2.905-3.982 3.531-6.635 5.023 2.94 11.209 4.838 17.44 5.12-.966 4.228 1.975 12.416 12.504 18.507 13.272 7.676 30.433 6.213 34.237-6.087 4.265-13.792-7.152-26.01-23.012-25.793 1.543-5.346.812-11.691-1.394-17.78 4.714 1.958 8.991 3.57 14.642 3.758 9.954.331 19.171-5.428 24.092-13.06 6.213-9.638 5.374-19.692.888-29.419" fill="#090205" fill-rule="evenodd" opacity=".1"/></svg>
