<svg width="106" height="148" viewBox="0 0 106 148" xmlns="http://www.w3.org/2000/svg"><path d="M80.148 93.562c2.488-5.985 5.13-16.21 3.063-17.477-1.222-.749-4.601.628-8.443 3.212-.983-2.864-3.324-6.229-7.393-8.269-3.576-1.791-8.83-2.244-13.03-.952-3.977-7.053-15.572-9.24-24.266-4.495.05-2.752-.092-5.274-.374-7.434 15.453-5.231 41.617 2.047 52.915 14.469 7.638 8.397 7.12 21.47-2.472 20.946M67.87 88.487c5.788-6.114 12.957-11.185 13.818-10.54.873.654-1.547 8.733-4.51 15.085-1.169-.336-2.435-.834-3.802-1.519-1.66-.83-3.486-1.86-5.506-3.026m-50.45-21.38c2.287-6.261 7.678-14.626 8.668-14.34.982.283 1.233 8.873.547 16.802a174.189 174.189 0 0 0-7.877-2.2 16.298 16.298 0 0 0-1.338-.263m33.08 6.318c5.428-2.505 10.996-2.319 15.17-.265 3.873 1.905 6.23 5.434 7.035 7.609-2.417 1.824-4.894 4.04-7.047 6.439-8.209-4.77-19.478-11.282-35.87-16.638.056-.573.102-1.139.141-1.7 6.477-5.164 17.923-5.065 22.337 2.039a9.853 9.853 0 0 0-2.216 1.518c-1.099 1.012-.816 1.583.45.998M29.38 56.123c-.62-3.188-1.588-5.226-2.67-5.452-2.343-.49-8.646 6.754-12.453 16.132-.742-.019-1.48.005-2.138.101-1.453.212-1.964.81-.41 1.18 2.505.596 5.412 1.305 6.506 1.578 27.06 6.748 42.86 18.697 53.691 24.195 18.427 9.354 25.235-9.36 12.894-22.928-12.007-13.202-39.345-20.584-55.42-14.806m65.434 44.572c-14.664 11.58-27.416-1.638-49.663-12.145C20.39 76.858 6.24 79.274 4.644 63.728 2.837 46.112 23.17 39.182 30.345 33.447c5.442-4.35 13.977-17.405 27.625-21.324.643 2.092.828 4.558.94 6.666a7.702 7.702 0 0 0-2.643-.46c-4.654 0-9.677 3.741-12.932 9.654-3.651 6.634-3.042 14.026 2.175 16.635 5.712 2.856 11.504-.369 15.077-9.098.416-1.015.83-2.1 1.205-3.211a4.908 4.908 0 0 0 2.27 1.821c1.389.547 2.896.285 4.225-.478a28.981 28.981 0 0 0-1.655 3.664c-2.476 6.628-1.976 14.642 4.718 17.605 6.642 2.94 13.159-1.572 15.632-11.555 1.806-7.29 1.097-15.585-4.691-17.686a8.103 8.103 0 0 0-2.703-.48c3.126-2.622 6.096-4.431 8.816-5.478C99.9 31.045 95.276 49.527 98.005 62.86c1.04 5.071 9.989 27.425-3.19 37.835m-45.907 22.094c.163-.665.304-1.35.417-2.065 1.947-12.279-2.059-22.582-10.479-27.51-3.218-1.882-7.006-2.672-10.73-2.408a30.62 30.62 0 0 1 1.254-5.186c4.37 1.528 9.189 3.37 14.428 5.843 7.208 3.405 13.633 7.277 19.595 10.5 5.697 9.418-.045 21.428-14.485 20.826m15.251 19.69c-9.838 5.183-18.294-1.97-19.355-11.792 1.223-1.27 2.23-2.804 3.004-4.586 7.149 1.086 13.22-1.563 16.993-5.78 5.861 7.478 6.137 18.587-.642 22.158m-48.587-25.736c-1.096-4.447.367-8.04 3.878-9.89 3.52-1.854 9.463-1.676 14.194 3.093 4.973 5.01 7.128 13.846 4.622 19.107-1.074 2.25-2.86 3.43-5.304 3.517-8.595-.435-14.933-7.777-17.39-15.827m21.549-20.8c7.257 4.247 10.663 13.356 9.107 24.367-.899 6.37-3.774 9.634-7.026 11.15.357-.475.675-1 .949-1.575 2.82-5.916.547-16.13-4.943-21.663-4.703-4.74-11.566-6.164-16.69-3.464-1.784.939-3.145 2.286-4.053 3.91.03-.707.095-1.404.197-2.085 1.886-12.502 15.062-14.967 22.459-10.64m19.371-62.412c-1.487-.791-3.682.289-4.902 2.413-1.22 2.123-1.003 4.486.485 5.277.824.439 1.865.3 2.837-.268-2.266 2.41-5.125 3.555-8.445 1.894-4.002-2.001-4.453-8.198-1.299-13.93 3.772-6.853 9.631-9.831 13.394-8.113.168.077.32.17.47.262.014.197.028.388.044.566.248 2.79.96 4.8 1.672 6.134a8.45 8.45 0 0 0-.036.743c-.385 1.782-1.068 3.867-2.056 6.28a26.544 26.544 0 0 1-.969 2.107c.266-1.478-.15-2.81-1.195-3.365m-2.158 4.346c-.496-.264-.502-1.168-.014-2.018.49-.851 1.288-1.327 1.784-1.063.497.264.503 1.168.014 2.018-.49.851-1.288 1.327-1.784 1.063m27.478 5.284c-1.704-.95-4.216.347-5.614 2.897-1.397 2.549-1.149 5.386.555 6.336.86.48 1.926.385 2.951-.153-2.177 1.672-4.762 2.073-7.487.867-6.285-2.782-5.241-10.812-3.633-15.118.978-2.618 2.2-4.783 3.552-6.48 1.304-.942 2.883-2.285 4.46-3.675 1.673-.747 3.375-.864 4.962-.288 4.583 1.663 4.95 9.126 3.406 15.356-.526 2.126-1.248 3.992-2.123 5.554.828-2.239.445-4.474-1.029-5.296m-.656 4.073c-.516.9-1.394 1.363-1.96 1.032-.568-.33-.61-1.327-.096-2.228.517-.9 1.393-1.362 1.961-1.031.567.33.611 1.327.095 2.227m-3.614-34.071c2.216.806 4.17 1.734 5.9 2.765-4.757 4.193-8.168 9.79-11.464 12.483.156-.877.14-1.778-.16-2.538-.16-.405-.476-.47-.588-.033-.242.948-.68 2.433-1.228 3.36-1.516 2.567-3.505 3.26-4.91 2.61-1.566-.723-2.915-2.99-1.67-6.413.525-1.445 1.584-2.65 3.036-4.413.327-.397.078-.605-.415-.466-1.396.443-3.056 1.93-4.033 3.457 0-3.586.706-8.453.799-12.805 4.419-.483 9.311.022 14.733 1.993m24.065 49.616c-2.955-12.738 1.674-31.682-9.477-44.041 1.474-.195 2.842-.127 4.082.2 5.81 1.53 7.469 5.721 8.494 7.626.406.755.563.69.716.028.626-2.71.492-13.38-6.997-15.438-4.234-1.163-8.607.259-12.23 2.655-2.16-1.354-4.654-2.561-7.549-3.586-5.862-2.076-11.144-2.631-15.902-2.165-.237-3.22-1.086-5.81-3.253-6.816-5.96-2.77-12.188 4.374-12.932 7.517-.185.786-.028.684.432.4 1.453-.899 5.697-3.408 8.973-.5.214.19.41.4.592.627-14.255 4.31-22.984 17.438-28.145 21.3C20.42 36.568-1.71 44.684.645 63.95c1.657 13.548 10.552 15.565 25.279 20.494-.984 2.067-1.857 4.716-2.246 7.2-6.02 1.884-11.134 6.748-12.301 14.482-1.93 12.79 7.866 28.969 22.285 28.87 3.264 0 6.079-.731 8.398-2.12 2.19 11.172 12.564 18.536 23.83 12.601 9.044-4.764 8.126-18.674.709-27.56 2.583-4.181 3.177-9.291.921-13.805 10.645 5.275 19.957 7.43 29.937-.617 14.522-11.71 6.016-32.665 4.15-40.715" fill="#000" fill-rule="evenodd" opacity=".1"/></svg>
