<svg width="131" height="155" viewBox="0 0 131 155" xmlns="http://www.w3.org/2000/svg"><path d="M109.4 148.266c-7.282-1.024-15.772-6.207-18.092-15.243 7.244-5.196 9.797-12.058 9.136-18.701 7.154-1.58 16.972 2.331 22.412 8.809 9.472 11.277.99 27.162-13.455 25.135m-29.483-14.252c-15.935 5.195-33.236-.893-31.883-27.824 5.69-2.683 11.419-5.238 16.566-6.582 9.224-2.41 14.126-2.572 20.235-3.071 13.557 8.594 18.522 29.834-4.918 37.477m-21.551 13.168c-4.835 4.339-15.146 5.015-23.998 1.729-13.777-5.117-15.629-16.789-10.097-23.939 3.87-5 12.599-8.376 21.728-1.974 2.94 9.089 8.628 13.977 15.248 15.988.405 3.36-.558 6.112-2.881 8.196M16.742 48.786c.55 0 .995.97.995 2.165s-.445 2.164-.995 2.164c-.549 0-.994-.97-.994-2.164 0-1.195.445-2.165.994-2.165m3.265-9.753a3.262 3.262 0 0 1 1.794-.54c5.482 0 8.237 7.546 8.987 14.609 1.053 9.92-1.09 15.5-5.89 16.001-4.733.49-8.803-4.65-9.284-11.991.343.347.725.547 1.13.547 1.463 0 2.65-2.55 2.65-5.694 0-3.145-1.187-5.694-2.65-5.694-.121 0-.239.023-.355.057a196.47 196.47 0 0 0 3.618-7.295M58.734 69.62c.362-10.242 3.675-23.972 5.156-23.934 1.473.039 5.87 12.335 7.844 22.446-4.394-.144-8.749.41-13 1.488m-32.632 41.387c-3.417.771-9.629.337-14.584-2.95 8.84-13.299 41.887-45.261 71.851-34.995 1.798.616.86-.75.527-1.111-1.892-2.055-5.355-3.094-8.297-3.507-1.427-6.484-7.141-25.351-11.825-25.059-4.757.298-8.42 19.456-8.647 27.281-21.517 7.024-39.738 26.69-45.512 35.92-5.287-4.738-8.151-13.63-2.231-29.273 1.958-5.177 2.835-13.366 2.767-18.199 1.35-.212 2.37-1.028 3.119-2.222.478 7.908 5.135 15.243 11.87 14.538 5.679-.593 9.296-6.127 7.975-18.575-1.11-10.458-5.34-16.702-11.314-16.702-.139 0-.28.007-.423.018 3.883-7.621 8.49-11.67 12.68-12.44 7.644-1.404 11.07 3.279 11.698 2.964.703-.35-2.687-14.134-12.947-12.245-8.804 1.62-15.586 17.383-18.217 29.156-.344-1.942-.862-3.514-1.438-4.276-.476-.63-.83-.653-.882.103-.053.755 1.35 17.137-3.33 16.353-3.997-.669-2.379-11.14-.304-17.901.182-.557.366-1.12.557-1.69l.118-.336v-.017c3.951-11.765 10.003-25.735 26.031-30.284 26.467-7.51 37.789 13.338 44.106 20.357 9.191 10.212 16.029 12.348 25.505 18.718 18.747 12.603 17.175 40.52-4.407 45.314-14.71 3.27-22.244 1.897-36.853 5.772-15.286 4.056-23.086 12.011-37.593 15.288m73.669-.28c-1.575-5.744-5.445-11.046-10.593-14.606 3.4-.383 7.386-.987 12.618-2.117 24.524-5.303 28.273-37.672 5.5-52.802-9.626-6.395-17.672-9.23-24.57-17.705-5.148-4.991-19.03-30.73-48.67-21.526-14.05 4.363-24.39 17.495-27.458 34.178C3.33 42.283.83 55.576 6.876 58.567c.376 4.47-.721 12.81-2.825 17.763-12.474 29.367 7.14 42.752 22.987 38.732 4.86-1.234 10.73-3.984 16.827-6.889.036 3.946.394 7.46 1.026 10.572-10.968-5.863-19.963-1.121-24.092 3.96-6.084 7.487-5.799 23.267 12.088 29.91 8.287 3.078 21.238 3.668 28.196-2.573 2.1-1.886 3.995-5.61 3.604-10.276 5.456.85 11.302.041 16.635-1.775 2.497-.85 4.713-1.825 6.678-2.9 3.117 10.032 12.566 15.942 20.777 17.096 19.37 2.726 28.295-17.951 16.946-31.464-6.384-7.6-17.012-11.611-25.952-9.996" fill="#000" opacity=".1" fill-rule="evenodd"/></svg>
