<svg xmlns="http://www.w3.org/2000/svg" viewBox="0 0 254.039 299.016"><g fill="#FFF"><path d="M0 53.61s5.92-24.518 37.368-41.832c34.918-19.225 64.725-9.129 64.725-9.129s-34.956 1.532-59.585 15.17S0 53.61 0 53.61zM17.837 64.283s3.562-18.207 31.572-32.509c28.691-14.649 45.15-8.68 45.15-8.68s-19.014 2.459-40.827 13.627C33.01 47.331 17.837 64.283 17.837 64.283zM34.794 79.21s5.889-15.566 24.576-26.251c22.227-12.709 36.418-6.913 36.418-6.913S79.21 47.982 62.046 58.391 34.794 79.21 34.794 79.21z"/></g><path fill="#FFF" d="M137.898 77.583c58.056 0 105.292 47.232 105.292 105.292s-47.234 105.292-105.292 105.292S32.606 240.935 32.606 182.875 79.84 77.583 137.898 77.583m0-10.848c-64.143 0-116.14 51.999-116.14 116.14s51.997 116.14 116.14 116.14c64.142 0 116.14-51.999 116.14-116.14s-51.998-116.14-116.14-116.14z"/><path fill="#FFF" d="M217.362 198.943c-.018-.036-.04-.071-.057-.107 3.252-4.545 3.114-9.041-.414-13.487 3.853-10.602 5.983-19.679 6.568-25.561-2.967 4.611-8.174 14.405-13.118 22.275a7.873 7.873 0 0 0-3.302.141c-10.052-13.906-21.18-27.054-34.169-38.326.395-1.945.23-3.867-.496-5.763 8.131-5.926 17.793-13.783 30.766-24.115-14.991 5.862-23.863 10.983-35.784 18.566-2.893-1.428-5.815-1.531-8.759-.309-8.993-6.729-18.509-12.722-28.438-17.973.163-1.311-.024-2.558-.65-3.883 9.69-6.959 16.676-11.607 22.794-16.44-6.487 1.503-16.962 4.504-27.76 10.85-4.008-1.979-7.869-1.503-11.583 1.43-8.18-3.244-17.055-4.383-25.475-4.623 8.069 3.788 13.918 6.638 22.056 11.102-.18.926-.172 1.85.022 2.774-17.322 13.696-31.926 30.876-42.813 50.071a7.447 7.447 0 0 0-2.967-.008c-5.305-10.943-8.016-16.044-13.017-23.756.702 6.782 3.102 17.44 6.544 27.339-3.623 4.301-3.125 10.463.771 14.171-2.538 8.182-4.496 18.959-4.539 27.002 5.241-9.709 7.837-15.956 11.334-24.162.53.075 1.055.046 1.585-.089 6.279 10.296 13.743 19.72 22.021 28.464-1.62 3.613-1.261 7.129 1.081 10.544-5.237 10.586-8.531 23.736-9.077 33.301 6.225-12.329 10.487-19.322 15.365-29.291 2.417.484 4.763.105 7.042-1.14 14.209 11.34 29.424 20.92 46.138 28.166.117 1.271.442 2.469.974 3.566-5.241 5.124-15.643 13.2-21.864 18.334 10.114-3.185 19.123-6.808 27.31-13.216 3.843 1.485 7.488.803 10.935-2.045 9.374 3.11 23.744 4.529 28.694 3.346-6.398-2.12-18.213-7.119-25.455-10.05a7.263 7.263 0 0 0-.246-3.367c15.143-14.6 28.545-31.599 38.687-50.06a8.114 8.114 0 0 0 3.451-.139c2.614 3.411 8.367 10.57 11.948 15.492-.804-5.864-3.229-12.843-6.103-19.024-.018-.036 1.008 2.167 0 0zM86.664 201.41c-5.099-5.735-9.612-12.297-13.636-18.826 3.377-4.426 3.439-8.877.182-13.346 10.296-18.134 23.839-34.108 40.073-47.204a10.315 10.315 0 0 0 14.005-.865c9.027 4.837 17.715 10.273 25.959 16.349-1.023 2.259-1.218 4.547-.583 6.87-21.307 17.674-40.172 40.317-54.114 64.19-1.612-.228-3.203.03-4.765.773a212.344 212.344 0 0 1-7.121-7.941c-2.021-2.271.982 1.156 0 0zm113.013 1.021c-10.195 16.012-20.989 30.754-34.627 44.083-4.585-3.04-10.699-1.9-13.967 2.386-15.685-6.891-30.072-15.925-43.438-26.606 1.303-3.746.533-7.278-2.308-10.594 13.249-22.737 31.391-44.371 51.631-61.237 3.984 2.404 7.934 2.298 11.849-.311 12.171 10.616 22.556 23.123 32.02 36.15-2.822 4.363-2.608 8.65.639 12.861-.572 1.037-1.169 2.12-1.799 3.268-.948 1.487.63-1.148 0 0z"/></svg>
