<svg width="174" height="253" viewBox="0 0 174 253" xmlns="http://www.w3.org/2000/svg"><path d="M94.242 165.642c2.189 0 3.353-2.805 3.353-8.348 0-5.542-2.532-8.485-4.175-8.485-1.916 0-3.964 2.663-3.763 8.28.205 5.748 2.395 8.553 4.585 8.553m-28.535.548c1.848-.137 2.737-2.327 2.806-7.527.068-5.2-2.053-8.417-3.832-8.348-1.78.068-3.9 2.053-3.696 7.732.218 6.022 2.875 8.28 4.722 8.143m38.867 9.648c-1.369-.342-3.969 7.459-1.779 14.165.25.767.544 1.478.866 2.137-2.991 1.93-10.737 6.114-22.42 6.69-12.364.61-19.83-4.483-22.218-6.44.102-.434.191-.882.252-1.361 1.095-8.622-1.78-14.028-2.669-13.343-.8.616.821 5.474-.479 12.453-1.3 6.98-4.242 8.348-3.284 8.964.748.481 3.755-.882 5.421-4.497 2.451 2.272 9.912 8.017 22.497 7.782 11.931-.222 21.226-5.896 24.26-7.99 2.09 2.884 4.542 4.076 5.027 3.542.685-.753-2.053-2.806-3.9-9.443-1.848-6.637-.832-12.473-1.574-12.66M70.789 83.486c.532-.067 1.07-.141 1.624-.228 5.156-.812 8.537-2.058 10.319-2.857.374.679.849 1.384 1.45 2.104a9.385 9.385 0 0 0 1.434 1.387c-.266.938-.871 2.395-2.255 4.36-2.6 3.696-7.732 6.98-12.864 3.148 0 0-2.38-4.084.292-7.914m-8.779.05c.41 1.674 1.596 5.13 4.86 8.343 4.517 4.448 9.991 4.243 12.865 2.738 2.788-1.461 5.767-3.898 7.942-9.54 1.795.688 3.238.435 3.28.097.068-.548-2.1-1.466-4.995-4.927-2.806-3.353-2.77-6.293-3.285-6.57-.599-.322-1.598 1.528-.915 4.295-1.286.644-4.065 1.751-9.212 2.617-7.732 1.3-11.284 1.008-13.48-1.78-1.78-2.257-.48-4.447-.958-4.515-.48-.069-2.874 1.573-2.053 5.2.27 1.19 1.576 2.502 2.942 3.148.848.4 1.859.696 3.009.894m16.105-28.47c.724-.112 1.278.776 1.324 1.642.045.867-.365 1.688-1.095 1.688s-1.278-.64-1.323-1.642c-.046-1.004.502-1.598 1.094-1.688m.73 8.028c1.369-.045 3.057-1.642 3.011-5.245-.046-3.604-1.85-5.688-3.627-5.59-1.642.092-3.02 1.89-2.805 5.497.228 3.833 2.053 5.384 3.421 5.338m90.872 120.067c-1.368 25.181-22.308 38.502-22.308 38.502s-.843 16.057-18.064 23.448c-21.258 9.123-43.338-4.836-43.338-4.836S69.54 251.77 49.558 245.84c-23.574-6.996-23.767-27.005-23.767-27.005S6.997 207.11 5.628 183.981c-1.303-22.018 17.791-35.81 17.791-35.81s-.402-9.602 1.984-16.195c1.899-5.242 3.886-8.155 5.017-9.53a9.602 9.602 0 0 0 1.826 1.365c3.95 2.257 8.98 1.633 11.166-2.116.261.106.53.204.809.292 3.49 1.085 6.71-.24 8.243-2.762 1.075.529 2.3.832 3.663.845 4.927.046 6.906-5.237 7.026-7.39.028-.506.018-.983-.02-1.43 1.837.13 4.12.454 6.726 1.156 6.933 1.871 10.355 4.745 10.355 4.745s2.326-2.509 7.481-5.383a49.188 49.188 0 0 1 8.011-3.557c-.056 1.55.148 3.016.565 4.241 1.415 4.151 4.79 5.383 7.756 5.064a6.894 6.894 0 0 0 3.375-1.299c1.02 1.514 2.454 2.631 4.197 3.17 3.08.95 5.542-.338 7.027-1.932.632 1.162 1.455 2.186 2.462 2.98 3.238 2.555 9.032 1.46 10.811-2.007.71-1.383 1.24-3.321 1.424-5.475 14.491 10.08 16.824 30.93 16.824 30.93s21.005 12.875 19.57 39.277M30.672 113.616c.343-4.653 3.832-7.459 5.064-8.69 1.231-1.232 6.159-6.09 14.507-6.09 7.527 0 12.264 2.628 14.529 9.212a30.32 30.32 0 0 0-2.63-.032c-.586-.957-1.252-1.353-1.499-1.083-.218.237.594 2.007.137 4.88-.456 2.875-2.187 5.43-5.154 5.292-2.966-.136-5.383-3.102-5.156-7.39.229-4.288 1.46-5.839 1.825-6.25.365-.41-.046-.684-1.231-.228-1.186.457-3.77 3.248-3.422 8.03.193 2.653 1.184 4.942 2.797 6.524-.521.83-1.574 1.736-3.664 1.504-3.695-.41-6.888-4.106-6.98-8.166-.09-4.06.822-5.656 1.05-6.021.228-.365-.639-.548-1.734.365-1.094.912-2.462 3.375-1.824 7.618.423 2.806 1.528 5.227 3.413 6.919-.556.81-1.63 1.804-3.527 1.68-3.073-.2-6.89-2.776-6.5-8.074m7.435-38.935c.118-4.638 1.667-7.68 2.76-9.267.324.324.664.638 1.027.94 4.932 4.123 9.525 4.533 14.45 2.806.53 1.513 1.507 2.872 3.067 3.764 3.268 1.868 5.747 1.095 5.885.616.136-.479-1.3-.41-4.106-2.464-2.806-2.052-3.216-6.158-.616-9.032 2.6-2.874 7.664-1.984 9.717 1.163 2.377 3.646.917 5.885 1.505 5.885.998 0 1.92-1.057 2.268-2.689 1.657 1.453 5.812 4.447 12.627 5.267 9.1 1.095 11.587-1.232 15.146-4.516 3.558-3.285 5.314-9.306 5.314-9.306s6.136.342 6.273-2.464c.13-2.68-5.292-4.06-5.292-4.06s.388-5.612-2.327-11.496c-3.372-7.308-13.276-11.656-21.35-10.15-8.074 1.505-13.89 7.39-15.943 11.017 0 0-2.19-5.68-7.733-8.76a17.418 17.418 0 0 0-3.494-1.474c5.096-8.1 17.79-12.243 27.444-10.705 10.31 1.642 19.251 6.478 25.273 16.24 6.021 9.762 5.291 22.536 5.291 22.536s3.738 2.903 5.11 8.667c1.368 5.748 1.916 13.594-4.927 19.707-6.843 6.113-20.072 7.846-20.072 7.846s-6.57 7.938-19.16 8.76c-12.59.82-18.977-9.49-18.977-9.49-16.332-3.832-19.31-13.41-19.16-19.341m24.887-19.89c.043.82-.345 1.596-1.035 1.596s-1.208-.603-1.25-1.553c-.043-.948.474-1.508 1.035-1.595.683-.104 1.207.734 1.25 1.553M49.422 35.494c4.995-1.847 10.81.89 13 3.422 2.19 2.532 4.448 6.637 5.886 6.774 1.437.137 3.326-3.004 7.116-6.09 4.79-3.9 10.674-4.927 15.807-3.969 5.122.957 8.28 4.106 10.06 9.535 1.9 5.8.775 12.545-2.236 16.65-3.586 4.889-8.304 5.839-13.573 5.086-4.591-.655-8.87-2.611-11.933-4.915-.955-2.03-3.004-3.947-6.542-4.733a10.441 10.441 0 0 0-2.246-.247c.024-.804-.016-2.079-.376-3.357-.594-2.098-1.78-2.645-2.737-2.691-.958-.046-2.418 1.278-2.692 3.01-.218 1.379-.317 3.276.384 4.844a9.017 9.017 0 0 0-3.362 5.73c-1.262.54-3.229.994-5.873.443-4.926-1.026-8.963-4.72-9.237-13.48-.274-8.758 3.404-14.108 8.554-16.012m68.802 15.759a26.18 26.18 0 0 1 2.05.084c-.016 1.73.056 4.97.614 9.07-1.48-1.872-2.765-2.788-2.765-2.788.163-2.218.193-4.336.1-6.366m6.968 23.81a65.91 65.91 0 0 0 4.428 7.692c4.562 6.843 10.385 11.774 15.327 14.871 5.295 3.318 8.884 4.191 10.913 4.485-.74 2.3-1.607 3.883-2.792 4.41-3.996 1.777-11.2-1.893-19.411-9.1-6.066-5.324-9.602-10.808-11.038-13.311 1.454-2.572 2.349-5.687 2.573-9.047m2.53-22.61c1.084.221 2.26.48 3.54.787 1.482.355 2.872.753 4.19 1.18.305 3.058 1.64 12.154 7.123 19.987 5.168 7.382 12.417 12.392 15.154 14.127a57.058 57.058 0 0 1-.435 6.687c-1.02-.213-2.825-.722-5.139-1.928-4.478-2.334-10.808-7.098-16.423-15.145-4.63-6.638-6.73-13.161-7.435-17.61-.607-3.823-.627-6.629-.574-8.085m23.702 12.1c2.66 3.497 4.762 8.256 5.748 15.561-1.676-1.268-5.677-4.662-9.58-10.725-2.864-4.45-4.33-9.406-4.947-11.942 4.118 2.21 6.979 4.74 8.779 7.107m-55.037 39.875c-1.889.655-5.238 1.91-8.372 3.552-4.698 2.464-7.937 4.927-7.937 4.927s-4.169-2.675-10.54-4.15c-.15-.036-.288-.061-.435-.093a14.158 14.158 0 0 0-.543-2.34c2.385.722 5.363 1.112 9.054.812 13.503-1.094 19.433-9.716 19.433-9.716 2.657-.599 5.11-1.21 7.384-1.859l.202.593c-.901.35-1.96.795-3.07 1.517-2.708 1.761-4.341 4.218-5.176 6.757m25.75-1.328c-.273-.366-2.782-.411-4.333 4.379a13.176 13.176 0 0 0-.158 7.545c-.686.787-1.937 1.659-4.04 1.397-3.65-.457-5.155-3.65-4.79-7.984.365-4.333 2.327-6.615 2.829-7.117.502-.501-.228-.638-1.004-.41-.775.228-3.513.867-4.653 6.615-.427 2.153-.348 4.172.142 5.925-.687.554-1.804 1.127-3.335.871-2.737-.456-4.972-3.376-3.74-8.53 1.231-5.155 6.478-7.345 10.4-8.257 3.923-.913 10.355-.183 14.46 2.464 4.107 2.645 6.388 6.021 6.114 11.997s-3.011 7.3-5.565 6.615c-2.555-.684-4.836-3.695-4.152-8.759.685-5.063 2.099-6.386 1.825-6.751m35.947 14.095c-.79 4.007-4.218 6.979-9.354 8.174-5.083-10.111-12.341-14.81-15.494-16.466-.273-2.078-.914-4.17-2.066-6.031-3.194-5.156-9.489-8.03-13.777-8.622-2.486-.344-5.053-.684-8.146-.099l-.041-.127c4.879-1.786 8.649-3.967 11.356-7.022.778 1.286 2.415 3.515 5.863 7.202 6.57 7.025 13.868 13.32 20.437 15.328 3.525 1.076 6.708.89 9.211-1.076 1.105 1.44 2.847 4.498 2.011 8.74m-4.516 24.36c-.607-4.505-1.65-8.43-2.952-11.865 3.124-.928 9.138-3.541 11.118-10.215 1.877-6.328-1.596-11.54-3.356-13.662 1.048-1.695 1.88-3.929 2.443-6.774 2.007-10.128 1.552-28.101-6.751-37.955-3.555-4.219-8.987-7.481-15.51-9.763-9.087-3.177-17.698-3.9-20.69-4.06-1.516-11.18-7.21-19.327-16.079-25.5a35.527 35.527 0 0 0-8.618-4.4c3.605-2.507 8.124-4.131 13.385-3.286 5.543.89 6.09 1.779 6.295 1.573.206-.205-.136-1.231-2.257-2.463s-6.108-2.504-10.95-1.642c-3.364.599-5.947 2.345-7.28 3.422C95.046 8.3 98.045 3.35 99.306 1.69c1.3-1.71.684-1.984-.205-1.437-.89.548-4.858 4.106-6.98 8.485a77.231 77.231 0 0 0-2.097 4.748c-.338-1.528-1.104-4.083-2.761-6.595-2.121-3.217-6.364-4.927-8.485-5.132-1.909-.186-2.669-.137-2.532.342.137.479 3.285.89 5.816 3.216 2.675 2.458 4.51 3.99 5.743 10.627-7.69-1.407-15.383-.259-21.686 2.442-7.423 3.182-11.57 8.671-13.284 11.438-2.98.03-5.908.968-8.613 2.795-5.269 3.559-7.8 9.238-8.348 16.286-.364 4.685.208 9.822 2.956 14.001-1.968 2.389-4.927 7.194-4.37 14.054.38 4.707 2.27 8.09 4.47 10.766 3.643 4.429 8.459 6.747 11.688 7.887-3.197.085-7.182.865-10.228 2.286-4.217 1.967-6.09 3.946-7.048 4.836-.958.89-4.47 3.755-5.817 8.827a11.688 11.688 0 0 0 .471 7.31c-9.469 10.055-8.408 27.473-8.408 27.473-5.611 4.379-18.876 15.965-18.612 38 .273 22.855 21.76 37.27 21.76 37.27s1.095 17.79 21.897 27.234c20.801 9.443 42.014-3.558 42.014-3.558 17.518 7.937 33.94 9.99 48.857 1.779 14.917-8.211 15.054-23.813 15.054-23.813s22.308-13.275 23.403-39.961c1.094-26.687-20.392-41.74-20.392-41.74" fill="#090205" opacity=".1" fill-rule="evenodd"/></svg>
