<svg xmlns="http://www.w3.org/2000/svg" width="225.511" height="343.641" viewBox="0.878 0.359 225.511 343.641"><path d="M198.582 144.464c-2.443.425-6.281 3.699-6.197 4.237s3.857.253 6.102-.219c1.786-.376 2.9-1.058 3.004-2.185.122-1.314-1.325-2.109-2.909-1.833m-.19 9.169c-2.875-.506-7.146.569-7.146 1.139 0 .731 2.891 2.892 5.396 3.491 2.096.5 3.81-.01 4.223-1.504.438-1.587-.606-2.797-2.473-3.126m-9.865 7.526c-.35.349.984 4.781 2.53 6.514 1.292 1.449 2.971 1.707 4.102.784 1.228-1.002 1.009-2.675-.054-4.01-1.709-2.14-6.261-3.604-6.578-3.288M51.378 272.932c-3.871.116-16.479.95-20.081 1.677-1.236.249-1.529.696.103 1.117 5.259 1.353 17.794-.485 20.139-1.656 1.294-.647 1.305-1.181-.161-1.138m64.806-206.566c-2.621-.364-6.656 1.742-8.6 7.335-1.694 4.876-1.764 10.169.57 12.531a6.686 6.686 0 0 1-.57-.199c-5.511-2.193-4.531-8.883-2.336-15.049 1.753-4.926 5.908-9.834 10.652-8.186 2.347.816 3.446 2.632 3.513 5.564-.608-.987-1.743-1.789-3.229-1.996m2.494 7.626c-.218-1.441-.883-2.778-2.051-3.073-2.594-.654-4.934 2.213-5.882 6.175-.942 3.94-.521 6.318.696 7.357.557.476 1.139.71 1.75.688-.797.65-1.695 1.11-2.697 1.268-3.422-.461-4.191-6.82-2.025-12.454 1.897-4.932 5.316-6.872 7.436-6.616 2.099.252 3.137 1.704 3.341 3.643a32.08 32.08 0 0 1-.568 3.012m-2.122 2.907c-.351 1.159-1.212 1.923-1.923 1.708-.712-.215-1.004-1.329-.652-2.488.351-1.159 1.212-1.923 1.923-1.708.711.214 1.002 1.329.652 2.488m-.118-15.845c-5.447-1.733-10.31 2.318-12.838 9.422-2.43 6.828-3.356 14.76 3.436 17.327 8.031 3.035 11.82-7.334 12.816-10.708 3.457-11.72-.17-15.008-3.414-16.041m-12.1 112.247c.337 3.036-.675 6.492-2.783 8.432-1.231 1.134-.222.992.675.59 2.446-1.096 4.3-5.713 2.783-9.275-.411-.963-.769-.59-.675.253m47.639-80.017c-2.698-2.277-9.359-.801-11.637 4.258-1.599 3.555-.666 8.374 2.025 9.57 1.137.506 1.406.503.842-.379-.875-1.368-1.09-3.298-.915-5.065 1.367-1.796 3.374-3.09 6.228-2.27 1.16.334.824-.108.169-.801-.999-1.057-3.306-1.581-5.298-.591 1.406-2.327 4.596-4.792 8.417-3.962.968.21.993-.064.169-.76m-90.473 80.101c2.361-1.18 4.301-4.891 4.131-7.926-.059-1.063-.387-1.91-.821.145-.611 2.891-2.27 5.411-3.848 7.193-.916 1.035-.675 1.195.538.588m160.552-6.535c-.939-1.792-2.201-3.385-3.806-4.553-.967-.701-2.741-1.559-1.35-.041 2.842 3.098 5.017 11.803 3.119 15.852-.936 1.995-1.676 3.528-3.364 4.365-.548-2.676-1.665-5.01-2.875-6.221-1.012-1.012-1.651-1.245-1.012.085 1.517 3.161 2.065 10.876-1.097 14.164-3.133 3.259-9.279 5.068-16.034 1.933.584-1.104 1.04-2.406 1.333-3.93.867.426 1.665.96 2.314 1.609l2.684-2.683c-3.199-3.198-8.285-4.274-11.658-3.917l.396 3.773c.773-.082 1.674-.053 2.611.088-.801 4.851-3.71 6.434-7.702 6.18-6.482-.414-16.946-7.986-14.037-26.704.195-1.253-.086-1.465-.821.253-1.89 4.412-2.528 8.437-2.287 12.016-7.016.367-5.348-16.082-2.664-22.681 5.365-13.199 12.398-13.83 15.284-12.181-1.095 1.003-2.022 2.137-2.724 3.412-1.086 1.973-.766 1.994-.146 1.413 9.484-8.917 23.069-8.108 27.634-7.272 8.979 1.644 13.659 6.577 13.659 11.635 2.77 3.545 4.667 7.673 2.543 13.405m-59.835-11.509c-1.539 4.089-3.024 10.574-2.493 16.216-12.806-1.217-25.366-.225-36.081 1.617l.378 3.415c1.393-.239 2.823-.456 4.286-.646-.02.933-.051 1.963-.092 3.044a113.854 113.854 0 0 1-4.861 4.049c-2.976-5.011-5.338-8.024-7.279-10.493l-1.602-2.129c1.637-11.125 5.262-22.742 10.355-24.946 15.229-1.925 27.726-1.313 42.633.69-2.022 2.331-3.816 5.385-5.244 9.183m-38.987 81.411c-5.315 5.125-15.385 10.899-30.715 9.74 1.992-2.932 3.865-5.847 6.238-9.57l-3.342-2.283c-4.754 6.961-13.338 18.51-13.338 18.51.507 4.048-1.686 11.299-4.047 11.468-4.401.314-10.147-21.964-11.105-24.361-4.137-10.343-8.148-19.608-15.924-25.587 1.724-1.104 4.163-1.422 8.269.369 1.254.547 1.342.068.379-1.265a9.503 9.503 0 0 0-2.287-2.237c9.373-9.279 18.168-14.186 25.564-14.823 8.887-.765 16.36 3.331 22.211 12.967l3.46-2.101c-6.716-11.061-14.942-16.168-26.019-15.213-9.552.822-18.437 7.171-25.511 13.799-2.144-6.63-.836-15.918 1.318-22.14.278.104.569.201.883.28 7.588 1.896 12.207-7.203 13.645-11.918 1.381-4.53 2.729-8.313 4.299-11.721 4.274.087 9.882.676 15.062 2.169-2.031 3.483-3.596 7.079-4.422 10.592-2.307 9.802 1.975 19.109 11.383 19.729 9.612.633 13.913-7.209 14.417-15.05.063-.98.146-1.986.247-3.01 2.014 2.586 4.31 5.689 7.281 10.948l1.152 2.041 1.852-1.438c1.799-1.399 2.876-2.265 3.838-3.087-.1 2.169-.197 4.247-.246 5.844 5.566 12.311 10.626 32.715-4.542 47.348m16.854 29.044c10.792-5.058 11.636 15.515 6.913 26.139-4.44 9.99-13.659 15.852-20.4 14.487-4.179-.844-6.658-4.111-6.921-9.527l-.036-.773-.544-.55c-11.794-11.962-21.904-24.511-32.678-40.571a251.305 251.305 0 0 0 3.731-5.106c15.634 2.203 27.143-2.601 33.835-8.03 5.434 8.25 10.456 15.656 16.1 23.931m11.693 1.45c11.932.463 10.029 18.874 9.217 25.531 2.36 8.432 3.541 15.92 3.541 22.934 0 16.021-8.1 25.01-21.753 23.44-14.213-1.634-18.297-17.038-17.618-28.884.242.053.488.103.74.144 8.782 1.422 19.93-4.522 24.972-16.622 3.116-7.481 3.864-19.379.901-26.543m17.143 15.92c.751 4.875 1.349 8.094-1.687 9.779 4.382 9.901 8.604 40.097-4.536 41.906 3.469-5.585 4.623-12.84 4.705-19.141.094-7.291-1.349-14.164-3.542-22.934.194-3.125 1.408-13.766-1.435-21.387 3.769 1.085 5.673 6.439 6.495 11.777m-101.387-3.005c-.302-4.302-2.553-10.011-7.129-13.648-6.829-17.243-15.556-31.492-28.583-35.792-10.267-3.389-19.334-2.366-24.958 1.93.382-9.424 10.485-23.508 29.665-20.004 15.634 2.855 21.443 14.277 27.309 28.942.776 1.943 5.858 20.632 11.134 26.298.087 4.656-2.4 9.99-7.438 12.274m-3.587 2.54c-.554 1.383-1.472 2.493-2.639 3.396 1.372-2.746-.751-9.336-5.583-14.271-7.588-19.224-14.418-28.457-26.434-33.011-6.742-2.555-20.074-3.316-24.362 4.797.029-1.677.289-3.232.753-4.629 1.855-5.564 12.274-9.945 25.253-5.48 15.491 5.332 23.313 24.031 28.204 34.486 4.723 4.553 6.326 10.919 4.808 14.712m-7.342 5.725c-.76.244-1.549.456-2.354.642-6.577 1.519-16.863-2.319-25.801-13.154-12.999-8.016-19.924-17.274-22.422-25.247-1.576-12.256 14.875-12.495 22.38-9.448 12.774 5.187 19.604 15.936 25.042 31.492 5.098 5.329 9.127 12.672 3.155 15.715m1.651-121.954c2.149-4.68 5.185-6.24 7.209-5.65 2.511.732 2.445 5.733.759 9.529-1.395 3.136-3.794 7.841-7.42 5.817-1.781-.994-2.623-5.18-.548-9.696m28.564-23.857l-.024.247c-10.266 10.202-13.301 18.171-16.652 28.415-1.498 4.577-5.564 11.257-9.928 10.244-2.251-.521-2.826-2.109-2.921-3.64.211.148.433.28.665.394 4.815 2.318 8.461-3.768 9.895-7.147 2.584-6.09 1.636-11.049-1.645-12.442 5.865-7.665 12.308-12.934 20.61-16.071M50.335 95.922c4.654.185 9.729-1.189 14.449-3.177a14.61 14.61 0 0 0 2.526 2.595c-2.101 7.094 2.649 13.176 7.049 14.383 1.908 15.185 8.293 24.802 16.076 27.724a4.783 4.783 0 0 0-2.507 1.914c-6.14 2.197-11.193 4.856-15.556 8.349-8.222-17.286-16.038-36.119-22.037-51.788m-7.253-6.601c-1.369-1.1-2.654-2.576-2.671-5.174 2.705.574 5.311.557 7.519-.053 1.968-.544 2.023-.843-.043-.97-6.961-.426-12.941-3.57-18.085-9.612-5.204-6.112-6.688-14.578-4.688-22.812 2.887-11.878 13.695-22.416 25.937-24.701 7.381-1.378 14.579.306 18.477 5.713-.327 2.195-.223 4.53.219 6.893a27.467 27.467 0 0 0-3.558.292c-1.179-3.375-4.245-7.321-9.067-7.924-2.023-.253-2.77.004-1.139.548 3.181 1.061 5.593 4.097 7.033 8.085-2.87.862-5.158 2.212-6.884 3.792-1.815-3.41-5.043-5.924-8.706-6.354-1.791-.211-3.109-.199-1.096.59 3.656 1.434 6.252 4.955 7.463 8.537-.671 1.06-1.145 2.151-1.416 3.219-.989 3.882-.221 7.872 2.057 10.184-.374.713-.859 1.244-1.359 1.543-.724.435-2.303.832-4.046.234.426-6.677-4.664-14.662-10.962-16.381-1.854-.505-2.682-.5-1.138.338 7.461 4.047 9.738 13.881 8.179 17.959-.959 2.509-2.667 4.147-5.186 4.3-3.068.188-6.204-2.981-6.829-5.691-.38-1.644-.78-1.271-.59.885.379 4.301 3.759 7.508 7.04 7.841 4.075.414 7.642-2.334 8.982-6.547 1.621.855 3.74.851 5.562.224 1.411-.485 2.638-1.559 3.351-2.969 3.568.935 8.887-.36 11.573-4.873 1.077-1.809.38-1.391-.759-.506-2.827 2.199-7.734 3.57-10.54 1.855-1.903-1.163-2.654-4.52-1.89-7.52.481-1.889 3.396-8.71 14.43-9.46 1.62 6.002 5.188 11.949 9.088 15.987-1.146 3.459-2.872 6.993-4.967 9.11-.669.073-1.314.191-1.927.366-7.229 2.057-10.999 8.722-10.897 15.842.037 2.61.45 4.94 1.234 6.99-6.539 2.586-13.763 4.994-19.701.22m32.63-62.099c11.371-11.579 43.989 6.012 61.663 37.207-4.052-.131-7.099-1.772-9.838-4.424.84-4.196.493-9.414-3.448-11.471-1.672-.872-3.871-1.021-6.075-.451-5.271-7.485-12.229-14.543-21.012-17.445-1.618-.535-1.889-.444.169.928 7.48 4.987 12.219 9.975 16.32 16.072-5.212-2.364-10.358-3.344-14.055-3.625-.733-1.272-1.853-2.204-3.488-2.435-3.165-.447-5.969 2.317-7 6.762-1.557 2.67-3.161 5.84-4.609 8.934-13.066-11.355-13.263-25.332-8.627-30.052m35.37-.548c1.117-4.092 4.104-9.178 6.072-12.816-2.025-.337-3.373-.337-5.397-.168-1.507 2.175-4.474 7.708-5.925 12.568a63.05 63.05 0 0 0-3.519-1.856c.661-7.41 4.529-12.139 11.805-12.566 5.163-.305 9.647 2.269 11.298 7.082 1.851 5.399 1.025 12.835-4.684 18.393a87.111 87.111 0 0 0-6.361-5.372c1.522.488 3.113 1.016 4.3 1.313.563-2.109 1.165-3.619 1.687-5.228-2.637-.353-6.388-.972-9.276-1.35m8.264-22.091c11.514.24 21.684 9.722 27.655 21.754 6.226 12.693 9.57 27.487 9.95 39.882.061 2.022.523 1.464 1.096-.59.357-1.28.61-2.669.77-4.147 4.933 1.834 9.596 6.154 10.445 12.41.897 6.616-2.143 12.616-7.105 16.308-1.064-2.781-3.062-5.125-5.754-6.316-2.512-1.111-5.035-1.072-7.43-.35-5.568-18.736-15.524-33.848-26.578-44.644 6.705-6.206 7.41-14.917 5.278-20.577-2.206-5.853-7.301-9.125-13.629-8.752-8.341.491-12.986 6.45-13.801 13.886a51.853 51.853 0 0 0-3.793-1.498c2.136-8.36 9.001-17.656 22.896-17.366m22.716 69.289a89.747 89.747 0 0 1 3.877 10.949c-2.674 1.457-5.082 3.591-6.99 5.638-1.432 1.536-2.715 3.709-4.258 4.512-2.107 1.096-4.89.928-6.998-1.35-.793-.856-2.024-2.782-.843-4.806.866-1.485 2.865-1.518 5.269-3.035 5.256-3.319 8.674-8.052 9.943-11.908m-48.2-12.375c-2.644.087-5.229 2.822-6.324 7.983a26.453 26.453 0 0 0-1.609-.924c1.698-6.791 4.666-11.68 8.46-10.685 1.434.377 2.032 2.012 1.778 4.787-.555-.759-1.345-1.193-2.305-1.161m.572 8.096c-.331.932-1.027 1.536-1.554 1.348-.528-.187-.688-1.094-.358-2.026.331-.932 1.026-1.536 1.554-1.349.528.187.688 1.095.358 2.027m.06-4.302c-2.196-.394-3.74 2.323-4.275 6.093a26.741 26.741 0 0 0-1.802-1.333c.567-4.726 3.545-7.608 5.382-7.669 1.049-.034 2.083.894 2.029 2.521-.084.418-.182.854-.293 1.307-.186-.505-.546-.83-1.041-.919m-16.36.685c1.777-1.964 3.035-4.407 3.932-6.718.343.265.687.511 1.028.74a137.09 137.09 0 0 0-2.684 6.417 20.291 20.291 0 0 0-2.276-.439m25.145 48.858c-.939 6.772-3.045 11.527-6.319 11.923-2.119.257-4.288-.833-6.239-3.179-.296-2.346 1.221-4.502 2.661-5.657 3.258-.519 7.083-1.825 9.897-3.087m-11.758 1.3c-1.776.161-4.539.428-5.163-2.941 3.544.215 8.271-.682 11.893-2.02 1.738.154 3.562.076 5.43-.311-.041.604-.09 1.198-.146 1.78-3.412 1.763-8.23 3.148-12.014 3.492m63.87-10.371c-5.555 6.984-11.319 9.233-20.471 5.197-1.072-.473-1.219-.391-1.852.241-2.987 2.988-14.134 15.517-17.748 28.907-.836.389-1.71.857-2.611 1.398-6.616 1.721-18.25.137-19.038-1.596-.094-.472-.094-1.063-.091-1.662.781.109 1.57.163 2.368.144v-2.908c-10.551-1.66-15.768-10.32-17.913-25.544 3.722-.592 5.858-3.734 6.656-6.328 1.363 2.368 4.599 5.059 8.805 6.531-4.147.918-8.888 1.192-11.46.551-.759-.189-.754-.066-.442.506.416.768 1.257 1.289 2.371 1.612 2.289 12.104 8.413 16.95 13.444 16.26 4.421-.606 7.85-6.938 8.798-18.919 8.712-3.127 11.424-11.792 8.416-19.231-.26-.645-.252-.825-1.096-.252-3.996 2.711-11.558 3.942-16.469 2.493a14.56 14.56 0 0 0 1.545-1.945l-2.276-1.897c-5.313 6.07-13.191 7.751-20.11 6.07-8.854-2.15-11.996-7.223-11.509-14.038.378-5.312 3.39-10.346 8.347-11.763 5.312-1.518 13.787.633 20.616 9.612l2.403-1.012a22.37 22.37 0 0 0-1.65-2.505c4.851-12.113 4.826-18.198.807-19.417-4.62-1.402-8.595 3.092-10.737 11.583a25.998 25.998 0 0 0-1.44-.601c1.42-3.772 4.383-10.953 8.003-16.358 1.296-1.451 2.792-2.482 4.449-2.233 2.551.382 3.574 3.125 3.794 4.553.168 1.096.421 1.264.843-.253.422-1.519.618-3.642.342-5.648 3.535.395 8.218 1.391 12.654 3.386-1.572 1.397-2.869 3.288-3.594 5.677-.311 1.021-.074 1.024.758.443 3.351-2.34 7.56-3.241 10.434-1.645 3.984 2.214 4.276 7.593 4.152 9.296-.104 1.455.064 1.729.908.379.234-.377.469-.841.691-1.365 3.374 2.886 7.398 4.738 12.766 4.425.265.516.525 1.036.781 1.559-.844 5.057-4.57 11.569-9.307 14.163-1.743.954-4.605 1.507-6.07 3.541-1.855 2.572-1.771 6.45.843 9.064 2.133 2.132 6.324 3.457 9.907 1.434 2.561-1.447 4.032-3.777 5.564-5.565 4.554-5.312 9.612-7.083 13.786-5.228 1.861.828 3.905 3.21 4.426 5.607.859 3.942-.768 9.476-3.793 13.281m-20.995 24.789c-.191.506-1.147 1.172-1.771 1.265-1.264.19-3.225-.253-4.68-1.834-.95-1.033-1.017-.623-.632.317.569 1.391 2.276 3.92-.759 4.3-1.071.133-3.346-.733-4.75-2.713 3.383-6.967 7.698-11.981 11.252-15.83-.574 3.331-.262 6.593.58 8.805 1.155 3.028 1.218 4.469.76 5.69m-43.212 10.582c1.28 2.408 8.404 4.779 16.845 3.644-4.951 3.916-10.138 9.404-14.099 15.399-4.552-1.728-10.518-2.523-15.246-2.468 2.522-4.692 5.688-8.811 10.307-13.497 0 0 .257-3.235 2.19-4.022-.014.298-.019.597.003.944m31.658 1.973c-7.587 5.606-10.521 21.133-11.97 34.747-.633 5.944-4.056 12.879-11.382 12.269-7.589-.633-10.499-7.842-9.107-15.431 2.344-12.785 18.195-29.708 26.513-32.963 1.784-.026 4.014.182 5.946 1.378m100.189 10.66c-.037-4.738-3.897-13.55-17.43-15.5-6.224-.896-15.088.065-21.32 3.678-4.282-2.14-8.933-1.874-13.08.876-16.229-2.337-28.693-3.229-44.742-1.315-2.006-1.204-5.143-2.039-7.564-2.28a53.954 53.954 0 0 1 1.82-4.94 8.351 8.351 0 0 0 4.701 2.336c2.656.38 5.187-.252 5.691-2.782 2.15.885 4.496.429 5.564-1.139 1.897-2.782.633-5.185-.378-8.726-.672-2.35-.541-5.802.415-8.59 9.373 2.816 15.266.539 21.592-6.84 3.296-3.847 4.969-9.238 4.742-13.917 5.818-3.458 11.232-12.522 10.098-20.905-1.087-8.008-6.836-13.638-14.125-15.521.188-10.072-3.163-23.061-7.968-33.552C143.712 8.63 132.403.628 119.851.366c-16.793-.35-24.88 11.687-27.273 20.426-8.451-2.086-15.677-.911-19.902 3.9a12.734 12.734 0 0 0-1.805 2.678c-4.848-4.827-12.048-6.396-19.991-4.913-13.908 2.596-26.369 14.305-29.654 27.825-2.34 9.63.097 18.898 6.045 25.885 2.934 3.446 6.596 5.833 10.268 7.158-.563 3.425 1.225 7.388 3.518 9.284a13.868 13.868 0 0 0 4.65 2.527c6.193 16.4 14.791 36.888 23.581 55.291-2.45 2.373-4.683 5.086-6.786 8.22-2.582.867-5.186 3.423-6.731 7.064-1.236 2.915-1.483 5.839-.934 8.178-.618 1.879-.929 4.697.101 6.976-3.005 8.382-3.743 19.731-1.129 28.487-.163.165-.323.33-.483.495-2.653-.525-5.613-.147-8.337 1.245-2.355-1.054-4.978-1.889-7.937-2.464-17.744-3.45-35.485 9.269-33.733 27.861-1.342 2.102-2.173 4.584-2.384 7.399-.981 13.137 10.744 26.32 26.393 34.704 7.026 10.304 19.654 16.087 28.443 14.688 5.778-.919 9.714-4.293 11.174-8.449 6.576-1.247 12.066-7.457 12.068-15.43 3.248-.686 5.363-4.602 6.437-8.628 9.893 14.4 19.385 26.021 30.276 37.126.43 5.014 2.461 8.818 5.805 10.904-1.232 14.646 4.675 33.551 20.84 35.052 7.005.649 12.143-.986 15.875-3.942 23.88.813 16.314-38.081 12.195-44.945 1.649-1.591 2.745-1.896 2.656-5.313-.353-13.521-4.971-21.79-12.66-22.075-2.246-3.083-5.739-4.928-11.107-4.225-1.882-1.909-4.428-2.707-7.725-1.777a590.002 590.002 0 0 1-14.487-22.643c10.919-11.553 13.579-27.215 4.537-51.05.437-4.508.497-8.264.602-12.391 8.812-.854 18.577-.849 28.323.216 1.239 3.613 3.803 6.344 8.441 6.965 2.215 8.93 10.1 14.354 16.176 15.032 2.855.317 6.13-.348 8.559-2.729 8.49 4.692 16.987 2.588 20.698-1.57 1.679-1.881 2.417-4.317 2.537-6.787 3.159-.666 4.962-2.892 6.317-6.238.859-2.127 1.065-5.062.566-8.035 3.484-5.163 3.48-14.472-.843-18.581m-115.89 24.67c-.698 2.423-2.225 4.439-4.188 5.535-1.522.847-3.199 1.062-4.723.603-1.523-.457-2.819-1.563-3.648-3.119-1.072-2.006-1.287-4.547-.59-6.969.697-2.422 2.222-4.439 4.186-5.533 1.521-.849 3.199-1.065 4.722-.607 2.855.859 4.642 3.851 4.642 7.27 0 .919-.129 1.871-.401 2.82m-3.608-12.288c-2.099-.63-4.382-.349-6.428.792-2.482 1.384-4.4 3.897-5.264 6.898-.863 3-.582 6.178.773 8.714 1.116 2.091 2.886 3.589 4.984 4.219 2.097.63 4.38.35 6.427-.792 2.481-1.382 4.4-3.896 5.264-6.897 1.637-5.686-.946-11.488-5.756-12.934" opacity=".1"/></svg>
