<?xml version="1.0" encoding="UTF-8" standalone="no"?>
<svg width="221px" height="336px" viewBox="0 0 221 336" version="1.1" xmlns="http://www.w3.org/2000/svg" xmlns:xlink="http://www.w3.org/1999/xlink">
    <title>Mario jumping</title>
    <desc>Mario jumping</desc>
    <defs></defs>
    <g stroke="none" stroke-width="1" fill="none" fill-rule="evenodd" opacity="0.1">
        <g transform="translate(-65.000000, -118.000000)" fill="#090204">
            <g transform="translate(0.000000, 2.000000)">
                <g transform="translate(0.000000, 40.000000)">
                    <g transform="translate(65.000000, 73.000000)">
                        <path d="M104.15047,166.338851 C107.576963,165.308168 113.567839,166.895723 114.757028,173.721321 C116.025112,180.997223 111.789281,184.622637 108.344501,185.085478 C102.879773,185.818919 99.1319479,181.657007 98.6266995,176.611204 C98.0294928,170.636586 101.206758,167.224309 104.15047,166.338851 M107.564945,187.766403 C110.940757,187.554311 113.376085,186.189819 115.293626,183.11971 C119.529979,176.336425 115.570545,162.558809 105.230458,163.561805 C99.9903999,164.070095 95.9714026,168.653578 96.1062051,175.673507 C96.2535475,183.344339 101.738653,188.132601 107.564945,187.766403 M106.595725,182.819856 C106.796362,182.837617 107.063354,182.665227 106.773895,182.317835 C106.47085,181.954249 106.345975,181.828874 105.988069,181.402079 C104.034477,179.073247 102.638904,176.229335 102.124774,172.592951 C102.0673,172.182872 101.999376,171.712717 101.79665,171.720031 C101.527045,171.729434 101.237585,172.741833 101.157121,173.522812 C100.975295,175.289026 101.237585,177.065165 101.987359,178.68981 C103.032862,180.953865 105.060126,182.677765 106.595725,182.819856 M133.395311,90.9156231 C132.034223,101.342605 127.568496,102.544633 124.02601,102.252093 C127.243507,100.801927 129.096258,95.6396309 129.305255,90.5217381 C129.708617,80.6338668 125.088233,79.284001 123.082915,79.1628056 C122.479438,79.126238 121.298087,79.1847461 120.045677,79.9411725 C120.795451,78.7417561 121.712422,77.7398047 122.823237,77.0544239 C124.42467,76.0660547 126.142619,75.6497068 127.671949,75.9422473 C131.080677,76.5947173 134.78409,80.270803 133.395311,90.9156231 M119.61201,88.5105217 C119.656944,87.5446154 120.199812,86.3222137 121.165374,86.3007955 C122.063536,86.281467 122.567739,87.4704354 122.440774,88.6395529 C122.320601,89.7397144 121.683162,90.6434559 120.900994,90.5729327 C120.02321,90.4940512 119.571256,89.4064272 119.61201,88.5105217 M121.929255,101.714549 C120.654901,101.14514 119.581183,100.15886 118.733703,98.8027258 C118.63234,98.639739 118.536724,98.4521995 118.444243,98.2536899 C118.987111,98.740561 119.649629,99.048251 120.456355,99.1302668 C123.607495,99.4489271 125.603931,95.597317 125.725149,90.9318173 C125.854727,85.9189256 124.222989,83.3685987 121.641886,83.1857609 C120.30222,83.0912076 118.980319,83.7786779 118.001172,85.1374244 C118.227932,84.1605478 118.511122,83.2092686 118.862236,82.3144079 C120.40724,80.1887872 122.260514,80.0404273 123.027008,80.0869204 C126.742961,80.3115497 128.644304,84.0043521 128.379924,90.4836033 C128.156298,95.9478433 125.897571,101.745893 122.150791,101.727609 C122.076075,101.727087 122.003449,101.719251 121.929255,101.714549 M127.915952,73.684461 C125.729852,73.3140837 123.228167,74.0073004 121.338319,75.2161198 C113.525517,80.2133397 113.525517,95.6056753 117.460916,100.832226 C119.180955,103.116132 121.621509,104.62585 124.260608,104.862495 C126.899708,105.099139 133.359259,105.052646 135.247017,92.5998209 C137.330187,78.8540708 132.931861,74.5328287 127.915952,73.684461 M152.723803,187.727746 C153.296975,187.962823 153.238979,187.588267 152.908765,187.129083 C150.408648,183.65882 149.44413,180.30244 148.794674,178.190924 C148.552761,177.40681 148.275319,177.490393 148.313461,178.314208 C148.489017,182.120893 150.002673,186.612958 152.723803,187.727746 M215.814537,248.348944 C211.485703,242.925451 202.836917,239.757132 194.646877,239.875715 C186.468333,239.994821 171.118606,242.548282 153.768784,262.39507 C142.10157,268.264688 138.26858,274.990509 137.499474,280.446391 C133.232293,274.76588 132.895287,267.119078 137.098723,258.83809 C145.308617,242.662164 162.249328,227.708639 175.567613,222.318579 C199.846181,212.490783 218.991802,227.522145 215.814537,248.348944 M209.508076,268.867008 C205.503708,273.295341 196.337134,279.371304 182.319235,283.607919 C178.735995,280.26721 172.304659,276.228583 163.462552,274.050723 C161.036105,273.453104 157.85675,272.78235 164.644948,276.119402 C170.671876,279.081898 176.385833,282.468578 179.938768,285.220026 C174.293258,289.280594 164.039381,292.867872 157.689553,293.683852 C147.625341,294.430875 143.662772,290.238142 146.658211,283.133585 C148.225682,279.41623 151.614033,275.58865 158.476424,271.471142 C169.520829,259.360484 183.962468,250.136576 198.191453,252.396452 C204.384011,253.380119 208.125566,255.790445 210.208736,257.680988 C211.703581,259.036078 210.093265,251.547561 197.744201,249.784482 C180.382363,247.305723 164.174184,261.650659 157.580353,269.250968 C150.329229,272.877426 143.937602,278.801895 142.70348,285.132264 C142.408272,286.644594 142.473061,288.029983 142.787601,289.277982 C141.224309,287.404677 140.428033,285.001143 140.571196,282.136857 C140.786462,277.856884 143.985671,270.417473 155.635121,264.66017 C165.071822,253.080787 185.055518,240.786248 201.440299,244.611216 C206.935855,245.89317 211.750605,249.987693 213.249108,253.371238 C215.379302,258.182486 214.844794,262.963957 209.508076,268.867008 M134.474776,245.684213 C134.243835,241.287223 133.473162,233.353105 133.549445,222.540597 L129.767659,222.96478 C129.767659,228.434244 129.666295,234.439684 130.170499,241.323791 C121.925076,245.013981 108.682553,248.585066 94.1385057,248.287824 C85.4578478,261.885736 80.307136,270.159933 65.3377818,288.154312 C66.2636351,301.192741 56.5176189,301.778867 50.3297633,300.768035 C36.4017328,298.491443 28.9175782,285.377267 26.139496,270.255531 C22.3791315,249.785527 29.9589019,248.924622 34.7820121,251.123378 C42.2280249,243.254559 52.644919,227.516398 55.9245921,220.033106 C54.381155,211.546817 54.7280888,203.783 58.8562866,195.114396 C60.7926365,191.049649 63.0785327,186.109892 64.885305,181.31066 C66.3822404,184.032854 68.1320613,188.422008 69.6587786,192.414142 C75.2703271,186.313626 83.3041418,179.267577 91.4147625,175.328727 C91.4879112,185.942726 93.7957519,190.145907 98.2087071,193.416615 C105.076845,198.508389 117.738881,196.670607 121.126187,184.931372 C122.741728,179.331832 121.700927,173.256391 119.846086,167.873644 C127.305683,168.156782 133.43502,169.638813 136.946679,170.890991 C137.494771,172.41168 137.946203,173.943339 138.25604,175.442609 C139.585256,181.863352 140.083712,187.356846 144.183695,192.407873 C143.266724,192.836236 142.312134,193.30848 141.303727,193.841844 L143.039964,197.429123 C166.420371,184.699951 178.276726,198.456149 180.38602,206.300416 C181.335908,209.834933 181.626413,213.083178 181.67396,215.681565 C176.701417,216.897176 172.047071,218.930855 168.045839,221.077371 C151.168871,230.125233 134.39379,249.941723 131.147034,262.653133 C129.25196,258.445773 128.841805,252.379213 134.474776,245.684213 M53.5995092,328.563569 C47.6060201,333.280263 35.9388062,336.139847 25.5997633,327.807665 C14.006743,318.466217 11.825345,297.500984 13.6394321,281.828645 C12.019189,272.261524 12.1398843,266.845344 12.8290493,263.852549 C13.8259613,259.521382 17.2791013,255.290514 22.1957373,254.009604 C22.161253,254.167367 22.1194537,254.317294 22.0886268,254.479236 C20.3523907,263.621129 23.2846076,277.739346 27.2968126,285.608687 C35.1352157,300.979605 44.2343886,305.319131 55.4616655,305.744359 C57.4884063,305.820629 59.5177596,305.487341 61.3820059,304.731437 C62.3564507,311.124494 62.4165372,321.625655 53.5995092,328.563569 M21.5870359,333.208173 C17.4975023,332.475776 -0.807431478,325.549878 7.24467034,284.540914 C5.19023751,283.756801 5.0580474,282.781491 4.66931444,280.458406 C3.9749245,276.446421 3.68546474,271.336886 5.38303652,267.324379 C6.52990327,264.615767 8.07281786,263.587173 9.86234798,262.710074 C9.26357382,265.951005 9.04935269,271.595471 11.0933357,282.483727 C9.24110672,297.412177 9.83047606,310.186797 15.3364814,321.48252 C17.8433911,326.624965 21.1894206,330.531949 24.9727746,333.303248 C23.5751124,333.34295 22.3456921,333.326756 21.5870359,333.208173 M47.5731032,103.230536 C58.2726646,104.561074 71.9206402,101.611115 80.7136336,94.3075265 C84.6281328,111.513091 89.4794575,135.797616 92.2335052,149.323438 C93.0292583,156.966583 91.9247133,163.730539 91.5385928,170.475688 C86.2640507,173.347287 79.780988,177.477856 71.2022157,186.087952 C69.8285881,183.466579 67.9502345,179.077948 66.4245621,176.844192 C67.3880347,173.721321 68.0124109,170.808453 68.0385354,168.421636 C62.6229209,152.740416 55.1915379,130.415391 47.5731032,103.230536 M33.7485258,82.9182952 C35.4090008,84.0774872 37.1582991,85.050707 38.9958984,85.7898943 C42.6491523,87.2578211 46.3922746,87.4333455 47.9461615,87.2280447 C48.9357586,87.0979686 49.1484122,86.6680384 48.1389605,86.3640052 C39.0235904,83.6198702 34.9392818,79.3801215 31.3743288,75.2542546 C23.5327907,66.177661 18.0330552,52.6497491 20.7024594,34.4411881 C23.9168212,12.5142274 48.1128359,5.41802899 61.4640369,8.81515638 C70.6964449,11.164884 73.5931325,16.8673356 73.6573988,22.8555366 C71.850104,20.9211121 69.3186373,19.2907208 65.8550475,18.2349628 C58.3526057,15.9479224 48.5214236,17.333311 42.8879305,20.2832692 C36.1566848,23.8078607 35.703163,25.7151207 42.2086928,23.1705402 C46.9978411,21.2972357 55.4412884,19.8669213 62.4771461,21.2643249 C71.8093497,23.117256 74.5931794,30.4971143 73.1354307,37.2292042 C73.1077387,37.2009949 73.0842267,37.1722633 73.0560122,37.1445764 C66.5306277,30.6303247 55.1607109,30.2333054 44.5693051,34.1852151 C36.5025735,37.1952486 37.0997802,38.8716106 41.477206,37.5833873 C49.600889,35.1934353 63.4343487,32.8619914 70.1055081,39.5047519 C73.5022191,42.8856851 73.1652127,47.4184968 71.9707993,50.2148712 C71.0271814,48.8341842 69.7470795,47.5663343 68.0782447,46.4875909 C62.4264645,42.8344905 54.6585975,43.4979307 48.0422997,45.9369878 C43.9151469,47.4587211 37.9446474,51.9382486 45.9037459,49.3424735 C53.8388099,46.7540118 60.904972,46.5173674 66.0509814,49.246353 C71.3098488,52.0348915 72.5037397,61.4970118 67.152914,66.056988 C64.7363952,68.116787 60.0533124,69.2953076 58.6441554,66.6509498 C59.2335248,66.2680351 59.8066969,65.8522096 60.3631493,65.3951149 C61.9243511,64.1131604 64.4108836,60.6820774 60.1285511,62.7471004 C57.4246625,64.0509955 54.4307916,64.9683191 48.0757391,66.4879629 L49.1081804,70.3233788 C51.4029589,69.7999401 53.5007585,69.1887393 55.4339735,68.3560434 C57.702105,71.3127928 60.7874116,71.7610067 63.4348712,71.4475704 C69.8662074,70.6853977 75.2013584,62.4550822 73.9108067,55.0188053 C74.8277776,53.6678948 75.66324,51.906905 76.1768482,49.9468832 C78.4345299,51.2371961 80.7246059,51.5036169 82.8354677,51.0193578 C83.9384453,57.8930165 81.1128164,68.9964983 72.4541031,80.1443837 C70.826545,82.2391831 76.1287791,79.9354261 78.481554,76.9556915 C79.727694,75.3775396 80.7883498,73.7220734 81.6927809,72.0357859 C84.8893781,75.4809735 85.5226366,84.0524123 78.9429132,90.4005427 C74.5519026,94.6361123 65.0221975,99.8605734 53.3967828,99.6537055 C37.2408526,99.3658664 32.6450258,90.0615091 33.7485258,82.9182952 M76.8377988,28.3396276 C77.3623793,26.9129699 77.7291676,25.4732524 77.9214441,24.0345796 C82.045462,21.9658999 87.7296367,24.3318217 88.7855901,29.0317995 C89.9319343,34.1319309 88.457466,41.8367182 85.0194782,45.5817599 C82.8255404,47.9711895 79.1639267,47.7606648 76.6967263,46.2885588 C76.7296432,44.6377942 76.4809377,42.9441932 75.829392,41.3080556 C77.3508845,38.4766808 78.3843708,33.2370702 76.8377988,28.3396276 M89.3420425,46.4400531 C90.8567426,44.3248803 91.8782116,42.0300039 92.4884806,39.7110975 C99.3263144,33.4021467 109.083303,26.2599776 117.492266,22.804342 C129.823565,17.7360766 145.886492,15.3508262 157.74755,24.5292866 C164.222775,29.5416559 166.880685,38.4004113 167.298155,44.7245116 C165.75106,44.6675706 164.127159,44.653466 162.421228,44.6848096 C163.453147,38.0921989 159.429447,31.3966766 154.420853,28.2006708 C149.290518,24.9273508 138.873101,23.1527788 130.299554,31.1892862 C123.396931,37.6596568 123.670716,46.5690844 125.697457,50.7863701 C112.907411,55.0193277 99.6962377,62.1019439 87.1778867,73.9049112 C86.3795211,71.5839152 85.086357,69.6134455 83.4499166,68.2552214 C86.5226835,60.5645387 86.7384721,52.9266179 86.272933,49.482475 C87.435997,48.68269 88.4778432,47.6467829 89.3420425,46.4400531 M154.097431,45.1528746 C151.106695,45.4234746 147.926295,45.8063893 144.532197,46.321992 C141.897799,46.7226682 139.2169,47.2178976 136.500994,47.8191729 C139.606678,43.9074875 142.600549,39.9848319 144.48674,37.5598795 C145.586582,39.8166211 146.338446,41.7259707 147.496285,44.5030166 C149.637452,42.3042607 150.966668,40.8969316 152.105697,39.5465434 C152.88473,41.2746224 153.57076,43.3683771 154.097431,45.1528746 M153.623532,32.7575126 C152.33298,34.0687212 150.168825,36.3641199 148.650989,37.7913 C147.017684,34.5320846 145.955461,32.3719859 144.588103,29.9804668 C140.204407,34.4354417 134.783568,40.5495397 130.153779,45.0625004 C130.988719,46.1663187 132.030565,47.3479736 133.095401,48.6278386 C131.431791,49.0504553 129.757731,49.5138186 128.074267,50.0278542 C126.520902,45.5028784 127.45616,37.9563765 132.281883,33.2825185 C139.348045,26.4386363 149.461372,27.2984966 155.009699,31.8333978 C159.621201,35.6019473 160.803075,41.2302189 160.35112,44.7443625 C159.69435,44.7694374 159.026084,44.8013035 158.346847,44.8394382 C157.030693,41.323205 154.894752,35.6458284 153.623532,32.7575126 M184.939003,72.9128852 C179.73343,79.6287809 171.013585,85.3004113 165.175798,87.881037 C164.960009,85.4524279 164.64965,82.9773257 164.326751,80.7258081 C167.753766,72.7070621 164.35392,66.9779684 158.240259,67.8211121 C157.115336,67.9762631 156.083418,68.3471627 155.13771,68.8711238 C150.29997,66.1792281 142.67422,63.8916654 135.496767,63.7208426 C144.478902,60.3602827 155.292367,58.2503339 166.535841,55.8248591 C167.519691,55.6122448 167.780936,55.1776131 166.919349,55.0710447 C163.54197,54.6552192 147.060528,56.2944912 132.254714,61.3512639 C126.892916,56.5708375 121.719737,58.070108 118.906125,60.3691634 C116.552305,62.2915729 115.085674,65.0080211 114.576768,68.340894 C114.393897,68.4255218 114.208935,68.5070153 114.026586,68.5926879 C109.251022,70.8363696 103.800401,71.3874951 101.120024,67.472153 C108.493411,62.2790355 116.909166,57.7415222 124.058404,55.323361 C148.827069,46.0654967 208.063912,43.0821052 184.939003,72.9128852 M149.553853,94.4987227 C149.444653,95.4970174 148.914847,96.3150862 148.278976,96.2503094 C147.564732,96.1771742 147.209438,95.1898498 147.25176,94.3770049 C147.298261,93.5014728 147.752828,92.3934754 148.540744,92.375714 C149.271708,92.3600421 149.669846,93.4387855 149.553853,94.4987227 M149.400763,89.8854623 C148.696969,89.8525515 148.027658,90.2621083 147.461801,91.0227138 C147.831724,89.2058279 148.694356,87.3659567 150.69236,87.6438702 C152.906153,87.9520826 154.116241,90.5191261 154.116241,94.780293 C154.116241,95.0770127 154.105268,95.3883595 154.090639,95.7049301 C153.446408,95.7728413 152.789637,95.8626931 152.121372,95.9781421 C152.280209,93.3186349 151.963057,90.0056129 149.400763,89.8854623 M150.819848,86.727069 C150.386181,86.6664713 149.84697,86.6675161 149.292608,86.8466972 C149.557511,86.5238577 149.8407,86.2182573 150.160465,85.951314 C151.343383,84.9592881 152.585866,84.6244336 153.739002,84.8313016 C156.152386,85.2638437 158.021857,88.0246953 157.526014,95.5529135 C156.716154,95.5361969 155.882259,95.5581375 155.026419,95.6203023 C155.210336,90.2772577 153.73639,87.132969 150.819848,86.727069 M88.0661206,78.7401889 C88.5765939,78.1660781 89.1147591,77.5888328 89.6821839,77.0084532 C91.358856,84.7142853 94.4149032,86.6732624 97.1292416,88.8056742 C100.056756,91.1057744 100.285607,96.2377719 94.5826227,96.2884441 C94.927989,97.2919627 95.8700394,99.5790031 95.2770126,102.923369 C94.6913007,106.221764 90.4774145,107.822901 86.7186175,103.391956 C85.7958992,99.094744 84.8653435,94.8497714 83.9933068,90.9715192 C87.0268869,87.1152076 88.2176429,82.7333678 88.0661206,78.7401889 M115.716843,124.810627 C117.320889,124.965256 118.761395,124.811672 120.200857,124.409429 C120.603697,126.480721 121.276142,128.174322 122.149224,129.532023 C119.700833,127.930886 117.496968,126.285868 115.716843,124.810627 M125.504658,144.949956 C125.333281,145.693845 124.708383,146.43251 123.678031,146.972665 C120.654901,147.925512 116.839675,147.476775 114.644692,144.351815 C113.042214,142.070521 111.749572,139.206758 112.076651,133.470873 C114.948782,135.904706 120.681548,139.806989 125.250728,141.268647 C125.594527,142.143656 125.859952,143.412029 125.504658,144.949956 M112.407388,130.160986 C112.576675,128.932315 112.803958,127.600211 113.101778,126.145344 C115.57786,129.039406 125.948253,135.793436 132.778249,137.584725 C130.995511,139.588628 130.144897,140.009677 129.498054,140.06035 C126.747141,140.277665 116.699125,134.563721 112.407388,130.160986 M170.702703,106.587962 C174.290646,115.151565 167.693157,132.046827 146.975362,126.029372 C138.590957,123.593972 133.704625,115.575748 133.704625,111.332865 L130.23163,111.718392 C130.249917,112.504072 130.319931,113.300201 130.457346,114.11618 C119.702923,108.797166 113.96441,101.719773 111.481534,95.4014193 C107.468807,96.3657584 102.298241,101.766266 104.227798,108.246562 C104.746109,109.986656 105.924848,111.949813 108.471466,113.569756 C107.479779,116.742254 107.88262,121.292827 110.953297,123.38397 C107.976668,135.498806 109.042026,142.662916 113.23658,146.80132 C115.649442,149.181869 120.122483,150.793977 124.058404,149.116047 C128.360592,147.280878 131.350283,143.850317 135.598131,137.764428 C138.911243,137.483903 140.208587,135.807019 139.427986,135.855601 C135.902743,136.077619 133.443902,135.622091 129.700257,133.83028 C132.463187,133.945207 135.50356,133.055048 138.410175,131.352566 C140.03094,135.209922 142.928673,136.98345 145.47059,137.48547 C147.982724,137.982267 151.400857,136.927553 153.816854,134.578871 C154.863925,136.115231 156.131487,137.37629 157.431966,137.905997 C153.156948,144.738387 145.477904,148.500667 137.13791,148.556041 C129.240988,154.495137 120.887409,156.550235 113.651438,154.920366 C113.419452,154.522302 113.208366,154.15976 113.023927,153.8411 C109.11831,147.069308 99.1570274,135.256938 92.712629,133.270274 C91.8249176,128.014469 89.8661005,118.241002 87.7233668,108.109695 C88.2014457,108.423654 88.6910193,108.683806 89.1811154,108.864032 C95.2770126,111.100923 99.7521442,105.238096 97.6689744,98.5258571 C103.224616,97.5228608 103.901242,89.8985222 99.6941477,86.9731165 C95.5298981,84.0764424 92.9932065,81.1285738 92.3777126,74.4173796 C94.2132219,72.7504207 96.2368278,71.0871186 98.3837414,69.4666528 C100.501396,73.4608764 106.260809,75.9777701 114.412706,72.3455655 C114.455028,73.0560212 114.530789,73.7847606 114.644692,74.5328287 C115.244511,73.6609533 116.620229,71.484138 118.502762,69.9812108 C125.434122,64.4459253 135.297699,71.6617519 138.911766,79.8565447 C139.249817,77.9017468 139.178236,72.3450431 136.60079,67.1247611 C142.876946,67.8132762 148.481703,69.396652 152.303721,71.1205518 C149.400763,74.2115564 147.754918,78.6942183 147.206826,81.3605166 C153.257789,75.9354562 158.03074,75.5812732 160.634833,77.2461425 C161.679291,82.116943 161.926952,88.6912699 161.518364,95.9640375 C161.001099,95.8653051 160.469203,95.784334 159.927903,95.7200796 C160.2252,85.3458595 157.356204,82.5217982 154.209244,82.1127638 C152.822032,81.9325379 150.749834,82.3964237 148.961871,83.9641277 C145.634129,86.8827423 144.555709,92.6003433 144.560933,98.1883906 C143.582831,98.5864548 142.586964,99.0304896 141.574378,99.5288533 L142.500231,102.691948 C153.340865,96.520387 167.258445,98.3680941 170.702703,106.587962 M118.426479,164.207484 C117.602511,162.280373 116.722637,160.497443 115.891355,158.926604 C121.201426,159.634971 126.050661,159.038919 129.743624,157.787786 C131.600033,160.156842 133.663348,163.45367 135.344723,167.041471 C130.991331,165.532797 123.373419,164.345919 118.426479,164.207484 M93.7335756,137.254572 C95.5852821,138.10294 100.580292,142.114402 105.423779,148.826641 C113.266362,159.694001 121.705107,174.32991 117.808373,185.008686 C115.72468,190.717406 109.023739,193.463109 103.378751,191.566296 C94.1965022,188.479993 93.9441393,178.451076 95.1223554,166.320567 C96.5889864,151.22234 95.1615422,142.187015 93.7335756,137.254572 M146.961778,169.582917 C145.318545,170.178969 143.983059,171.846972 143.848779,175.496938 C143.612091,181.888427 146.592899,187.616476 149.665144,190.214863 C148.886633,190.469792 148.074682,190.760765 147.223545,191.096142 C145.277268,188.883804 143.966862,185.562946 143.039964,182.617167 C140.627102,174.948947 140.49648,166.002952 132.743765,156.502174 C133.807033,155.927541 134.69161,155.293877 135.361965,154.63096 C140.172535,158.783469 144.980493,165.975265 146.961778,169.582917 M148.015118,172.245036 C149.287383,171.825032 150.724232,172.197499 152.141226,173.498259 C154.993502,176.115975 156.459611,181.153419 156.527534,184.75428 C156.556794,186.336611 156.160746,187.905882 155.111585,188.8394 C154.193569,189.006566 153.238979,189.209255 152.230572,189.466273 C148.3469,187.619088 145.58397,179.385638 146.124225,175.177233 C146.367706,173.288779 147.127407,172.536532 148.015118,172.245036 M150.83291,157.698456 C153.842456,153.686994 157.828013,154.656035 160.401279,156.078513 C167.308082,159.89669 169.145159,167.221697 168.014489,171.016366 C167.384888,173.127882 165.648652,175.172009 162.832428,174.593719 C159.110205,173.828412 157.122129,170.196208 156.157611,167.495954 C154.318967,162.346195 153.621442,174.759841 161.443126,177.178002 C162.265526,177.432408 163.049261,177.541066 163.791721,177.538454 C164.755193,181.552528 167.913126,182.885155 170.082507,183.126501 C170.703748,186.219073 173.088917,188.483128 175.177312,189.097463 C179.113233,190.255088 182.237727,189.48299 185.363265,187.09147 C187.348729,185.571827 188.461634,183.756508 185.40193,184.969506 C180.540678,186.898707 178.582905,186.862662 176.602666,186.390418 C173.010021,185.534737 170.978056,180.97476 175.061842,176.831132 C177.685267,174.169535 181.697994,172.954447 185.749386,173.301839 C188.480966,173.535872 187.04673,172.412725 185.228463,171.797345 C180.444017,170.177401 175.158502,171.218532 171.802546,176.078885 C170.928941,177.343078 170.401748,178.575405 170.136323,179.74818 C169.070443,179.581536 167.571417,179.084739 166.74954,176.866133 C169.589276,175.51261 171.320287,172.398098 171.358429,170.042101 C171.379851,168.7194 171.255498,167.454162 171.01672,166.24691 C174.204435,163.903973 178.820639,163.36434 182.73984,163.561805 C184.899294,163.670463 183.202767,162.312762 181.119597,161.671784 C178.859825,160.975956 174.097847,160.511547 170.129008,163.217025 C169.364082,161.271631 168.288274,159.531014 167.021235,158.027042 C169.78103,155.649105 174.120836,154.481033 179.422025,155.191488 C181.582524,155.480372 180.039609,154.141477 178.688971,153.532365 C173.865861,151.356595 168.53071,152.420711 165.280819,156.209112 C163.636018,154.696781 161.807824,153.525052 159.991647,152.747207 C161.116569,147.580732 167.588137,143.978826 173.286941,144.815179 C181.697994,146.049073 185.324078,152.375263 186.327783,156.309934 C189.645598,159.473028 192.672386,164.879805 193.657803,173.745352 C194.605078,182.266641 191.765342,193.189374 180.278387,197.11203 C180.263235,197.089567 180.248083,197.065537 180.232408,197.043074 C175.812138,190.815616 166.486204,187.549087 158.451345,188.294021 C159.019814,187.316622 159.24762,185.995488 159.243963,184.23711 C159.238738,181.786561 158.519268,179.03041 157.495187,176.783072 C156.017061,173.540051 153.229052,170.475688 150.377298,169.58344 C149.815098,168.456114 149.203262,167.332967 148.552239,166.225492 C148.791017,163.090606 149.356352,159.667881 150.83291,157.698456 M207.779155,219.801163 C200.528031,214.804988 192.794126,213.855276 185.53203,214.922527 C185.322511,209.019998 184.123395,204.281363 182.273256,200.501844 C189.226038,197.947338 198.081208,189.787023 197.67053,176.753818 C197.343451,166.37124 193.889266,159.858033 189.337328,154.844096 C187.793891,149.134854 182.392384,141.420141 172.978672,141.034092 C166.217644,140.756701 158.603912,145.155257 156.388552,151.789659 C151.788545,151.471521 146.886016,154.774096 145.884925,162.059923 C143.094303,158.041669 140.012131,154.522824 137.42319,152.248844 C141.796958,152.414442 148.34899,151.916079 155.077623,146.511914 C157.761135,144.356517 160.248712,141.138048 162.042945,137.615024 C164.891041,136.613595 166.256308,134.449317 166.988318,132.375936 C170.448773,132.556684 173.49437,129.28911 172.575309,122.675604 C175.359661,118.441601 175.987695,113.461098 175.679425,109.596428 C175.282855,104.619582 171.541823,99.5116143 165.297016,97.0516616 C165.46369,95.6819448 165.502355,94.0452848 165.448538,92.2707128 C176.111003,87.4625995 185.367445,80.0816964 190.610638,72.2186238 C197.620371,61.7059694 195.900855,47.3589439 171.535553,45.0013803 C170.765924,35.4541098 167.549473,27.4442445 161.836561,22.0285871 C153.548293,14.170216 139.058586,10.5798029 122.837344,15.5493359 C115.023498,17.9418998 103.241859,24.2320445 93.1253966,32.3954937 C92.938345,30.1549463 92.4080171,28.0601469 91.6122639,26.2793061 C88.5546493,19.4322896 82.1154758,18.9746725 78.0228073,20.3558819 C77.7385725,16.9597993 76.3795745,13.6368519 73.7138278,10.5761461 C65.7510718,1.43320849 41.5608045,-0.744129195 25.4377912,15.5958289 C18.4630649,22.6638181 14.1112411,35.0973148 15.2168311,46.9311033 C16.3443657,58.9968347 21.687354,71.9156353 29.9986112,79.8419176 C29.8915006,80.2566984 29.7922274,80.7472262 29.6898193,81.3991738 C28.5565373,88.5862688 31.3440243,97.7767443 39.9436962,101.323799 C40.6537609,101.616862 41.3988324,101.879626 42.1721184,102.114703 C48.1258982,123.840542 54.0201141,143.447551 63.254612,168.576264 C63.5634039,172.2022 60.7466574,181.691485 55.4224787,192.221901 C50.4248566,202.105593 49.1724468,209.811425 51.0241533,218.953318 C46.7961598,227.484532 40.0288622,237.699945 33.3159037,246.031605 C29.812082,245.302343 26.7534224,246.283921 24.6618927,248.727679 C17.4227862,250.00232 13.6932487,253.708183 11.8060128,257.133519 C10.5954022,257.917632 9.37956672,258.740925 8.39205958,259.455038 C5.40602611,261.617226 3.3338286,263.057988 1.98684797,267.124825 C0.958586571,270.232023 0.606950433,273.517881 0.849908537,277.739346 C1.13100845,282.624251 1.8912322,285.955557 3.78735039,287.126241 C-2.27510742,309.447087 3.60395621,325.971973 11.0933357,332.66854 C16.4504313,337.459936 21.9742014,337.797925 26.0240256,337.625535 C26.9054671,337.588445 29.6527224,337.497026 32.7641536,337.269785 C50.4838981,342.880818 71.4702534,328.98514 65.5990271,301.950735 C68.1331062,299.424438 69.7711141,295.621933 69.6587786,290.46904 C84.0497358,273.881989 92.2288028,261.191475 97.6689744,252.627872 C109.149659,252.54011 119.722255,250.941062 128.001118,247.315649 C124.59448,253.824676 124.28203,262.427981 130.316274,269.678808 C130.256187,279.046375 134.37498,285.272788 137.942023,287.041614 C138.333891,288.456256 138.841229,289.557985 139.220558,290.237097 C142.278695,295.720143 149.822936,298.625175 159.128492,297.296205 C166.925096,296.182462 175.326222,292.597795 183.550223,286.881239 C196.267643,283.133585 210.068186,277.584195 216.421148,266.552281 C218.518425,262.911195 219.337168,258.676671 218.641733,254.715358 C222.68163,242.58485 219.111975,227.609907 207.779155,219.801163"></path>
                    </g>
                </g>
            </g>
        </g>
    </g>
</svg>