<svg height="336" viewBox="0 0 221 336" width="221" xmlns="http://www.w3.org/2000/svg"><path d="m104.15047 166.338851c3.426493-1.030683 9.417369.556872 10.606558 7.38247 1.268084 7.275902-2.967747 10.901316-6.412527 11.364157-5.464728.733441-9.2125531-3.428471-9.7178015-8.474274-.5972067-5.974618 2.5800585-9.386895 5.5237705-10.272353m3.414475 21.427552c3.375812-.212092 5.81114-1.576584 7.728681-4.646693 4.236353-6.783285.276919-20.560901-10.063168-19.557905-5.2400581.50829-9.2590554 5.091773-9.1242529 12.111702.1473424 7.670832 5.6324479 12.459094 11.4587399 12.092896m-.96922-4.946547c.200637.017761.467629-.154629.17817-.502021-.303045-.363586-.42792-.488961-.785826-.915756-1.953592-2.328832-3.349165-5.172744-3.863295-8.809128-.057474-.410079-.125398-.880234-.328124-.87292-.269605.009403-.559065 1.021802-.639529 1.802781-.181826 1.766214.080464 3.542353.830238 5.166998 1.045503 2.264055 3.072767 3.987955 4.608366 4.130046m26.799586-91.9042329c-1.361088 10.4269819-5.826815 11.6290099-9.369301 11.3364699 3.217497-1.450166 5.070248-6.6124621 5.279245-11.7303549.403362-9.8878713-4.217022-11.2377371-6.22234-11.3589325-.603477-.0365676-1.784828.0219405-3.037238.7783669.749774-1.1994164 1.666745-2.2013678 2.77756-2.8867486 1.601433-.9883692 3.319382-1.4047171 4.848712-1.1121766 3.408728.65247 7.112141 4.3285557 5.723362 14.9733758m-13.783301-2.4051014c.044934-.9659063.587802-2.188308 1.553364-2.2097262.898162-.0193285 1.402365 1.1696399 1.2754 2.3387574-.120173 1.1001615-.757612 2.003903-1.53978 1.9333798-.877784-.0788815-1.329738-1.1665055-1.288984-2.062411m2.317245 13.2040273c-1.274354-.569409-2.348072-1.555689-3.195552-2.9118232-.101363-.1629868-.196979-.3505263-.28946-.5490359.542868.4868711 1.205386.7945611 2.012112.8765769 3.15114.3186603 5.147576-3.5329498 5.268794-8.1984495.129578-5.0128917-1.50216-7.5632186-4.083263-7.7460564-1.339666-.0945533-2.661567.592917-3.640714 1.9516635.22676-.9768766.50995-1.9281558.861064-2.8230165 1.545004-2.1256207 3.398278-2.2739806 4.164772-2.2274875 3.715953.2246293 5.617296 3.9174317 5.352916 10.3966829-.223626 5.46424-2.482353 11.2622897-6.229133 11.2440057-.074716-.000522-.147342-.008358-.221536-.01306m5.986697-28.030088c-2.1861-.3703773-4.687785.3228394-6.577633 1.5316588-7.812802 4.9972199-7.812802 20.3895555-3.877403 25.6161062 1.720039 2.283906 4.160593 3.793624 6.799692 4.030269 2.6391.236644 9.098651.190151 10.986409-12.2626741 2.08317-13.7457501-2.315156-18.0669922-7.331065-18.9153599m24.807851 114.043285c.573172.235077.515176-.139479.184962-.598663-2.500117-3.470263-3.464635-6.826643-4.114091-8.938159-.241913-.784114-.519355-.700531-.481213.123284.175556 3.806685 1.689212 8.29875 4.410342 9.413538m63.090734 60.621198c-4.328834-5.423493-12.97762-8.591812-21.16766-8.473229-8.178544.119106-23.528271 2.672567-40.878093 22.519355-11.667214 5.869618-15.500204 12.595439-16.26931 18.051321-4.267181-5.680511-4.604187-13.327313-.400751-21.608301 8.209894-16.175926 25.150605-31.129451 38.46889-36.519511 24.278568-9.827796 43.424189 5.203566 40.246924 26.030365m-6.306461 20.518064c-4.004368 4.428333-13.170942 10.504296-27.188841 14.740911-3.58324-3.340709-10.014576-7.379336-18.856683-9.557196-2.426447-.597619-5.605802-1.268373 1.182396 2.068679 6.026928 2.962496 11.740885 6.349176 15.29382 9.100624-5.64551 4.060568-15.899387 7.647846-22.249215 8.463826-10.064212.747023-14.026781-3.44571-11.031342-10.550267 1.567471-3.717355 4.955822-7.544935 11.818213-11.662443 11.044405-12.110658 25.486044-21.334566 39.715029-19.07469 6.192558.983667 9.934113 3.393993 12.017283 5.284536 1.494845 1.35509-.115471-6.133427-12.464535-7.896506-17.361838-2.478759-33.570017 11.866177-40.163848 19.466486-7.251124 3.626458-13.642751 9.550927-14.876873 15.881296-.295208 1.51233-.230419 2.897719.084121 4.145718-1.563292-1.873305-2.359568-4.276839-2.216405-7.141125.215266-4.279973 3.414475-11.719384 15.063925-17.476687 9.436701-11.579383 29.420397-23.873922 45.805178-20.048954 5.495556 1.281954 10.310306 5.376477 11.808809 8.760022 2.130194 4.811248 1.595686 9.592719-3.741032 15.49577m-75.0333-23.182795c-.230941-4.39699-1.001614-12.331108-.925331-23.143616l-3.781786.424183c0 5.469464-.101364 11.474904.40284 18.359011-8.245423 3.69019-21.487946 7.261275-36.0319933 6.964033-8.6806579 13.597912-13.8313697 21.872109-28.8007239 39.866488.9258533 13.038429-8.8201629 13.624555-15.0080185 12.613723-13.9280305-2.276592-21.4121851-15.390768-24.1902673-30.512504-3.7603645-20.470004 3.8194059-21.330909 8.6425161-19.132153 7.4460128-7.868819 17.8629069-23.60698 21.14258-31.090272-1.5434371-8.486289-1.1965033-16.250106 2.9316945-24.91871 1.9363499-4.064747 4.2222461-9.004504 6.0290184-13.803736 1.4969354 2.722194 3.2467563 7.111348 4.7734736 11.103482 5.6115485-6.100516 13.6453632-13.146565 21.7559839-17.085415.0731487 10.613999 2.3809894 14.81718 6.7939446 18.087888 6.8681379 5.091774 19.5301739 3.253992 22.9174799-8.485243 1.615541-5.59954.57474-11.674981-1.280101-17.057728 7.459597.283138 13.588934 1.765169 17.100593 3.017347.548092 1.520689.999524 3.052348 1.309361 4.551618 1.329216 6.420743 1.827672 11.914237 5.927655 16.965264-.916971.428363-1.871561.900607-2.879968 1.433971l1.736237 3.587279c23.380407-12.729172 35.236762 1.027026 37.346056 8.871293.949888 3.534517 1.240393 6.782762 1.28794 9.381149-4.972543 1.215611-9.626889 3.24929-13.628121 5.395806-16.876968 9.047862-33.652049 28.864352-36.898805 41.575762-1.895074-4.20736-2.305229-10.27392 3.327742-16.96892m-80.8752668 82.879356c-5.9934891 4.716694-17.660703 7.576278-27.9997459-.755904-11.5930203-9.341448-13.7744183-30.306681-11.9603312-45.97902-1.6202431-9.567121-1.4995478-14.983301-.8103828-17.976096.996912-4.331167 4.450052-8.562035 9.366688-9.842945-.0344843.157763-.0762836.30769-.1071105.469632-1.7362361 9.141893 1.1959808 23.26011 5.2081858 31.129451 7.8384031 15.370918 16.937576 19.710444 28.1648529 20.135672 2.0267408.07627 4.0560941-.257018 5.9203404-1.012922.9744448 6.393057 1.0345313 16.894218-7.7824967 23.832132m-32.0124733 4.644604c-4.0895336-.732397-22.39446738-7.658295-14.34236556-48.667259-2.05443283-.784113-2.18662294-1.759423-2.5753559-4.082508-.69438994-4.011985-.9838497-9.12152.71372208-13.134027 1.14686675-2.708612 2.68978134-3.737206 4.47931146-4.614305-.59877416 3.240931-.81299529 8.885397 1.23098772 19.773653-1.85222898 14.92845-1.26285964 27.70307 4.2431457 38.998793 2.5069097 5.142445 5.8529392 9.049429 9.6362932 11.820728-1.3976622.039702-2.6270825.023508-3.3857387-.095075m25.9860673-229.977637c10.6995614 1.330538 24.347537-1.619421 33.1405304-8.9230095 3.9144992 17.2055645 8.7658239 41.4900895 11.5198716 55.0159115.7957531 7.643145-.3087919 14.407101-.6949124 21.15225-5.2745421 2.871599-11.7576048 7.002168-20.3363771 15.612264-1.3736276-2.621373-3.2519812-7.010004-4.7776536-9.24376.9634726-3.122871 1.5878488-6.035739 1.6139733-8.422556-5.4156145-15.68122-12.8469975-38.006245-20.4654322-65.1911m-13.8245774-20.3122408c1.660475 1.159192 3.4097733 2.1324118 5.2473726 2.8715991 3.6532539 1.4679268 7.3963762 1.6434512 8.9502631 1.4381504.9895971-.1300761 1.2022507-.5600063.192799-.8640395-9.1153701-2.744135-13.1996787-6.9838837-16.7646317-11.1097506-7.8415381-9.0765936-13.3412736-22.6045055-10.6718694-40.8130665 3.2143618-21.9269607 27.4103765-29.02315911 40.7615775-25.62603172 9.232408 2.34972762 12.1290956 8.05217922 12.1933619 14.04038022-1.8072948-1.9344245-4.3387615-3.5648158-7.8023513-4.6205738-7.5024418-2.2870404-17.3336239-.9016518-22.967117 2.0483064-6.7312457 3.5245915-7.1847675 5.4318515-.6792377 2.887271 4.7891483-1.8733045 13.2325956-3.3036189 20.2684533-1.9062153 9.3322036 1.8529311 12.1160333 9.2327894 10.6582846 15.9648793-.027692-.0282093-.051204-.0569409-.0794185-.0846278-6.5253845-6.5142517-17.8953013-6.911271-28.4867071-2.9593613-8.0667316 3.0100335-7.4695249 4.6863955-3.0920991 3.3981722 8.123683-2.389952 21.9571427-4.7213959 28.6283021 1.9213646 3.396711 3.3809332 3.0597046 7.9137449 1.8652912 10.7101193-.9436179-1.380687-2.2237198-2.6485369-3.8925546-3.7272803-5.6517802-3.6531004-13.4196472-2.9896602-20.035945-.5506031-4.1271528 1.5217333-10.0976523 6.0012608-2.1385538 3.4054857 7.935064-2.5884617 15.0012261-2.8251061 20.1472355-.0961205 5.2588674 2.7885385 6.4527583 12.2506588 1.1019326 16.810635-2.4165188 2.059799-7.0996016 3.2383196-8.5087586.5939618.5893694-.3829147 1.1625415-.7987402 1.7189939-1.2558349 1.5612018-1.2819545 4.0477343-4.7130375-.2345982-2.6480145-2.7038886 1.3038951-5.6977595 2.2212187-12.052812 3.7408625l1.0324413 3.8354159c2.2947785-.5234387 4.3925781-1.1346395 6.3257931-1.9673354 2.2681315 2.9567494 5.3534381 3.4049633 8.0008977 3.091527 6.4313362-.7621727 11.7664872-8.9924882 10.4759355-16.4287651.9169709-1.3509105 1.7524333-3.1119003 2.2660415-5.0719221 2.2576817 1.2903129 4.5477577 1.5567337 6.6586195 1.0724746 1.1029776 6.8736587-1.7226513 17.9771405-10.3813646 29.1250259-1.6275581 2.0947994 3.674676-.2089576 6.0274509-3.1886922 1.24614-1.5781519 2.3067958-3.2336181 3.2112269-4.9199056 3.1965972 3.4451876 3.8298557 12.0166264-2.7498677 18.3647568-4.3910106 4.2355696-13.9207157 9.4600307-25.5461304 9.2531628-16.1559302-.2878391-20.751757-9.5921964-19.648257-16.7354103m43.089273-54.5786676c.5245805-1.4266577.8913688-2.8663752 1.0836453-4.305048 4.1240179-2.0686797 9.8081926.2972421 10.864146 4.9972199 1.1463442 5.1001314-.3281241 12.8049187-3.7661119 16.5499604-2.1939378 2.3894296-5.8555515 2.1789049-8.3227519.7067989.0329169-1.6507646-.2157886-3.3443656-.8673343-4.9805032 1.5214925-2.8313748 2.5549788-8.0709854 1.0084068-12.968428m12.5042437 18.1004255c1.5147001-2.1151728 2.5361691-4.4100492 3.1464381-6.7289556 6.8378338-6.3089508 16.5948224-13.4511199 25.0037854-16.9067555 12.331299-5.0682654 28.394226-7.4535158 40.255284 1.7249446 6.475225 5.0123693 9.133135 13.8711247 9.550605 20.195225-1.547095-.056941-3.170996-.0710456-4.876927-.039702 1.031919-6.5926107-2.991781-13.288133-8.000375-16.4841388-5.130335-3.27332-15.547752-5.047892-24.121299 2.9886154-6.902623 6.4703706-6.628838 15.3797982-4.602097 19.5970839-12.790046 4.2329576-26.0012193 11.3155738-38.5195703 23.1185411-.7983656-2.320996-2.0915297-4.2914657-3.7279701-5.6496898 3.0727669-7.6906827 3.2885555-15.3286035 2.8230164-18.7727464 1.163064-.799785 2.2049102-1.8356921 3.0691095-3.0424219m64.7553885-1.2871785c-2.990736.2706-6.171136.6535147-9.565234 1.1691174-2.634398.4006762-5.315297.8959056-8.031203 1.4971809 3.105684-3.9116854 6.099555-7.834341 7.985746-10.2592934 1.099842 2.2567416 1.851706 4.1660912 3.009545 6.9431371 2.141167-2.1987559 3.470383-3.606085 4.609412-4.9564732.779033 1.728079 1.465063 3.8218337 1.991734 5.6063312m-.473899-12.395362c-1.290552 1.3112086-3.454707 3.6066073-4.972543 5.0337874-1.633305-3.2592154-2.695528-5.4193141-4.062886-7.8108332-4.383696 4.4549749-9.804535 10.5690729-14.434324 15.0820336.83494 1.1038183 1.876786 2.2854732 2.941622 3.5653382-1.66361.4226167-3.33767.88598-5.021134 1.4000156-1.553365-4.5249758-.618107-12.0714777 4.207616-16.7453357 7.066162-6.8438822 17.179489-5.9840219 22.727816-1.4491207 4.611502 3.7685495 5.793376 9.3968211 5.341421 12.9109647-.65677.0250749-1.325036.056941-2.004273.0950757-1.316154-3.5162332-3.452095-9.1936098-4.723315-12.0819256m31.315471 40.1553726c-5.205573 6.7158957-13.925418 12.3875261-19.763205 14.9681518-.215789-2.4286091-.526148-4.9037113-.849047-7.1552289 3.427015-8.018746.027169-13.7478397-6.086492-12.904696-1.124923.155151-2.156841.5260506-3.102549 1.0500117-4.83774-2.6918957-12.46349-4.9794584-19.640943-5.1502812 8.982135-3.3605599 19.7956-5.4705087 31.039074-7.8959835.98385-.2126143 1.245095-.647246.383508-.7538144-3.377379-.4158255-19.858821 1.2234465-34.664635 6.2802192-5.361798-4.7804264-10.534977-3.2811559-13.348589-.9821005-2.35382 1.9224095-3.820451 4.6388577-4.329357 7.9717306-.182871.0846278-.367833.1661213-.550182.2517939-4.775564 2.2436817-10.226185 2.7948072-12.906562-1.1205349 7.373387-5.1931175 15.789142-9.7306308 22.93838-12.148792 24.768665-9.2578643 84.005508-12.2412558 60.880599 17.5895242m-35.38515 21.5858375c-.1092.9982947-.639006 1.8163635-1.274877 1.7515867-.714244-.0731352-1.069538-1.0604596-1.027216-1.8733045.046501-.8755321.501068-1.9835295 1.288984-2.0012909.730964-.0156719 1.129102 1.0630715 1.013109 2.1230087m-.15309-4.6132604c-.703794-.0329108-1.373105.376646-1.938962 1.1372515.369923-1.8168859 1.232555-3.6567571 3.230559-3.3788436 2.213793.3082124 3.423881 2.8752559 3.423881 7.1364228 0 .2967197-.010973.6080665-.025602.9246371-.644231.0679112-1.301002.157763-1.969267.273212.158837-2.6595072-.158315-5.9725292-2.720609-6.0926798m1.419085-3.1583933c-.433667-.0605977-.972878-.0595529-1.52724.1196282.264903-.3228395.548092-.6284399.867857-.8953832 1.182918-.9920259 2.425401-1.3268804 3.578537-1.1200124 2.413384.4325421 4.282855 3.1933937 3.787012 10.7216119-.80986-.0167166-1.643755.005224-2.499595.0673888.183917-5.3430446-1.290029-8.4873333-4.206571-8.8932333m-62.7537274-7.9868801c.5104733-.5741108 1.0486385-1.1513561 1.6160633-1.7317357 1.6766721 7.7058321 4.7327193 9.6648092 7.4470577 11.797221 2.9275144 2.3001002 3.1563654 7.4320977-2.5466189 7.4827699.3453663 1.0035186 1.2874167 3.290559.6943899 6.6349249-.5857119 3.298395-4.7995981 4.899532-8.5583951.468587-.9227183-4.297212-1.853274-8.5421846-2.7253107-12.4204368 3.0335801-3.8563116 4.2243361-8.2381514 4.0728138-12.2313303m27.6507224 46.0704381c1.604046.154629 3.044552.001045 4.484014-.401198.40284 2.071292 1.075285 3.764893 1.948367 5.122594-2.448391-1.601137-4.652256-3.246155-6.432381-4.721396m9.787815 20.139329c-.171377.743889-.796275 1.482554-1.826627 2.022709-3.02313.952847-6.838356.50411-9.033339-2.62085-1.602478-2.281294-2.89512-5.145057-2.568041-10.880942 2.872131 2.433833 8.604897 6.336116 13.174077 7.797774.343799.875009.609224 2.143382.25393 3.681309m-13.09727-14.78897c.169287-1.228671.39657-2.560775.69439-4.015642 2.476082 2.894062 12.846475 9.648092 19.676471 11.439381-1.782738 2.003903-2.633352 2.424952-3.280195 2.475625-2.750913.217315-12.798929-5.496629-17.090666-9.899364m58.295315-23.573024c3.587943 8.563603-3.009546 25.458865-23.727341 19.44141-8.384405-2.4354-13.270737-10.453624-13.270737-14.696507l-3.472995.385527c.018287.78568.088301 1.581809.225716 2.397788-10.754423-5.319014-16.492936-12.396407-18.975812-18.7147607-4.012727.9643391-9.183293 6.3648467-7.253736 12.8451427.518311 1.740094 1.69705 3.703251 4.243668 5.323194-.991687 3.172498-.588846 7.723071 2.481831 9.814214-2.976629 12.114836-1.911271 19.278946 2.283283 23.41735 2.412862 2.380549 6.885903 3.992657 10.821824 2.314727 4.302188-1.835169 7.291879-5.26573 11.539727-11.351619 3.313112-.280525 4.610456-1.957409 3.829855-1.908827-3.525243.222018-5.984084-.23351-9.727729-2.025321 2.76293.114927 5.803303-.775232 8.709918-2.477714 1.620765 3.857356 4.518498 5.630884 7.060415 6.132904 2.512134.496797 5.930267-.557917 8.346264-2.906599 1.047071 1.53636 2.314633 2.797419 3.615112 3.327126-4.275018 6.83239-11.954062 10.59467-20.294056 10.650044-7.896922 5.939096-16.250501 7.994194-23.486472 6.364325-.231986-.398064-.443072-.760606-.627511-1.079266-3.905617-6.771792-13.8668996-18.584162-20.311298-20.570826-.8877114-5.255805-2.8465285-15.029272-4.9892622-25.160579.4780789.313959.9676525.574111 1.4577486.754337 6.0958972 2.236891 10.5710288-3.625936 8.487859-10.3381749 5.5556416-1.0029963 6.2322676-8.6273349 2.0251733-11.5527406-4.1642496-2.8966741-6.7009412-5.8445427-7.3164351-12.5557369 1.8355093-1.6669589 3.8591152-3.330261 6.0060288-4.9507268 2.1176546 3.9942236 7.8770676 6.5111173 16.0289646 2.8789127.042322.7104557.118083 1.4391951.231986 2.1872632.599819-.8718754 1.975537-3.0486907 3.85807-4.5516179 6.93136-5.5352855 16.794937 1.6805411 20.409004 9.8753339.338051-1.9547979.26647-7.5115016-2.310976-12.7317836 6.276156.6885151 11.880913 2.2718909 15.702931 3.9957907-2.902958 3.0910046-4.548803 7.5736665-5.096895 10.2399648 6.050963-5.4250604 10.823914-5.7792434 13.428007-4.1143741 1.044458 4.8708005 1.292119 11.4451274.883531 18.717895-.517265-.0987324-1.049161-.1797035-1.590461-.2439579.297297-10.3742201-2.571699-13.1982814-5.718659-13.6073158-1.387212-.1802259-3.45941.2836599-5.247373 1.8513639-3.327742 2.9186146-4.406162 8.6362156-4.400938 14.2242629-.978102.3980642-1.973969.842099-2.986555 1.3404627l.925853 3.1630947c10.840634-6.171561 24.758214-4.3238539 28.202472 3.896014m-52.276224 57.619522c-.823968-1.927111-1.703842-3.710041-2.535124-5.28088 5.310071.708367 10.159306.112315 13.852269-1.138818 1.856409 2.369056 3.919724 5.665884 5.601099 9.253685-4.353392-1.508674-11.971304-2.695552-16.918244-2.833987m-24.6929034-26.952912c1.8517065.848368 6.8467164 4.85983 11.6902034 11.572069 7.842583 10.86736 16.281328 25.503269 12.384594 36.182045-2.083693 5.70872-8.784634 8.454423-14.429622 6.55761-9.1822488-3.086303-9.4346117-13.11522-8.2563956-25.245729 1.466631-15.098227.0391868-24.133552-1.3887798-29.065995m53.2282024 32.328345c-1.643233.596052-2.978719 2.264055-3.112999 5.914021-.236688 6.391489 2.74412 12.119538 5.816365 14.717925-.778511.254929-1.590462.545902-2.441599.881279-1.946277-2.212338-3.256683-5.533196-4.183581-8.478975-2.412862-7.66822-2.543484-16.614215-10.296199-26.114993 1.063268-.574633 1.947845-1.208297 2.6182-1.871214 4.81057 4.152509 9.618528 11.344305 11.599813 14.951957m1.05334 2.662119c1.272265-.420004 2.709114-.047537 4.126108 1.253223 2.852276 2.617716 4.318385 7.65516 4.386308 11.256021.02926 1.582331-.366788 3.151602-1.415949 4.08512-.918016.167166-1.872606.369855-2.881013.626873-3.883672-1.847185-6.646602-10.080635-6.106347-14.28904.243481-1.888454 1.003182-2.640701 1.890893-2.932197m2.817792-14.54658c3.009546-4.011462 6.995103-3.042421 9.568369-1.619943 6.906803 3.818177 8.74388 11.143184 7.61321 14.937853-.629601 2.111516-2.365837 4.155643-5.182061 3.577353-3.722223-.765307-5.710299-4.397511-6.674817-7.097765-1.838644-5.149759-2.536169 7.263887 5.285515 9.682048.8224.254406 1.606135.363064 2.348595.360452.963472 4.014074 4.121405 5.346701 6.290786 5.588047.621241 3.092572 3.00641 5.356627 5.094805 5.970962 3.935921 1.157625 7.060415.385527 10.185953-2.005993 1.985464-1.519643 3.098369-3.334962.038665-2.121964-4.861252 1.929201-6.819025 1.893156-8.799264 1.420912-3.592645-.855681-5.62461-5.415658-1.540824-9.559286 2.623425-2.661597 6.636152-3.876685 10.687544-3.529293 2.73158.234033 1.297344-.889114-.520923-1.504494-4.784446-1.619944-10.069961-.578813-13.425917 4.28154-.873605 1.264193-1.400798 2.49652-1.666223 3.669295-1.06588-.166644-2.564906-.663441-3.386783-2.882047 2.839736-1.353523 4.570747-4.468035 4.608889-6.824032.021422-1.322701-.102931-2.587939-.341709-3.795191 3.187715-2.342937 7.803919-2.88257 11.72312-2.685105 2.159454.108658.462927-1.249043-1.620243-1.890021-2.259772-.695828-7.02175-1.160237-10.990589 1.545241-.764926-1.945394-1.840734-3.686011-3.107773-5.189983 2.759795-2.377937 7.099601-3.546009 12.40079-2.835554 2.160499.288884.617584-1.050011-.733054-1.659123-4.82311-2.17577-10.158261-1.111654-13.408152 2.676747-1.644801-1.512331-3.472995-2.68406-5.289172-3.461905 1.124922-5.166475 7.59649-8.768381 13.295294-7.932028 8.411053 1.233894 12.037137 7.560084 13.040842 11.494755 3.317815 3.163094 6.344603 8.569871 7.33002 17.435418.947275 8.521289-1.892461 19.444022-13.379416 23.366678-.015152-.022463-.030304-.046493-.045979-.068956-4.42027-6.227458-13.746204-9.493987-21.781063-8.749053.568469-.977399.796275-2.298533.792618-4.056911-.005225-2.450549-.724695-5.2067-1.748776-7.454038-1.478126-3.243021-4.266135-6.307384-7.117889-7.199632-.5622-1.127326-1.174036-2.250473-1.825059-3.357948.238778-3.134886.804113-6.557611 2.280671-8.527036m56.946245 62.102707c-7.251124-4.996175-14.985029-5.945887-22.247125-4.878636-.209519-5.902529-1.408635-10.641164-3.258774-14.420683 6.952782-2.554506 15.807952-10.714821 15.397274-23.748026-.327079-10.382578-3.781264-16.895785-8.333202-21.909722-1.543437-5.709242-6.944944-13.423955-16.358656-13.810004-6.761028-.277391-14.37476 4.121165-16.59012 10.755567-4.600007-.318138-9.502536 2.984437-10.503627 10.270264-2.790622-4.018254-5.872794-7.537099-8.461735-9.811079 4.373768.165598 10.9258-.332765 17.654433-5.73693 2.683512-2.155397 5.171089-5.373866 6.965322-8.89689 2.848096-1.001429 4.213363-3.165707 4.945373-5.239088 3.460455.180748 6.506052-3.086826 5.586991-9.700332 2.784352-4.234003 3.412386-9.214506 3.104116-13.079176-.39657-4.976846-4.137602-10.0848137-10.382409-12.5447664.166674-1.3697168.205339-3.0063768.151522-4.7809488 10.662465-4.8081133 19.918907-12.1890164 25.1621-20.052089 7.009733-10.5126544 5.290217-24.8596799-19.075085-27.2172435-.769629-9.5472705-3.98608-17.5571358-9.698992-22.9727932-8.288268-7.8583711-22.777975-11.4487842-38.999217-6.4792512-7.813846 2.3925639-19.595485 8.6827086-29.7119474 16.8461578-.1870516-2.2405474-.7173795-4.3353468-1.5131327-6.1161876-3.0576146-6.8470165-9.4967881-7.3046336-13.5894566-5.9234242-.2842348-3.3960826-1.6432328-6.71903-4.3089795-9.7797358-7.962756-9.14293761-32.1530233-11.3202753-48.2760366 5.0196828-6.9747263 7.0679892-11.3265501 19.5014859-10.2209601 31.3352744 1.1275346 12.0657314 6.4705229 24.984532 14.7817801 32.9108143-.1071106.4147808-.2063838.9053086-.3087919 1.5572562-1.133282 7.187095 1.654205 16.3775705 10.2538769 19.9246252.7100647.293063 1.4551362.555827 2.2284222.790904 5.9537798 21.725839 11.8479957 41.332848 21.0824936 66.461561.3087919 3.625936-2.5079546 13.115221-7.8321333 23.645637-4.9976221 9.883692-6.2500319 17.589524-4.3983254 26.731417-4.2279935 8.531214-10.9952911 18.746627-17.7082496 27.078287-3.5038217-.729262-6.5624813.252316-8.654011 2.696074-7.2391065 1.274641-10.968644 4.980504-12.8558799 8.40584-1.2106106.784113-2.42644608 1.607406-3.41395322 2.321519-2.98603347 2.162188-5.05823098 3.60295-6.40521161 7.669787-1.0282614 3.107198-1.37989754 6.393056-1.13693943 10.614521.28109991 4.884905 1.04132366 8.216211 2.93744185 9.386895-6.06245781 22.320846-.18339418 38.845732 7.30598531 45.542299 5.3570956 4.791396 10.8808657 5.129385 14.9306899 4.956995.8814415-.03709 3.6286968-.128509 6.740128-.35575 17.7197445 5.611033 38.7060998-8.284645 32.8348735-35.31905 2.5340791-2.526297 4.172087-6.328802 4.0597515-11.481695 14.3909572-16.587051 22.5700242-29.277565 28.0101958-37.841168 11.4806846-.087762 22.0532806-1.68681 30.3321436-5.312223-3.406638 6.509027-3.719088 15.112332 2.315156 22.363159-.060087 9.367567 4.058706 15.59398 7.625749 17.362806.391868 1.414642.899206 2.516371 1.278535 3.195483 3.058137 5.483046 10.602378 8.388078 19.907934 7.059108 7.796604-1.113743 16.19773-4.69841 24.421731-10.414966 12.71742-3.747654 26.517963-9.297044 32.870925-20.328958 2.097277-3.641086 2.91602-7.87561 2.220585-11.836923 4.039897-12.130508.470242-27.105451-10.862578-34.914195" fill="#090204" fill-rule="evenodd" opacity=".1" transform="translate(0 -3)"/></svg>