<svg xmlns="http://www.w3.org/2000/svg" width="395.93" height="368.759" viewBox="0 0 395.93 368.759"><path fill="#090205" d="M387.471 238.676c-3.231-4.277-13.034-16.498-21.562-25.49-8.614-9.084-19.717-20.262-24.617-24.256 1.1-1.088 3.177-3.006 4.216-3.074 1.445-.096 5.338 2.564 8.838 6.031 3.503 3.471 5.492 7.153 5.588 7.697.095.545-.576 3.395-.48 3.484.095.09 3.752 1.028 7.048 3.23 3.706 2.477 9.616 8.209 14.034 13.545 4.434 5.355 10.785 14.56 10.719 15.332-.064.733-1.87 2.173-3.784 3.501zm-9.84 17.119c-5.582 2.977-12.969 3.582-18.142-.373-5.179-3.959-5.769-10.605-5.769-10.605s-1.838-.385-4.032-1.58c-.295-3.324-1.596-5.677-1.982-5.521-.62.248-.372.992-.372 3.597s0 7.319-4.963 9.181c-3.063 1.148-5.463-.115-6.852-1.25.324-1.506.598-2.945.846-4.279 1.486 2.016 2.001 2.859 2.532 2.68.849-.285-1.229-7.67-8.165-15.105a106.34 106.34 0 0 0-4.922-4.953c.616-4.637.908-9.221.942-13.59.524.262 1.053.555 1.549.881 2.319 1.52 3.899 2.954 4.327 2.505.367-.386-1.674-4.64-5.908-7.054-.108-4.405-.466-8.531-.995-12.191-.139-.958-.304-1.904-.467-2.854 1.027-1.353 3.138-3.668 5.948-4.33 4.005-.943 6.792-.399 9.396 1.396 2.602 1.793 8.53 7.755 23.63 23.352 15.197 15.699 21.913 25.742 22.235 27.166.439 1.936-1.952 9.112-8.836 12.927zm-58.147 12.745c-4.313 2.005-9.115 1.871-12.261 1.113 5.587-6.356 9.028-12.294 10.71-15.565 3.536-6.877 5.821-14.447 7.18-22.016 2.769 2.72 4.902 5.172 7.334 7.986.303.351.588.686.859 1.011-1.729 8.975-4.952 23.349-13.822 27.471zm-55.695 21.267c12.126-13.727 22.858-24.271 23.01-24.418l-1.588-1.62c5.277-4.84 8.962-8.854 12.69-13.819.124.014.247.037.372.046 3.004.19 5.576-1.018 7.318-3.102 1.23-1.473 2.309-4.495 2.219-7.107a16.066 16.066 0 0 0-.263-2.365 17.804 17.804 0 0 0-.743-2.751c3.424-7.895 5.697-16.723 6.787-26.312 2.564-1.922 4.425-4.02 5.521-6.615 1.899-4.498.496-11.66-3.722-14.018a9.682 9.682 0 0 0-1.275-.589c-.489-8.231-1.643-15.141-2.774-20.28 4.958 9.634 8.535 20.802 10.214 32.416 1.98 13.697 1.165 35.779-7.652 52.928-4.007 7.787-18.78 31.837-50.114 37.606zm-20.877 18.15a39.936 39.936 0 0 0-4.556-3.742c-7.343-5.221-14.443-8.639-19.872-10.394 2.199-19.683 9.185-32.054 11.93-36.257a17.196 17.196 0 0 0 3.977 1.982c5.307 1.846 16.545 2.771 19.456-3.252 2.265.25 5.879.572 6.469.15.868-.62 2.166-3.658 2.978-8.435.629-3.707 1.061-7.688 1.318-10.458a307.893 307.893 0 0 1 8.109-2.938c1.961 1.463 7.234 4.789 15.773 2.864.889 1.452 1.054 2.605 1.185 3.886.14 1.364.507 3.127 1.647 4.908 1.018 1.588 3.096 2.912 5.342 3.459-3.575 4.707-7.158 8.582-12.237 13.238l-.763-.777c-.228.225-21.237 20.221-40.756 45.766zm-3.305 17.063c-4.191.025-6.175-1.35-6.352-.897-.248.625 1.348 2.253 3.79 3.285.725 2.725 3.26 13.745-1.324 21.843-4.542 8.024-10.88 8.303-11.53 8.189-1.598-.475-12.778-6.782-21.651-12.39l-8.629-5.093c-5.475-3.434-12.442-7.7-18.716-11.457-7.454-4.465-15.636-9.717-17.023-10.869-.878-.459-2.036-4.977-2.036-9.227 0-2.717.421-5.018 1.595-7.675 1.43-3.241 4.158-6.648 8.07-8.667 5.203-2.684 11.738-2.32 17.049-.264 10.01 3.875 14.104 14.927 14.141 15.07l.824 2.336.075.455c2.115-.853 4.813-1.707 6.85-2.313.312.315.638.626.993.921 1.877 1.559 5.602 2.944 5.962 2.412.519-.766-4.788-3.652-5.362-8.193-.576-4.543 2.98-6.368 6.939-5.779 4.871.726 12.457 4.234 18.781 8.146 5.354 3.312 10.367 7.384 12.245 12.146 1.877 4.767-.497 7.993-4.691 8.021zm-23.863 39.039c-1.299-.223-15.576-8.861-15.855-9.357-.391-.697.586-2.771.26-3.213-.473-.643-10.592-.703-26.09-9.719-11.551-6.72-18.485-12.404-18.746-13.937-.184-1.079 1.371-4.483 2.308-6.407 2.598 1.719 7.485 4.707 15.802 9.818 6.212 3.818 12.933 7.867 18.375 11.279l8.584 5.412c10.406 6.574 16.902 10.516 20.475 12.402-1.441 1.893-3.996 3.916-5.113 3.722zm-53.672-91.612l-2.232-.744-.972 1.105c-.113.123-12.054 14.71-35.126 19.176-23.45 4.539-35.524-.801-40.296-3.957 8.731-4.372 14.741-9.888 17.224-12.385 7.45 5.389 14.436 4.074 14.291 3.413-.174-.8-2.537-1.497-6.662-3.538-4.125-2.043-9.748-6.191-13.955-15.537-.913-2.027-1.581-4.273-2.074-6.551 3.401-12.738 14.653-27.485 28.643-31.302 15.551-4.241 30.375.384 37.76 11.782 3.715 5.73 4.703 12.316 4.703 17.707 0 6.08-1.259 10.638-1.282 10.723l-.148.521.517.164c.203.064 20.379 6.293 57.224 7.137-1.598 4.523-3.115 9.985-4.242 16.438-32.832-5.762-53.201-14.095-53.373-14.152zm92.069-30.783c-1.1 7.298-2.24 11.295-3.283 12.423-1.19 1.288-5.854 3.695-12.994 1.986-3.458-.825-5.752-2.631-7.203-4.274 6.853-3.108 15.044-6.703 23.48-10.135zm7.318-2.907c-1.061 6.573-2.359 12.761-3.004 12.976-.536.178-2.418-.028-3.434-.158.736-3.896 1.358-8.119 1.75-10.971a417.484 417.484 0 0 1 4.688-1.847zm50.916-29.535c-1.069 8.698-3.128 16.749-6.156 24.011a20.114 20.114 0 0 0-7.114-8.378c.925-1.917 2.237-5.003 2.89-10.088 4.139-1.93 7.607-3.674 10.38-5.545zM42.338 287.611c-12.672-4.08-22.421-13.582-30.26-24.881-8.349-14.007-10.21-32.893-3.252-50.031 8.951-22.215 35.279-33.471 59.645-27.978 21.652 4.818 35.185 22.998 35.313 23.179 0 0 4.763-4.891 11.585-8.391 7.936-4.073 13.416-3.707 13.769-4.28.304-.494-3.322-2.562-8.897-1.374.569-2.451 1.312-6.107 1.547-9.396 0 0-3.83-24.697-14.885-29.699-3.07-1.389-6.194-.493-8.127.389 3.054-5.208 7.417-8.676 13.288-7.813 10.879 1.6 14.615 18.951 15.865 26.589.837 5.117 1.116 6.513 1.303 6.513.624 0 1.143-2.359 1.274-5.627 2.207 1.914 6.162 6.281 7.921 13.792-4.561 8.595-5.801 16.17-5.629 20.458.248 6.203 2.979 7.795 6.326 8.188 3.232.381 6.823-1.5 9.108-3.905 1.664 5.305 4.865 8.768 8.258 10.107 3.969 1.566 5.648-.384 6.45-2.002 2.273 2.456 4.729 3.837 6.608 3.453.891 2.926 2.407 8.937 2.322 15.763l-.033 2.729 2.681-.507c9.871-1.864 18.651-5.729 26.843-11.813l-.074-.1c1.729.729 3.77 1.331 6.145 1.693a402.205 402.205 0 0 1-4.425 1.203l1.49 4.027c.372-.102 37.479-10.41 62.847-20.77l.9-.369.025-.977c.002-.083.503-9.684 6.146-15.48l.64-.625-.228-1.097c-.053-.181-.797-3.859-3.493-8.931-2.108-3.963-1.958-7.267.446-8.783.733-.462 2.18-.742 3.841-.003 1.951.868 5.522 5.837 7.345 16.024-.698 2.676-1.221 3.005-1.084 3.442.201.638 1.567.214 2.342-.819.838-1.117 3.201-3.71 3.033-12.4-.152-7.939.959-11.7 5.691-11.244 4.731.456 5.049 6.03 3.248 14.906s-3.601 10.675-3.566 11.667c.035.991 3.266 1.127 5.826-.202 3.103-1.612 5.046-3.122 7.879-7.316 2.833-4.195 6.411-5.542 8.807-2.232 2.604 3.597 1.55 9.584-5.334 13.645-7.948 4.688-11.123 6.073-11.123 6.073-.634 6.724-3.152 11.979-3.18 12.026l-.764 1.756 1.605 1.07c3.733 3.064 6.432 6.333 7.289 10.986.484 2.625.154 5.096-.845 6.289-1.128 1.348-2.459 1.906-4.508 1.775-1.859-.117-3.29-.826-4.033-1.988-.759-1.186-.858-2.159-.985-3.393-.168-1.617-.639-4.115-2.524-6.633l-.61-.812-.98.271c-9.262 2.02-15.336-2.336-15.592-2.562l-.648-.574-.824.277c-28.02 9.674-61.038 24.896-61.388 25.056l1.86 4.342c.141-.063 5.631-2.764 13.896-6.57.24.34.499.671.772.997-1.496 2.158-4.397 6.869-7.149 14.342-33.873-.738-53.596-6.033-56.775-6.953.329-1.361 1.184-5.371 1.184-10.483 0-5.563-1.023-12.378-4.877-18.322-7.656-11.813-22.961-16.623-38.991-12.251-13.609 3.711-24.697 17.453-28.806 29.982-1.238-7.414-.891-14.465-1.385-14.693-.772-.357-2.521 3.642-2.662 9.369-.136 5.546.344 16.409 8.16 25.529a30.03 30.03 0 0 0 1.837 1.954c-5.581 5.465-26.61 23.438-55.424 14.418zm50.789-110.695c.158-4.929 1.133-10.851 3.038-16.108 1.367-1.087 3.558-2.225 6.458-1.769 5.173.815 11.909 5.303 16.114 25.013 0 0 .197 5.117-1.399 10.64-7.483 2.521-9.967 4.812-13.313 7.933-.266-.381-3.119-4.264-8.545-8.764-.656-1.345-2.692-6.412-2.353-16.945zm56.449-3.247c-.947.903-1.91 1.9-2.885 3.017a64.825 64.825 0 0 0-5.895 7.858 33.174 33.174 0 0 0-4.388-8.724c2.872-1.357 8.006-3.192 13.168-2.151zm11.379-4.303c4.963-2.729 7.071-1.86 6.823-2.729-.121-.426-2.519-1.087-6.245-.143-.232-.976-.463-2.479-.081-3.704 1.019-3.257 4.921-6.451 20.964-2.729 9.907 2.299 12.607 6.912 13.235 10.107a53.912 53.912 0 0 0-1.018 1.708 24.8 24.8 0 0 0-.993 1.936c-2.395-2.046-5.169-2.675-5.52-2.09-.372.62.249.496 1.984 2.357a11.538 11.538 0 0 1 2.214 3.457c-1.023 4.004-.779 8.032.55 12.047-1.309 2.574-4.671 7.808-12.066 12.53 0 0 1.861 5.458 1.985 9.8s-.621 7.691-2.233 8.187c-1.613.496-5.582-.497-8.436-10.296s-2.604-10.295-3.349-10.295-1.612 4.341 1.239 13.645a28.76 28.76 0 0 0 1.194 3.219c-.115 2.062-.641 4.443-2.434 4.72-3.226.497-7.167-6.236-8.808-13.149-1.736-7.318.372-11.412-.496-11.908-.867-.495-4.217 3.846-2.604 13.025.66 3.754 2.274 7.301 4.231 10.088-.564.865-1.647 1.471-3.736.332-4.093-2.233-6.326-8.436-7.07-15.258-.621-5.693 1.861-11.784 1.242-12.528-.621-.744-4.838 4.838-4.467 14.638.024.615.067 1.215.125 1.801-1.665 2.586-4.989 6.677-8.56 5.021-4.478-2.075-1.452-13.867 3.316-23.26l.126-.154-.012-.068a57.557 57.557 0 0 1 1.904-3.436c5.832-9.676 12.035-14.142 16.996-16.871zm10.365-16.82c5.42-19.687 11.025-40.043 18.19-46.689 3.085-2.862 7.126-4.469 10.906-5.37 2.831.737 8.364 3.057 12.762 10.331 3.162 5.23 4.647 11.569 4.647 17.372 0 5.023-1.199 9.257-2.849 12.988-1.688-.049-6.478.124-12.037-.244 2.892-8.355 4.879-13.75 4.913-13.842l-3.491-1.288c-.059.155-5.618 15.249-11.743 34.274-2.121-1.36-4.944-2.613-8.715-3.488-5.02-1.166-9.463-1.754-13.231-1.699l.648-2.345zm-52.035-22.632c.482-2.854.672-6.509.457-11.188-.193-4.193-.903-7.826-2.012-10.765 1.961-.111 5.019-.253 8.718-.318 2.16 3.948 6.266 6.247 9.377 5.64 2.138 3.016 7.874 9.025 20.087 10.246 1.693 1.229 9.586 6.171 18.471 3.41a262.448 262.448 0 0 0-2.019 6.315c-22.69-2.975-45.395-3.316-53.079-3.34zm-8.681 6.611a4.513 4.513 0 0 1-3.737-.888c.506-1.871.441-3.6.315-4.353-.309-1.856-.93-1.396-1.209-.186-.279 1.209-2.14 5.303-6.233 7.443-3.768 1.969-7.878 1.223-9.753.705a6.492 6.492 0 0 0-.076-3.357c-.623-2.115-1.775-3.247-2.844-3.793.034-.248.053-.48.064-.7 2.839-1.274 4.422-4.483 4.422-4.483 2.326 2.605 5.117 2.14 5.117 1.582s-1.396-1.023-2.698-3.349c-1.303-2.326-1.582-4.466-1.861-4.466-.279 0-.465.373-1.302 2.512-.837 2.14-3.908 5.489-6.047 5.023-2.14-.465-4.931-2.232-4.373-11.257s4.28-11.568 3.784-11.971c-.307-.249-1.458-.031-2.295.807-.774.775-3.142 3.549-4.449 9.123-.717-.131-1.671-.207-2.9-.098-3.163.279-4.931 2.419-4.745 2.884.186.465 1.489-.186 4.466-.372a18.294 18.294 0 0 1 2.729.014c-.388 3.086.006 6.339 1.081 8.992-1.98.816-7.051 1.547-10.887-1.032-5.346-3.594-5.294-7.989-4.896-10.052a67.864 67.864 0 0 0 2.111-.249c5.582-.745 8.745-2.791 8.56-3.442-.235-.825-2.047.186-11.257.465-9.21.279-12.932-.744-13.304-3.908-.372-3.163 2.977-7.628 19.351-10.233 16.374-2.605 26.793 1.396 32.096 4.373 5.303 2.977 5.675 7.442 6.233 6.792.339-.396.641-2.681-.967-5.372.414-.339 1.188-.745 2.586-.867.862-.076 2.556.011 4.203 1.451 1.871 1.636 4.187 5.467 4.599 14.439.756 16.456-3.564 17.345-5.884 17.823zm-24.287 3.683c-1.631 2.245-5.114 3.817-8.667 3.917-2.65.074-4.624-.628-5.704-2.031-.568-.736-.852-1.65-.849-2.622 5.1 1.365 11.359-.519 13.88-3.04a7.111 7.111 0 0 0 1.101-1.431c.33.288.704.799.977 1.728.342 1.165.094 2.334-.738 3.479zm-16.445-4.428c-3.973-2.405-4.131-5.581-3.708-7.599 3.917 2.289 8.688 2.188 11.702 1.355a10.49 10.49 0 0 0 1.62-.585c1.043 1.41 2.376 2.422 3.973 2.799.217.051.429.084.64.111-.128.768-.453 1.689-1.227 2.464-1.988 1.988-8.845 3.97-13 1.455zm99.55-29.769s1.508 7.387-2.698 9.489c-2.232 1.116-4.279-.279-4.279-.279s-1.116-2.512.558-4.931c-.001 0 3.721-2.14 6.419-4.279zm-5.489 1.488c-4.372 2.791-7.163 3.163-7.814 3.07-.651-.093-1.769-2.047-1.769-2.047 8.281-2.605 13.211-8.001 13.211-8.001.838 1.303 1.396 3.256 1.396 3.256s-.652.931-5.024 3.722zm-51.85-13.924c-2.463-2.706-3.525-6.143-3.226-10.171.869-11.66 10.312-13.391 14.682-13.521 7.749-.231 13.417 2.992 13.473 3.024l2.261 1.308-.025-2.611c-.094-8.826.798-17.419 1.217-20.945 1.022.354 2.058.712 3.105 1.067-.674 2.034-.89 3.635-.57 3.955.191.191 1.215-1.367 3.188-3.085 5.594 1.825 11.289 3.396 16.133 3.643 5.282.269 9.84-1.462 11.976-2.448a333.007 333.007 0 0 1 5.519 3.179c-.018.906-.219 4.086-2.733 6.339-1.005.901-1.883 1.532-3.091 2.252-2.762 1.649-6.117 3.753-6.117 7.686 0 .24.013.488.035.744.287 3.058 2.457 4.368 4.126 5.037-.119.793-.198 1.543-.198 2.204 0 4.924 2.758 6.992 4.254 7.382 3.264.852 8.559-.347 12.031-9.428 2.535-6.626 5.582-9.525 9.791-11.419a9.836 9.836 0 0 1 8.719.294c3.243 1.728 5.299 4.979 6.051 9.389 1.619 9.478-4.351 16.064-7.335 18.415-5.511.522-13.373 2.195-18.837 7.264-4.029 3.737-7.496 10.842-10.695 19.69-9.247 3.97-18.027-1.578-18.385-1.866l-.347-.281-.445-.046c-11.564-1.147-16.478-6.832-18.207-9.573.473-1.242.383-2.528.383-2.528s3.256 2.605 8.095.372c.287-.132.552-.28.803-.436 1.682.897 4.127.715 4.127.715s4.522 6.418 10.606 8.373c5.21 1.674 9.21-.651 9.396-7.722.186-7.071-3.35-13.118-4.001-13.211-.65-.093-3.137 3.553-8.745 6.698-3.981 2.233-7.093 2.687-8.953 2.696 1.123-1.819 1.263-3.626 1.263-3.626s5.21.868 8.062-1.861c3.307-3.162 2.233-9.18 2.233-9.18 6.077-1.116 6.419-6.388 4.559-10.357-1.86-3.97-4.931-5.023-5.304-4.651-.438.438-1.209 5.117-5.457 9.303-2.428 2.391-5.282 3.964-7.1 4.814a9.07 9.07 0 0 0 .401-1.589l-3.303-.741c-1.163 5.082-8.358 11.533-18.778 11.285-6.573-.159-11.445-2.324-14.637-5.832zm-.135-45.716c-2.875-1.87-3.443-2.881-3.342-3.816.251-2.318 4.613-4.932 11.803-6.244 9.251-1.689 16.663-1.678 17.979-1.661a358.414 358.414 0 0 1 14.622 6.597c-3.688-.011-6.708 3.565-8.201 6.15-1.488-.494-3.075-1.021-4.816-1.579-11.033-3.542-15.198-3.932-18.918-4.094-2.852-.124-4.154.125-3.907.62.248.497 3.535.186 17.862 4.962.782.261 1.588.536 2.403.816a153.956 153.956 0 0 0-.634 5.541c-11.482-.949-20.33-4.349-24.851-7.292zm27.866-23.735l5.232-3.983 2.016 15.102 5.799-4.682L147 14.094l-6.132 4.655c.902-3.182 2.374-6.335 4.729-8.918 3.233 1.126 8.932 4.161 10.284 11.804 1.613 9.108-2.296 15.108-3.937 17.157a343.61 343.61 0 0 0-12.222-5.47 44.725 44.725 0 0 1 .092-9.198zm19.809 28.564c-3.463-.356-6.607-1.171-10.26-2.319.051-.028.098-.058.149-.085 4.187-2.233 6.513-1.675 8.094 0 1.484 1.57 1.827 2.333 2.017 2.404zm-1.977-7.697a358.157 358.157 0 0 1 13.033 6.793c-1.416.585-3.816 1.167-7.739 1.104a38.27 38.27 0 0 1-3.279-.197c.145-.163.348-4.793-2.015-7.7zm16.249 31.475c-.42-.051-2.533-.436-2.773-3.001-.23-2.46 1.434-3.58 4.396-5.348 1.328-.793 2.703-1.615 3.922-2.708 2.516-2.256 3.392-4.794 3.693-6.459 5.035 3.048 8.726 5.479 10.871 6.936-4.041 2.655-6.219 6.638-8.487 11.837-1.705 3.908-4.552 8.354-8.431 7.341-2.678-.698-2.513-4.079-1.902-6.792l.363-1.606-1.652-.2zM153.34 4.938c17.516-5.525 49.667 12.35 63.198 40.629l.327.718.779.132c.169.028 15.812 2.843 18.029 11.82.355 1.44.51 2.856.51 4.232 0 7.256-4.186 12.254-6.817 14.979-1.737 1.798-2.356 1.861-3.349 1.55-3.805-1.025-7.637-2.963-10.262-4.344-1.222-4.515-3.995-8.17-7.602-10.091-3.494-1.862-7.928-1.666-11.56-.083-5.146-3.701-20.351-14.087-43.215-25.003 2.027-2.428 6.017-8.563 4.351-17.973-1.443-8.149-7.349-11.614-10.819-12.972 1.727-1.525 3.838-2.776 6.43-3.594zm75.593 85.784c.337 1.771-.872 2.852-1.682 3.364-.708-.371-1.483-.605-2.288-.635-3.35-.125-4.342.62-1.612 1.365s4.093 3.721 3.597 4.961c-.496 1.24-3.102 2.729-9.055.496-4.158-1.559-5.65-4.384-6.176-5.949 2.731-3.495 5.359-8.948 4.675-16.059 2.124 1.1 5.118 2.404 7.382 3.344a26.453 26.453 0 0 1-1.539 3.406c-1.613 2.977-2.729 4.465-2.232 4.713.494.25 8.433-1.611 8.93.994zm-33.207 71.859c.481-1.504.96-2.986 1.434-4.44a63.024 63.024 0 0 0 3.144 5.686 43.956 43.956 0 0 0-2 2.458c-.456-1.012-1.242-2.331-2.578-3.704zm7.203 51.282a51.276 51.276 0 0 1 1.134-7.798c6.031 6.324 9.303 9.324 10.689 10.529-5.645.189-9.891-1.666-11.823-2.731zm-5.733 5.506c.573-2.725 3.856-3.494 4.508-3.641 1.828 1.129 6.694 3.557 13.673 3.178-.391 6.226 3.462 9.139 4.999 10.047l-1.476.436c-11.846.948-18.303-2.535-20.195-4.682-1.467-1.665-1.937-3.303-1.509-5.338zm-21.508 12.476c-.79-5.176-2.066-8.968-2.473-10.095.197-.428.344-.851.453-1.247 1.841 2.287 3.877 3.378 5.712 3.551-.209 3.846-2.068 6.332-3.692 7.791zm7.429-8.852c3.088-2.294 4.547-8.217 1.655-19.143 0 0 6.827-4.119 9.744-10.329 1.518 3.006 3.614 5.996 6.213 8.957-.757 2.536-1.582 6.074-1.822 10.059-2.413.555-4.932 2.857-5.905 5.988-.227.726-.297 1.796-.197 2.825.16 1.67.891 3.729 2.498 5.553a13.023 13.023 0 0 0 1.83 1.69c-6.454 4.51-13.311 7.586-20.843 9.339-.026-.61-.064-1.21-.108-1.8 2.451-1.567 7.095-5.55 6.935-13.139zm80.424-73.846c.03 14.73-10.762 23.754-26.484 33.709 5.024 4.745 7.629 7.814 7.629 7.814 1.613-.868 4.299-1.161 5.303-.465 1.21.837 2.454 3.754-4 16.839-6.791 13.77-18.354 19.639-23.072 18.42-3.367-.869-4.07-4.273-4.072-6.957l.004-.001-.004-.146c.015-1.846.351-3.315.351-3.315-14.606-14.048-23.165-21.863-22.421-34.144.584-9.613 7.971-17.117 16.157-22.203a66.075 66.075 0 0 1 7.115-3.84l-1.54-3.289a18.67 18.67 0 0 0-1.73.678c-4.537 2.042-9.277 4.517-13.808 8.803a59.489 59.489 0 0 1-4.077-8.174 987.173 987.173 0 0 1 3.182-9.421c7.057.552 14.064.326 14.126.327l.719.013.31-.649c3.939-8.26 5.074-21.762-1.691-32.949-3.46-5.725-7.74-8.802-11.113-10.446a44.346 44.346 0 0 1 6.066-.38c1.289 1.682 3.736 3.91 8.148 5.12 2.738.75 4.979.723 6.764.263 28.076 15.978 38.107 29.29 38.138 44.393zm-2.254 26.549c.257 1.984.382 6.532-2.083 12.53-.115-.062-.224-.13-.347-.191-1.998-1-4.076-.889-5.483-.614-.466-.795-1.081-1.278-1.804-1.681-2.693-1.497-5.489-.372-5.489-.372-1.116-1.396-1.768-2.233-1.768-2.233 4.744-2.846 9.117-6.193 12.697-9.623 1.22.446 2.767 1.143 4.277 2.184zm1.816 21.437c1.115.33 3.029.949 3.29 1.385.302.502.278 4.094.061 7.813-1.086 3.161-1.092 5.909-1.234 7.362-1.74.709-3.525 1.414-5.343 2.111 1.173-5.208 2.729-15.159 3.226-18.671zm-8.76-5.309c3.728-.665 5.452 1.626 5.88 2.91.495 1.488.168 3.65-.402 7.627-.613 4.264-1.864 11.51-2.362 14.361-6.067 2.276-12.406 4.459-18.525 6.462 10.362-9.835 15.459-24.907 15.429-30.498a32.688 32.688 0 0 0-.02-.862zm8.942-15.929l.101-.109c.08-.134 1.956-3.454 5.364-2.822 2.162.4 3.437 2.187 3.764 4.319-1.121.159-2.096.498-2.694.875-1.933 1.219-3.717 3.772-3.606 6.952.061 1.734.705 3.684 1.917 5.965 1.894 3.559 2.759 6.41 2.978 7.939a19.937 19.937 0 0 0-1.867 2.115c-.039-1.961-.176-4.488-.613-5.217-.406-.675-4.088-1.893-5.451-2.324-.221-1.404-.822-2.83-2.131-4.055 2.59-5.545 2.521-10.875 2.238-13.638zm17.976-25.286l.826-3.111c.749-2.88.929-6.042 2.548-6.897 1.545-.817 5.465.006 12.594 6.813 4.494 4.291 8.564 9.627 12.064 15.691 1.342 5.129 3.042 13.33 3.688 23.692-4.075-.872-7.145 2.305-10.113 6.597-2.857 4.132-5.278 5.272-5.278 5.272 2.291-5.539 3.907-12.547 3.86-17.51-.049-4.963-3.588-8.609-8.143-9.275-4.117-.602-8.848 2.542-9.405 7.898-.265 2.533-.111 4.982-.028 7.46-1.976-5.929-4.102-7.898-6.488-9.219a6.292 6.292 0 0 0-1.018-.447c-.127-2.957-1.238-5.25-2.816-6.791 4.368-7.454 6.466-15.668 7.709-20.173zm114.667 85.446c.125-1.729-5.424-10.985-12.809-19.055-8.191-8.954-13.915-14.433-19.865-16.127 0 0 .937-2.47.649-3.461-.286-.988-3.214-5.252-8.301-9.846-5.083-4.592-8.212-6.004-10.322-5.915-1.66.07-5.488 3.722-7.077 5.31-3.51-1.287-9.745-.643-13.732 4.189-3.983-18.907-12.69-35.594-24.213-46.593-9.817-9.372-15.233-9.144-17.62-7.951-2.681 1.34-3.601 4.875-4.872 9.769l-.809 3.047c-1.198 4.338-3.371 12.205-7.534 19.19-3.747-.691-6.123 1.556-7.371 2.987a27.418 27.418 0 0 0-2.114-1.111c2.653-2.974 4.619-5.918 5.588-8.564 2.752-7.514 4.962-21.211-6.574-35.849-9.611-12.195-25.325-20.51-30.305-22.946 1.169-.991 1.835-2.197 2.022-3.228.214-1.178-.197-2.517-1.003-3.67 1.504-1.25 4.683-4.378 3.236-7.493-1.613-3.474-7.691-1.985-7.691-1.985s1.023-1.659 1.939-3.874c1.126.104 3.001-1.191 5.068-3.259 3.408-3.407 7.866-9.153 7.866-17.458 0-1.585-.18-3.221-.591-4.885-2.416-9.79-17.126-13.367-20.609-14.064-6.164-13.085-17.932-26.143-31.136-34.112-12.887-7.778-25.801-11.041-35.725-7.939-17.76 5.549-16.385 26.208-15.7 31.663-2.982.097-9.089.467-16.551 1.829-10.889 1.987-14.637 6.078-14.761 9.303-.097 2.507 2.094 4.417 4.838 6.202 2.32 1.511 11.702 6.609 26.701 7.847-.258 3.314-.449 7.152-.403 11.008-2.853-1.116-6.859-2.526-12.528-2.356-10.822.323-17.869 6.583-18.359 16.622-.233 4.786 1.368 9.511 4.341 12.777 3.511 3.856 8.708 6.137 15.406 6.714.03.401.081.792.148 1.176-4.359.099-7.702.295-9.208.395-.663-1.029-1.396-1.904-2.193-2.601-2.478-2.167-5.088-2.292-6.423-2.174-2.075.182-3.375.913-4.188 1.673-1.019-.988-2.341-1.972-4.054-2.888-8.001-4.28-18.886-5.49-31.817-3.442-12.932 2.047-23.258 5.861-22.328 13.769.73 6.2 8.269 7.067 14.319 6.799-.316 2.675.049 7.015 4.341 10.822-1.245 3.671-.711 8.659 4.614 11.952-.325 2.059.149 4.076 1.371 5.661 1.176 1.525 3.543 3.316 8.145 3.188 4.23-.118 8.296-1.909 10.579-4.615 2.51.589 7.731 1.42 12.266-.407 2.544-1.026 4.078-2.376 5.006-3.664 1.119.771 3.21 1.776 6.158 1.337 2.531-.376 5.067-1.774 6.608-6.117 6.659.002 29.784.245 52.93 3.229-1.449 4.903-2.869 10.026-4.291 15.191l-.914 3.31c-4.155.867-7.037 2.934-8.344 6.436-.816 2.193-.378 4.493.125 6.027-1.457.681-3.027 1.597-4.679 2.81-8.116-3.227-16.111.125-19.418 1.891-1.367-1.489-2.585-2.534-3.383-3.148a39.416 39.416 0 0 0-.4-3.176c-2.21-13.07-10.115-22.444-18.717-22.864-8.193-.4-15.438 4.519-19.768 19.205-3.847 13.05-2.055 25.28-1.761 27.064a63.276 63.276 0 0 0-21.034-8.906c-27.01-5.847-53.524 6.899-63.98 30.149-7.964 19.545-5.173 39.361 3.386 53.316 7.35 11.535 17.181 21.273 31.415 26.762 15.452 5.398 28.891 3.369 39.302-.816 3.558 2.91 17.111 11.739 46.475 6.026 19.116-3.72 31.352-15.599 35.569-19.878 2.669 1.035 24.931 9.805 53.902 14.703-.081.596-.156 1.207-.229 1.817-4.764-.866-9.622.413-11.683 4.179-1.236 2.262-1.313 4.648-.458 6.854-.59.153-1.213.32-1.828.492-1.477-4.481-7.021-13.045-17.159-16.975-6.276-2.434-14.699-2.604-21.025 1.117-4.761 2.801-8.186 8.289-9.489 12.467-2.424 7.77-.324 15.164 1.883 17.877-2.181 3.629-4.52 8.043-4.4 9.32.129 1.408.94 2.767 3.41 4.821 3.709 3.089 14.625 10.29 24.951 15.55 9.975 5.078 17.578 5.279 17.578 5.279s-.854 2.225-.381 3.068c.375.671.996 1.1 8.504 5.779-16.798.014-35.762 1.26-35.676 3.296.127 2.985 35.463 2.867 42.565 2.845 6.063-.02 7.042.064 8.321-1.129 1.876-1.331 4.246-4.392 5.35-5.891 2.701-.039 9.62-1.147 14.461-9.766 4.25-7.564 2.838-18.764 1.939-23.663.024 0 .047.003.07.003 4.207-.067 7.066-3.189 7.664-7.041.408-2.641-.359-6.066-3.115-9.808 4.268-5.716 8.977-11.478 13.638-16.905 20.286-2.306 34.517-11.652 43.964-21.056 4.072 1.29 11.593 1.738 17.354-1.05 7.85-3.798 11.484-11.629 13.517-18.979 4.402 3.104 11.953 2.005 14.209-3.473.278-.677.481-1.35.643-2.016.688.256 1.551.513 2.333.559 0 0 .211 4.997 4.559 9.304 4.699 4.65 14.699 6.697 23.352 1.674 5.104-2.767 8.721-8.413 9.583-11.164.621-1.98 1.039-3.871.429-5.939 3.525-1.801 6.211-4.739 6.328-6.357zM198.635 91.125c.449-.149-.385-2.039-.712-4.665.489-.765 1.29-1.768 2.479-2.561 2.232-1.488 3.722-1.736 3.846-2.232.117-.474-2.493-1.733-6.305.985.102-.669.262-1.352.505-2.04 2.325-6.575 7.287-5.52 7.411-6.264.125-.745-6.257-3.312-9.676 4.713-2.852 6.699 1.707 12.312 2.452 12.064zm-53.683-20.738c-.055-1.365.628-2.123 1.339-2.172.602-.04 1.255.873 1.215 2.159-.041 1.283-.703 1.944-1.229 1.984-.523.039-1.267-.549-1.325-1.971zm.104-8.159c.458-.639 1.178-1.255 2.233-1.202 2.031.102 4.879 3.026 4.848 9.212-.028 5.557-1.812 7.761-2.579 8.45-.438.396-.915.645-1.356.718a6.157 6.157 0 0 1-1.371-1.393c1.279-.229 2.907-2.072 3.147-6.332.273-4.82-1.735-7.638-3.473-7.69-.735-.022-1.419.274-1.935 1.076a20.88 20.88 0 0 1 .486-2.839zm5.059-5.619c1.165-.056 2.295.405 3.27 1.334 2.043 1.947 3.168 5.703 3.168 10.575 0 5.287-.885 8.826-2.627 10.521-.873.848-1.974 1.241-3.363 1.201a4.059 4.059 0 0 1-1.334-.264c.316-.159.629-.357.928-.625 1.061-.956 2.845-3.409 2.873-9.11.031-6.378-2.911-9.969-5.696-10.108a3.14 3.14 0 0 0-1.739.403c.971-2.455 2.51-3.831 4.52-3.927zm.395 25.491c1.893.054 3.478-.527 4.712-1.727 2.147-2.087 3.191-5.965 3.191-11.855 0-6.904-2.036-10.294-3.744-11.922-1.333-1.27-2.981-1.925-4.643-1.846-2.208.106-7.359 1.61-7.491 13.261-.095 8.289 3.111 13.951 7.975 14.089zm8.957 98.988c1.861-1.55 4.514-5.259 4.156-5.706-.496-.621-4.993 1.302-6.482 2.356-1.488 1.055-2.387 2.605-1.643 3.722s2.108 1.179 3.969-.372zm5.755 5.795c1.591.781 3.405-.119 4.2-1.98.816-1.913 1.429-6.369.756-6.668-.922-.411-4.326 2.868-5.2 4.265-.98 1.561-1.102 3.721.244 4.383zm12.232 2.455c1.116.062 2.201-.714 2.388-3.133.186-2.418-1.048-6.331-1.892-6.542-.62-.156-2.544 3.503-2.667 5.798-.13 2.404 1.055 3.814 2.171 3.877zm-80.72-3.184c-.062-1.863.828-2.893 1.75-2.954.778-.05 1.618 1.2 1.555 2.954-.061 1.752-.923 2.648-1.604 2.699-.677.051-1.637-.757-1.701-2.699zm2.755 9.727c1.297 0 3.371-2.309 3.5-8.691.13-6.386-1.913-10.626-3.727-10.66-1.949-.037-4.019 3.191-3.89 9.981.136 7.071 2.815 9.37 4.117 9.37zm-66.122 6.958c-3.553.26-7.168 2.504-9.926 5.644-2.862 3.258-3.254 4.861-2.525 5.133.868.322 6.257-6.381 11.305-7.213 5.048-.834 6.753 1.33 7.067.719s-2.368-4.544-5.921-4.283z" opacity=".1"/></svg>
