<svg enable-background="new 0 0 101 111" viewBox="0 0 101 111" xmlns="http://www.w3.org/2000/svg"><g fill="#fff"><path d="m98.2 46.6c-.5-2.4-1.2-4.7-2.2-7-.9-2.2-2.1-4.3-3.4-6.3s-2.9-3.8-4.5-5.5c-1.7-1.7-3.5-3.2-5.5-4.5s-4.1-2.5-6.3-3.4-4.6-1.7-7-2.2c-4.9-1-10.1-1-15 0-.4.1-.7.2-1 .4-13.2-4.4-28.5-1.4-39 9.1-7.1 7.2-11.1 16.7-11.1 26.9s3.9 19.7 11.1 26.9 16.7 11.2 26.9 11.2c4.2 0 8.3-.7 12.2-2 .3.2.6.3 1 .4 2.4.5 5 .8 7.5.8s5-.3 7.5-.8c2.4-.5 4.7-1.2 7-2.2 2.2-.9 4.3-2.1 6.3-3.4s3.8-2.9 5.5-4.5c1.7-1.7 3.2-3.5 4.5-5.5s2.5-4.1 3.4-6.3 1.7-4.6 2.2-7 .8-5 .8-7.5c-.1-2.6-.4-5.1-.9-7.6zm-57 38.4c-8.3 0-16-3.2-21.8-9.1-5.8-5.8-9-13.6-9-21.9s3.2-16 9.1-21.8c6-6 13.9-9 21.8-9s15.9 3 21.9 9.1c12 12.1 12 31.7 0 43.7-5.9 5.8-13.7 9-22 9zm50.1-24.8c-.4 1.9-1 3.8-1.7 5.6-.8 1.8-1.7 3.5-2.8 5.1s-2.3 3.1-3.7 4.4c-1.4 1.4-2.9 2.6-4.4 3.7-1.6 1.1-3.3 2-5.1 2.8s-3.7 1.4-5.6 1.7c-1 .2-2.1.4-3.1.5 1.2-.9 2.3-1.9 3.4-2.9 14.7-14.9 14.7-39-.1-53.9-1.1-1.1-2.2-2.1-3.4-3 1.1.1 2.1.3 3.1.5 1.9.4 3.8 1 5.6 1.7 1.8.8 3.5 1.7 5.1 2.8s3.1 2.3 4.4 3.7c1.4 1.4 2.6 2.9 3.7 4.4 1.1 1.6 2 3.3 2.8 5.1s1.4 3.7 1.7 5.6c.4 2 .6 4 .6 6.1.1 2-.1 4.1-.5 6.1z"/><path d="m48.4 48.6c-.8-.1-1.6-.2-2.3-.2-.2-.6-.6-1.3-.9-2.1-1.4-3.1-2.3-4.5-4-4.5s-2.6 1.4-4 4.5c-.3.7-.7 1.5-.9 2.1-.6.1-1.4.1-2.2.2-3.4.4-5 .8-5.5 2.3-.1.3-.1.5-.1.8 0 1.2.7 2.2 3.2 4.4.6.6 1.2 1.1 1.7 1.5-.2.6-.3 1.4-.5 2.2-.3 1.6-.5 2.8-.5 3.6 0 .7.1 1.7 1 2.4.4.3.9.5 1.4.5 1.1 0 2.5-.6 4.5-1.8.7-.4 1.4-.8 2-1.2.6.3 1.2.8 2 1.2 2.9 1.7 4.5 2.2 5.8 1.4 1.2-.7 1.2-2.1 1.2-2.5 0-.8-.2-1.9-.5-3.6-.2-.8-.4-1.6-.5-2.3.5-.4 1.1-.9 1.7-1.5 2.4-2.2 3.2-3.2 3.2-4.4 0-.3 0-.5-.1-.8-.7-1.3-2.3-1.8-5.7-2.2z"/><path d="m41.3 30.3c-6.4 0-12.3 2.5-16.8 7s-7 10.5-7 16.8c0 6.4 2.5 12.3 7 16.8.7.7 1.6 1 2.5 1s1.8-.3 2.5-1c1.4-1.4 1.4-3.6 0-5-3.1-3.2-4.9-7.3-4.9-11.8s1.7-8.6 4.9-11.8c3.1-3.1 7.3-4.9 11.8-4.9 4.5 0 8.6 1.7 11.8 4.9 1.4 1.4 3.6 1.4 5 0s1.4-3.6 0-5c-4.5-4.5-10.5-7-16.8-7z"/></g></svg>