<?xml version="1.0" encoding="utf-8"?>
<!-- Generator: Adobe Illustrator 21.0.0, SVG Export Plug-In . SVG Version: 6.00 Build 0)  -->
<svg version="1.1" id="Layer_1" xmlns="http://www.w3.org/2000/svg" xmlns:xlink="http://www.w3.org/1999/xlink" x="0px" y="0px"
	 viewBox="0 0 101 111" style="enable-background:new 0 0 101 111;" xml:space="preserve">
<style type="text/css">
	.st0{fill:#FFFFFF;}
</style>
<g>
	<path class="st0" d="M98.2,46.6c-0.5-2.4-1.2-4.7-2.2-7c-0.9-2.2-2.1-4.3-3.4-6.3c-1.3-2-2.9-3.8-4.5-5.5c-1.7-1.7-3.5-3.2-5.5-4.5
		c-2-1.3-4.1-2.5-6.3-3.4c-2.2-0.9-4.6-1.7-7-2.2c-4.9-1-10.1-1-15,0c-0.4,0.1-0.7,0.2-1,0.4c-13.2-4.4-28.5-1.4-39,9.1
		C7.2,34.4,3.2,43.9,3.2,54.1c0,10.2,3.9,19.7,11.1,26.9s16.7,11.2,26.9,11.2h0c4.2,0,8.3-0.7,12.2-2c0.3,0.2,0.6,0.3,1,0.4
		c2.4,0.5,5,0.8,7.5,0.8c2.5,0,5-0.3,7.5-0.8c2.4-0.5,4.7-1.2,7-2.2c2.2-0.9,4.3-2.1,6.3-3.4c2-1.3,3.8-2.9,5.5-4.5
		c1.7-1.7,3.2-3.5,4.5-5.5c1.3-2,2.5-4.1,3.4-6.3c0.9-2.2,1.7-4.6,2.2-7c0.5-2.4,0.8-5,0.8-7.5C99,51.6,98.7,49.1,98.2,46.6z
		 M41.2,85c-8.3,0-16-3.2-21.8-9.1c-5.8-5.8-9-13.6-9-21.9c0-8.3,3.2-16,9.1-21.8c6-6,13.9-9,21.8-9c7.9,0,15.9,3,21.9,9.1
		c12,12.1,12,31.7,0,43.7C57.3,81.8,49.5,85,41.2,85C41.3,85,41.2,85,41.2,85z M91.3,60.2c-0.4,1.9-1,3.8-1.7,5.6
		c-0.8,1.8-1.7,3.5-2.8,5.1c-1.1,1.6-2.3,3.1-3.7,4.4c-1.4,1.4-2.9,2.6-4.4,3.7c-1.6,1.1-3.3,2-5.1,2.8c-1.8,0.8-3.7,1.4-5.6,1.7
		c-1,0.2-2.1,0.4-3.1,0.5c1.2-0.9,2.3-1.9,3.4-2.9C83,66.2,83,42.1,68.2,27.2c-1.1-1.1-2.2-2.1-3.4-3c1.1,0.1,2.1,0.3,3.1,0.5
		c1.9,0.4,3.8,1,5.6,1.7c1.8,0.8,3.5,1.7,5.1,2.8c1.6,1.1,3.1,2.3,4.4,3.7c1.4,1.4,2.6,2.9,3.7,4.4c1.1,1.6,2,3.3,2.8,5.1
		c0.8,1.8,1.4,3.7,1.7,5.6c0.4,2,0.6,4,0.6,6.1C91.9,56.1,91.7,58.2,91.3,60.2z"/>
	<path class="st0" d="M48.4,48.6c-0.8-0.1-1.6-0.2-2.3-0.2c-0.2-0.6-0.6-1.3-0.9-2.1c-1.4-3.1-2.3-4.5-4-4.5c-1.7,0-2.6,1.4-4,4.5
		c-0.3,0.7-0.7,1.5-0.9,2.1c-0.6,0.1-1.4,0.1-2.2,0.2c-3.4,0.4-5,0.8-5.5,2.3c-0.1,0.3-0.1,0.5-0.1,0.8c0,1.2,0.7,2.2,3.2,4.4
		c0.6,0.6,1.2,1.1,1.7,1.5c-0.2,0.6-0.3,1.4-0.5,2.2c-0.3,1.6-0.5,2.8-0.5,3.6c0,0.7,0.1,1.7,1,2.4c0.4,0.3,0.9,0.5,1.4,0.5
		c1.1,0,2.5-0.6,4.5-1.8c0.7-0.4,1.4-0.8,2-1.2c0.6,0.3,1.2,0.8,2,1.2c2.9,1.7,4.5,2.2,5.8,1.4c1.2-0.7,1.2-2.1,1.2-2.5
		c0-0.8-0.2-1.9-0.5-3.6c-0.2-0.8-0.4-1.6-0.5-2.3c0.5-0.4,1.1-0.9,1.7-1.5c2.4-2.2,3.2-3.2,3.2-4.4c0-0.3,0-0.5-0.1-0.8
		C53.4,49.5,51.8,49,48.4,48.6z"/>
	<path class="st0" d="M41.3,30.3L41.3,30.3c-6.4,0-12.3,2.5-16.8,7c-4.5,4.5-7,10.5-7,16.8c0,6.4,2.5,12.3,7,16.8
		c0.7,0.7,1.6,1,2.5,1c0.9,0,1.8-0.3,2.5-1c1.4-1.4,1.4-3.6,0-5c-3.1-3.2-4.9-7.3-4.9-11.8c0-4.5,1.7-8.6,4.9-11.8
		c3.1-3.1,7.3-4.9,11.8-4.9h0c4.5,0,8.6,1.7,11.8,4.9c1.4,1.4,3.6,1.4,5,0c1.4-1.4,1.4-3.6,0-5C53.6,32.8,47.6,30.3,41.3,30.3z"/>
</g>
</svg>
