<svg width="109" height="109" viewBox="0 0 109 109" xmlns="http://www.w3.org/2000/svg"><path d="M103.685 64.084c-5.435-6.03-8.55-14.528-8.55-23.707 0-3.481.488-6.916 1.397-10.25 2.153 3.872 4.128 8.204 5.3 11.603 1.61 5.072 2.453 10.25 2.453 15.247 0 2.424-.2 4.803-.6 7.107m-16.6 20.011c.008-2.1-.155-3.482-.16-3.53l-.037-.396-.24-.333C80.678 72.15 68.486 67.2 53.946 67.161c-14.714.038-27.455 4.886-33.212 12.686l-.24.332-.037.397c-.004.045-.172 1.262-.202 3.145-7.26-2.9-12.828-9.135-15.033-17.072 6.455-6.442 10.152-15.965 10.152-26.272 0-4.38-.691-8.691-2.053-12.812.16-.26.32-.517.48-.769 9.51-13.8 23.778-21.652 40.27-22.127h.454c16.455.473 30.71 8.429 40.217 22.415.12.19.239.387.358.582l-.016.044a40.947 40.947 0 0 0-2 12.667c0 10.23 3.66 19.715 10.05 26.164-2.004 6.698-7.71 14.502-16.05 17.554M74.313 101.34c-6.337 2.478-12.935 3.017-17.35 3.04l-1.649.003c0 .027-1.438.017-1.446.017l-1.467.01c-.006-.027-1.662-.03-1.662-.03-4.409-.023-11.008-.562-17.343-3.04-9.572-3.733-9.978-15.062-9.978-19.024 0-.566.011-.7.03-.934 5.436-6.295 16.854-10.15 30.328-10.184 13.633.034 24.784 4.504 30.226 10.268.01.234.024.367.024.933 0 3.963-.134 15.208-9.713 18.941M4.092 57.093c0-5.216.921-10.683 2.663-16.004 1.202-3.325 3.09-7.41 5.133-11.07a38.675 38.675 0 0 1 1.436 10.358c0 9.244-3.143 17.772-8.626 23.799a40.477 40.477 0 0 1-.606-7.083m94.815-31.119v-.002l.004-.021-.388-.598C88.246 9.878 72.661 1.083 54.628.57h-.659c-18.132.518-33.773 9.262-44.042 24.624l-.407.617C1.514 38.183-1.773 53.682.93 66.277l.004-.017c.041.284.101.58.181.912 2.614 10.1 9.893 17.899 19.346 20.987.673 6.074 3.262 14.071 11.871 17.145 6.83 2.439 13.732 3.212 18.396 3.232l1.64.007c.033.026 1.5.02 1.5.02l1.446.006c.03-.026 1.66-.033 1.66-.033 4.668-.02 11.546-.867 18.401-3.232 8.112-2.798 10.696-10.681 11.438-16.805 10.817-3.118 17.99-12.712 20.378-21.216l.03-.109c.011-.04.222-.912.222-.912l.014-.061c2.667-12.746-.528-27.785-8.55-40.227M44.064 81.913c-.256.653-.636.894-1.065.892-.428-.001-.816-.24-1.067-.888-.198-.51-.31-1.338-.307-2.05.003-.72.103-1.468.307-1.978.255-.64.66-.954 1.086-.954.421.002.815.26 1.066.892.205.513.31 1.322.307 2.048-.002.708-.129 1.53-.327 2.038m-1.124-6.176c-2.364.216-2.9 3.904-2.9 8.917 0 5.01.322 9.238 2.824 9.266 2.388.025 2.791-4.063 2.791-9.075 0-5.014.004-9.359-2.715-9.108m23.713 6.18c-.251.648-.639.887-1.067.888-.43.002-.809-.239-1.065-.892-.198-.507-.324-1.33-.327-2.038-.002-.726.103-1.535.307-2.048.251-.632.645-.89 1.066-.892.426 0 .83.314 1.086.954.204.51.304 1.259.307 1.978.002.712-.11 1.54-.307 2.05m-1.008-6.18c-2.719-.25-2.715 4.094-2.715 9.108 0 5.012.403 9.1 2.79 9.075 2.503-.028 2.825-4.256 2.825-9.266 0-5.013-.536-8.701-2.9-8.917M54.416 57.562c-13.79 0-25.011-10.922-25.011-24.348 0-13.422 11.22-24.342 25.011-24.342 13.795 0 25.018 10.92 25.018 24.342 0 13.426-11.223 24.348-25.018 24.348m0-50.74c-14.921 0-27.061 11.84-27.061 26.392 0 14.556 12.14 26.398 27.061 26.398 14.925 0 27.068-11.842 27.068-26.398 0-14.552-12.143-26.392-27.068-26.392" fill="#000" opacity=".1" fill-rule="evenodd"/></svg>
