<svg xmlns="http://www.w3.org/2000/svg" width="186.902" height="222.078" viewBox="0.273 0.922 186.902 222.078"><path d="M183.445 62.884c-.067-2.772-4.407-4.804-9.28-5.004-3.299-.135-6.709.15-8.62.356-.182.394-.379.793-.614 1.199-2.71 4.688-10.658 10.278-10.658 10.278s2.529.541 2.801 3.516c.253 2.79-2.349 7.935-10.297 12.262-2.187 1.191-4.207 1.997-5.991 2.533.473.771.814 2.067.301 3.688-.668 2.103-2.514 4.664-6.277 6.594a30.275 30.275 0 0 1 2.032 2.963c.135.227.265.457.394.688 4.899.521 7.047-.656 7.532-1.68.229-.484.122-.902-.101-1.233-1.721-.59-2.596-1.526-2.406-1.81.271-.406 3.387 0 7.993-.406s9.349-1.893 9.62-3.854c.27-1.961-3.388-3.11-3.252-3.517.135-.405 2.573-.135 8.603-1.96 6.028-1.826 7.384-3.854 7.519-6.356.101-1.844-2.334-3.024-3.624-3.519-1.81.231-2.946.1-2.946-.065 0-.406 2.235-1.082 8.196-4.463s9.143-7.437 9.075-10.21m-56.718 72.555c-7.588.36-18.607-3.156-26.013-9.196-6.667-5.438-11.29-11.721-13.277-20.736-1.458-6.62-1.153-11.631.542-15.327.307-.669.784-1.294 1.406-1.874-1.461-.986-3.905-2.065-6.916-1.191-5.562 1.615-6.982 9.269-6.593 14.966.542 7.934 3.708 20.195 14.542 31.105 10.205 10.277 21.36 14.465 31.791 14.695 12.193.271 20.562-5.172 20.684-12.261.054-3.176-1.596-5.06-2.938-6.067-1.612 3.486-4.684 5.479-13.228 5.886m16.199 8.876c-2.586 2.821-6.922 5.16-13.853 6.181-.103.016-.206.025-.31.039a22.91 22.91 0 0 1-.21 1.46c1.888-.597 5.786-1.396 8.897.822.206.146.396.3.577.456 5.652-1.145 10.612-4.387 12.632-6.339 2.167-2.097.677-2.299-.813-2.299-1.276.001-3.6.049-6.92-.32m-3.26 18.163a14.865 14.865 0 0 1-.86 1.903c-1.829 3.381-3.929 4.462-4.403 4.462s-.339-.338.948-2.637 3.116-7.642 0-10.548c-2.471-2.307-5.792-.871-7.062-.178a84.78 84.78 0 0 1 2.304 2.006c.675-.82 1.073-1.213 1.235-1.018.339.405.297 2.551-1.49 5.748-1.965 3.516-5.758 6.965-11.787 10.074-5.547 2.862-7.977 2.741-8.467 2.436-.2-.125-.087-.393.542-.812a69.539 69.539 0 0 1 1.96-1.232 41.163 41.163 0 0 1-3.573-2.713c-1.077 1.967-2.954 6.438.19 9.423 4.133 3.922 11.787 1.082 12.668.743.88-.338 2.574-.879 1.219.609-.787.865-3.288 2.885-6.977 3.584-.132.024-.268.047-.402.068a12.78 12.78 0 0 0 .47 4.461s-5.216 4.938-6.367 11.699c-1.152 6.762 1.896 13.32 7.654 15.755s10.025 1.149 11.041.541c1.017-.608 5.216-7.37 10.364-20.015 5.148-12.646 8.129-21.57 8.603-25.831.475-4.261-1.829-6.829-3.793-7.844-1.249-.644-2.937-.719-4.017-.684m3.543 29.964c-2.934 8.163-7.767 20.125-10.887 25.067 1.088.606 3.442 1.848 4.111 1.642.881-.271 2.981-4.802 5.962-12.172s3.929-12.712 3.997-16.431c.067-3.719 0-5.071.135-5.207.136-.135 2.71.136 3.184-.067.475-.202 1.626-3.382 2.439-6.762.812-3.381.881-4.666.406-5.612-.312-.623-1.412-1.126-2.129-1.399-1.003 3.669-3.9 11.703-7.218 20.941m-27.688-21.529l.523-.312c3.523-2.096 7.181-4.395 10.5-8.182a83.7 83.7 0 0 0 2.037-2.421c-2.318-2.24-4.205-3.935-4.205-3.935.577-2.351.775-4.201.844-5.2-6.174.299-12.491-.803-18.495-3.114-.729 2.019-2.423 7.397-1.45 11.492 1.126 4.749 6.823 9.208 10.246 11.672m-12.459-20.823s-1.917-1.801-1.086-4.452a52.587 52.587 0 0 1-5.979-3.546c-1.796 3.156-4.494 6.155-6.479 7.941-2.111 1.899-3.64 2.693-3.873 2.437-.076-.083.124-.266.688-.829.566-.564 3.309-3.542 5.223-6.149 1.229-1.673 2.309-3.431 2.928-4.479a53.044 53.044 0 0 1-4.082-3.343 1689.76 1689.76 0 0 0-6.275 15.676c2.354 1.75 4.609 3.051 6.922 4.07 3.572 1.572 7.234 2.576 11.061 2.835-.275-1.281-.341-2.591-.285-3.828-1.266 1.79-2.519 2.55-2.689 2.448-.318-.188.716-1.219 1.965-3.559.495-.926.9-1.812 1.211-2.549.348-1.61.75-2.673.75-2.673m-14.941-14.615a51.881 51.881 0 0 1-5.742-6.977 65.06 65.06 0 0 1-3.761-6.186c-6.396 10.165-12.293 25.23-12.293 25.23s-6.097 5.342-7.452 14.605c-1.354 9.264 1.152 14.402 1.152 14.402.103 8.48 4.937 11.333 7.252 12.215-2.553-3.174-3.121-6.088-3.121-6.805 0-.946.271-1.623.948-.541.677 1.082 2.427 4.216 5.351 6.695 2.151 1.822 4.295 2.646 5.674 3.018-1.141-.92-2.191-2.017-2.964-3.289-2.506-4.125-2.574-7.1-2.032-7.167s1.625 2.704 4.877 6.423c3.251 3.72 6.502 4.531 7.18 3.854.678-.676.136-3.245-.812-6.762-.948-3.516-2.777-6.56-2.777-6.56 4.133-9.128-.678-20.69-.678-20.69a1714.61 1714.61 0 0 1 9.198-21.465m-19.663-1.141c2.978-6.271 5.724-10.457 5.724-10.457l-.042-.102c-4.531 1.971-6.99 2.079-7.053 1.855-.091-.326.706-.723 2.316-1.451 1.525-.689 2.104-.896 4.285-2.163-.107-.742-.133-1.632.086-2.535.31-1.275 1.392-2.173 2.264-2.71-2.022-5.085-2.876-9.594-3.126-13.352-.657.359-1.783.873-3.722 1.546-4.154 1.443-6.413 1.082-6.503.631-.061-.306 1.458-1.11 3.427-2.158a52.864 52.864 0 0 0-1.23-1.933c-1.375.774-3.834 2.363-4.725 4.271-1.264 2.705-.632 5.319 2.89 6.762s6.593-.09 6.773.631c.133.527-1.711 2.686-5.071 3.006.006 2.705.322 10.854 3.707 18.159m-4.594-39.556s3.207 4.322 5.013 7.16l.226-.127a65.826 65.826 0 0 0 3.754-2.311c.091-2.299.385-4.169.672-5.533 1.109-5.29 4.245-10.458 10.928-10.909a8.95 8.95 0 0 1 1.95.083c2.066-4.322 7.83-18.247 3.018-30.557-5.129-13.117-17.883-12.622-17.883-12.622s-.004-9.603-5.196-14.968c-.562 7.127-2.212 12.505-2.981 14.697 2.871.201 3.932 1.424 3.932 1.803 0 .541-5.419.271-12.915 3.696-3.682 1.683-5.928 3.233-7.197 4.061-.607.397-1.18.853-1.417.785-.295-.084-.339-1.285.847-2.682.042-.05.086-.096.129-.146-1.037-1.465-3.6-5.471-5.175-11.24-2.552-1.816-6.818-4.088-12.385-4.302-9.394-.361-15.987 4.418-20.684 12.172-4.696 7.753-5.23 16.828-3.161 25.604 2.168 9.196 6.198 13.749 12.013 18.122 6.593 4.959 15.354 6.582 16.167 6.131.812-.451.812-5.049 5.6-10.548 4.787-5.5 10.386-6.762 11.651-6.491 1.265.27 2.981 3.786 3.884 6.221s1.535 5.68 1.264 6.131c-.271.45-3.342.992-7.225 2.435-3.884 1.442-5.961 2.344-5.961 2.705 0 .36 3.071 2.975 10.929 2.434 7.854-.541 10.203-1.804 10.203-1.804m-16.93-5.608a109.803 109.803 0 0 1 5.73-2.056s-.452-3.787-3.342-6.852c0 0-3.571.836-6.642 3.616 1.037 1.041 2.82 2.982 4.254 5.292m-3.392-61.199c.443 8.92 3.965 15.186 5.234 17.174 2.919-2.592 6.334-4.215 9.849-5.003a20.98 20.98 0 0 1 1.001-.198c.99-2.163 2.839-6.986 3.424-13.867.734-8.628-.792-21.831-8.58-21.638-8.196.203-11.472 12.577-10.928 23.532m82.822 101.472c-1.29-1.639-2.646-3.141-3.075-3.661-.135.266-.546.7-1.6 1.407-2.78 1.87-4.303 3.02-5.478 3.701 1.19.367 2.381.684 3.56.942 3.328.731 6.275.86 8.747.644a39.17 39.17 0 0 0-2.154-3.033M89.58 103.079c7.4.603 8.376 2.438 8.289 2.788-.09.361-2.574-.36-4.833-.541a83.143 83.143 0 0 0-2.979-.181c.853 3.261 2.18 6.587 3.883 9.468.361.611.75 1.207 1.158 1.791.18-.859.455-2.105.829-3.595.723-2.885 1.987-5.86 2.529-5.68.499.166-.305 6.907-1.705 11.423 4.399 5.212 10.623 9.127 17.024 11.506a105.68 105.68 0 0 0 3.467-2.147c1.815-1.183 4.254-2.743 5.501-2.665-.082-.188-.097-.446-.036-.807.506-3.033.902-10.953.902-10.953-4.2-5.095-8.872-8.708-10.104-9.523-1.005-.666-1.592-1.353-1.423-1.623.121-.192.765-.15 1.186-.034 1.223.337 3.091 1.514 5.646 3.426 3.433 2.569 6.187 6.581 6.457 7.122.271.539-.267 11.821-.584 12.389.679.518 2.498 2.163 5.946 6.929 3.277-.631 5.373-1.881 5.928-2.863 1.037-1.834 2.258-5.41 1.535-12.532a39.326 39.326 0 0 0-.566-3.704 33.804 33.804 0 0 0-5.123.008c-3.559.264-6.131.744-6.401.519-.271-.226-.327-.563.53-1.194.806-.593 7.627-1.742 10.548-1.32-1.048-4.268-2.755-8.681-4.913-11.691a27.668 27.668 0 0 1-4.031 1.087c-5.831 1.128-10.979.824-15.15-.665-.819 2.472-2.032 2.355-2.032 2.355-.565.473-3.343.902-6.819 2.119-3.477 1.217-5.092 2.098-5.51 1.848-.226-.135-.247-.701-.136-.901.226-.405 2.259-1.894 6.142-3.291 3.884-1.397 5.781-.947 5.781-.947-.094-.645.191-1.583.383-2.115-4.619-2.328-7.71-6.344-8.721-11.628-5.051.489-9.037 1.604-11.127 3.465-2.238 1.992-2.563 6.93-1.471 12.357m16.101-17.678c.993 6.672 5.939 13.749 18.223 12.577 12.282-1.171 13.915-6.27 14.021-7.618.061-.764-.347-1.239-.815-1.534-2.545.33-4.062.008-4.062-.27 0-.541 4.606-1.352 11.29-5.048 6.684-3.697 9.935-7.212 9.573-10.098-.361-2.885-5.961-1.983-6.321-2.344-.361-.361.347-.347 6.412-4.868 7.135-5.319 10.386-10.639 8.851-14.065-1.067-2.383-5.278-2.498-7.745-2.347-3.423 1.796-5.203 1.573-5.08 1.265.181-.451 5.148-4.147 8.761-8.024 3.613-3.877 6.864-8.024 5.6-11.991s-12.012-2.885-19.96-.09-20.954 9.827-30.257 23.17c-9.303 13.344-9.484 24.613-8.491 31.285m74.174-12.104a25.033 25.033 0 0 1-6.619 3.367c5.577 3.391 2.71 9.232-1.916 11.509-4.81 2.366-9.077 2.975-9.077 2.975 1.151 2.029.609 4.057-2.235 6.018-2.82 1.944-7.906 2.558-12.548 2.371.884 2.315-.94 4.142-3.845 5.067-1.715.546-3.608.535-4.92.425 3.019 7.397 3.426 16.247 2.447 20.857 1.688 1.093 3.817 3.026 4.64 6.126.706 2.659.763 6.03-.745 9.195 5.777.874 9.387.027 10.5 1.263 1.219 1.353.271 4.868-4.945 8.723-3.819 2.822-8.289 4.7-10.41 5.505.205.803.266 1.634.215 2.463 1.663.062 4.564.428 6.74 2.107 2.398 1.852 3.492 4.035 3.715 6.269 1.391.702 4.168 2.269 4.82 3.874 1.187 2.915-.541 9.197-1.354 12.037-.813 2.84-1.627 4.666-1.83 4.936-.203.271-2.908-.246-3.318 0-.34.203.067 3.922-.949 10.48-1.016 6.561-4.268 14.809-6.232 18.393-1.964 3.584-2.756 5.357-4.268 5.68-1.623.348-5.576-.794-8.382-2.699-2.531 1.002-7.86 2.029-14.106-.682-8.592-3.729-11.312-13.253-9.01-20.894 2.314-7.679 6.232-10.346 6.232-10.346s-.246-1.683-.021-3.776c-1.804-.148-3.69-.717-5.397-2.039-5.931-4.592-2.385-12.395-.788-15.154-1.02-1.093-1.972-2.293-2.721-3.561-2.264-.143-6.695-.665-11.857-2.541-2.721-.988-5.688-2.513-8.826-4.642l-.397 1.014c4.945 14.741.813 20.421.813 20.421 2.777 4.26 3.251 10.549 3.318 13.32.068 2.773-1.557 3.449-3.521 3.18-.672-.094-1.75-.428-2.973-.986-1.934.643-5.873 1.232-9.598-1.646-2.122.298-5.581.189-8.632-2.643-4.81-4.463-5.148-12.238-5.148-12.238s-2.98-6.965-1.287-15.35c2.164-10.714 8.603-16.297 8.603-16.297a87.035 87.035 0 0 1 2.42-6.519c-4.901-9.299-5.189-19.245-5.009-22.961a11.724 11.724 0 0 1-1.001-.295c-2.472-.847-4.049-2.768-4.606-4.778-.652-2.352.013-4.874 1.084-6.671 1.667-2.8 4.271-4.36 6.121-5.286l-.431-.575s-3.432 1.713-11.38 1.623c-7.948-.09-10.928-2.795-11.832-3.517-.903-.721-1.174-1.803-1.084-2.164.064-.255.679-1.556 5.705-3.835a19.43 19.43 0 0 0-3.608-3.878c-2.778 4.089-3.764 8.933-4.355 9.607-.632.721-5.689 1.713-13.818-1.983C14.002 90.404 5.52 83.958 2.178 73.049s-2.528-23.802 4.426-33.9c6.565-9.532 21.097-15.441 34.025-7.732a36.257 36.257 0 0 1-.336-3.628C39.557 9.883 46.209.854 54.744.922c7.877.063 11.6 9.12 11.772 19.206 2.518 2.192 7.668 7.771 8.549 17.308 0 0 12.128.478 17.523 13.073 5.678 13.259-.571 28.774-2.899 33.741a13.813 13.813 0 0 1 2.851 2.033c2.438-1.124 5.638-1.913 9.273-2.305-.719-13.207 4.375-33.358 26.45-48.254 13.112-8.848 23.424-11.1 30.188-10.92 4.885.13 7.293 1.115 8.875 2.581 1.579 1.464 1.73 4.862 1.016 7.303-1.031 3.516-3.27 7.627-7.475 11.135-.584.487-1.144.928-1.683 1.335 2.849-.478 5.304.803 6.29 2.091.777 1.015 1.468 3.101 1.064 5.754 1.697-.228 4.36-.449 7.831-.3 7.245.312 11.731 3.027 12.6 6.491.744 2.975-.272 7.235-7.114 12.103M20.375 45.055c-1.581 2.479-4.474 3.548-4.923 3.381s.346-.747 1.536-1.894c1.31-1.262 1.663-2.767 1.22-3.278-.442-.512-2.032.483-3.839 3.098-2.044 2.959-2.194 4.354-2.799 4.508-.734.186.271-4.779 2.438-7.799 2.264-3.154 5.043-3.508 6.412-2.795 1.369.714 1.118 2.956-.045 4.779M47.29 29.751c0 1.014.474 2.028 1.083 1.961.61-.067.881-.879.881-2.096s-.338-1.961-1.083-1.961c-.678 0-.881 1.081-.881 2.096m-1.762 1.555c-.271-4.666 1.084-7.303 2.845-7.37 1.963-.076 3.658 2.975 3.658 7.505 0 4.531-1.083 6.424-2.642 6.627-1.557.203-3.589-2.096-3.861-6.762m79.706 24.839c.227.18-1.535 2.389-3.838 7.212-2.304 4.824-4.922 10.909-5.013 16.184-.091 5.274 1.446 7.01 2.304 8.069.932 1.15 1.445 1.082 1.399 1.397-.045.316-4.651.631-6.142-5.319s1.49-12.938 4.109-18.212 6.733-9.69 7.181-9.331" opacity=".1"/></svg>
