<svg xmlns="http://www.w3.org/2000/svg" width="326.432" height="443" viewBox="-103.432 0 326.432 443"><path d="M186.604 327.266c-5.64 12.352-49.041 56.269-81.345 51.391-11.86 17.586-48.692 33.407-78.542 37.938-20.824 3.253-41.607-.493-44.323-11.228-17.195 2.845-35.229-3.881-46.19-13.996-10.753-9.922-14.922-23.16-11.082-30-6.845-3.895-4.773-17.515-1.896-23.656-5.302-1.641-16.201-4.512-19.43 1.287-4.934 7.869 1.121 22.509 5.576 27.61 3.553-1.45 7.026-1.314 7.848-1.06 2.448.76.675.76.675.76-4.218.422-10.124 3.207-11.221 10.631-1.885 16.961 36.089 46.726 57.448 47.971.878-4.766 6.089-9.844 10.637-11.831 1.916-.837 2.956-.899.9.716-3.303 2.594-8.215 7.81-6.437 12.165 4.816 11.809 37.518 14.598 69.878 7.999 30.328-6.817 61.461-22.005 66.354-41.973.591-2.391 1.351-3.994 1.531 2.215.011.716-.025 1.428-.099 2.139 31.779 8.348 85.874-36.217 82.604-53.515-.369-1.953-1.041-3.711.861-1.53 2.982 3.416 2.449 8.686.969 12.991 8.231 6.964 20.994 6.968 22.875 15.979 1.678-1.654 3.025-3.695 3.812-6.233 3.188-17.645-22.488-21.608-31.403-36.77m-6.9 47.062c.21-.594.21-.594.676-.281 6.158 2.939 11.517-2.123 13.329-7.143.174-.5.374-.6.908-.291 5.138 2.967 9.451-.295 9.926-2.384-4.449-1.895-10.037-3.606-14.402-7.136-3.082 5.909-11.213 14.625-21.713 22.861 4.066 2.283 9.678-1.327 11.276-5.626m32.38-2.283c-.024-3.477-2.48-5.443-5.952-7.102-1.382 3.244-6.739 6.427-11.465 3.648-1.801 6.285-7.749 9.66-14.062 7.536-1.851 5.563-9.369 8.14-13.887 5.148-.517.394-1.04.784-1.567 1.174 1.027 2.028 1.786 4.87 2.303 7.692 16.797 5.857 31.768-4.389 23.051-12.523-.844-.76-.191-.703.422-.676.254.128 12.996.909 21.157-4.897m-46.885 25.781c.098-2.479-.383-9.15-2.51-13.595a140.87 140.87 0 0 1-7.998 5.27c2.175 2.516 6.86 6.272 10.508 8.325m2.074 4.514c-4.057-1.283-11.869-6.314-15.344-11.203a118.13 118.13 0 0 1-3.159 1.76c1.253 1.662 2.05 4.262 2.542 5.773.771 2.365 2.123 6.117 4.557 9.408 3.754 4.894 12.572 10.124 16.702 9.904 1.353-1.214-1.937-11.044-5.298-15.642m-20.388-8.45a107.667 107.667 0 0 1-4.188 2.047c.649 1.737 1.38 4.997 1.685 8.26.279.281 1.502 1.056 1.869 1.097.405.044.608-7.373.634-11.404m-219.781-35.017c8.48-8.604 27.824-15.064 85.992-84.779 3.934-4.715 4.364-4.074.697.928-44.685 60.945-79.474 80.912-84.513 87.082-4.825 5.906-.6 16.894 10.242 26.849 11.1 10.193 30.989 16.61 43.277 13.148 5.274-11.888 42.334-64.326 69.08-112.735 1.346-2.436 2.274-3.631.929.196-9.366 26.633-65.068 108.26-67.093 113.322-2.614 6.535 14.889 14.118 41.105 9.918 34.742-5.567 70.407-24.971 75.854-35.392 12.884-24.656 22.271-80.873 23.649-96.566.271-3.089.457-2.746.619-.168 1.926 30.462-12.76 77.084-20.054 94.666 24.778 5.016 66.573-30.825 75.749-47.865 3.956-7.344.314-47.14-3.441-60.26-.394-1.42-.521-2.602.55-.123 5.053 11.695 7.853 40.049 7.552 55.588 5.449 8.613 13.96 13.765 21.307 18.698-.205-13.698-13.061-81.892-31.901-102.306-2.714 2.415-6.243 3.58-8.54 1.883-1.557-1.55-.504-3.121.952-4.903-10.441.78-25.817-2.066-34.966-13.093-2.234 29.888-60.191 57.82-85.28 27.621-4.691-5.782-6.381-12.828-6.076-19.51-10.268 5.683-41.527 43.947-51.073 54.722-41.089 43.647-62.774 50.313-64.798 53.182-1.669 3.612-6.059 16.883.181 19.897M33.249 233.056c3.921-3.328 7.347-5.753 10.181-7.13 2.154-10.692 9.189-19.167 16.409-17.756 2.981-10.997 15.328-15.665 20.249-11.25 3.362-3.673 7.569-5.89 12.122-6.97.897-3.864.456-8.657-.439-10.958-2.517-.492-4.839-1.625-6.753-3.353-.911 1.126-1.963 2.443-3.074 3.242 2.678 1.967 4.154 4.709 4.804 7.442-.002.128-.035.204-.218.19-2.615-.225-9.316.514-10.35.759-.87.207-4.901 7.218-17.184 12.01-15.861 6.187-23.054 7.24-31.909 10.273-2.979 1.926-11.891 6.049-15.708 7.745 1.058 4.083 5.707 10.698 7.766 11.934 1.153-5.399 4.359-11.306 9.619-13.724.137-.055.174-.025.168.028-.679 6.09 1.007 13.019 4.317 17.518M9.103 215.651c6.271-2.641 12.475-6.081 16.253-7.872 3.714-1.76 15.583-4.841 32.232-11.027 11.306-3.994 16.087-10.913 16.961-11.32.984-.379 5.313-1.28 8.856-1.084-2.151-4.936-7.917-6.595-13.387-5.667-.168.028-.154-.041-.145-.157.567-6.678-3.075-12.085-7.393-13.21.113 1.217.493 7.531.061 10.545a.42.42 0 0 1-.095.171c-.218.612-8.311 4.802-16.369 9.275-11.109 6.412-18.913 11.963-24.593 14.241-1.716.562-11.341-2.937-20.763-3.527-6.722-.338-19.181 3.402-18.703 5.344.401 1.697 6.248-.531 8.705-.175 1.56-1.253 3.288-2.121 5.112-2.293.231-.005.26.071.084.19-3.279 2.065-6.843 6.116-7.052 8.022 3.004-2.929 6.698-5.4 9.628-5.895.757-.102.862.003.173.348-6.828 3.227-17.036 13.356-12.673 14.804 1.275-4.21 9.049-11.298 14.979-12.104.718-.069.914.113.239.338-4.781 1.547-15.061 10.547-13.626 12.262 1.012.957 5.09-2.953 10.546-5.54 4.515-2.319 10.519-2.869 11.164-1.923l-.002.002a.502.502 0 0 1 .145.233c.337 1.181-9.562 6.243-8.23 8.563.712 1.246 3.76-.803 7.893-2.544m.832-23.982c.335-.022.335-.022.151.216-.386.653-.81 1.763-1.124 2.604 6.007 1.017 10.627 2.44 11.934 2.243 3.77-1.631 11.925-7.874 23.732-14.032 8.543-5.017 14.787-7.436 15.096-8.083.633-1.518.231-12.474.229-12.545-.003-.127-.016-.19.15-.165 2.678.406 5.486 1.715 7.75 4.154.745-.428 1.771-1.636 2.302-2.411-5.125-4.231-9.462-15.21.03-26.129 7.954-8.613 19.373-11.904 28.951-9.527-.363-1.089-1.242-3.316-1.445-3.621-.253-.379-.371-.403.169-.675 4.344-2.194 9.788 1.138 10.883 3.881a6.935 6.935 0 0 1 3.326-1.793c.256-.623.569-1.384.812-1.981-8.583-.838-12.589-11.553-5.579-17.253-9.018-11.79-3.132-22.064 4.882-17.44a30.355 30.355 0 0 1-.095-1.034c-.17-2.357.258-1.979.73-.337 2.361 8.212 8.719 24.974 20.699 31.499-2.025-4.106-2.641-6.583-2.812-6.975-.395-.9-.395-.9.281-1.013.676-.112 3.488-1.125 4.389-1.406-5.158-3.715-13.098-13.772-13.534-24.875a21.803 21.803 0 0 1-2.806.768c-1.366.272-2.084.521-.254-.619 11.644-7.256 17.127-16.306 20.08-29.046.324-1.4-.139-1.381 1.014-.254 1.887 1.846 11.053 10.715 15.945 12.656 4.81-6.159 10.885-23.709 4.051-32.568-2.219-2.875-7.68-10.222-21.945-5.338-.425.68-.974 1.213-1.664 1.511-.065.718-.404 2.055-1.686 2.703a28.784 28.784 0 0 1 5.34 3.951c.122.173.438.487-.211.24-18.955-8.607-35.605-3.432-49.386 5.456-10.125 6.637-23.062 22.274-41.028 28.199 2.034 6.858 4.648 11.499 14.773 14.494.323.144.521.112.085.506-1.983 1.434-8.48 2.757-14.439 2.01 1.635 4.508 3.639 8.242 11.102 11.522.173.084.173.084.004.221-10.293 2.109-15.507 6.584-19.47 21.371-3.141 15.036-17.865 11.239-19.383 7.864-4.683 8.164-1.112 17.867 10.149 19.189.229.006.292.048.069.149-7.476 2.641-12.257 5.734-16.588 16.773-4.049 9.809-10.231 16.672-18.132 9.036-1.86 7.234 1.065 16.514 12.473 15.904M83.884 41.196c2.585-.686.169-10.322-2.64-9.548-3.041.914-.115 10.279 2.64 9.548m.964 1.05c.14.235.326.479.531.709a71.522 71.522 0 0 1 2.909-2.154c.843-10.857-8.605-16.583-7.663-10.691.041-.016.076-.037.117-.051 4.1-.954 7.269 9.877 4.106 12.187m16.446-12.825a146.594 146.594 0 0 0-12.926 4.272c.643 1.849 1.019 3.989.975 6.371 3.756-2.617 8.16-4.897 12.876-6.557-.444-.776-.809-2.295-.925-4.086m6.497-5.465c-3.035.848-2.109 6.68-1.073 8.193 1.738-.444 3.5-.8 5.273-1.053.273-3.008-1.365-7.626-4.2-7.14m5.249 7.004a44.924 44.924 0 0 1 2.221-.209c-.671-7.505-4.841-11.243-8.135-10.642-3.367.814-5.641 6.631-3.388 12.89a53.543 53.543 0 0 1 1.953-.582c-1.214-1.746-2.21-8.546 1.875-9.503 4.098-.809 5.797 5.583 5.474 8.046m-31.608-4.972c2.2.468 5.02 2.938 6.633 6.904 2.074-1.02 11.528-4.08 13.193-4.377-.061-4.072 1.21-9.056 5.604-10.044 4.464-.879 7.571 3.144 9.016 7.184 1.765-.36 9.438-.929 11.372-.985-.072-4.229 1.02-8.382 3.338-9.546-.175-2.285-.441-7.055-.627-7.152-.157.163-6.97 10.584-8.494 11.931-.082.089-.082.089-.148.06-.463-.209-17.909-10.905-18.267-10.884-.474.027-7.082 12.18-9.518 17.146-.054.106-.054.106-.126.068-2.349-1.57-12.958-7.954-14.686-8.356.044.308 2.172 6.431 2.71 8.051m45.849-.454c-1.682.055-9.413.772-11.104 1.03.447 1.505.656 2.961.611 4.11 4.129-.135 8.23.345 12.107 1.597-.934-1.802-1.477-4.243-1.614-6.737m4.302-8.806c-3.784.287-3.787 14.102.028 16.565.229.099.457.197.684.303.09.023.179.051.272.063 1.436.042 1.94-.764 2.116-1.366-4.271-.74-5.287-11.644-1.762-13.67-.161-.882-.47-1.895-1.338-1.895m3.571 13.641c2.771-.486 2.053-10.748-1.125-10.41-2.98.369-2.304 10.578 1.125 10.41m11.793 58.026c-.074-2.979-.514-5.603-1.358-5.603-.595 0-1.07.656-1.423 1.681.164-.115.34-.197.539-.206h.001c1.128 0 1.532 1.549 1.55 2.875.002.031-.002.063-.002.095.004 0 .007-.003.011-.003.305.001.536.483.682 1.161m-1.47 8.431c.699-.053 1.163-2.059 1.366-4.538-.157.456-.384.762-.69.769-.646.015-.921-1.571-.864-3.091a.893.893 0 0 1-.397.114h-.041c-.627 0-1.114-.376-1.408-1.035-.165 3.798.487 7.898 2.034 7.781m-.627-7.421v.337l.023-.337c.349-.009.727-.937.709-2.253-.018-1.239-.382-2.21-.831-2.21-.47.02-.974 1.125-.944 2.521.02.895.304 1.942 1.043 1.942m7.966 1.374c-.396-3.141.591-16.211-1.11-21.335-3.751-2.589-9.428-6.735-11.235-9.067-1.304 6.964-3.771 12.101-6.678 15.868a7.7 7.7 0 0 1 .234.503c.943 2.203 2.621 2.403 3.465 2.467 2.773-5.95 8.629-6.267 10.248-1.269a5.32 5.32 0 0 0 2.884-2.806c.205-.463.23-.619.281.169.125 1.93-1.534 3.697-2.812 4.301.315 2.376.532 6.999.196 9.255-.133.893-.442 1.398-.696 1.492.017 3.588-.386 7.05-1.822 7.462a.596.596 0 0 1-.265.045c-1.969-.056-2.921-.939-3.475-1.419-.633-.549-.324-.485.128-.24.679.37 1.249.551 1.772.649-2.266-3.478-1.605-14.738 1.715-14.795.627-.011 1.047.548 1.333 1.454-.448-4.16-1.513-6.176-3.19-6.291-2.447-.169-6.861 2.503-6.553 14.118.023.901-.101.727-.365.028a12.701 12.701 0 0 1-.582-2.093c-.65.051-1.793-.342-2.568-1.844-.311-.604-.172-.612.225-.281.84.698 1.733.567 2.127.502a17.33 17.33 0 0 1-.018-2.364c-.748-.089-2.879-.967-3.486-3.398-.201-.803-.057-.745.252-.197.834 1.479 2.678 1.746 3.426 1.822.146-.932.344-1.764.542-2.439-.928-.086-2.969-1.036-3.371-4.089a4.712 4.712 0 0 1-.028-.237c-2.871 3.55-6.125 5.819-9.1 7.224.803 14.287 11.478 22.899 14.748 25.929.885.821.786.619-.057.844-.846.225-5.851 1.519-6.525 1.744.619 1.912 3.544 8.437 3.937 9.112.394.675.329.713-.562.449-4.868-1.44-8.863-4.168-12.102-7.533-.078 4.22-2.818 8.208-7.621 9.137l-.909 2.138c1.949.454 3.722 1.754 4.686 3.938 3.007-1.974 6.292-1.943 8.632-.036.705-1.758 2.4-5.97 2.533-6.236.168-.338.197-.969 1.181-.395 2.981 1.744 15.04 4.868 17.745 2.928 2.197-1.576.841-4.816 2.249-6.585-1.625-1.351-1.369-3.798-1.263-4.414.113-.647.253-.563.281-.168.027.377.136 2.79 1.679 3.957 1.991-1.388 2.417-2.48 1.464-4.759-.113-.263-2.648-.145-3.931-1.679-.196.277-.479.678-.674.569-.254-.141.294-2.447 1.013-1.969.199.133.146.468.039.757 1.056 1.038 2.862 1.552 4.404.621 1.987-1.2 1.687-2.412 1.207-4.111-1.279.089-3.271 1.509-3.738 2.002-.506.534-.456.476-.197-.253.285-.801 1.899-2.312 3.708-2.584-.235-.902-.437-1.932-.362-3.153.031-.505.114-.782.563-1.068.751-.479 2.63-1.912 2.587-2.756-.057-1.128-5.57-4.727-6.189-9.621m-38.464 30.862c6.678-.062 8.359-6.881 5.899-11.345-.28-.398-.554-.8-.817-1.207-1.389-1.681-3.52-2.774-6.328-2.561-9.675.732-8.936 15.206 1.246 15.113m-4.396-27.431c.639-.2 2.273.255 3.347.798a44.68 44.68 0 0 1-.876-4.127c-5.509-2.827-11.533 2.085-3.046 14.331 2.587-1.273 5.281-1.241 7.616-.379a49.936 49.936 0 0 1-3.178-7.987c-1.029-.846-2.542-1.851-3.694-2.128-.72-.176-1.069-.226-.169-.508m19.8 41.09c-.697.496-.617.57-.76-.421-.465-3.207-4.576-6.43-9.492-1.772-.602.569-.51.634-.675-.168-.928-4.515-5.737-7.045-10.505-2.405-.628.613-.655.911-.802.042-.548-3.248-4.078-5.441-7.34-5.948.786 1.273 1.571 3.507 1.768 4.259a22.468 22.468 0 0 1 4.687 2.448c2.06 1.556 3.747 3.275 5.105 5.104 7.79 3.079 20.216 4.323 20.738 3.877 1.314-1.127 6.809-5.69 7.272-6.07-1.433-1.056-5.032-2.482-9.996 1.054m6.711 4.186c-.318.265-.618.518-.891.75 2.932 2.61 12.719 15.424 11.9 26.138-.188 3.138-1.206 6.574-2.655 10.136 5.45-1.604 7.963-7.969 8.188-9.129.215-1.094.354-1.267.596-.245.255 1.081.122 2.997-.632 5.049 11.555-2.42 5.451-33.554-16.506-32.699m-56.52 61.002c-.52.623-.431.416-.628.112-2.592-4.213-12.505-2.21-17.822 9.956-.167.384-.167.384-.589.201-8.227-.956-22.401 18.028-8.719 37.519 23.174 27.112 80.352.789 80.858-33.525-.003-.376.111-.337.309.169.248.875.432 1.752.572 2.631 4.551 6.559 11.309 10.664 18.274 12.949 1.692-6.678-2.841-16.576-10.171-19.307-.633-.281-.571-.139-.76-.885-1.379-5.48-3.998-9.869-7.834-10.788-1.02 2.285-1.84 4.456-2.339 6.461.6 1.431.919 2.883.906 4.326-.034.38-.157.066-.413-.367-13.48-19.376-38.862-23.044-51.644-9.452m63.216-20.2c-.368.785-.751 1.573-1.142 2.362 1.849-.103 4.052.333 5.262 1.754.943-2.276 2.544-4.081 4.593-5.232-.276-.867-.619-2.374-.854-3.464-1.653 2.114-4.176 3.923-7.859 4.58M114.65 162.28c-3.792 11.204-11.752 16.596-19.096 16.972.525 2.328.67 7.928.411 10.065 12.49-1.289 26.49 4.876 32.729 12.699 2.09-7.968 15.201-26.29 15.658-36.485.078-10.529-8.154-21.432-10.598-23.677-2.525 1.069-13.824-.782-20.291-2.735 4.101 7.452 3.613 16.189 1.187 23.161m-32.427 9.893a14.345 14.345 0 0 1-8.064-6.71 4.945 4.945 0 0 1-1.544-.335c-.834 1.217-1.947 2.529-2.89 3.439 1.188 1.991 2.079 4.458 2.488 7.485 2.848.025 5.194.525 7.122 1.347 1.244-1.098 2.526-2.457 3.715-3.958a14.698 14.698 0 0 1-.827-1.268m10.04-.147c-1.954.627-3.813.891-5.558.874 7.466 8.381 21.768.36 25.163-12.373 1.519-6.581 3.995-18-6.974-26.437-8.157-5.513-21.093-6.525-32.23 5.681-5.695 6.653-6.802 17.633.005 21.368-.333-2.143-.092-4.314.838-6.265.394-.703.45-.562.45-.027-.14 6.075 3.122 16.453 17.942 16.564 1.021.005 1.689.085.364.615m63.107 59.39c5.921 1.482 11.763 1.726 16.306 1.121 1.469-3.259.662-8.686 5.561-13.434-9.952-6.06-22.861-9.182-31.045-15.931-1.793-1.435-4.92-7.504-5.637-9.74-.708-.319-2.461-1-3.403-1.423a178.074 178.074 0 0 0-2.685 5.292c5.09 1.056 8.242 5.773 8.957 11.656 9.189 3.619 15.082 14.252 11.946 22.459m-7.242-44.86c-.079.198-.233.166-.288.126-1.635-1.157-3.135-1.703-7.054-1.593-.782 1.521-1.587 3.04-2.384 4.547 1.351.411 3.15 1.525 4.197 2.169l.118.135c-.146 1.245 3.511 7.082 4.874 8.304 6.568 6.034 23.906 12.446 32.962 18.237.12.098.12.098.078.2-6.159 5.398-5.146 10.989-6.623 14.681-1.919 3.965-4.831 4.429-3.86 6.074.855 1.233 5.395-.341 10.23-7.571.132-.176.132-.176.225-.016-.082 1.602-.708 3.202-1.654 4.639 2.576 2.805 5.072 6.287 7.463 10.289 1.79-1.639.658-7.337.104-8.354-.147-.232-.147-.232-.028-.4 2.141-5 4.943-17.802 1.534-22.778-2.638-4.01-6.181-7.273-12.48-12.223-8.872-6.935-18.759-12.698-19.802-12.904-.182-.104-.168-.286-.125-.483.844-3.875 3.081-9.056 4.233-9.787-6.244-1.35-9.752 2.614-11.72 6.708m74.083 179.54c-2.215 8.36-15.424 15.32-25.464 14.477 2.095 15.301-20.181 17.073-28.669 13.973.199 1.94.265 3.607.206 4.632.194.05.38.088.55.104.441.046.621-.022 1.027.414 4.978 7.792 7.312 16.398 6.58 21.319-.029.2-.16.401-.562.562-8.914 1.042-17.381-4.949-21.824-10.208-3.137-3.981-4.459-7.128-5.174-8.691-.395 3.021-.459 5.546-.536 6.075-.112.787-.681 1.011-1.377.844-.696-.166-4.134-1.632-5.118-2.419-.238-.189-.311-.338-.366-.844-.036-.32-.897-6.018-2.013-8.979-11.817 4.938-23.785 7.069-33.681 3.669-5.886 16.087-32.838 30.38-66.161 38.477-25.545 6.206-67.331 5.004-74.967-10.537-35.954-1.744-67.139-34.734-63.574-52.067.672-3.266 2.069-5.627 3.775-7.33-3.668-4.806-12.785-21.85-5.631-33.507 6.715-9.55 21.34-4.849 26.749-1.851 5.934-4.732 26.994-13.262 62.012-51.979 16.347-19.954 31.276-36.685 42.647-46.891-3.391-3.393-5.17-10.35-4.958-13.474-1.196.9-4.289 8.213-4.837 12.634-.014.262-.246.239-.394.148-5.302-3.339-10.37-10.493-11.879-16.167-3.372 1.488-7.915 4.007-9.846.854-1.122-2.139 1.453-5.088 3.659-6.908-6.774 1.474-12.987 8.24-15.949 6.458a1.63 1.63 0 0 1-.27-.275c-1.277.251-2.257-.893-2.543-1.469-.252-.507-.298-1.131-.179-1.833-.723-1.999 1.499-7.954 5.2-12.122-2.376.142-8.507 2.247-8.755-1.706-.219-3.838 11.056-7.694 19.513-7.906-8.379-5.954-6.653-16.719-2.701-23.767.099-.211.175-.108.324.099 5.846 9.229 11.684 6.935 15.55-6.137 2.247-7.599 6.861-11.812 11.21-13.495-9.872-4.218-8.817-18.814-1.477-24.383.11-.077.253-.148.295-.009 1.223 4.48 12.808 8.862 15.917-6.084 1.578-7.584 5.074-15.906 14.523-19.055-5.99-4.387-7.34-10.011-8.419-14.459.016-.133.136-.179.279-.148 2.981.872 8.861 1.605 10.379 1.353-4.274-2.166-9.249-9.191-9.952-17.431.023-.134.023-.134.155-.183 16.069-3.011 26.366-15.869 38.139-25.519-.571-.524-1.129-1.332-1.467-1.864-3.126-1.17-4.868-7.034-3.486-10.352v.001c-.67-2.494-.384-4.677.441-5.613-.731-1.922-4.624-14.173-4.748-14.52-.034-.096-.006-.123.063-.098 2.012.731 16.771 9.043 17.635 9.74 2.035-3.787 8.985-15.917 10.188-17.096.087-.078.087-.078.19-.032.239.063 18.006 10.899 18.203 10.917.183-.046 10.294-14.754 11.488-15.42.068-.027.068-.027.09.032.291.574 1.178 13.469.999 15.057 1.136.608 1.604 2.021 1.733 3.258 2.783.607 4.248 4.743 4.051 8.362 13.405-3.967 20.532.588 24.838 7.494 3.285 5.268 5.991 21.262-7.003 37.04-.817.992-.507 1.181-1.771.422a31.656 31.656 0 0 1-.665-.422c1.168 5.246.258 18.568.665 20.137 1.124 4.331 6.749 7.031 6.13 9.618-.311 1.3-2.868 3.656-3.543 3.881.281 2.869 1.282 3.483 1.236 5.006-.055 1.913-1.201 2.899-2.361 3.769 1.012 3.318-1.266 5.52-2.082 6.075-.439.3-.847.392-.844 1.125.009 1.642.557 4.679-2.564 6.929-3.341 2.409-13.803-.518-18.191-2.205-.738 2.004-2.087 5.033-2.602 6.175.105.188.213.374.311.575 6.961-4.261 11.895.885 12.402 1.393.316.316.285.253-.211.675-.252.215-1.755 1.399-3.434 2.75 21.978.473 30.285 33.26 14.188 37.729.183.985.474 2.38.847 3.272 2.622-.693 5.709-.476 9.003.95.043.039.124.255.067.332-.15.278-4.188 4.937-5.288 8.934-.091.412 3.521 1.37 18.599 12.498 5.319 4.056 10.271 8.051 13.745 13.773 3.993 6.666-.626 21.579-1.911 23.919.523.447 2.781 8.523-.947 10.293 14.896 26.417 25.361 72.345 25.186 95.45 7.267 5.385 12.191 11.274 9.407 21.782M60.653 219.251c-.095-.626-.336-.732-.548.463-3.881 23.288 43.073 22.824 63.996-2.404.563-.759.563-1.012-.168-.38-16.79 15.863-59.355 27.927-63.28 2.321m61.298-10.167c.506-.57.217-.412.027-.36-11.629 6.336-37.166 6.083-41.891-2.762-.112-.229-.112-.229-.196.042-1.238 11.25 30.092 12.91 42.06 3.08m11.387-42.994c6.43-1.4 2.411-18.163-3.434-16.759-5.154 1.24-2.016 17.945 3.434 16.759m-3.864-18.331c7.899-2.249 11.756 18.225 4.137 19.849-7.152 1.525-11.056-17.88-4.137-19.849m3.994 22.893c9.028-1.604 6.327-26.494-4.81-25.312-10.074 1.069-6.06 27.243 4.81 25.312m-5.062-27.59c13.077-1.604 17.38 28.264 5.652 29.952-15.13 2.178-18.515-28.375-5.652-29.952m16.115-75.823c.398.884.119.641-.311.225-.955-.929-2.977-.66-4.05 1.574-.338.704-.374.539-.253-.168.564-3.319 3.46-4.19 4.614-1.631" opacity=".1"/></svg>
