<svg xmlns="http://www.w3.org/2000/svg" width="159.576" height="240.538" viewBox="0.356 0 159.576 240.538"><path fill="#090205" d="M155.445 49.587c0 .178-.107 1.82-.561 2.403-.279.357-.677.506-1.055.561-.385.057-.748.018-.945.007l-.068-.005 1.014-.002H56.592V4.967h97.091c.877 0 1.762.641 1.762 1.762v42.858zm-16.021 189.989H66.926V57.037h72.498v182.539zM43.615 57.037h22.35v182.539h-22.35V57.037zm-22.751 0h21.79v182.539h-21.79V57.037zM5.553 52.23c-.21-.331-.23-.821-.23-1.282V6.808c.051-1.128.528-1.747 1.417-1.842h24.058V52.55H6.765c-.811.001-1.012-.109-1.212-.32zM31.758 4.967h23.873v47.584H31.758V4.967zM154.004 0H6.551l-.054.002C2.879.002.357.521.357 6.636l-.002.093v45.407l.004.065c0 3.714 1.968 4.835 5.283 4.835h10.735v183.341h.4v.16h125.369v-.16h1.763V57.037h9.869c.596.031 2.923.044 4.58-1.479.717-.66 1.572-1.856 1.572-3.808V4.727C159.758.784 158.33 0 154.004 0z" opacity=".1"/></svg>
