<svg xmlns="http://www.w3.org/2000/svg" viewBox="0 0 239.358 228.696"><g fill="#FFF"><path d="M141.344 90.858c-1.165.004-2.252.719-2.949 2.466-.564 1.419-.854 3.654-.848 5.662.007 1.958.357 4.232.903 5.634.708 1.806 1.759 2.474 2.947 2.469 1.182-.005 2.253-.665 2.948-2.457.547-1.408.855-3.698.847-5.67-.005-1.988-.283-4.058-.847-5.468-.705-1.768-1.825-2.638-3.001-2.636z"/><path d="M197.425 79.034c-19.643-2.219-38.523-3.4-38.71-3.412a4.329 4.329 0 0 1-3.77-2.76c-4.523-11.719-9.797-24.556-14.822-36.185C127.859 8.293 122.882-.022 119.482 0c-3.087-.035-7.686 8.396-20.705 37.217C90.653 55.202 83.782 72.8 83.713 72.976a4.325 4.325 0 0 1-3.784 2.748c-.187.011-18.901 1.093-38.375 3.219C10.556 82.327.564 84.216.033 86.932c-.551 2.98 5.787 9.974 29.025 31.137 14.586 13.284 29.179 25.267 29.326 25.386a4.328 4.328 0 0 1 1.442 4.441c-.048.183-4.828 18.489-8.852 37.846-4.601 22.13-8.014 40.156-5.297 42.337 3.341 2.723 13.435-3.622 38.756-18.073 17.213-9.823 33.216-20.006 33.376-20.108a4.325 4.325 0 0 1 4.657-.002c.16.102 16.177 10.132 33.271 20.039 25.804 14.954 35.501 19.964 38.616 18.102 3.158-2.247.311-15.838-5.28-42.689-4.066-19.526-8.843-38.011-8.892-38.195a4.324 4.324 0 0 1 1.454-4.446c.144-.118 14.559-11.88 28.975-24.933 22.848-20.685 29.407-27.934 28.699-30.588-.808-2.537-10.704-4.63-41.884-8.152zm-99.096 58.787c-6.918-.079-7.809-11.769-7.809-25.623 0-13.859 1.484-24.057 8.02-24.655 7.516-.693 7.507 11.32 7.507 25.186 0 13.859-1.116 25.161-7.718 25.092zm43.441 0c-6.603.069-7.718-11.233-7.718-25.092 0-13.865-.01-25.878 7.507-25.186 6.535.598 8.019 10.796 8.019 24.655 0 13.854-.89 25.544-7.808 25.623z"/><path d="M98.754 90.858c-1.175-.002-2.295.868-3.001 2.637-.563 1.41-.841 3.48-.848 5.468-.006 1.972.301 4.262.848 5.67.695 1.792 1.767 2.452 2.948 2.457 1.189.004 2.24-.663 2.946-2.469.548-1.401.898-3.676.904-5.634.007-2.008-.282-4.243-.847-5.662-.697-1.748-1.785-2.463-2.95-2.467z"/></g></svg>
