<svg width="115" height="116" viewBox="0 0 115 116" xmlns="http://www.w3.org/2000/svg"><path d="M92.311 53.893l-8.46 8.6H70.355l-.65.005-.438.444-2.43 2.413c-.14.14-.455.466-.455.466V77.05h-17.78V60.697l8.443-8.591h13.51l.622-.002s.342-.322.47-.45l2.43-2.424c.145-.145.448-.502.448-.502s.005-.386.005-.591V34.084c0-.21-.005-.607-.005-.607s-.309-.348-.452-.49l-2.43-2.408c-.133-.132-.472-.443-.472-.443s-.396-.005-.615-.005h-26.14l-.612.001s-.34.311-.478.45l-2.419 2.408c-.136.136-.457.465-.457.465l.002.63v12.658H22.674V28.727l8.705-8.983h52.245l8.687 8.982v25.167zM85.39 17.126a1.544 1.544 0 0 0-1.11-.47H30.724c-.418 0-.818.169-1.11.469l-9.594 9.902c-.28.288-.435.673-.435 1.074v20.187c0 .852.691 1.544 1.544 1.544h20.868c.852 0 1.544-.692 1.544-1.544V34.726l1.513-1.507H69.92l1.522 1.509v12.768l-1.525 1.521h-13.52c-.414 0-.81.167-1.1.462l-9.34 9.504a1.544 1.544 0 0 0-.444 1.082v18.53c0 .852.692 1.543 1.545 1.543h20.867c.853 0 1.544-.691 1.544-1.544v-11.5l1.522-1.512h13.506c.414 0 .81-.166 1.1-.461l9.358-9.512c.284-.29.444-.678.444-1.083V28.1c0-.4-.156-.785-.435-1.073l-9.576-9.902zM66.382 98.158h-17.78V87.77h17.78v10.388zm1.544-13.476H47.06c-.853 0-1.545.691-1.545 1.544v13.476c0 .853.692 1.544 1.545 1.544h20.867c.853 0 1.544-.691 1.544-1.544V86.226c0-.853-.69-1.544-1.544-1.544zm34.795 21.263a2.94 2.94 0 0 1-2.937-2.937 2.94 2.94 0 0 1 2.937-2.937 2.94 2.94 0 0 1 2.937 2.937 2.94 2.94 0 0 1-2.937 2.937zm0-8.19a5.26 5.26 0 0 0-5.254 5.253 5.26 5.26 0 0 0 5.254 5.253 5.26 5.26 0 0 0 5.253-5.253 5.26 5.26 0 0 0-5.253-5.254zm0-82.637a2.941 2.941 0 0 1-2.937-2.938 2.94 2.94 0 0 1 2.937-2.937 2.94 2.94 0 0 1 2.937 2.937 2.94 2.94 0 0 1-2.937 2.938zm0-8.191a5.26 5.26 0 0 0-5.254 5.253 5.26 5.26 0 0 0 5.254 5.254 5.26 5.26 0 0 0 5.253-5.254 5.259 5.259 0 0 0-5.253-5.253zm8.032 98.817c0 3.444-1.674 5.118-5.119 5.118H9.365c-3.444 0-5.119-1.674-5.119-5.118V9.474c0-3.445 1.675-5.119 5.12-5.119h96.268c3.445 0 5.12 1.674 5.12 5.118v96.27zM105.634.109H9.365C3.588.109 0 3.697 0 9.473v96.27c0 5.777 3.588 9.365 9.365 9.365h96.27c5.776 0 9.365-3.588 9.365-9.364V9.474c0-5.777-3.59-9.365-9.366-9.365zm-93.36 15.008a2.94 2.94 0 0 1-2.937-2.937 2.94 2.94 0 0 1 2.938-2.937 2.94 2.94 0 0 1 2.937 2.937 2.94 2.94 0 0 1-2.937 2.937zm0-8.19a5.26 5.26 0 0 0-5.253 5.253 5.26 5.26 0 0 0 5.254 5.254 5.26 5.26 0 0 0 5.253-5.254 5.259 5.259 0 0 0-5.253-5.253zm0 99.017a2.94 2.94 0 0 1-2.937-2.936 2.94 2.94 0 0 1 2.938-2.937 2.94 2.94 0 0 1 2.937 2.937 2.94 2.94 0 0 1-2.937 2.936zm0-8.19a5.26 5.26 0 0 0-5.253 5.254 5.26 5.26 0 0 0 5.254 5.253 5.259 5.259 0 0 0 5.253-5.253 5.26 5.26 0 0 0-5.253-5.254z" fill="#000" opacity=".1" fill-rule="evenodd"/></svg>
