<svg enable-background="new 0 0 101 111" viewBox="0 0 101 111" xmlns="http://www.w3.org/2000/svg"><g fill="#fff"><path d="m94.6 29.1c-3.7-1-3.9-1.3-4.9-4.9-.7-3-3.6-2.9-4.2 0-1 3.7-1.2 3.9-4.9 4.9-3 .7-3.1 3.6-.1 4.3 3.6 1 3.9 1.2 4.9 4.9.7 3 3.7 3 4.4 0 1-3.7 1.3-3.9 4.9-4.9 3-.6 2.9-3.6-.1-4.3z"/><path d="m73.2 38.1h-13.4l2.7-1.6c1-.6 1.7-1.6 1.8-2.8s-.4-2.3-1.3-3l-7.5-6.3c-.9-.7-2-1-3.1-.7s-2 1-2.4 2l-3 6.7-3-6.7c-.4-1-1.4-1.8-2.4-2-1.1-.3-2.2 0-3.1.7l-7.5 6.3c-.9.7-1.4 1.9-1.3 3 .1 1.2.8 2.2 1.8 2.8l2.7 1.6h-13.3c-4.9 0-8.9 4-8.9 8.9v11.2c0 2 1.6 3.5 3.5 3.5h1.5v6.6c-6.4 1.5-11.1 7.3-11.1 14.1 0 8 6.5 14.6 14.6 14.6 5.1 0 9.7-2.7 12.2-6.7h34.2c5.6 0 10.2-4.6 10.2-10.2v-18.4h1.4c2 0 3.5-1.6 3.5-3.5v-11.3c-0-4.9-3.9-8.8-8.8-8.8zm1.8 8.8v7.7h-20.9v-9.5h19.1c1 0 1.8.8 1.8 1.8zm-55.9 0c0-1 .8-1.8 1.8-1.8h19.1v9.5h-20.9zm8.7 36.3c-.3 2.9-2.2 5.2-4.8 6.2-.8.3-1.7.5-2.6.5-4.1 0-7.4-3.3-7.4-7.4 0-2.9 1.6-5.3 4-6.6 1-.5 2.2-.9 3.4-.9 1.3 0 2.6.4 3.7 1 2.2 1.3 3.8 3.7 3.8 6.4 0 .3-.1.6-.1.8zm-3.7-14.8v-6.7h17.6v21.5h-6.7c0-.3 0-.5 0-.8 0-6.7-4.6-12.4-10.9-14zm45.9 11.7c0 1.7-1.4 3.1-3.1 3.1h-14.5v-21.5h17.6z"/></g></svg>