<?xml version="1.0" encoding="utf-8"?>
<!-- Generator: Adobe Illustrator 21.0.0, SVG Export Plug-In . SVG Version: 6.00 Build 0)  -->
<svg version="1.1" id="Layer_1" xmlns="http://www.w3.org/2000/svg" xmlns:xlink="http://www.w3.org/1999/xlink" x="0px" y="0px"
	 viewBox="0 0 101 111" style="enable-background:new 0 0 101 111;" xml:space="preserve">
<style type="text/css">
	.st0{fill:#FFFFFF;}
</style>
<g>
	<path class="st0" d="M94.6,29.1c-3.7-1-3.9-1.3-4.9-4.9c-0.7-3-3.6-2.9-4.2,0c-1,3.7-1.2,3.9-4.9,4.9c-3,0.7-3.1,3.6-0.1,4.3
		c3.6,1,3.9,1.2,4.9,4.9c0.7,3,3.7,3,4.4,0c1-3.7,1.3-3.9,4.9-4.9C97.7,32.8,97.6,29.8,94.6,29.1z"/>
	<path class="st0" d="M73.2,38.1H59.8l2.7-1.6c1-0.6,1.7-1.6,1.8-2.8c0.1-1.2-0.4-2.3-1.3-3l-7.5-6.3c-0.9-0.7-2-1-3.1-0.7
		c-1.1,0.3-2,1-2.4,2l-3,6.7l-3-6.7c-0.4-1-1.4-1.8-2.4-2c-1.1-0.3-2.2,0-3.1,0.7l-7.5,6.3c-0.9,0.7-1.4,1.9-1.3,3
		c0.1,1.2,0.8,2.2,1.8,2.8l2.7,1.6H20.9c-4.9,0-8.9,4-8.9,8.9v11.2c0,2,1.6,3.5,3.5,3.5H17v6.6c-6.4,1.5-11.1,7.3-11.1,14.1
		c0,8,6.5,14.6,14.6,14.6c5.1,0,9.7-2.7,12.2-6.7h34.2c5.6,0,10.2-4.6,10.2-10.2V61.7h1.4c2,0,3.5-1.6,3.5-3.5V46.9
		C82,42,78.1,38.1,73.2,38.1z M75,46.9v7.7H54.1v-9.5h19.1C74.2,45.1,75,45.9,75,46.9z M19.1,46.9c0-1,0.8-1.8,1.8-1.8H40v9.5H19.1
		V46.9z M27.8,83.2c-0.3,2.9-2.2,5.2-4.8,6.2c-0.8,0.3-1.7,0.5-2.6,0.5c-4.1,0-7.4-3.3-7.4-7.4c0-2.9,1.6-5.3,4-6.6
		c1-0.5,2.2-0.9,3.4-0.9c1.3,0,2.6,0.4,3.7,1c2.2,1.3,3.8,3.7,3.8,6.4C27.9,82.7,27.8,83,27.8,83.2z M24.1,68.4v-6.7h17.6v21.5H35
		c0-0.3,0-0.5,0-0.8C35,75.7,30.4,70,24.1,68.4z M70,80.1c0,1.7-1.4,3.1-3.1,3.1H52.4V61.7H70V80.1z"/>
</g>
</svg>
