<svg xmlns="http://www.w3.org/2000/svg" viewBox="0 0 246 246"><path fill="#FFF" d="M188.375 11c2.15 0 4.288.092 6.438.27 2.137.184 4.287.448 6.425.799.712 0 1.338.362 1.879 1.075.534.718.798 1.431.798 2.144.357.719.357 1.431 0 2.144a3.411 3.411 0 0 1-1.603 1.603l-27.867 17.689 1.072 27.86 25.186 13.402 28.407-18.217c.344 0 .707-.086 1.069-.271.35-.178.712-.271 1.068-.271 1.069 0 1.96.363 2.678 1.069.712.725 1.075 1.609 1.075 2.684v1.075c-1.431 4.644-3.31 9.287-5.626 13.931a126.904 126.904 0 0 1-7.77 13.396c-2.862 4.287-5.896 8.126-9.115 11.522-3.212 3.396-6.425 5.988-9.643 7.77a23.503 23.503 0 0 1-4.558 2.678 23.458 23.458 0 0 1-5.085 1.609c-1.793.718-3.575 1.167-5.362 1.339-1.788.185-3.575.27-5.359.27-1.79 0-3.75-.356-5.894-1.075a897.06 897.06 0 0 1-6.431-2.144 106.08 106.08 0 0 0-6.43-2.948c-2.144-.885-3.934-1.689-5.359-2.409l-13.933 15.54L120.32 98.88l16.611-14.465a341.52 341.52 0 0 1-3.215-7.769 160.432 160.432 0 0 1-3.212-8.845 138.659 138.659 0 0 1-1.877-8.574c-.537-2.85-.629-5.533-.267-8.034a37.394 37.394 0 0 1 2.144-9.114 89.878 89.878 0 0 1 3.75-8.575 31.372 31.372 0 0 1 5.091-6.695c1.959-1.966 4.195-3.833 6.698-5.626 2.493-1.425 5.359-2.764 8.574-4.017a60.647 60.647 0 0 1 10.181-2.948c3.569-1.075 7.41-1.879 11.522-2.414A93.418 93.418 0 0 1 188.375 11M24.399 12.609l42.334 20.896 7.503 28.401 77.701 77.709 3.753-3.759c1.421-1.781 2.945-3.292 4.554-4.551 1.605-1.247 2.585-1.874 2.948-1.874h.535l5.896 5.896c-.362.712-.897 1.603-1.609 2.678-.718.719-1.523 1.523-2.411 2.408a19.214 19.214 0 0 0-2.411 2.948l-.537.541 1.609 1.603.535-.535c1.072-1.068 2.227-1.879 3.482-2.413a10.107 10.107 0 0 1 4.021-.805c1.072 0 2.318.271 3.752.805 1.422.534 2.494 1.345 3.216 2.413l50.909 50.372c2.138 2.144 3.212 4.649 3.212 7.499 0 2.862-1.075 5.362-3.212 7.506l-21.436 21.436c-1.069 1.069-2.236 1.874-3.483 2.408a10.073 10.073 0 0 1-4.022.811c-1.425 0-2.771-.27-4.017-.811-1.253-.534-2.236-1.339-2.949-2.408l-50.909-50.905c-2.144-2.149-3.215-4.643-3.215-7.505 0-2.856 1.072-5.172 3.215-6.965l.537-1.074-1.609-1.075-.535.541a104.883 104.883 0 0 1-4.554 4.287c-1.609 1.431-2.598 2.144-2.948 2.144-.36 0-.538-.178-.538-.535l-5.893-5.361c0-.351.083-.621.267-.805.178-.172.62-.976 1.342-2.408a30.7 30.7 0 0 0 2.144-2.414c.709-.89 1.606-1.688 2.678-2.414l3.749-3.747-77.7-78.24-27.867-6.965-.535-.541L11 26.005V24.93l12.327-12.321h1.072m71.808 107.173l27.867 28.401-65.379 77.168c-1.072 1.431-2.411 2.678-4.017 3.753a138.98 138.98 0 0 1-5.092 3.212 28.577 28.577 0 0 1-5.626 1.609 31.12 31.12 0 0 1-5.629.535c-1.791 0-3.575-.172-5.356-.535-1.793-.35-3.399-.891-4.825-1.609-1.79-.712-3.399-1.517-4.821-2.414-1.434-.884-2.865-2.051-4.287-3.477-1.434-1.425-2.598-2.862-3.486-4.287-.894-1.425-1.698-3.034-2.411-4.828a29.24 29.24 0 0 1-1.606-5.356 26.845 26.845 0 0 1-.537-5.362c0-1.781.175-3.654.537-5.626a28.59 28.59 0 0 1 1.606-5.626c.712-1.425 1.609-2.948 2.681-4.551a29.81 29.81 0 0 1 3.75-4.558l76.631-66.449M188.375 0c-4.374 0-8.908.302-13.475.897-4.495.584-8.787 1.472-12.767 2.639a71.682 71.682 0 0 0-11.508 3.381c-3.733 1.456-7.111 3.042-10.041 4.717l-.489.28-.458.329c-3.025 2.167-5.745 4.457-8.083 6.803a42.38 42.38 0 0 0-6.856 9.012l-.148.259-.133.268a101.238 101.238 0 0 0-4.208 9.624 48.565 48.565 0 0 0-2.763 11.611c-.501 3.626-.376 7.476.373 11.445.59 3.159 1.272 6.273 2.023 9.239l.099.391.127.382a171.968 171.968 0 0 0 3.67 10.042l-7.77 6.766-31.855-31.859-6.745-25.531-1.278-4.839-4.488-2.215L29.268 2.745l-2.302-1.136H18.772l-3.222 3.22L3.224 17.15 0 20.372v8.23l1.162 2.323 20.901 41.796.783 1.566 1.231 1.246.535.541 2.167 2.192 2.99.748 24.891 6.221 29.889 30.096-72.181 62.591-.294.255-.276.276a40.872 40.872 0 0 0-5.128 6.24c-1.313 1.963-2.449 3.896-3.365 5.73l-.2.399-.167.414a39.572 39.572 0 0 0-2.226 7.777 42.24 42.24 0 0 0-.712 7.58c0 2.525.252 5.051.749 7.508a40.473 40.473 0 0 0 2.184 7.301c.95 2.388 2.062 4.603 3.303 6.581 1.324 2.125 3.029 4.237 5.052 6.246 1.989 1.995 4.093 3.69 6.219 5.007 1.852 1.164 3.92 2.216 6.154 3.13 2.196 1.055 4.602 1.843 7.161 2.347a37.94 37.94 0 0 0 7.508.747c2.465 0 5.019-.239 7.593-.711a39.764 39.764 0 0 0 7.754-2.223l.823-.33.76-.458c1.95-1.175 3.8-2.342 5.499-3.469 2.566-1.718 4.744-3.736 6.511-6.024l51.257-60.5 1.894 1.723 4.513 4.105a11.336 11.336 0 0 0 5.911 4.161c1.08 2.515 2.666 4.84 4.729 6.909l50.341 50.338a17.676 17.676 0 0 0 6.953 5.31c2.623 1.133 5.439 1.708 8.369 1.708 2.917 0 5.731-.573 8.362-1.703 2.532-1.084 4.864-2.68 6.921-4.737l21.436-21.436c4.213-4.225 6.435-9.506 6.435-15.284 0-5.773-2.221-11.053-6.424-15.267l-.026-.026-.026-.026-50.345-49.813a17.213 17.213 0 0 0-4.747-4.071l.225-.442-5.646-5.647-.606-.606c1.952.417 3.854.626 5.686.626 2.187 0 4.36-.109 6.46-.325a30.2 30.2 0 0 0 7.394-1.706 34.28 34.28 0 0 0 6.451-2.149 34.463 34.463 0 0 0 6.031-3.458c3.967-2.294 7.887-5.478 11.663-9.47 3.616-3.816 7.074-8.183 10.271-12.973a138.672 138.672 0 0 0 8.455-14.573c2.593-5.2 4.711-10.449 6.305-15.622l.488-1.58V62.98c0-3.929-1.502-7.62-4.23-10.396l-.064-.065-.066-.064c-2.771-2.726-6.462-4.228-10.392-4.228-1.252 0-2.511.184-3.726.541h-1.635l-2.714 1.74-22.988 14.742-13.919-7.407-.586-15.223 22.167-14.071a14.362 14.362 0 0 0 5.925-6.237 13.22 13.22 0 0 0 .915-9.531c-.402-2.192-1.33-4.3-2.74-6.198l-.035-.046-.035-.046c-2.35-3.094-5.716-5.003-9.379-5.361a96.188 96.188 0 0 0-6.741-.819A89.822 89.822 0 0 0 188.375 0z"/><path fill="#FFF" d="M38.329 194.91c1.681 0 3.255.298 4.653.875 1.425.596 2.726 1.49 3.955 2.713 1.246 1.252 2.142 2.554 2.729 3.958.586 1.416.883 2.987.883 4.67 0 1.348-.29 2.705-.872 4.116-.596 1.42-1.513 2.754-2.734 3.972-1.241 1.243-2.532 2.133-3.963 2.727-1.406.588-2.928.875-4.652.875-1.361 0-2.706-.286-4.126-.88-1.427-.593-2.717-1.48-3.966-2.735-1.216-1.209-2.127-2.534-2.711-3.94-.592-1.423-.879-2.775-.879-4.133 0-1.694.295-3.26.883-4.67.583-1.409 1.473-2.701 2.715-3.945 1.236-1.234 2.536-2.126 3.946-2.717 1.444-.596 2.798-.886 4.139-.886m0-6c-2.144 0-4.284.455-6.428 1.339-2.144.896-4.112 2.235-5.896 4.017-1.791 1.793-3.132 3.753-4.02 5.896-.894 2.144-1.339 4.471-1.339 6.965 0 2.15.445 4.287 1.339 6.437.887 2.138 2.229 4.109 4.02 5.89 1.784 1.793 3.753 3.133 5.896 4.023 2.144.897 4.284 1.339 6.428 1.339 2.497 0 4.825-.442 6.968-1.339 2.144-.89 4.103-2.229 5.893-4.023 1.785-1.781 3.124-3.752 4.021-5.89.887-2.15 1.339-4.287 1.339-6.437 0-2.494-.452-4.821-1.339-6.965-.897-2.144-2.236-4.103-4.021-5.896-1.791-1.781-3.75-3.12-5.893-4.017-2.143-.884-4.471-1.339-6.968-1.339z"/></svg>
