<svg width="168" height="162" viewBox="0 0 168 162" xmlns="http://www.w3.org/2000/svg"><path d="M161.212 126.565c-1.552 1.33-7.43 6.683-18.155 7.578a48.315 48.315 0 0 0-2.242-1.6c.161-.805.637-2.034 1.051-3.372 4.338-1.974 8.148-4.179 11.243-6.516 3.623 1.012 7.672.9 8.717.796.615-.061 1.518-.017 1.434.574-.04.287-.327 1.065-2.048 2.54m-10.24 23.754c.246 2.703.33 4.753-4.566 5.94-9.892 2.395-27.77.307-31.763 1.535-.3.093-.527.149-.707.123-.322-.046-.24-.738-.03-1.29.778-2.048 2.803-4.972 6.02-6.225 1.475-.574.981-1.013-.163-.902-4.55.44-6.904 2.883-8.115 5.429-1.849.146-3.421.147-3.763.1-.385-.051-.891.093-.43-.86.712-1.876 3.842-6.301 7.455-8.036 4.424.545 8.392-.667 5.835-.974-2.749-.33-9.954-2.302-13.582-7.379 10.863-.822 21.352-3.287 30.185-6.706a30.925 30.925 0 0 0-.956 2.453c9.338 4.505 14.334 14.089 14.58 16.792m-87.729-5.85c.316-4.511.982-9.845 2.477-13.599a79.061 79.061 0 0 0 7.986 3.256c-.217 2.978-.426 7.58-.226 8.985.246 1.72.738 2.949 1.23 1.72.416-1.043 1.188-6.958 1.411-9.923a68.482 68.482 0 0 0 11.04 2.388c2.93.388 5.889.618 8.853.72.154 2.2.292 4.859.567 5.955.368 1.475.368 2.457.983 1.966.467-.374.934-4.946.969-7.869 1.366.012 2.732-.002 4.095-.046 1.824 3.035 4.731 5.511 7.932 6.918-.493.419-.99.873-1.481 1.358-10.256 1.325-32.815 2.033-45.836-1.828m-4.437 8.141c-.459 1.902-1.97 2.823-4.412 3.115-5.488.655-17.694.41-22.998-.266-3.608-.46-8.048.553-11.12.921-1.044.126-1.72.737-1.229-1.106.492-1.843 2.52-7.065 9.155-9.277 1.836-.612 1.945-1.495-1.168-1.044-2.55.37-7.964 2.008-10.27 7.824-1.735.2-3.79.304-4.352.224-.86-.123-.921-.246-.676-1.044 3.031-9.849 17.216-13.62 20.582-14.008.798-.092.921-.614 1.167-1.167.51-1.147 4.808-13.324 11.646-18.717 6.369 4.868 12.167 8.51 17.43 11.241-1.036 2.473-2.238 8.682-2.844 14.46-.204 1.944-.28 6.23-.91 8.844m-49.958-24.86c-1.843-5.283.303-9.938 3.44-14.253 2.806-3.858 5.833-7.836 7.92-15.729 2.063 1.562 4.176 3.327 6.651 5.421-1.826 3.476-5.915 7.353-8.713 8.752-1.623.81-2.732.648-3.277.164-.737-.655-.462 1.341.614 2.007.24.148.496.247.763.309-.058 1.887.636 5.796 2.514 7.883 1.6 1.777 4.505 3.44 9.093 1.064 5.307-2.749 5.74-10.475 5.49-14.718 2.591 2.152 5.577 4.581 9.115 7.348-6.891 6.944-10.321 15.089-11.165 17.774-.363 1.154-.082 1.044-1.065 1.29-.41.102-4.02.725-8.187 2.474-7.028.38-11.609-5.245-13.193-9.785m13.025-13.885c0 .831-.4 1.505-.891 1.505-.492 0-.891-.674-.891-1.505 0-.123.01-.24.027-.355.475-.248.951-.524 1.42-.812.202.276.335.693.335 1.167m9.092-.164c-.983 5.243-3.809 8.15-6.88 8.52-3.073.368-4.793-2.335-5.53-4.547-.485-1.456-.543-2.482-.492-3.331.38-.098.77-.24 1.164-.408a5.63 5.63 0 0 0-.058.79c0 1.9.75 3.335 1.966 3.44 1.413.123 2.253-1.99 2.253-3.89 0-.983-.211-1.833-.583-2.429 2.425-1.81 4.691-4.635 6.061-6.957.653.552 1.332 1.126 2.042 1.724.306 1.676.613 4.126.057 7.088M3.934 87c-.491-3.605 0-7.045 2.949-9.912 2.766-2.69 8.325-3.473 12.533-2.048 15.605 5.284 31.621 29.556 59.553 39.647 25.394 9.175 58.897-3.276 65.942-7.946 3.788-2.51 4.75-5.324 4.505-8.764-.042-.589-.05-1.886-.177-3.724 2.291.34 4.696 1.363 6.444 3.273 6.635 7.25 3.494 16.304-5.53 22.977-16.054 11.876-42.926 15.795-62.829 13.434-19.332-2.293-35.551-14.744-40.794-18.512-5.242-3.768-23.673-21.831-32.152-23.92-5.023-1.237-4.544-.055-1.925 1.31A50.735 50.735 0 0 1 17.3 95.69c-.379 2.656-1.35 5.247-2.561 7.644-3.793-2.423-9.704-8.269-10.804-16.334m14.315-60.31c-.133-1.733-.285-3.452.102-3.83.42-.41 3.266 1.11 4.321 1.74 7.857 4.687 16.332 11.153 20.783 14.59a290.857 290.857 0 0 0-.857 9.335c-4.92 2.892-10.289 6.967-15.581 13.16-3.329-9.99-8.315-29.103-8.768-34.996m29.51 5.018c.352-1.702.628-2.95 1.147-3.072.696-.163 1.948 1.064 2.826 1.925 4.341 4.26 20.937 23.652 24.452 32.111 1.105 2.662.655 4.342-.164 5.816-4.823 8.682-21.216 13.557-27.729 8.15-1.743-1.447-2.762-2.68-3.072-5.898-.9-9.379 1.066-31.905 2.54-39.032m61.221 13.885c-5.582 4.848-10.584 9.579-12.584 12.061-2.74 3.4-3.606 6.249-3.509 8.97.58 16.2 18.55 23.968 32.068 20.028 2.781-.81 4.746-3.043 5.62-5.385 1.186-3.175 2.091-10.461 2.683-18.51 6.483 8.333 12.297 19.75 12.718 34.217.114 3.93 0 5.222-4.178 7.802-8.355 5.161-42.53 14.541-62.338 6.8-25.362-9.913-37.793-29.215-56.025-38.544 5.192-9.304 12.697-15.908 18.853-20.065-.457 7.248-.63 13.844-.345 16.668.298 2.944.532 5.672 3.236 8.294 7.693 7.46 27.06 3.745 33.83-8.602 1.393-2.539 1.29-5.345.124-7.966-1.67-3.748-6.72-11.129-12.288-18.335 18.548-4.841 35.237-.434 42.135 2.567M87.16 7.951c.947-1.456 1.925-3.042 2.54-2.98.804.08 1.436 1.933 1.93 3.041 2.464 5.528 6.955 21.416 9.024 30.99-7.945-2.027-17.251-2.732-27.49-1.09C76.917 28.15 84.207 12.49 87.16 7.95m43.088 26.295c.573.164.662 2.458.674 3.687.056 6.082-.528 32.377-3.705 42.268-.737 2.294-2.13 3.358-3.882 3.901-9.488 2.938-25.198-2.508-27.246-15.533-.352-2.238-.338-5.126 1.72-7.618 5.997-7.268 23.372-21.35 29.455-25.344 1.453-.954 2.472-1.507 2.984-1.36m28.916 2.293c.246.532-.332 2.345-.819 4.014-1.695 5.812-8.875 21.946-14.832 32.099-2.282-4.8-5.47-9.906-9.926-14.99.26-4.645.418-9.309.469-13.392 7.925-3.553 18.323-6.816 21.804-7.545 1.23-.257 3.028-.787 3.304-.186m5.488 83.963c-1.538.14-5.37.721-8.7-.214 9.285-8.62 8.953-18.658 1.983-25.507-2.3-2.261-5.557-3.674-9.042-4.004a59.948 59.948 0 0 0-3.458-13.652c8.333-13.56 13.75-27.833 16.023-34.77.686-2.097 2.614-7.945 1.475-9.297-.656-.779-2.392-.654-3.748-.533-5.112.454-16.626 3.954-25.116 7.619-.022-2.988-.121-5.427-.299-6.963-.198-1.717-.417-3.284-1.433-3.605-1.168-.369-3.072.737-4.117 1.29-3.435 1.819-9.98 6.87-16.323 12.227a57.823 57.823 0 0 0-7.364-2.967c-2.065-11.067-8.237-31.712-11.966-37.828C91.68.845 91.037.199 90.253.025c-1.106-.246-2.378 1.385-3.257 2.437C81.62 8.898 72.19 28.626 69.034 38.69a79.031 79.031 0 0 0-4.67 1.177c-4.933-6.165-9.94-11.775-13.124-14.305-1.642-1.305-2.887-2.191-3.993-1.823-1.217.406-1.872 3.448-2.15 4.608-.405 1.683-.798 4.062-1.164 6.842-6.283-4.835-19.22-13.805-24.968-16.016-1.612-.62-2.58-.737-3.276-.205-.544.416-.793 1.147-.86 2.519-.496 10.104 6.544 35.274 9.474 43.575a81.738 81.738 0 0 0-4.41 6.473C14.164 69.843 7.021 71.011 3.32 75.9c-6.228 8.225-2.15 22.777 9.753 30.408-2.34 3.828-4.928 6.89-5.883 8.482-1.843 3.071-4.055 8.6-1.351 15.359 2.383 5.957 7.103 9.204 11.307 9.943-4.25 2.738-8.043 6.866-8.666 13.034-.173 1.716.43 2.765 3.072 2.765 1.295 0 3.015-.095 4.413-.24-.108.62-.19 1.27-.235 1.96-.164 2.54 1.32 2.194 3.195 1.905 6.758-1.045 10.764-.864 14.069-.615 13.558 1.021 22.396.162 24.39-.184 4.132-.717 5.398-2.704 5.53-6.39.031-.9.059-2.47.139-4.403 8.004 2.338 30.987 3.682 43.248 1.662-1.575 2.276-2.674 4.875-2.594 7.533.035 1.158 1.045 1.137 2.785.983a38.574 38.574 0 0 1 4.181-.175 15.178 15.178 0 0 0-.239 1.711c-.153 1.905 1.336 1.914 2.366 1.66 6.963-1.721 25.65-.124 34.343-1.721 7.41-1.361 8.207-6.157 7.27-9.994-1.144-4.685-4.033-8.823-7.668-12.301 13.296-3.372 18.209-9.754 19.71-12.519.893-1.646 1.351-4.546-1.803-4.26" fill="#090205" opacity=".1" fill-rule="evenodd"/></svg>
