<svg xmlns="http://www.w3.org/2000/svg" width="113.017" height="108.002" viewBox="0 0 113.017 108.002"><path d="M48.587 49.926c-.311.793-.772 1.086-1.295 1.085-.519-.002-.989-.292-1.295-1.08-.24-.619-.376-1.625-.373-2.491.004-.873.125-1.783.373-2.402.311-.777.803-1.16 1.318-1.158.513.002.99.316 1.296 1.083.248.624.375 1.606.373 2.488-.003.86-.156 1.86-.397 2.475m-1.365-7.503c-2.872.263-3.523 4.743-3.523 10.833 0 6.087.392 11.223 3.431 11.258 2.9.029 3.391-4.936 3.391-11.025-.001-6.092.002-11.37-3.299-11.066m20.125 7.509c-.306.787-.776 1.077-1.295 1.08-.522.001-.983-.292-1.295-1.085-.24-.616-.394-1.615-.397-2.476-.002-.882.125-1.864.373-2.488.307-.767.784-1.081 1.295-1.083.518-.001 1.01.381 1.319 1.158.248.62.37 1.529.372 2.402.004.867-.131 1.872-.372 2.492m-1.224-7.509c-3.303-.304-3.299 4.974-3.299 11.065 0 6.089.49 11.054 3.391 11.025 3.04-.035 3.431-5.171 3.431-11.258 0-6.088-.652-10.569-3.523-10.832M96.46 55.705c-6.334 5.734-12.667 10.903-12.73 10.955a1.896 1.896 0 0 0-.638 1.953c.021.081 2.12 8.202 3.906 16.781 2.456 11.797 3.708 17.769 2.32 18.756-1.368.818-5.63-1.383-16.966-7.953a557.396 557.396 0 0 1-14.619-8.805 1.9 1.9 0 0 0-2.045.001c-.07.045-7.102 4.519-14.664 8.835-11.125 6.349-15.56 9.137-17.028 7.94-1.194-.958.306-8.878 2.328-18.602a381.746 381.746 0 0 1 3.889-16.628 1.904 1.904 0 0 0-.633-1.951 374.836 374.836 0 0 1-12.884-11.152C6.486 46.536 3.702 43.463 3.944 42.154c.233-1.193 4.623-2.024 18.242-3.511 8.556-.934 16.778-1.409 16.86-1.414a1.9 1.9 0 0 0 1.663-1.208c.03-.077 3.049-7.809 6.619-15.71 5.72-12.663 7.74-16.367 9.097-16.352 1.493-.01 3.681 3.643 9.069 16.114a450.586 450.586 0 0 1 6.512 15.898 1.899 1.899 0 0 0 1.656 1.212c.082.005 8.378.524 17.008 1.499 13.699 1.548 18.047 2.467 18.4 3.582.31 1.169-2.572 4.354-12.61 13.441m16.376-14.724c-.647-1.865-2.781-3.862-20.739-5.958-7.146-.834-14.236-1.36-16.989-1.55-1.01-2.562-3.645-9.137-6.6-15.662C61.067 1.376 58.371 0 56.428 0c-1.941 0-4.64 1.377-12.148 17.828-2.983 6.535-5.646 13.119-6.666 15.683-2.737.176-9.749.665-16.82 1.463C2.991 36.985.824 39.064.19 40.855a3.026 3.026 0 0 0-.189 1.036c0 2.047 2.136 5.74 13.343 16.031 5.306 4.872 10.764 9.463 12.889 11.232-.68 2.674-2.396 9.575-3.835 16.626-1.716 8.413-2.321 13.442-2.321 16.526 0 3.412.74 4.443 1.536 5.045 1.604 1.213 4.498 1.649 20.361-7.293 6.307-3.556 12.393-7.34 14.737-8.814 2.326 1.461 8.334 5.193 14.578 8.721 15.655 8.844 18.647 8.512 20.223 7.506.922-.588 1.743-1.603 1.743-5.203 0-3.112-.613-8.155-2.306-16.521-1.449-7.165-3.191-14.203-3.879-16.913 2.112-1.747 7.494-6.247 12.729-11.025 11.112-10.144 13.218-13.783 13.218-15.811 0-.387-.077-.714-.181-1.017" opacity=".1"/></svg>
