<svg xmlns="http://www.w3.org/2000/svg" viewBox="0 0 222.947 222.376"><g fill="#FFF"><path d="M55.535 22.345a.631.631 0 0 0-.286-.361L13.362 1.263a.66.66 0 0 0-.804.099L.257 13.664a.662.662 0 0 0-.101.802l20.723 41.889c.081.138.208.24.361.289l27.848 7.292 77.457 77.457-3.831 3.831c-1.851 1.846-3.518 3.658-4.695 5.095-1.93 2.347-1.671 2.611-1.531 2.749l5.768 5.763a.284.284 0 0 0 .229.089c.849 0 4.472-3.179 7.612-6.317l.6-.597 1.56 1.56-.598.6c-4.035 4.038-4.033 10.606.002 14.644l50.54 50.536a10.274 10.274 0 0 0 7.319 3.031c2.767 0 5.364-1.078 7.321-3.034l21.294-21.292c4.036-4.035 4.036-10.606.002-14.64l-50.54-50.54a10.313 10.313 0 0 0-7.321-3.034 10.277 10.277 0 0 0-7.319 3.034l-.496.496-1.56-1.563.494-.489c1.847-1.853 3.519-3.661 4.695-5.102 1.932-2.35 1.669-2.611 1.531-2.749l-5.766-5.766a.318.318 0 0 0-.23-.086c-.851 0-4.475 3.179-7.614 6.314l-3.727 3.727-77.457-77.455-7.292-27.853z"/><path d="M108.546 87.357l24.508 24.507 13.37-15.861c6.507 3.159 17.296 8.753 24.226 8.757 7.249-.003 14.192-1.967 20.085-5.68 13.023-8.219 26.764-28.109 32.016-46.337a3.733 3.733 0 0 0-3.533-4.933s-.008-.003-.013-.003l-.104.003c-.714.02-1.375.24-1.933.604l-28.474 17.95-24.831-13.07-1.093-28.044 27.712-17.475A3.736 3.736 0 0 0 189.048.92c-4.045-.61-8.34-.92-12.766-.92h-.003c-15.681 0-32.048 3.93-41.699 10.014-9.932 6.262-16.253 16.844-17.796 29.79-1.152 9.639 4.32 23.59 8.436 33.056l-16.674 14.497zM84.688 108.093L8.704 174.14C3.155 179.514.065 186.682.001 194.336c-.061 7.472 2.799 14.479 8.042 19.726 5.142 5.139 11.971 7.968 19.236 7.968 7.656 0 15.099-3.251 20.428-8.918l64.948-77.052-27.967-27.967zm-46.71 97.1c-5.799 5.798-15.201 5.801-21.002-.003-5.795-5.798-5.798-15.197 0-20.997 5.799-5.801 15.202-5.798 21.002.003 5.798 5.795 5.798 15.196 0 20.997z"/></g></svg>
