<svg xmlns="http://www.w3.org/2000/svg" viewBox="0 0 271.345 252.226"><path fill="#FFF" d="M135.984 252.226c-5.157 0-8.855-2.709-10.994-8.054l-16.271-34.9h-44.31c-16.202 0-32.214-7.156-45.087-20.15C7.043 176.729 0 160.021 0 143.282V57.426C0 37.839 9.776 25.418 19.34 15.85 30.157 5.036 44.479 0 64.409 0h149.445c18.297 0 30.352 4.592 41.607 15.85l-.001-.001.001.001c11.281 11.279 15.883 23.325 15.883 41.576v85.856c0 20.077-5.19 35.072-15.867 45.84-9.863 9.963-22.524 20.149-41.623 20.149h-51.133l-15.443 35.375c-3.019 6.797-7.891 7.58-11.294 7.58zm-.201-11.006a5.992 5.992 0 0 0 .885-.025c.104-.135.297-.427.543-.981l18.31-41.941h58.334c12.136 0 21.931-4.894 33.81-16.892 8.533-8.606 12.681-21.067 12.681-38.098V57.426c0-15.41-3.432-24.57-12.661-33.798l-.001-.001C238.479 14.422 229.312 11 213.854 11H64.409c-16.823 0-28.673 4.013-37.291 12.628C15.67 35.081 11 44.873 11 57.426v85.856c0 13.861 5.882 27.747 16.137 38.097 10.791 10.894 24.028 16.893 37.272 16.893h51.318l19.442 41.729c.271.694.495 1.055.614 1.219z"/><path fill="#FFF" d="M207.601 72.462H63.744a5.5 5.5 0 0 1 0-11H207.6a5.5 5.5 0 0 1 .001 11zM207.601 108.749H63.744a5.5 5.5 0 0 1 0-11H207.6a5.5 5.5 0 0 1 .001 11zM207.601 145.179H63.744a5.5 5.5 0 0 1 0-11H207.6a5.5 5.5 0 0 1 .001 11z"/></svg>
