<svg xmlns="http://www.w3.org/2000/svg" viewBox="0 0 477.488 246.611"><g fill="#FFF"><path d="M211.029 0c4.227-.003 8.272.716 11.963 2.796 8.188 4.614 12.503 11.639 12.743 21.072.077 3.032.013 6.068.013 9.103 0 26.582.004 52.165-.01 78.747-.001 1.447-.179 2.894-.224 4.342-.021.677.111 1.357.117 2.037.047 5.042.111 10.084.112 15.126.01 29.959-.008 58.917.017 88.876.004 5.11-1.225 9.834-4.17 14.012-4.837 6.864-11.5 10.46-19.918 10.474-26.326.046-51.652.017-77.978.017-36.839 0-72.679.014-109.518-.011-8.054-.005-14.552-3.31-19.423-9.704-3.213-4.218-4.707-9.062-4.73-14.349-.027-5.983-.005-11.966-.007-17.949C.008 177.194-.01 150.8.007 123.405c.002-2.344.245-4.688.375-7.033.012-.212.056-.437.005-.635-.49-1.891-.367-3.82-.367-5.739-.004-28.89-.014-56.78.005-85.671C.03 16.651 2.972 10.282 8.9 5.381 12.87 2.099 17.476.327 22.637.065 23.533.019 179.66.024 211.029 0zm-98.99 220.023h-1.346c-15.042 0-30.085.001-45.127-.002-.598 0-1.199.007-1.792-.056-2.318-.245-3.972-1.995-4.115-4.334-.031-.511-.021-1.025-.021-1.538v-70.922c0-.47-.009-.941.01-1.41.103-2.551 1.757-4.316 4.298-4.577.424-.044.853-.038 1.28-.038 35.128-.002 70.255-.002 105.383.003.596 0 1.2.022 1.786.123a4.529 4.529 0 0 1 3.745 4.144c.029.383.019.769.019 1.153v72.076c0 .342.008.685-.013 1.025-.138 2.243-1.805 4.023-4.035 4.282-.592.069-1.194.068-1.791.068-15.085.003-30.17.002-45.256.005-.438 0-.877.031-1.315.047 3.413 1.44 5.477 3.852 5.588 7.518.116 3.84-1.957 6.38-5.43 8.005h88.001c.47 0 .95.051 1.408-.024 1.215-.2 2.473-.309 3.62-.716 4.803-1.708 7.871-6.227 7.874-11.488.009-15.213.003-30.427.003-45.64l-.001-42.82c0-.492-.022-.984-.034-1.469H11.015v10.393c0 26.41.004 52.819-.008 79.229-.001 1.731.214 3.409.86 5.014 1.919 4.773 6.549 7.564 11.078 7.532 6.709-.048 13.418-.011 20.128-.011 22.478 0 44.956 0 67.435-.002.47 0 .94-.023 1.411-.035-3.344-1.504-5.378-3.888-5.459-7.511-.09-3.9 2.028-6.441 5.579-8.024zM11.088 112.707h213.654V85.994l-.769-.239c-3.583-1.116-5.877-4.047-5.967-7.782a175.488 175.488 0 0 1 0-8.461c.089-3.677 2.355-6.608 5.858-7.737.278-.089.558-.171.885-.271.023-.328.061-.619.061-.91.003-12.564.075-25.129-.033-37.692-.043-5.006-2.547-8.672-7.077-10.866-1.845-.894-3.84-1.071-5.871-1.071-62.606.008-125.213.007-187.819.007-.427 0-.855-.008-1.282.008-6.616.247-11.692 5.421-11.705 12.01-.024 12.478-.008 24.957-.005 37.436 0 .373.046.746.069 1.107.255.075.418.122.58.171 3.728 1.126 5.974 3.924 6.091 7.794.086 2.86.092 5.728-.006 8.588-.129 3.752-2.354 6.55-5.911 7.677-.272.086-.535.205-.75.289-.003 8.925-.003 17.757-.003 26.655zm55.048 100.761c14.902 0 93.57-.108 103.498-.108.252-2.167.149-68.769-.108-69.666-20.655 0-79.822.129-103.39.129v69.645zm135.312-94.048c-7.832 0-161.327.036-167.078.036v7.368c1.406.276 151.501-.053 167.078-.053v-7.351zm-173.64-.059c-.434-.032-.806-.083-1.177-.083-4.655-.005-9.309-.004-13.964-.001-.298 0-.6.004-.893.049-.532.083-.837.385-.831.954.02 1.793.01 3.587.064 5.379.024.787.409 1.158 1.163 1.292.25.044.51.038.766.038 4.612.002 9.224.004 13.836-.003.329 0 .659-.063 1.036-.101v-7.524zm180.158 7.559c.423.03.714.068 1.005.069 4.648.004 9.296.003 13.944.001.255 0 .515-.001.764-.048.661-.124 1.115-.517 1.117-1.203.005-1.875-.04-3.75-.073-5.625-.009-.517-.319-.765-.809-.808a8.899 8.899 0 0 0-.766-.03c-4.691-.002-9.381-.004-14.072.004-.361.001-.723.07-1.109.111l-.001 7.529zm21.928-59.047c-1.113 0-2.127-.009-3.14.002-1.714.018-2.296.589-2.309 2.319-.018 2.304-.007 4.608-.002 6.912.001.34.009.684.059 1.019.123.814.632 1.378 1.418 1.433 1.299.092 2.61.025 3.975.025l-.001-11.71zM5.915 79.601c1.339 0 2.611.06 3.875-.02.941-.059 1.499-.731 1.51-1.749a360.9 360.9 0 0 0-.001-8.193c-.012-1.002-.579-1.66-1.541-1.722-1.26-.082-2.529-.02-3.843-.02v11.704zm111.952 149.602v.014c1.191 0 2.384.032 3.573-.011.904-.033 1.414-.532 1.455-1.289.044-.811-.484-1.467-1.405-1.487a193.445 193.445 0 0 0-7.146-.003c-.348.005-.752.196-1.025.426-.407.343-.572.836-.375 1.385.207.574.603.945 1.222.957 1.234.025 2.468.008 3.701.008z"/><path d="M35.327 145.772c6.94.008 12.547 5.607 12.551 12.534.004 6.949-5.706 12.627-12.661 12.59-6.905-.037-12.471-5.683-12.456-12.635.016-6.949 5.598-12.497 12.566-12.489zM20.962 197.818c0-.982-.009-1.964.002-2.946.016-1.447.351-1.784 1.839-1.797 1.793-.016 3.586-.004 5.379-.005.299 0 .599.012.896-.01 1.012-.075 1.386-.42 1.404-1.435.031-1.792.01-3.586.011-5.379 0-.427-.018-.855.007-1.28.057-.954.475-1.426 1.428-1.441 2.219-.036 4.44-.034 6.659-.004 1.052.015 1.445.427 1.468 1.515.035 1.664.011 3.33.013 4.995 0 .47-.014.94.005 1.409.049 1.232.4 1.605 1.631 1.622 1.878.027 3.757.007 5.635.009.341 0 .686-.02 1.024.021.827.1 1.268.487 1.283 1.324.042 2.304.049 4.611-.001 6.915-.02.949-.556 1.342-1.654 1.354-1.835.021-3.671.006-5.507.007-.299 0-.598-.01-.896.004-1.063.049-1.478.416-1.504 1.478-.04 1.579-.013 3.159-.014 4.738-.001.555.014 1.11-.005 1.665-.044 1.307-.377 1.634-1.722 1.642-2.049.013-4.098.015-6.147-.001-1.282-.01-1.683-.405-1.695-1.682-.019-2.049.005-4.098-.01-6.147-.01-1.331-.351-1.681-1.662-1.692-2.006-.018-4.013.003-6.019-.009-1.463-.009-1.82-.368-1.845-1.798v-.128c-.003-.98-.003-1.962-.003-2.944zM187.494 139.102c3.402-.008 6.1 2.658 6.122 6.052.022 3.435-2.74 6.216-6.143 6.186a6.12 6.12 0 0 1-6.07-6.142c.013-3.4 2.699-6.087 6.091-6.096zM200.997 153.713c3.323.003 5.947 2.639 5.919 5.946-.028 3.228-2.667 5.849-5.903 5.862-3.274.013-5.933-2.673-5.912-5.975a5.854 5.854 0 0 1 5.896-5.833zM200.922 188.896c-3.238-.023-5.829-2.655-5.822-5.914a5.9 5.9 0 0 1 5.987-5.892 5.917 5.917 0 0 1 5.828 5.93c-.006 3.295-2.663 5.9-5.993 5.876zM182.762 171.287a5.873 5.873 0 0 1 5.818-5.904c3.249-.041 5.973 2.656 5.973 5.912-.001 3.272-2.687 5.911-5.981 5.877-3.267-.033-5.813-2.613-5.81-5.885zM219.254 171.332c-.016 3.307-2.668 5.891-5.993 5.84-3.241-.05-5.835-2.694-5.809-5.921.025-3.216 2.679-5.86 5.89-5.868a5.889 5.889 0 0 1 5.912 5.949zM117.605 108.966H52.094c-.47 0-.941.012-1.41-.005-1.853-.068-3.119-1.287-3.242-3.126-.026-.383-.01-.769-.01-1.154 0-25.426.027-48.853-.035-74.279-.008-3.141 1.603-4.361 4.307-4.358 44.016.045 132.818.014 133.2.05 1.777.168 2.956 1.421 3.033 3.213.015.341.005.684.005 1.025 0 25.469-.026 48.938.037 74.408.007 2.782-1.274 4.274-4.223 4.264-22.05-.069-44.1-.038-66.151-.038zm63.865-76.379H53.93v69.855h127.54V32.587zM117.849 13.733c2.582-.02 4.663 2.035 4.647 4.59-.015 2.482-2.078 4.555-4.561 4.583-2.55.03-4.63-2.051-4.622-4.624.008-2.541 1.991-4.529 4.536-4.549z"/><g><path d="M274.431 246.611c-17.321.011-24.158-18.271-24.154-32.76.01-35.168 0-69.336-.004-104.504-.001-6.452-.018-11.905-.006-18.357.013-6.744 1.145-13.287 3.978-19.432 6.851-14.86 18.372-23.737 34.495-26.617 2.745-.49 5.52-.597 8.298-.598 45.253-.005 88.505.008 133.758-.014 8.964-.004 17.374 1.998 24.999 6.78 11.444 7.178 18.329 17.511 20.908 30.743.566 2.902.786 5.835.786 8.792-.006 42.176-.038 100.331-.038 124.528 0 11.803-6.309 31.437-23.881 31.437l-179.139.002zm191.941-31.207c.023-41.541.016-83.082.004-124.623-.001-1.706-.06-3.42-.23-5.117-.685-6.854-3.103-13.035-7.557-18.313-6.658-7.89-15.286-11.81-25.539-11.824-46.114-.063-92.228-.033-138.342-.006-1.87.001-3.766.166-5.605.501-11.505 2.092-19.783 8.442-24.684 19.071-2.198 4.768-2.998 9.842-2.995 15.085.022 41.584.019 83.167.002 124.751-.004 8.276 2.108 20.541 12.738 20.547 27.694.015 55.388.013 83.082.011.267 0 .535-.036 1.105-.078-2.717-1.681-4.157-3.851-4.255-6.766-.1-2.951 1.28-5.201 3.536-7.126-2.782 0-38.802.008-39.313-.028-1.745-.121-3.099-1.168-3.552-2.834-.165-.605-.179-1.264-.179-1.899-.009-21.924-.007-42.849-.007-64.773 0-.342-.01-.685.009-1.025.11-1.956 1.463-3.454 3.415-3.739.546-.08 1.107-.076 1.661-.076 29.361-.003 58.722-.003 88.082-.002.427 0 .857-.014 1.281.021 2.287.189 3.741 1.731 3.811 4.03.011.342.005.684.005 1.026l-.001 64.26c0 .47.012.942-.024 1.41-.147 1.93-1.614 3.416-3.552 3.59-.552.049-30.253.041-39.367.041.207.207.395.364.395.364 4.383 3.239 4.228 10.021-.299 13.031-.175.116-.301.307-.494.509h58.545c.026-.903.028-1.746.077-2.587.135-2.271 1.611-3.757 3.864-3.767 6.325-.029 12.65-.028 18.975-.001 2.31.01 3.83 1.547 3.918 3.851.027.724.004 1.45.004 2.431 1.018-.001 11.486-.812 11.486-19.946zm-60.089-61.615H321.16v61.125h85.123v-61.125zm-42.576 75.856c.638 0 1.277.028 1.913-.007.847-.047 1.32-.517 1.317-1.241-.003-.679-.425-1.194-1.202-1.232a40.983 40.983 0 0 0-3.824-.005c-.831.037-1.301.599-1.263 1.312.037.699.534 1.129 1.401 1.169.552.026 1.106.005 1.658.004z"/><path d="M363.674 68.069c18.16 0 55.253.027 55.635-.004 2.767 0 4.785 1.955 4.779 4.777-.045 22.091-.049 43.183.004 65.275.007 2.915-1.997 4.92-4.941 4.916-36.919-.051-73.838-.052-110.757.003-2.881.004-5.059-1.763-5.05-5.078.053-20.553.026-40.107.027-60.66 0-1.624-.037-3.249.013-4.871.065-2.148 1.426-4.233 3.259-4.233 2.582.001 38.657-.124 57.031-.125zm-53.689 68.339h107.432V74.727c-2.11 0-105.444.062-107.432.062v61.619zm-3.343-68.213c.614-.141 51.167-.125 57.032-.125 18.16 0 55.253.027 55.635-.004M282.904 107.511c6.578.005 11.903 5.35 11.863 11.907-.04 6.527-5.317 11.792-11.836 11.808-6.592.016-11.916-5.276-11.918-11.845a11.838 11.838 0 0 1 11.891-11.87zM274.006 160.113c-1.068 0-2.136.02-3.203-.006-1.022-.025-1.307-.294-1.318-1.295-.023-2.05-.025-4.1.002-6.15.012-.927.303-1.202 1.258-1.212 2.092-.023 4.185-.002 6.278-.01 1.368-.005 1.536-.168 1.545-1.555.014-2.007-.008-4.015.01-6.022.012-1.304.171-1.452 1.506-1.46 1.922-.011 3.844-.016 5.766.002 1.161.011 1.322.175 1.331 1.352.016 2.05-.004 4.1.008 6.15.008 1.342.204 1.527 1.579 1.533 2.007.008 4.015-.006 6.022.005 1.291.008 1.514.218 1.525 1.476.017 1.922.019 3.844-.001 5.766-.012 1.152-.282 1.412-1.46 1.423-1.964.018-3.929.002-5.894.006-1.667.003-1.769.102-1.774 1.722-.006 1.965.008 3.929-.005 5.894-.009 1.261-.154 1.408-1.4 1.416-1.922.013-3.844.013-5.766 0-1.238-.008-1.422-.18-1.436-1.4-.021-1.836-.006-3.673-.007-5.509 0-.299.012-.599-.006-.897-.059-.993-.248-1.198-1.229-1.219-1.11-.024-2.221-.006-3.331-.006v-.004zM433.67 125.281a5.519 5.519 0 0 1-5.491-5.585c.02-3.078 2.486-5.501 5.581-5.482 3.09.018 5.497 2.466 5.48 5.573-.016 3.081-2.48 5.511-5.57 5.494zM444.627 136.335c-3.057-.056-5.475-2.594-5.4-5.669.074-3.059 2.597-5.453 5.687-5.396 3.054.056 5.435 2.573 5.376 5.682-.058 3.082-2.538 5.44-5.663 5.383zM461.355 119.724c.011 3.088-2.427 5.549-5.505 5.557-3.058.008-5.559-2.472-5.57-5.522-.012-3.057 2.464-5.537 5.536-5.545 3.1-.009 5.528 2.406 5.539 5.51zM450.292 108.723a5.508 5.508 0 0 1-5.559 5.513c-3.054-.019-5.525-2.527-5.506-5.588.019-3.071 2.495-5.506 5.582-5.491 3.097.014 5.499 2.453 5.483 5.566zM442.133 215.915c-.005 2.596-2.063 4.618-4.661 4.579-2.546-.037-4.523-2.046-4.521-4.592a4.567 4.567 0 0 1 4.661-4.591 4.569 4.569 0 0 1 4.521 4.604zM363.871 58.505c2.211.029 3.986 1.832 3.96 4.022-.026 2.188-1.842 3.993-4.017 3.992-2.218 0-4.09-1.912-4.029-4.114a4.013 4.013 0 0 1 4.086-3.9zM437.546 172.699c1.991.006 3.527 1.591 3.493 3.607a3.502 3.502 0 0 1-3.523 3.464 3.502 3.502 0 0 1-3.493-3.494c-.019-2.016 1.524-3.583 3.523-3.577zM437.59 158.297c1.952.024 3.447 1.547 3.449 3.512.002 2.014-1.553 3.549-3.567 3.522-1.954-.027-3.45-1.548-3.452-3.512-.001-2.016 1.551-3.547 3.57-3.522z"/></g></g></svg>
