<svg width="209" height="196" viewBox="0 0 209 196" xmlns="http://www.w3.org/2000/svg"><path d="M141.24 93.176l.035-.224c.034-.195.07-.385.104-.582.053-.314.11-.633.17-.947 2.81 1.041 7.425 1.059 11.468.035 2.035-.08 4.53 2.5 5.134 4.033-.839 2.127-2.482 3.981-5.598 4.444-5.922.948-9.616-4.086-11.313-6.759m11.821 8.688c6.254-1.11 8.404-8.331 7.198-14.652.38-.583.65-1.213.772-1.898.147-.83-.23-1.035-.432-.736-2.819 4.167-9.81 6.997-18.773 5.358.095-.419.18-.743.244-.916.163-.44-.451-.2-.451-.2-2.467 1.596-2.305 6.611-1.199 7.662.236.224.592.49.559.026a8.562 8.562 0 0 1 .013-1.061l.114.15c1.659 2.285 6.335 7.264 11.955 6.267m48.316 9.898c-.877 1.751-3.808 4.493-6.74 3.731-.574.817-2.346 2.66-3.625 3.119h-.177c-.3 0-.805-.242-1.19-.829-.303-1.457.195-4.177.195-4.612 0-.343-.129-.707-.587-.124-.316.4-.803 1.058-1.153 1.628-2.44-.094-12.106-.569-14.594-1.847-2.253-1.157-4.056-6.392-4.704-9.196a24.877 24.877 0 0 0 2.76-3.277c5.014 1.055 14.78 5.14 18.164 6.908-.034.222-.06.441-.077.653-.114 1.523.352 1.666 1.18-.533.99-2.626 3.427-6.776 4.874-6.586 1.452.191 1.066 2.741.381 4.53-.686 1.79.343.762 1.024-.503.058-.107.136-.274.221-.476.943-1.112 2.447-2.815 3.247-2.51 1.447.55-.085 3.565-.659 4.95-.33.793.432.026.94-.736.264-.398 1.012-1.58 1.483-2.858 1.66.567-.024 4.415-.418 5.523-.17.476.157.235.505-.104-.007.011-.01.024-.017.035.203-.355 3.268-1.379 3.687-.388.8 1.75-4.074 3.235-4.72 3.502m-14.95 30.237c-7.449-2.064-17.286-.162-21.687 7.05-13.658.763-20.229-4.187-23.846-12.4 1.151.12 2.24.148 3.105.013 1.219-.19 1.942-.761 1.866-1.485-.238-2.324-.324-6.34-.21-10.466 4.554.632 12.524-.108 16.579-1.822 2.035 4.88 4.32 9.627 5.942 11.374.497.537 1.457.771 2.012.793 1.61.062 11.684-5.69 17.274-10.566 2.467 3.632 4.063 10.814-1.036 17.51m5.749 19.74c-5.475 3.574-18.624 3.002-23.726.592-2.113-.998-4.702-5.24-1.299-11.27 3.856-6.836 12.416-8.398 19.492-5.78 8.122 3.005 11.127 12.806 5.533 16.457m-37.616-.608c-4.316 3.959-21.339 4.973-26.306-.578-6.67-7.456 2.922-16.704 13.414-16.668 3.6 4.338 8.945 6.976 14.7 7.857 1.34 3.225.317 6.79-1.808 9.389M134.8 132.51c-.075-.705.019-1.941.23-3.481 1.681.467 3.84.685 4.875.555l.473-.058.007-.477c.103-6.64 1.348-13.744 2.16-16.405.79.102 1.572.18 2.337.225-.86 3.919-1.686 13.233-1.138 21.57-2.73.15-8.842-.978-8.944-1.93m-9.19-8.146c-1.105 1.295-6.397 5.483-7.844 4.57-1.162-.733 1.015-3.402 1.205-4.049-1.214-.395-7.532-1.723-7.45-3.376.048-.96 1.982-.91 3.034-.837 1.117.075.723-.565.381-.762-.58-.334-1.71-.458-2.817-.324-.103-.073-.19-.186-.255-.387-.304-1.27 3.25-1.015 4.265-.964 1.015.05.671-.42.507-.508-.805-.431-2.188-.6-3.562-.506.992-1.341 3.374-1.451 4.578-1.22 1.319.253 1.582 0 .16-.786a3.681 3.681 0 0 0-.972-.348c-.466-.46-.953-1.09-.692-1.533 1.193-1.016 7.211 2.572 9.144 3.454.841-.415 8.45-4.63 10.323-5.876.645.253 1.294.483 1.946.681-1.346 2.895-2.564 6.379-3.494 10.05-1.292.43-5.557 1.733-8.458 2.721m15.837-11.881c-.89 3-2 9.867-2.147 16.043-1.066.019-2.792-.206-4.105-.59.783-4.93 2.529-12.112 4.058-15.887.734.176 1.466.314 2.194.434m30.793 13.577c-1.471-.967-8.024-15.581-8.307-18.48a32.475 32.475 0 0 0 3.489-2.653c.656 2.61 2.336 8.262 5.932 10.11 1.48.76 7.516 1.3 11.487 1.498-2.37 3.7-11.393 9.242-12.601 9.525m-10.828-5.183c-3.19 1.428-10.525 2.375-15.685 1.784.166-3.78.506-7.43 1.058-9.732 4.186.015 7.751-.716 9.651-1.496.172-.07.67-.256 1.4-.567.561 2.013 1.936 5.92 3.576 10.011m-1.77-10.838a38.785 38.785 0 0 0 3.226-1.779c.022-.012.05-.025.072-.035.452 2.058 2.154 6.347 3.75 9.919 4.016 8.984 5.078 9.01 5.498 9.02 1.479 0 11.757-6.505 13.882-10.576.659.023 1.217.033 1.623.03.08 1.103.389 2.633 1.101 3.552-3.556 3.842-17.528 12.844-18.963 12.17-1.186-.555-6.435-11.496-10.19-22.301m-34.73-12.77c-1.775-4.055-3.227-9.35-3.774-12.757 9.484-21.328 30.213-22.956 40.354-21.515 1.737 4.045 8.183 14.728 9.211 16.961 2.64 5.737 2.538 22.743-15.129 28.276-15.795 4.948-27.26-3.198-30.661-10.965m-16.051-4.457c4.33-13.269.066-29.217-8.058-39.51-3.758-4.76-8.437-8.727-13.73-11.798 3.617-12.1 11.821-23.401 24.607-30.33-3.182 4.4-5.573 11.092-3.984 18.311 1.86 8.447 12.065 17.564 25.308 17.564 1.778 0 3.571-.174 5.328-.515 24.005-4.668 23.393-23.954 23.384-24.147-.34-7.352-4.088-12.661-7.788-15.855 9.405 2.736 17.57 7.912 23.544 14.576-2.17 6.671-.304 18.328 2.797 26.59 1.21 3.221 3.585 8.52 6.837 11.014-1.825 7.792-6.022 15.302-13.339 21.004-1.669-4.008-7.382-12.399-9.156-16.106.503.133.947.27 1.319.408 2.74 1.016 1.077-.863-.345-1.777-7.255-4.266-17.92-3.913-26.764-.153-11.887 5.055-19.784 13.63-21.576 27.256-.395 3.005.864 4.422 1.22 2.848.28-1.068.585-2.1.91-3.095.594 1.814 1.625 4.978 2.378 7.147-2.377.064-7.357-.927-12.892-3.432m-2.171-6.857c-1.403-2.38-3.792-7.387-5.966-14.615-2.1-6.982-2.47-12.291-2.312-15.064 5.849 8.786 9.186 19.857 8.278 29.679m-7.235 16.215c-1.983-3.266-3.74-4.75-4.863-6.105-1.478-1.781-3.857-5.313-6.07-9.228 2.949-.109 6.65-.481 1.061-1.99-7.528-2.034-17.026.397-25.337 5.585-10.048 6.273-18.706 16.735-19.706 30.28-.401 5.43 1.72.078 2.286-1.649 1.087 2.625 3.306 7.793 5.714 11.428-9.673 2.646-18.743 2.287-26.369-.742 3.204-.995 6.017-3.203 8.023-6.395 4.469-7.111 4.107-17.263-1.01-27.883-3.238-5.738-10.127-15.364-19.874-15.364a13.592 13.592 0 0 0-8.917 3.304C6.128 69.306 16.39 53.324 32.56 44.971c-4.091 5.253-5.393 12.163-3.192 18.34 3.134 8.799 12.331 14.052 24.603 14.052.65 0 1.32-.014 1.986-.042 6.445-.274 12.49-2.351 17.482-6.006 4.686-3.43 8.017-7.991 9.38-12.84 1.753-6.24.106-12.18-4.527-16.828 8.214 2.973 15.05 7.688 19.174 13.28-.459 2.757-.145 8.904 2.208 16.728 1.86 6.184 4.917 13.481 6.818 15.995-.807 5.544-3.042 10.607-7.037 14.52m-9.516 30.486c-16.397 11.118-30.307 1.675-33.708-2.386-2.98-3.208-6.374-10.645-8.308-14.435 4.328-11.68 11.084-18.107 18.37-22.593a43.414 43.414 0 0 1 18.943-6.249c4.169 6.261 5.52 8.649 6.9 10.585 1.447 2.03 3.042 3.35 5.03 6.75 1.987 3.4 8.205 17.82-7.227 28.328m-2.317 13.484a6.377 6.377 0 0 0-1.695-.248c-.599-2.774-1.13-5.447-1.56-7.251a31.193 31.193 0 0 0 3.714-1.67c-.913 2.284-1.17 6.505-.459 9.169m5.64 9.517c-.68.698-1.822 1.079-2.719 1.378-2.25-.199-4.004-1.512-4.716-2.042.16-.336.371-.766.548-1.227.82-.542 1.57-.656 2.161-.899.161-.034.343-.171-.221-.324-.351-.094-.992-.084-1.626.086.089-.616 0-1.206-.445-1.645.254-.148.534-.286.852-.383.34-.102.235-.415-.465-.415-.39 0-.813.12-1.187.31a3.279 3.279 0 0 0-1.247-.223c.235-.62.728-1.036 1.107-1.29.317-.21.169-.346-.498-.227-.65.114-1.669.953-2.133 1.766-.42.124-.844.284-1.27.459.526-2.116 4.615-5.334 10.046-1.027.647.572.305-.342.305-.342-.555-.988-1.213-1.75-1.93-2.324-.388-3.049-1.403-12.066 3.186-12.144 4.493-.076 6.142 14.468.253 20.513m4.573.624c-1.136 1.131-3.659 3.088-5.227 3.736-.152-.253-.365-.74-.537-1.274.845-.37 1.737-.826 2.347-1.25 1.164-.81 2.132-2.08 2.894-3.627.132.691.326 1.55.523 2.415m.733 3.801c-.216 1.219-6.168 4.95-9.036 5.217-.396-1.53-.677-3.044-.9-4.098.954-.302 1.677-1.112 2.12-1.942.097-.033.202-.072.306-.11.291.933.774 2.044 1.422 2.044l.116-.004.085-.029c1.486-.495 3.935-2.27 5.434-3.64.249 1.119.449 2.107.453 2.562m1.93 1.003c.354-.641.152-.406.202-.66.026-.133-.374-2.555-.937-5.291 13.628-5.903 17.78 7.77 12.549 18.882-2.827 6.006-8.211 12.35-13.782 12.337-4.338-.01-7.425-3.52-8.948-5.451 4.553-3.34 7.467-8.63 7.354-16.163 1.55-1.112 2.861-2.39 3.561-3.654M68.772 181.42c.422-3.414-.073-7.342-1.714-11.646 1.32.487 4.974 1.004 6.33 1.004.312 0 .52-.102.68-.331 1.292-1.865 1.35-5.121 1.334-7.061 1.88.962 4.292 1.481 7.058.743 1.506.257 3.202-.282 4.174-1.2.032-.006.065-.007.096-.013.208 1.174.55 2.65 1.128 4.514.197.636.914.659 1.345.621 1.446-.128 3.271-.76 5.053-1.679.061 5.97-4.795 18.025-25.484 15.048m-5.013-18.403c1.687.613 3.753 1.3 4.485 1.3.686 0 .744-.531.741-.535.093-.514.235-1.122.386-1.765.183-.778.365-1.566.477-2.26.62.21 1.258.417 1.917.616a9.719 9.719 0 0 0 1.587 1.662c.003 1.763-.095 5.43-.936 6.157-.607.524-4.725-.594-6.539-1.196a39.488 39.488 0 0 0-2.118-3.98m-2.303 25.592c.817-1.62 1.188-3.602 1.048-5.879-.505-8.247-7.494-17.832-15.748-17.832-2.042 0-4.069.575-6.023 1.709-2.604 1.51-4.356 3.97-5.065 7.111a14.752 14.752 0 0 0-.264 4.71c-6.816-15.198 2.702-21.1 5.446-22.28 3.857-1.663 16.31-3.491 22.741 14.023 3.506 9.545 1.168 15.307-2.135 18.438m-3.572 2.352a9.958 9.958 0 0 1-2.025.632c-1.905.359-10.042 1.783-16.866-7.09-.149-.23-.292-.454-.427-.667-.241-.381-.46-.724-.66-1.016-1.156-1.686-1.958-5.364-1.168-8.86.446-1.978 1.597-4.695 4.545-6.405 1.785-1.035 3.626-1.561 5.473-1.561 6.3 0 14.074 7.34 14.654 16.803.232 3.793-1.028 6.614-3.526 8.164m-16.933-42.01c.148-.254 1.464-1.19 3.32-2.455.741 2.478 1.593 4.185 2.4 5.356-1.64-.019-3.29.19-4.92.609-.492-1.568-.886-3.225-.8-3.51m38.618 2.808a17.22 17.22 0 0 1-.341.137c-.878-.657-1.757-1.24-2.664-1.846-.354-2.645-.354-7.52-.468-9.546a31.173 31.173 0 0 0 6.432-1.235c.236 1.374.838 4.852 1.252 6.942-2.61.817-4.615 3.082-4.211 5.548m-9.18-11.307c1.235.127 2.49.183 3.761.155 0 1.722.018 5.669.158 7.883a33.815 33.815 0 0 1-3.665-3.091c-.016-.851-.094-2.16-.164-3.335-.035-.597-.069-1.166-.09-1.612m-4.783-.89c1.191.33 2.422.58 3.678.756.02.467.059 1.105.1 1.811.042.7.086 1.446.119 2.113-1.197-1.266-2.486-2.788-3.897-4.68m13.507 14.428c.696.387 3.896-2.589 5.495-1.713.762.533-.647 2.55-.533 3.35.181.35 3.021 2.475 5.128 2.856.067.088.044.228-.046.387a8.983 8.983 0 0 1-1.585 1.061c-.741.19-1.635.113-2.48-.61-.572-.521-.532-.039-.458.165a2.761 2.761 0 0 0 1.592 1.647c-.595.53-1.635.738-3.432-.454-.394-.261-.398.063-.093.586.227.389.65.756 1.163 1.052-.495.51-1.516.878-3.66-.394-.445-.346-.43-.14-.342.253.07.152.151.287.234.42-3.018.196-6.004-2.16-7.409-4.21-7.927-1.865-17.185-8.49-16.964-10.266.317-2.55 4.252-7.455 7.868-7.798 2.037 2.873 6.702 8.757 15.522 13.668M58.487 136.38a24.43 24.43 0 0 0 4.016 2.112c-4.618 1.299-9.122 6.587-8.506 10.474.302 1.9 5.076 6.884 14.8 10.423-.1.701-.305 1.577-.493 2.379-.116.493-.228.967-.32 1.427-.98-.171-3.556-1.077-5.214-1.711-4.186-6.097-9.348-9.058-14.664-9.554-.918-1.08-1.98-2.925-2.885-6.08 4.569-3.092 11.398-7.592 13.266-9.47M4.22 85.097c1.957-2.125 5.165-3.894 9.09-3.894 6.81 0 13.53 5.259 18.904 14.776 4.932 10.24 5.315 20.006 1.051 26.792-2.136 3.401-5.248 5.6-8.752 6.264C10.842 122.723 2.309 107.39 4.22 85.097m30.95-41.396c13.313-6.595 28.172-6.696 40.466-2.942 5.746 4.57 7.981 10.823 6.127 17.418-2.794 9.94-13.666 17.531-25.852 18.048-12.762.545-22.378-4.49-25.51-13.281-2.358-6.62-.433-14.135 4.77-19.243m88.827-37.382c9.485-2.511 18.73-2.476 27.11-.526 4.01 2.628 9.084 8.215 9.474 16.646.009.184.587 18.497-22.467 22.98a26.84 26.84 0 0 1-5.111.495c-9.914 0-22.004-6.7-24.2-16.672-1.151-5.23.182-14.045 5.203-19.259a56.356 56.356 0 0 1 9.991-3.664m54.344 15.789c3.701 4.38 6.481 9.354 8.077 14.67 1.894 6.306 2.395 13.602.952 20.73-2.145-1.87-4.288-5.434-6.075-10.196-3.826-10.192-4.338-19.916-2.954-25.204m29.43 84.971c-.768-1.11-2.418-1.157-3.572-.86 1.613-3.123.178-5.44-1.483-5.293-.083-.638-.393-1.179-1.074-1.5-1.292-.608-2.696.647-3.492 1.803.14-1.452-.16-2.851-1.648-3.212-2.173-.525-4.945 3.259-6.201 6.939-3.37-2.164-12.404-5.758-17.208-7.133 2.01-3.904 2.95-8.762 1.653-14.716 12.857-8.191 23.366-29.596 14.17-51.68-9.535-22.895-39.13-36.246-65.832-28.733C102.87 8.382 88.904 22.912 83.43 39.572c-14.888-7.135-33.715-7.605-50.653.794C14.793 49.285 2.258 65.393.276 86.132c-3.026 31.672 19.049 58.167 54.167 46.829.387.426.8.833 1.228 1.228-4.073 3.89-16.121 11.243-16.802 11.971-.29.285-.497.7-.627 1.209-.386 1.516-.081 3.858.73 6.048-9.734 4.453-11.96 16.92-5.46 28.6 7.29 13.102 17.603 14.815 25.206 12.106 4.381-1.561 7.711-4.782 9.254-9.22 6.825 1.08 13.726.388 19.082-2.42 1.867 3.062 6.374 6.728 10.614 6.753 6.648.039 12.888-4.174 17.46-13.53 8.032-16.444-2.324-29.568-15.974-23.35a57.176 57.176 0 0 0-.538-2.125c1.69-6.788.439-15.587-4.446-17.495 10.938-9.56 10.153-20.216 6.921-27.462a29.694 29.694 0 0 0 6.37-8.9c5.433 2.356 10.923 3.43 15.585 3.044 2.35 4.734 5.7 7.929 9.414 10.01-1.903 1.374-6.441 4.433-7.294 4.796-.228.097-8.275-4.314-10.56-2.538-.79.541-.815 1.999.065 3.082-1.954.212-3.974 1.196-4.395 3.097-1.26.586-1.872 1.563-.815 2.933a1.48 1.48 0 0 0-.287.737c-.138 2.843 5.634 4.024 7.31 4.492.039.42-2.131 3.884.33 5.038 2.161 1.014 7.134-2.271 9.722-4.658.98-.407 4.95-1.08 6.824-1.65-.588 2.908-.978 5.858-1.087 8.657-.038.975.608 1.242.892 1.453.201.148 2.221.783 4.595 1.276a19.803 19.803 0 0 0 2.035 5.051c-17.102 1.907-19.316 14.515-14.858 20.317 6.574 8.555 26.22 5.966 30.912 1.947 3.815-3.266 4.282-8.327 3.476-11.42 1.346.067 2.7.044 4.049-.077-1.632 4.777-1.144 11.102 5.297 13.383 8.173 2.893 19.202 1.809 23.301.152 9.326-3.768 7.055-17.74-2.729-22.45 4.197-5.219 4.559-14.827.201-20.466.525-.573.949-1.117 1.247-1.62 2.488-.245 4.88-3.944 5.24-3.944 2.97.952 5.94-2.534 7.082-4.263 1.98.037 6.587-2.743 4.76-5.674M154.71 75.847c.29-4.637 6.27-6.22 6.65-2.462.05.48-.188.724-.608.811-1.345.28-3.782 1.245-5.179 2.056-.438.256-.887 0-.863-.405m-12.183 3.477c-1.54.193-4.62.28-6.548 1.548-.837.55-1.421-.222-1.467-.813-.285-3.654 5.96-5.406 8.694-1.73.228.305.133.893-.679.995m-48.246 34.599c.917 1.012-.36 1.714-1.861.21-.915 4.847-8.481 8.209-14.39 7.081-.203 2.257-2.384 3.326-2.045 1.955.512-2.648.37-4.205-.085-6.27-.296-1.34 1.479-.206 2.005 2.63 4.59.994 12.837-2.014 13.516-6.798-.825-1.738-.428-3.514.028-2.83 1.24 1.86 1.03 2.032 2.832 4.022m-9.698-18.095c1.168-.686 2.818 2.39 1.6 3.07-1.219.68-2.767-2.385-1.6-3.07m3.605 7.208c2.681-1.46-1.675-10.13-4.442-8.505-2.767 1.626 1.599 10.053 4.442 8.505m-18.809 2.462c-1.32.812-2.93-2.35-1.714-3.072 1.216-.72 3.034 2.26 1.714 3.072m-2.36-4.214c-3.16 1.763 2.042 11.12 5.148 9.257 2.568-1.541-1.645-11.211-5.148-9.257" fill="#090205" fill-rule="evenodd" opacity=".1"/></svg>
