<svg xmlns="http://www.w3.org/2000/svg" width="204.181" height="222.724" viewBox="0.096 0 204.181 222.724"><path fill="#090205" d="M112.126 72.819c.604-10.157 9.05-21.088 26.165-21.088 1.492 0 3.04.087 4.607.261 17.324 1.771 24.64 13.855 24.105 24.333-.52 10.208-8.504 20.509-25.168 20.509-1.677 0-3.43-.106-5.214-.32-17.768-2.121-25.105-13.43-24.495-23.695m24.366 24.784c1.826.22 3.623.329 5.344.329 17.384 0 25.717-10.824 26.264-21.551.56-10.979-7.053-23.637-25.086-25.479a43.187 43.187 0 0 0-4.723-.267c-17.826 0-26.625 11.466-27.26 22.119-.64 10.779 6.985 22.642 25.461 24.849m7.219 49.4c-3.535 3.294-11.367 10.783-25.384 7.534-12.429-2.881-17.096-9.479-18.603-11.92 1.09-1.984 1.924-4.266 1.168-5.596-.729-1.287-2.871-1.318-3.657-.887-.491-2.457-1.212-4.326-2.015-5.686-.096-3.939.928-10.891 6.861-16.474 3.445-3.024 7.328-9.222 8.633-11.749 7.503.205 14.678 2.595 21.417 7.547 7.854 5.771 14.667 15.287 17.981 26.166-.981 3.337-2.846 7.751-6.401 11.065m14.1 17.205c2.475-1.714 13.554-6.092 14.734-4.417.314.688-.121 1.133-.536 1.492-1.094-.1-2.165-.031-2.992.183 0 0-.981.285-.546.381 1.681.372 3.246.854 4.266 1.272-.625.076-1.207.223-1.688.438-.818.363-1.068.677-.383.651 2.237-.179 4.945.294 5.626 1.485-1.418.01-2.734.273-3.202.457-.512.198-.969.543-.526.533 1.644-.044 5.333.34 5.425 1.598.306 1.676-6.396 1.98-9.328 4.188.371.665 2.113 5.073.344 5.368-2.057.342-8.719-5.749-9.252-7.271-2.551-.191-15.839-1.543-18.447-2.895-1.844-.906-3.428-9.156-3.486-11.866a30.168 30.168 0 0 0 1.885-1.04c5.327 1.766 17.1 8.33 18.106 9.443m2.619 31.633c13.558-.935 25.095 7.19 22.947 15.655-2.691 7.157-9.914 7.551-18.854 6.854-9.117-.713-16.495-4.229-15.463-11.989 2.077-.851 3.537-1.732 4.346-2.327 3.513-2.445 5.713-5.294 7.024-8.193m-37.038 8.535c-13.61-2.967-19.64-13.234-20.653-16.653 2.143.582 4.154.926 5.437.918.468-.003.892-.315.891-1.465-.005-3.11-.023-7.188.426-11.721 3.242 1.062 13.929 1.562 18.403.664 1.887 5.645 4.201 10.613 6.31 13.574.473.664 1.274 1.275 3.102 1.085 2.437-.254 13.366-4.599 19.821-9.63 1.714 3.542 3.311 14.125-5.941 20.067-6.415 4.117-15.431 5.857-27.796 3.161m1.485 13.517c-5.112 2.468-25.297 2.347-30.055-3.3-6.115-7.261 3.018-16.979 11.93-15.483 3.448 3.143 8.395 6.131 15.496 8.011 1.582.42 3.107.752 4.579 1.012 2.542 3.472 2.265 7.724-1.95 9.76m2.2-44.352c-3.346.527-13.505.65-17.319-.393.684-5.15 2.038-10.751 4.71-16.121 1.117.372 2.298.713 3.555 1.013 2.171.501 4.228.743 6.169.8.358 4.724 1.441 9.877 2.885 14.701m12.788 7.92l.201.208.286-.048c3.411-.586 12.382-6.416 14.339-9.148 1.276.059 2.23.084 2.586.073.343.437 1.168 1.329 2.259 2.363-3.929 4.862-17.325 12.706-22.651 12.845-2.519-1.001-8.967-20.405-9.985-28.963a28.13 28.13 0 0 0 3.524-.455c1.199 6.26 6.856 20.437 9.441 23.125m1.269-10.742c1.473.894 7.886 1.445 12.214 1.687-2.27 2.409-9.697 7.304-12.889 8.074-2.535-3.046-7.876-16.581-8.969-22.372a28.214 28.214 0 0 0 4.234-1.352c-.146 2.764.61 11.047 5.41 13.963M96.55 181.848c-.031-.531.167-1.721.556-3.337 1.504.863 3.848 1.679 4.26 1.679l.551-.064.009-.475c.035-1.82 3.256-17.223 8.218-24.363.596.284 1.211.562 1.858.828-2.665 4.488-6.396 17.135-6.124 29.262.012.528-8.034-1.625-9.328-3.53m11.176-27.83c.453.264.933.521 1.423.775-4.697 6.879-7.795 20.527-8.259 24.166-.916-.293-2.611-.99-3.507-1.543 1.648-6.264 5.576-17.217 10.343-23.398m-5.357-3.948c-1.582-.136-3.408-.414-4.195-.762-.335-.521-1.015-1.828-1.142-2.895.161-.101.614-.624 1.163-1.385.729 1.207 2.045 3.06 4.174 5.042m-14.906-3.097c-3.452-3.502-3.631-12.917-1.523-13.301 1.117-.203 1.422 2.438 1.625 3.453.203 1.014.406-.102.508-.458.24-.862.252-3.78-1.18-4.892.89-2.171 2.828-.551 2.805 3.801-.103 1.117.253.254.507-.635.233-.816.273-2.986-.267-4.643.676-.752 1.678 2.188 1.891 4.213.148 1.412.482.201.533-.434.236-1.486.089-2.811-.282-3.887 1.888.042 2.883 5.999 3.252 8.279.254-.153 3.427-.889 3.782-.103.66 1.371-2.996 5.356-4.44 7.083-.433 1.167.76 5.152 2.41 6.193 1.19.75 5.771 1.389 8.132 1.629-1.715 2.1-3.888 5.694-5.908 9.863-10.588-2.987-12.787-7.357-11.845-16.161m7.96-71.396c12.184-27.819 50.064-32.215 74.126-18.306 13.68 7.908 28.695 23.915 30.632 48.43a36.9 36.9 0 0 1 .048 5.023c-3.026-.994-6.118-1.5-9.21-1.5-9.933 0-19.124 5.111-24.588 13.672-5.289 8.289-6.042 18.347-2.153 27.824-5.462.674-11.373.209-17.612-1.723 1.57-1.81 3.813-4.795 4.793-7.558.138.741.261 1.484.365 2.233.311 2.258 1.822 2.763 1.929-2.945.203-10.863-9.341-27.514-19.507-33.842-10.57-6.58-22.222-9.853-30.437-5.663-1.857.948-1.516 1.636-.609 1.495a43.006 43.006 0 0 1 4.304-.442c-2.969 5.245-5.022 6.959-8.741 10.793-4.895-5.653-10.414-21.339-3.34-37.491M70.434 98.506c2.03-3.582 3.584-8.228 3.738-13.511.224.421.438.837.632 1.244 1.004 2.089 1.853 1.7.7-1.947-2.836-8.975-12.945-19.112-22.625-23.138-10.103-4.201-21.235-5.265-29.917.065-1.799 1.105-2.558 2.466.072 1.466a39.857 39.857 0 0 1 2.5-.848c-1.925 2.327-4.73 6.739-6.391 10.145-6.055-7.144-9.146-14.48-9.96-21.567 5.714-2.602 13.069-25.108 11.989-31.085l-.054-.303A51.008 51.008 0 0 1 39.515 7.151c-6.553 5.302-9.641 13.388-8.054 22.142 1.045 5.769 4.135 11.071 8.701 14.928 5.088 4.3 11.813 6.685 19.443 6.898.334.01.659.014.987.014 12.801 0 22.424-7.459 24.519-19.004 1.034-5.699.012-11.668-2.878-16.81-2.161-3.844-5.263-7.067-9.125-9.527 20.334 4.904 37.515 19.654 41.82 40.131-8.99.772-16.771 6.627-21.08 15.998-2.244 4.884-3.228 10.062-3.019 15.057-1.976 6.323-2.587 13.259-1.889 19.723-5.623 2.111-11.872 2.868-18.506 1.805m-6.377 3.282c-1.109-3.122-2.049-5.54-2.031-5.923.875-1.37 1.932-3.996 2.394-5.542.254-.635 5.298-4.357 3.698-6.451-.676-.708-1.409-.883-2.144-.74.286-1.359.501-3.395-.769-3.677a1.62 1.62 0 0 0-1.166.062c-.082-1.679-1.414-1.892-2.779-.943-2.55-1.437-6.307 2.879-8.182 6.592-.702.048-4.09-1.678-5.426.589-1.371 2.323 3.494 8.033 3.865 8.79.173.279-.871 7.946-.836 13.401-16.28 2.883-27.251-7.979-30.029-17.006-2.03-6.701-1.164-11.393-.202-14.976 1.059-3.949 5.852-10.755 8.518-15.014 8.193-1.666 15.517-.089 22.524 3.098 9.393 4.271 16.24 11.08 20.416 17.226.813 11.089-5.441 18.841-7.851 20.514m.964 14.689c-2.12 3.736-10.305-1.137-11.19-4.115-1.309-4.412-.692-17.807-.6-18.666.096-.875-5.234-5.728-3.896-7.171.908-.977 4.212 1.245 4.365 1.13.481-.362 3.684-7.498 6.105-7.587-.799 1.144-1.422 2.732-1.531 4.681.019.286.096.407.305-.229 1.646-5.007 4.064-5.024 4.086-3.827-1.293 1.655-2.148 4.321-2.237 4.665-.134.514.123.252.223.108 1.433-2.055 2.606-4.698 3.634-4.414.726.201.179 1.969-.229 3.098-.682.563-1.314 1.269-1.838 1.931-.553.818-.168.711.146.545 1.306-.685 3.896-2.324 4.27-1.726.533.857-2.568 3.216-3.693 4.341-.723.723-1.32 3.891-3.369 6.486-.421.348 6.799 18.368 5.449 20.75m2.132 1.268c.691-1.237.442-3.741-.226-6.63 1.761 1.946 6.084 6.607 8.947 10.374-1.139 3.007-9.956 9.879-19.225 10.324-.512-2.308-2.268-11.127-2.979-15.688 4.101 3.943 11.369 5.398 13.483 1.62m11.067 7.312c-2.259 5.76-15.737 12.537-25.737 12.334-.707-.925-4.115-17.771-4.217-26.117a20.034 20.034 0 0 0 2.578-.438c.065.505.153.954.268 1.325a8.505 8.505 0 0 0 1.24 2.449c.492 4.149 3.074 16.858 3.335 17.902l.107.426.438-.012c9.164-.233 18.229-6.517 20.381-10.438.696.969 1.262 1.852 1.607 2.569m-30.002 29.036c-21.219-1.497-24.488-15.737-25.147-20.735.479.139.913.227 1.273.244.712-.119.712-.119 1.03-.678 1.164-2.245 2.806-6.248 4.46-10.438 2.909 1.902 12.27 4.197 17.687 3.43.982 6.304 2.167 11.848 2.321 12.465.229.914.635 1.107.965 1.193 3.714.974 15.42-.789 23.698-6.586.622 5.928-4.119 21.889-26.287 21.105m20.205 22.935c-12.374.403-12.794-15.164-11.803-20.698 7.416-1.289 12.473-4.633 15.722-8.62 9.603 6.947 8.03 28.93-3.919 29.318m-43.024-4.366c-9.956-5.061-4.375-18.928 1.397-24.168 3.502 3.541 8.875 6.584 17.106 7.889-1.065 9.176-10.211 20.496-18.503 16.279m21.771-49.095c-2.862.471-12.41-.688-16.479-3.265 1.716-4.396 3.354-8.698 4.383-11.135 3.714 1.527 7.557 2.277 11.114 2.229-.098 3.293.359 7.788.982 12.171m-31.137 2.706c-.05-.432.404-1.552 1.173-3.061 1.22.961 3.83 2.965 4.892 3.402l.498.205.215-.494c2.562-5.918 6.846-15.268 8.688-18.907.615.349 1.233.681 1.862.983-2.139 4.596-8.628 20.119-9.43 22.1-1.044.582-7.543-3.567-7.898-4.228m12.75-20.577c.58.411 1.172.796 1.772 1.164-1.803 3.56-5.921 12.528-8.517 18.493-1.121-.66-3.164-2.221-4.314-3.129 2.782-5.16 8.281-13.55 11.059-16.528M8.291 94.089c-5-2.081-5.228-6.548-4.797-9.189-1.398-2.846-2.511-8.275.396-5.746-.009.721.07 1.441.264 2.117.195.683.331 1.066.508-.127.511-3.435 1.822-5.578 2.73-5.213-.694 1.956-.947 4.375-.725 5.366.226 1.01.19.334.457-.508.267-.842 1.219-5.305 2.386-5.279.598.012.76 1.137.794 2.044-.896 1.456-1.39 3.445-1.175 4.478.125.597.23.325.432-.305.201-.629 1.751-3.959 3.019-3.68 1.049.209-.21 4.886-.876 7.184-.927.295-1.762.797-2.296 1.521-.229.466-.229.466.586.268.814-.197 4.162-1.368 5.074.189.61 1.041-2.659 3.688-3.122 4.138-.431.33-.583.533.2.381 1.125-.176 2.399-.725 3.401-1.488.62.233 1.457.588 2.266.918.016.044.032.098.047.139 1.905 5.406 5.17 9.741 9.078 12.984-.714.779-2.038 2.367-3.61 4.436-5.629-4.463-14.365-13.858-15.037-14.628m11.904-73.396c.054 3.31-1.354 9.403-3.655 15.59-2.474 6.65-5.287 11.533-7.386 12.913-1.038-13.931 8.19-25.337 11.041-28.503M48.117 4.845c7.14-1.183 14.358-1.075 21.29.167 9.053 4.493 16.922 14.255 14.624 26.921-1.996 10.998-11.196 18.104-23.439 18.104-.317 0-.633-.004-.956-.014-17.288-.483-25.402-11.575-27.097-20.926-1.732-9.554 2.387-18.279 10.622-23.138a45.303 45.303 0 0 1 4.956-1.114m67.502 45.335c-10.38 4.601-18.858 12.333-23.334 22.828-.115.271-.223.547-.332.821a32.039 32.039 0 0 1 2.891-11.449c4.158-9.043 11.657-14.676 20.299-15.373.195 1.043.351 2.101.476 3.173m49.785 100.384c-3.871-9.219-3.19-19.02 1.951-27.077 5.26-8.243 14.106-13.165 23.663-13.165 3.065 0 6.132.52 9.132 1.534-1.508 17.73-15.084 35.676-34.746 38.708m38.827-44.963c-.378-9.499-3.08-34.028-31.696-51.263-16.698-10.055-36.869-11.494-53.226-5.635C114.091 11.539 76.969-4.28 47.71.987 10.117 7.753-8.518 48.731 17.813 75.271a26.162 26.162 0 0 0-1.115 10.608c-.599-.585-1.596-.905-2.688-.952.551-2.221 1.269-8.019-.565-8.935a1.706 1.706 0 0 0-1.497-.047c-.171-1.116-.775-2.828-2.032-2.847-.477-.007-.903.221-1.28.605-1.646-2.063-3.812.378-4.515 3.522-2.549-2.999-5.695 1.088-2.981 6.939-.178 2.564-1.346 8.554 6.396 12.259 1.511 1.779 9.945 10.977 14.051 14.648-3.211 4.465-6.833 10.21-8.393 15.002-.307.911-.042.947.358 1.553.99 1.245 3.962 3.248 6.694 4.589.03 2.445.461 8.602 4.721 14.177-7.992 6.297-13.508 23.412-1.243 29.082 12.163 5.623 22.306-8.32 23.505-18.676.326.03.654.061.989.086 1.761.055 3.421.006 4.993-.121-1.066 7.248.882 23.746 15.466 23.117 15.847-.682 17.052-26.602 5.447-34.684 3.047-5.033 3.651-10.56 2.784-14.109 1.7-1.512 3.168-3.234 4.256-5.195.364-.655.223-1.002-.051-1.649-1.111-2.626-7.7-10.126-15.315-17.252a102.32 102.32 0 0 0-.69-2.153c1.078-.778 2.217-1.896 3.312-3.301 7.546 1.549 14.66.96 21.057-1.209 1.161 6.077 3.553 11.514 7.131 15.297-2.039 2.825-4.445 7.351-4.545 12.039-.529-.096-1.014.008-1.412.299-1.03-.877-2.268-.91-3.079.268-1.51.137-2.251 1.961-2.452 3.137-2.816.523-5.188 8.684-.193 16.469-.893 8.33.496 14.334 13.062 18.154-2.426 5.532-4.389 11.652-4.646 16.508-.02.358.043.543.439.965 1.055 1.131 3.062 2.193 5.3 3.061.284 1.354 1.347 5.246 4.704 9.434-10.146.033-19.207 12.214-11.957 20.493 5.992 6.842 25.525 7.44 33.359 4.874 7.236-2.371 7.053-9.531 5.553-12.654 6.021.59 10.955-.061 14.713-1.09-.715 5.96 5.64 12.832 18.562 13.875 15.078 1.219 21.072-2.2 22.996-9.503 3.115-11.815-12.645-19.247-25.499-19.224 1.53-6.137-.306-11.946-1.608-14.12.615-.688 1.116-1.377 1.465-2.062 2.816 2.366 6.374 4.662 8.548 3.766 2.589-1.294 2.208-5.178 1.714-6.51 1.307-.754 9.633-2.247 9.176-5.674-.199-1.129-1.018-1.764-2.053-2.103-.006-1.128-.81-1.922-1.938-2.403-.58-1.007-1.75-1.672-3.085-2.037.725-.65 1.646-1.786.946-2.822-2.751-3.465-13.335 1.258-16 2.972-.892-.791-11.698-7.12-16.219-8.827a29 29 0 0 0 2.164-1.802c23.387 11.824 61.143-7.076 59.608-45.507m-82.553 37.006c-3.122 2.639-6.314 2.248-8.984.774-1.555-.858-2.555-2.03-3.174-3.345-.166-1.175.268-2.58 1.213-3.864 1.215-1.652 3.052-2.808 5.141-3.298a21.21 21.21 0 0 0 10.238-.227 48.311 48.311 0 0 1 1.049 2.704c-.868 1.742-3.005 5.163-5.483 7.256m4.08-12.662c-.648-.438-.84-.072-.447.91-4.823.948-12.975-.421-17.693-4.619-.934-1.004-.907.658.146 2.201-1.566 4.683-2.998 13.445 3.787 17 6.054 2.779 8.934.99 11.396-.875 1.533-1.162 3.244-3.545 4.36-5.404.343-.488.642-.951.892-1.376.662.957 1.324.384 1.394-.988.085-1.667-.691-4.72-3.835-6.849m-11.188-20.766c1.422.94-.71 4.29-2.335 3.351-1.352-.783 1.101-4.167 2.335-3.351m-5.381 7.842c3.504 2.131 9.391-7.411 6.346-9.139-3.146-1.724-9.442 7.261-6.346 9.139m19.52 2.413c-1.396-.862.457-4.111 1.903-3.479 1.625.712-.184 4.541-1.903 3.479m3.07-4.799c-3.857-1.776-8.535 7.63-5.685 9.037 3.909 1.93 8.873-7.568 5.685-9.037M40.894 93.688a6.658 6.658 0 0 0-2.196-.377c-3.128 0-5.971 2.089-7.287 4.35-2.186-4.263-.861-11.688 4.382-11.77 3.574-.057 5.269 3.953 5.101 7.797m-5.177 6.898c-1.539-.008-2.751-.734-3.629-1.857.967-2.157 3.642-4.32 6.61-4.32.729 0 1.429.143 2.091.41-.442 3.087-2.129 5.784-5.072 5.767m.153-16.256c-8.948 0-9.218 17.881.038 18.008 8.338.115 9.137-18.008-.038-18.008m-1.438-17.732c1.438.637-.314 3.987-1.837 3.34-1.256-.571.275-3.938 1.837-3.34m-4.768 8.67c3.517 1.838 8.621-8.219 5.634-9.747-3.274-1.675-8.186 8.414-5.634 9.747m21.815-1.181c-1.522-.724.411-4.059 1.828-3.427 1.556.696-.25 4.177-1.828 3.427m2.399-4.302c-3.282-1.546-8.604 8.757-5.254 10.28 3.426 1.558 8.566-8.719 5.254-10.28" opacity=".1"/></svg>
