<svg width="143" height="295" viewBox="0 0 143 295" xmlns="http://www.w3.org/2000/svg"><path d="M18.892 171.795c-2.713-8.45-1.41-20.485 10.372-28.921 5.742-3.933 11.628-5.927 17.496-5.927 10.611 0 20.034 6.853 23.448 17.055 3.555 10.62-.404 21.546-10.57 29.208-5.875 3.994-11.805 6.02-17.62 6.02-10.484 0-19.777-7.007-23.126-17.435m41.386 12.307c10.581-7.976 14.681-19.358 10.97-30.449-3.564-10.649-13.405-17.803-24.488-17.803-6.092 0-12.187 2.059-18.125 6.126-12.27 8.785-13.618 21.337-10.787 30.154 3.494 10.883 13.208 18.195 24.17 18.195 6.04 0 12.176-2.089 18.26-6.223M51.459 31.196c1.096-11.52 9.759-23.92 26.189-23.92 1.944 0 3.977.177 6.04.525 16.59 2.8 23.042 15.672 22.078 27.185-1.376 16.41-14.909 23.885-26.9 23.885-2.416 0-4.955-.252-7.546-.75-15.212-2.92-20.935-15.627-19.861-26.925M71.112 59.2c2.661.51 5.27.769 7.754.769 17.8 0 26.987-12.903 27.993-24.89 1.006-12.014-5.711-25.441-22.989-28.358a37.484 37.484 0 0 0-6.222-.54c-17.115 0-26.139 12.914-27.28 24.912-1.122 11.792 4.857 25.056 20.744 28.107M55.633 96.768c2.72 4.306 14.42 5.727 19.194 4.513.144.413.285.87.416 1.31-.619 1.268-1.658 2.634-2.965 3.856-2.323-2.332-5.482-3.66-8.753-3.66-2.461 0-4.93.767-7.182 2.208a14.95 14.95 0 0 1-1.871-6.725c.321-.48.709-.998 1.161-1.502m7.176 13.345c-1.26-.206-2.449-.778-3.518-1.61a15.914 15.914 0 0 1-1.944-1.98c-.15-.198-.299-.4-.44-.611 2.082-1.335 4.359-2.04 6.618-2.04 2.959 0 5.816 1.196 7.933 3.292-2.4 1.96-5.506 3.353-8.649 2.949m-9.572-9.626c.33 3.526 3.07 9.93 9.124 11.093 6.426 1.236 12.105-4.906 13.44-7.096v.002c.446 1.253 1.189 1.145 1.386-.18.196-1.327-.256-3.257-1.82-4.698-1.206-1.11-1.365-.701-1.126.118-5.13 1.116-14.97-.818-17.861-3.738 1.053-1.15.233-1.287-.72-.882-.408.173-3.598 1.946-3.46 4.354.1 1.722.656 1.513 1.037 1.027m80.312 117.003c-1.218 1.446-5.977 3.312-7.767 3.046.152 1.332-.533 4.454-2.132 4.607-2.085.198-2.418-5.616-2.627-7.12-.266-.42-.705.041-1.028.913a10.117 10.117 0 0 0-.54 2.347c-.572.305-13.737 6.677-15.109 6.524-1.984-.22-4.615-3.827-5.845-5.82 1.725-2.196 2.79-4.1 3.219-5.106.154-.36.29-.756.418-1.166 5.8-1.692 16.406-2.065 18.771-2.336 1.903-3.808 5.94-7.54 7.817-6.854.27.098.27.491.098 1.109-.378 1.369-1.525 3.591-1.874 4.221-.508.914-.178.799 1.611-.838.393-.36.82-.847 1.224-1.4 1.633-1.114 3.736-2.07 4.144-1.38.705 1.194-1.806 3.576-2.945 4.981-.205.252.414-.024 1.1-.252 1.964-.939 3.183-2.232 3.813-3.469 1.363.823.012 3.289-2.73 4.947 7.806.533 5.18 3.807.382 3.046m-17.645 12.664c-2.728 5.04-11.498 10.928-13.147 11.704-2.244-3.417-6.428-11.304-8.025-15.8a34.994 34.994 0 0 0 2.266-2.286c1.346 1.882 5.516 7.005 7.425 7.005.878 0 4.438-1.555 7.927-3.243a83.37 83.37 0 0 1 3.554 2.62m-8.341 39.599c-1.479-2.49-3.542-4.934-6.311-7.204-12.42-10.179-23.843-5.655-28.082 1.577-3.124-5.184-8.196-9.455-14.727-11.02-.104-.025-.208-.041-.312-.065.236-1.454.609-3.298 1.04-4.536 2.103 1.84 4.48 3.44 6.135 3.474.624-.122.84-.55 1.026-.843 1.151-2.237 2.075-4.621 3.17-7.176 5.768 3.389 18.844 3.328 24.808-1.241 1.747 3.699 3.503 6.803 4.48 7.704.421.385.839.526 1.305.537 2.105.05 9.092-4.14 14.707-8.754 6.217 10.575.474 24.375-7.239 27.547m-6.048 21.423c.342-1.172.244-2.542-.33-4.077-2.406-6.426-12.81-14.718-20.562-14.718-2.518 0-4.518.9-5.9 2.622a12.002 12.002 0 0 1-.402-3.346c.38-14.088 20.538-17.055 31.002.735 3.403 5.787 2.765 15.889-3.808 18.784m-1.415.484a9.699 9.699 0 0 1-1.17.23c-7.421.95-20.41-6.428-23.784-15.554 1.173-1.883 3.005-2.847 5.477-2.847 7.221 0 17.284 8.016 19.523 14 .636 1.696.612 3.091-.046 4.171m-34.306-4.724c-.23.028-.46.046-.692.063.998-.937 1.43-2.187 1.23-3.685-.865-6.445-12.843-15.674-20.345-15.674-2.192 0-3.888.77-5.016 2.233-2.451-8.737 6.585-17.088 17.361-13.7 6.948 2.184 11.262 6.475 13.475 11.175a11.188 11.188 0 0 0-.385 2.683c-.055 3.13.639 6.058 1.865 8.729-.91 4.354-3.588 7.692-7.493 8.176m-2.737.09c-9.026-.471-18.55-8.25-21.636-15.85.899-1.615 2.427-2.437 4.566-2.437 6.945 0 18.463 8.806 19.256 14.72.224 1.668-.498 2.84-2.186 3.567M46.21 234.724c-.32.021-4.011 2.97-5.61 2.437-.756-.252.94-3.376 1.726-4.29-1.76-1.486-7.665-5.05-6.777-6.167.685-.864 3.616.747 4.453.975.268.11.186-.106.051-.276a6.692 6.692 0 0 0-.61-.65c-.747-1.105-1.966-3.036-1.629-3.362.63-.608 2.76.951 3.656 1.428.894.476.602.171.209-.457-.12-.192-.791-.904-1.648-1.576.137-.971.858-.584 3.609 1.005.856.494.317-.59.083-.905-.048-.064-.094-.115-.142-.175-.211-.626-.518-1.61-.132-1.833 1.174-.676 5.056 3.899 6.151 5.465-.443.36-.825.694-1.055.944-.864.939-.38.813.177.813.479 0 3.442-.957 4.77-1.606 2.61 2.949 5.758 4.942 9.324 6.123-.44.51-.972 1.148-1.554 1.856-13.627.049-12.303.075-15.052.251m72.872-1.528c-1.028 5.14-17.186 15.933-18.479 14.755-1.746-1.404-7.878-14.265-9.23-19.154a33.01 33.01 0 0 0 2.478-1.958c1.814 4.893 6.063 12.78 8.208 15.947l.064.095.273.154h.157c1.158 0 11.046-6.602 14.216-12.19 1.237 1.013 2.196 1.916 2.313 2.351m-44.47 1.183c5.965-.14 10.916-1.933 14.887-4.349.675 2.866 2.217 6.932 3.901 10.702-4.149 3.417-16.873 4.66-23.01 1.217 1.086-2.372 2.402-4.89 4.223-7.57m-8.603 2.36c-1.16 2.05-2.18 3.853-3.009 5.64-.85-.92-1.85-2.156-2.33-2.831 1.477-2.165 3.324-4.72 4.572-6.245a39.9 39.9 0 0 0 2.407.504 253.36 253.36 0 0 1-1.64 2.932m-5.99 3.772c.805 1.08 2.11 2.583 2.768 3.223l.57.555.316-.73c.859-1.98 1.985-3.972 3.29-6.28.59-1.044 1.2-2.123 1.83-3.278 1.027.153 2.033.262 3.01.323-1.378 2.29-5.057 9.064-7.396 14.348-.76-.038-5.939-4.302-6.09-5.368.142-.377.808-1.452 1.702-2.793m-9.09-24.468c-1.016-2.77-2.658-7.128-3.313-8.864 13.479-10.35 32.654-16.24 45.932-18.397 2.479 4.68 8.775 15.445 5.024 26.78-3.537 8.072-16.295 18.985-33.48 14.416-6.877-2.183-10.736-5.33-14.162-13.935m-25.65-5.948c-1.645-12.379-14.655-31.229-20.884-34-.517-27.077 16.763-40.1 22.793-44.159.27.012.57-.016.892-.073.677.746 1.743.85 3.068-.16.194.14.407.264.668.35 2.36.777 5.534-5.686 6.244-5.94.71-.254 5.928 1.68 7.463-.254.42-.529.554-1.373.429-2.288 3.564-1.24 9.945-2.511 13.607-2.798l.056.011c-1.676.502-3.383 1.28-3.94 2.841-.925 2.598 1.802 3.778 3.25 4.05-1.527 2.4-2.323 5.837-.66 7.525 1.223 1.243 2.961.445 3.89-.306.505 2.396 2.43 3.844 4.091 2.116.348.538.833.97 1.511 1.176 1.476.214 2.519-.856 3-1.912.656 1.048 1.71 1.73 2.94 1.353 2.514-.769 1.708-5.394 1.878-6.031 1.343-1.591 1.891-3.084 2.233-5.064 2.757-.078 5.353-.237 7.729-.455a55.29 55.29 0 0 1 7.374 4.144c-2.395 6.881-1.38 16.81 2.728 25.809 4.014 8.793 10.167 15.14 16.979 17.586-1.399 9.406-5.832 17.597-12.203 22.088a73.844 73.844 0 0 0-3.333-7.424 70.038 70.038 0 0 1 2.443-.26c2.344-.202 2.675-1.02-.254-1.385-10.254-1.28-22.958 1.492-33.567 6.096-11.122 4.827-20.22 11.71-23.532 17.83 0 0-1.066 2.411.38.99.815-.8 1.671-1.575 2.551-2.332.465 1.304 1.266 2.976 2.41 6.07-7.657.86-15.431-1.185-22.234-5.194M4.435 177.334c2.885 1.566 7.367 6.64 11.403 13.017 4.346 6.866 7.298 13.742 8.216 18.988-10.897-6.922-19.02-18.928-19.62-32.005m28.693-58.952c1.205-.488 2.056-2.528 10.183-7.448a26.738 26.738 0 0 0 8.376 7.044c-2.057.652-5.138 1.757-7.138 2.587-.784-.863-1.868-1.47-3.238-1.458 0 0-1.155.076-.355.61.042.028 3.35 3.122 2.284 4.454-.922 1.152-4.266-.392-5.447.051-1.218.457-4.254 5.88-5.518 5.19-1.318-.717-.26-4.404 0-5.24.342-1.105-.635-.245-1.076.55-.391.706-1.362 3.258-1.054 5.194-1.285 1.019-2.357-.722-1.246-4.869.152-.57-.24-.303-.605.361-.877 1.595-1.157 3.296-.97 4.625-.964.646-1.94-.69-.557-4.504.316-.871-.153-.354-.56.215a7.184 7.184 0 0 0-1.021 2.06c.264-5.49 6.44-8.813 7.942-9.422m7.928-29.886c1.22-5.25 3.41-11.436 6.64-16.683 9.542-2.093 16.965-1.677 24.567.498 7.764 2.221 14.794 6.276 21.16 11.675-.21 9.254-1.868 18.189-5.21 24.3-9.946 2.352-18.769 7.444-23.556 10.509-17.873-2.003-26.24-15.95-23.6-30.299M22.04 60.18c7.06-9.231 9.95-27.986 6.731-34.777C39.953 10.136 61.951-.41 86.592 5.75c24.312 6.078 37.5 22.704 42.246 38.33-6.21 2.464-12.167 9.58-15.403 18.705-3.66 10.322-2.99 20.15 1.702 26.818-5.335 4.27-11.96 7.222-19.805 7.911.817-4.258 1.237-8.498 1.157-10.776.71.673 1.416 1.357 2.109 2.063 1.807 1.842 1.494-.03.575-1.558-5.17-8.594-15.669-16-26.194-18.856-11.146-3.022-23.04-1.618-31.67 3.519-2.088 1.243.046 1.56.864 1.321.493-.144.97-.273 1.452-.406-2.057 3.583-4.008 8.943-5.076 12.437-6.524-5.545-13.82-11.954-16.509-25.079m-1.036-13.716c.213-6.871 2.73-13.8 7.022-20.013 2.364 6.346.201 23.077-6.26 32.263-.616-3.574-.906-7.616-.762-12.25m109.449 16.55c-1.593 9.403-6.51 19.151-14.475 25.905-4.445-6.374-5.038-15.818-1.51-25.766 3.121-8.8 8.795-15.651 14.679-18.018 1.808 6.448 2.186 12.682 1.306 17.878m-2.463 58.837c-2.121 10.316-8.545 17.033-19.542 19.012a46.682 46.682 0 0 0-9.771-10.558c7.107.499 16.991 1.53 18.475 1.521.463-.002 1.107-.295 1.523-.787 5.214-7.968 3.087-20.847.884-29.128 6.477 1.424 10.118 11.739 8.431 19.94m10.965 20.179c-1.045 18.9-21.586 20.721-21.355-.646 6.716-3.307 11.356-8.751 13.184-17.473 8.532 2.543 8.597 10.442 8.171 18.119m-24.273 12.106a48.113 48.113 0 0 0-4.3-10.156 40.867 40.867 0 0 0 4.415-1.381c-.004 4.324.892 7.891 2.36 10.669-.713.442-1.6.79-2.475.868m-1.912 18.372c-6.448-2.403-12.283-8.501-16.132-16.933-3.94-8.63-4.964-18.094-2.78-24.7 15.535 10.91 20.633 27.507 18.912 41.633m-3.531-75.509c3.875 6.809 6.114 19.599 3.423 26.285a146.12 146.12 0 0 0-4.507-.065c-3.037 0-6.004.076-9.439.166l-.568.014c3.365-2.916-2.35-14.106-6.028-15.57.933-1.669 1.743-4.047 2.404-6.653 5.544-.662 10.432-2.135 14.715-4.177m1.206-.587c1.738-.065 3.866-.2 4.321-.096 1.32.305 7.665 20.154 2.309 32.804-.445 1.05-7.011-.412-22.337-1.606a46.254 46.254 0 0 0-3.699-2.109c1.589-.252 2.978-.534 4.131-.835 1.233-.029 2.43-.059 3.574-.089 3.427-.09 6.388-.166 9.411-.166 1.705 0 3.291.025 4.848.077l.369.012.15-.339c3.1-7.014.792-20.333-3.294-27.548.071-.036.145-.069.217-.105m-36.756 34.71c.366 1.558.872 4.182-.448 4.384-1.32.203-2.445-1.956-2.335-3.705.04-.639-.51-.063-.789 1.281-.049.241-.069.493-.069.748-.472 1.017-1.222 2.154-2.188 2.032-1.206-.153-1.168-3.921-.958-5.143.173-1.006-.885.227-1.264 1.658-.155.584-.248 1.742-.041 2.882-1.763.27-2.46-2.443-2.164-5.258.123-1.176-.525.148-1.005 1.444-.144.39-.247.78-.312 1.165-.649.82-1.789 1.93-2.581.854-1.067-1.447 1.675-6.74 2.627-7.806.849-.951-.149-.717-.93-.32-.437.223-.875.584-1.293 1.027-.996-.311-2.41-1.08-1.927-2.23.863-1.523 5.54-1.355 7.345-2.646 5.244-3.75 22.3-11.162 25.956-10.705 1.992.368 6.882 8.554 4.966 10.25 0 0-10.932 1.417-20.5 3.355-.52 5.381-2.348 5.838-2.09 6.732m63.173 82.182c3.185-3.484 1.784-6.303-.498-6.363-.09-.423-.281-.77-.569-.985-1.186-.889-2.8-.608-4.422.321.194-1.06-.021-2.007-.971-2.542-2.374-1.243-7.87 2.133-10.508 7.31-3.354-.09-12.573.5-17.096 1.626.505-3.662.256-8.257-.98-12.776 12.67-10.802 16.835-26.756 13.892-41.577 1.437-.351 2.98-.953 3.93-1.6 7.371 7.6 20.721 3.535 22.285-14.306.38-4.33 1.027-20.22-10.552-22.348 1.195-12.442-5.344-19.977-12.978-22.152-.893-2.828-1.537-4.382-1.27-3.793-.151-.416-.339-.576-.678-.648-.129-.028-.544-.03-1.108-.012 11.61-8.09 17.414-20.601 18.9-29.834 2.813-17.463-5.644-50.693-46.257-61.497-38.16-10.152-69.738 17.986-70.827 43.729-.88 20.838 7.894 33.896 20.569 42.586-1.318 6.811.156 14.385 4.201 20.557-2.809 1.454-6.86 4.12-10.007 6.811-4.817 3.164-10.771 8.7-8.718 13.625C17.957 133.241-.58 148.727.596 176.598c.925 21.864 19.654 44.013 48.092 41.89.924 2.306 2.022 4.32 3.271 6.07-.281.204-.607.44-.95.696-1.232-1.83-6.886-7.636-8.855-6.108-.609.47-.525 1.284-.372 1.842-1.957-1.283-3.591-.533-3.84.6-.688-.217-1.335-.194-1.798.303-.752.81-.402 2.041.1 2.95-.889-.223-1.785-.141-2.524.542-1.802 2.208 2.082 5.153 5.84 8.047-.138.638-1.979 4.476-.23 5.559 2.335 1.447 7.138-2.097 7.691-2.336 2.088.163 9.302.876 11.77.881-1.901 2.388-3.672 4.672-4.014 5.166-.147.212-.345.375-.04.984.35.584 1.077 1.487 2.015 2.487-.744 1.453-1.593 4.499-1.772 6.43-10.948-.605-20.69 8.217-16.141 19.866 2.951 7.56 15.838 18.809 27.184 16.981 4.849-.78 7.924-3.398 9.469-6.901 5.732 7.989 16.42 12.711 24.805 11.775 7.573-.845 12.886-10.939 8.89-21.245 8.427-4.21 15.874-18.868 8.158-33.081 2.84-2.631 4.928-5.202 5.122-7.026.007-.06.09-.607-.377-1.106-.982-1.045-5.145-4.381-7.061-5.66 1.966-1 3.646-1.915 4.433-2.432.19.647 1.599 4.15 4.188 4.112 2.132 0 3.578-3.389 3.845-4.226 2.274-.761 6.397-2.704 7.5-3.808 6.702-.342 7.958-5.787 1.867-6.549m-56.517 1.872c3.412-1.093 7.345-.522 7.44 3.027.084 3.182-4.43 6.91-9 6.76-1.295-4.152-.003-7.511 1.56-9.787m4.115 10.465c3.807-2.031 6.957-6.162 5.102-9.772-1.974-3.843-7.347-3.868-11.549-1.726-4.202 2.141-7.235 6.446-5.153 10.152 2.06 3.667 7.723 3.414 11.6 1.346m-25.33-18.96c1.42-.559 2.765 2.284 1.344 2.97-1.487.715-2.637-2.464-1.345-2.97m3.626 8.189c3.115-1.307-.83-11.102-4.147-9.578-2.69 1.236.888 10.944 4.147 9.578m14.369-15.88c1.378-.733 2.945 2.613 1.574 3.248-1.485.688-2.766-2.614-1.574-3.249m3.92 8.605c3.121-1.288-.902-11.451-4.35-9.823-3.174 1.498 1.09 11.168 4.35 9.823M80.05 83.257c1.523.313.583 4.016-1.021 3.615-1.625-.406-.66-3.96 1.02-3.615m-2.492 8.945c3.807 1.015 6.802-9.493 2.74-10.406-3.642-.82-6.292 9.46-2.74 10.406m-18.478-13.91c1.675.458.66 3.96-.813 3.808-1.868-.193-.494-4.163.813-3.807m-2.285 8.782c3.555.762 6.345-9.544 2.742-10.305-3.605-.762-6.296 9.544-2.742 10.305" fill="#090205" fill-rule="evenodd" opacity=".1"/></svg>
