<svg height="134" viewBox="0 0 161 134" width="161" xmlns="http://www.w3.org/2000/svg"><g fill="none" fill-rule="evenodd"><path d="m56.587 133.029h104.359v-129.179h-104.359z" fill="#404041"/><g fill="#00070f"><path d="m157.8438 11.1835-3.244.141-3.243.283-3.102.281-3.244.282-3.102.423-3.245.424-3.102.564-3.103.705-3.103.564-3.102.846-3.102.846-3.103.846-2.962.988-3.103 1.128-2.961 1.128-2.962 1.128-2.961 1.27-2.961 1.269-2.82 1.41-2.821 1.551-2.821 1.411-2.82 1.692-2.68 1.551-2.679 1.692-2.68 1.834-2.679 1.833-2.538 1.833-2.539 1.975-2.538 2.116-2.398 1.974-2.397 2.116-2.398 2.255-2.257 2.116-2.255 2.256-2.115 2.398-2.117 2.397v13.257l1.834-2.68 2.115-2.539 1.975-2.538 2.116-2.538 2.255-2.398 2.257-2.397 2.256-2.399 2.257-2.255 2.397-2.256 2.398-2.116 2.538-2.256 2.539-2.116 2.538-1.974 2.539-1.975 2.678-1.833 2.68-1.975 2.821-1.692 2.679-1.833 2.821-1.692 2.82-1.551 2.961-1.551 2.962-1.552 2.961-1.41 2.962-1.41 2.962-1.27 3.103-1.128 2.96-1.27 3.104-.986 3.102-1.129 3.102-.846 3.245-.987 3.102-.846 3.245-.706 3.101-.704 3.244-.565 3.243-.563 3.245-.423 3.242-.424z"/><path d="m117.0869 40.7996-.423-.282-.423-.282-.423-.283-.564-.281-.423-.142h-.564-.564-1.129l-1.128.142-1.269.281-1.128.142-1.128.423-1.128.282-1.129.563-1.551.706-1.551.846-1.693.846-1.551.847-1.41.987-1.974 1.41-1.975 1.552-1.833 1.41-1.834 1.551-1.833 1.692-1.692 1.693-1.693 1.692-1.692 1.692-1.551 1.833-1.552 1.833-1.128 1.41-.987 1.552-.987 1.552-.987 1.551-.846 1.551-.423.988-.564 1.128-.283 1.128-.423 1.128-.282 1.128-.282 1.128-.141 1.128v.565.563l.141.565.142.423.282.564.281.423.282.424.423.281.424.282.423.282.563.283.424.14h.564.564 1.128l1.129-.14 1.268-.283 1.129-.14 1.128-.424 1.128-.281 1.128-.565 1.552-.705 1.692-.846 1.551-.846 1.552-.847 1.41-.986 1.975-1.411 1.974-1.551 1.833-1.41 1.833-1.552 1.834-1.692 1.693-1.551 1.691-1.833 1.692-1.694 1.552-1.833 1.551-1.833 1.129-1.41.987-1.551.986-1.411.988-1.551.846-1.692.564-.987.424-1.128.423-1.129.282-1.128.282-1.128.281-1.129.142-1.128v-.564-.564l-.142-.564-.14-.423-.283-.564-.282-.423z"/><path d="m106.6513 85.363-.423-.423-.423-.282-.424-.281-.563-.142-.423-.141-.564-.141h-.565l-1.128.141-1.128.141-1.269.142-1.128.281-1.129.282-1.128.423-1.128.424-1.552.705-1.692.846-1.551.846-1.552.988-1.41.986-1.974 1.41-1.974 1.411-1.834 1.551-1.833 1.552-1.833 1.551-1.692 1.693-1.693 1.691-1.692 1.834-1.552 1.692-1.551 1.974-1.128 1.41-.987 1.411-.987 1.551-.987 1.552-.847 1.551-.564 1.128-.422.987-.424 1.129-.282 1.128-.282 1.128-.282 1.269-.141 1.128v.565.423l.141.564.141.564.282.422.282.424.282.423.423.423.423.282.423.282.564.141.423.141.565.141h.564l1.128-.141 1.128-.141 1.269-.141 1.128-.282 1.128-.282 1.129-.423 1.128-.423 1.552-.705 1.692-.846 1.551-.846 1.552-.987 1.41-.988 1.974-1.41 1.974-1.41 1.834-1.552 1.833-1.551 1.833-1.551 1.693-1.693 1.692-1.692 1.692-1.833 1.552-1.834 1.551-1.833 1.128-1.41.987-1.41.987-1.552.988-1.551.845-1.551.565-1.129.423-1.128.424-.987.281-1.128.282-1.269.282-1.128.141-1.129v-.564-.423l-.141-.564-.14-.564-.283-.423-.282-.423zm4.654-15.09-.141.283-.564 1.128-.282 1.128-.423 1.128-.282 1.128-.142 1.129-.281 1.128v.564l.141.564v.564l.14.423.283.565.282.422.282.424.987.564zm0 11.283-.141-.141-.423-.282-.423-.282.987.564zm0-.141.846.564.564.141h.423.565 1.128l1.269-.141 1.128-.282 1.128-.141 1.128-.423 1.129-.282 1.128-.564 1.552-.705 1.691-.847 1.552-.846 1.551-.846 1.551-.987 1.833-1.411 1.975-1.551 1.833-1.41 1.834-1.551 1.833-1.693 1.692-1.551 1.693-1.833 1.692-1.693 1.552-1.833 1.551-1.833 1.128-1.41.987-1.552.987-1.41.987-1.552.846-1.691.565-.988.422-1.127.424-1.129.282-1.128.282-1.128.282-1.129.141-1.128v-.565-.563l-.141-.564-.141-.423-.282-.565-.282-.423-.282-.422-.423-.283-.423-.282-.424-.282-.563-.281-.423-.142h-.565-.564-1.128l-1.128.142-1.129.281-1.268.141-1.129.423-1.128.283-.988.563-1.692.705-1.551.847-1.692.845-1.552.847-1.41.987-1.975 1.411-1.973 1.551-1.834 1.411-1.833 1.55-1.833 1.693-1.693 1.692-1.692 1.692-1.692 1.693-1.552 1.833-1.551 1.833-1.128 1.41-.987 1.552-.987 1.552-.847 1.55-.987 1.551-.282.705zm.846.564-.564-.282-.282-.141v-.141z"/><path d="m116.5234 99.3259-1.692 1.691-1.552 1.834-1.551 1.692-1.552 1.974-1.128 1.411-.987 1.41-.987 1.551-.988 1.552-.845 1.551-.565 1.128-.423.987-.422 1.129-.283 1.128-.282 1.128-.282 1.27-.141 1.127v.565.423l.141.564.142.564.282.423.282.423.281.423.424.423.423.282.423.283.423.14.564.141.565.141h.422l1.269-.141 1.129-.141 1.128-.14 1.269-.283 1.128-.282.988-.423 1.127-.423 1.693-.705 1.552-.846 1.692-.846 1.41-.987 1.551-.988 1.975-1.41 1.974-1.41 1.833-1.552 1.833-1.551 1.834-1.551 1.693-1.693 1.692-1.692 1.551-1.833 1.692-1.834 1.552-1.833.986-1.41 1.129-1.41.987-1.552.846-1.551.847-1.551.563-1.129.423-1.128.424-.987.423-1.128.282-1.269.141-1.128.14-1.129.142-.564-.142-.422v-.565l-.281-.564-.142-.423-.282-.423-.423-.424-.282-.423-.423-.282-.563-.281-.424-.142-.564-.14-.423-.142h-.564l-1.269.142-1.128.14-1.128.142-1.129.281-1.128.282-1.128.423-1.129.424-1.551.705-1.692.846-1.552.846-1.551.988-1.551.986-1.974 1.41-1.834 1.411-1.975 1.551-1.833 1.552-1.692 1.551z"/><path d="m56.587 98.902h104.359v-2.398h-104.359z"/><path d="m56.587 103.697h104.359v-2.398h-104.359z"/><path d="m56.587 108.633h104.359v-2.398h-104.359z"/><path d="m56.587 113.569h104.359v-2.539h-104.359z"/><path d="m56.587 118.364h104.359v-2.397h-104.359z"/><path d="m56.587 123.299h104.359v-2.538h-104.359z"/><path d="m56.587 128.094h104.359v-2.398h-104.359z"/><path d="m56.587 133.03h104.359v-2.538h-104.359z"/><path d="m56.587 93.966h104.359v-2.398h-104.359z"/><path d="m56.587 89.171h104.359v-2.398h-104.359z"/><path d="m56.587 84.235h104.359v-2.397h-104.359z"/><path d="m56.587 79.44h104.359v-2.538h-104.359z"/><path d="m56.587 74.505h104.359v-2.398h-104.359z"/><path d="m56.587 69.71h104.359v-2.538h-104.359z"/><path d="m56.587 64.773h104.359v-2.397h-104.359z"/><path d="m56.587 59.98h104.359v-2.54h-104.359z"/><path d="m56.587 55.042h104.359v-2.397h-104.359z"/><path d="m56.587 50.108h104.359v-2.398h-104.359z"/><path d="m56.587 45.312h104.359v-2.398h-104.359z"/><path d="m56.587 40.377h104.359v-2.398h-104.359z"/><path d="m56.587 35.582h104.359v-2.399h-104.359z"/><path d="m56.587 30.645h104.359v-2.398h-104.359z"/><path d="m56.587 25.851h104.359v-2.398h-104.359z"/><path d="m56.587 20.915h104.359v-2.398h-104.359z"/><path d="m56.587 16.12h104.359v-2.538h-104.359z"/><path d="m56.587 11.184h104.359v-2.397h-104.359z"/><path d="m56.587 6.388h104.359v-2.538h-104.359z"/></g></g></svg>