<?xml version="1.0" encoding="UTF-8"?>
<svg width="161px" height="134px" viewBox="0 0 161 134" version="1.1" xmlns="http://www.w3.org/2000/svg" xmlns:xlink="http://www.w3.org/1999/xlink">
    <!-- Generator: Sketch 43.2 (39069) - http://www.bohemiancoding.com/sketch -->
    <title>SNES gray icon small purple tri</title>
    <desc>Created with Sketch.</desc>
    <defs></defs>
    <g id="Page-1" stroke="none" stroke-width="1" fill="none" fill-rule="evenodd">
        <g id="Clover2_ver04" transform="translate(-863.000000, -646.000000)">
            <g id="SNES-gray-icon-small-purple-tri" transform="translate(863.000000, 646.000000)">
                <polygon id="Fill-1" fill="#404041" points="56.587 133.029 160.946 133.029 160.946 3.85 56.587 3.85"></polygon> 
                <polygon id="Fill-2" fill="#00070F" points="157.8438 11.1835 154.5998 11.3245 151.3568 11.6075 148.2548 11.8885 145.0108 12.1705 141.9088 12.5935 138.6638 13.0175 135.5618 13.5815 132.4588 14.2865 129.3558 14.8505 126.2538 15.6965 123.1518 16.5425 120.0488 17.3885 117.0868 18.3765 113.9838 19.5045 111.0228 20.6325 108.0608 21.7605 105.0998 23.0305 102.1388 24.2995 99.3188 25.7095 96.4978 27.2605 93.6768 28.6715 90.8568 30.3635 88.1768 31.9145 85.4978 33.6065 82.8178 35.4405 80.1388 37.2735 77.6008 39.1065 75.0618 41.0815 72.5238 43.1975 70.1258 45.1715 67.7288 47.2875 65.3308 49.5425 63.0738 51.6585 60.8188 53.9145 58.7038 56.3125 56.5868 58.7095 56.5868 71.9665 58.4208 69.2865 60.5358 66.7475 62.5108 64.2095 64.6268 61.6715 66.8818 59.2735 69.1388 56.8765 71.3948 54.4775 73.6518 52.2225 76.0488 49.9665 78.4468 47.8505 80.9848 45.5945 83.5238 43.4785 86.0618 41.5045 88.6008 39.5295 91.2788 37.6965 93.9588 35.7215 96.7798 34.0295 99.4588 32.1965 102.2798 30.5045 105.0998 28.9535 108.0608 27.4025 111.0228 25.8505 113.9838 24.4405 116.9458 23.0305 119.9078 21.7605 123.0108 20.6325 125.9708 19.3625 129.0748 18.3765 132.1768 17.2475 135.2788 16.4015 138.5238 15.4145 141.6258 14.5685 144.8708 13.8625 147.9718 13.1585 151.2158 12.5935 154.4588 12.0305 157.7038 11.6075 160.9458 11.1835"></polygon>
                <polygon id="Fill-3" fill="#00070F" points="117.0869 40.7996 116.6639 40.5176 116.2409 40.2356 115.8179 39.9526 115.2539 39.6716 114.8309 39.5296 114.2669 39.5296 113.7029 39.5296 112.5739 39.5296 111.4459 39.6716 110.1769 39.9526 109.0489 40.0946 107.9209 40.5176 106.7929 40.7996 105.6639 41.3626 104.1129 42.0686 102.5619 42.9146 100.8689 43.7606 99.3179 44.6076 97.9079 45.5946 95.9339 47.0046 93.9589 48.5566 92.1259 49.9666 90.2919 51.5176 88.4589 53.2096 86.7669 54.9026 85.0739 56.5946 83.3819 58.2866 81.8309 60.1196 80.2789 61.9526 79.1509 63.3626 78.1639 64.9146 77.1769 66.4666 76.1899 68.0176 75.3439 69.5686 74.9209 70.5566 74.3569 71.6846 74.0739 72.8126 73.6509 73.9406 73.3689 75.0686 73.0869 76.1966 72.9459 77.3246 72.9459 77.8896 72.9459 78.4526 73.0869 79.0176 73.2289 79.4406 73.5109 80.0046 73.7919 80.4276 74.0739 80.8516 74.4969 81.1326 74.9209 81.4146 75.3439 81.6966 75.9069 81.9796 76.3309 82.1196 76.8949 82.1196 77.4589 82.1196 78.5869 82.1196 79.7159 81.9796 80.9839 81.6966 82.1129 81.5566 83.2409 81.1326 84.3689 80.8516 85.4969 80.2866 87.0489 79.5816 88.7409 78.7356 90.2919 77.8896 91.8439 77.0426 93.2539 76.0566 95.2289 74.6456 97.2029 73.0946 99.0359 71.6846 100.8689 70.1326 102.7029 68.4406 104.3959 66.8896 106.0869 65.0566 107.7789 63.3626 109.3309 61.5296 110.8819 59.6966 112.0109 58.2866 112.9979 56.7356 113.9839 55.3246 114.9719 53.7736 115.8179 52.0816 116.3819 51.0946 116.8059 49.9666 117.2289 48.8376 117.5109 47.7096 117.7929 46.5816 118.0739 45.4526 118.2159 44.3246 118.2159 43.7606 118.2159 43.1966 118.0739 42.6326 117.9339 42.2096 117.6509 41.6456 117.3689 41.2226"></polygon>
                <path d="M106.6513,85.363 L106.2283,84.94 L105.8053,84.658 L105.3813,84.377 L104.8183,84.235 L104.3953,84.094 L103.8313,83.953 L103.2663,83.953 L102.1383,84.094 L101.0103,84.235 L99.7413,84.377 L98.6133,84.658 L97.4843,84.94 L96.3563,85.363 L95.2283,85.787 L93.6763,86.492 L91.9843,87.338 L90.4333,88.184 L88.8813,89.172 L87.4713,90.158 L85.4973,91.568 L83.5233,92.979 L81.6893,94.53 L79.8563,96.082 L78.0233,97.633 L76.3313,99.326 L74.6383,101.017 L72.9463,102.851 L71.3943,104.543 L69.8433,106.517 L68.7153,107.927 L67.7283,109.338 L66.7413,110.889 L65.7543,112.441 L64.9073,113.992 L64.3433,115.12 L63.9213,116.107 L63.4973,117.236 L63.2153,118.364 L62.9333,119.492 L62.6513,120.761 L62.5103,121.889 L62.5103,122.454 L62.5103,122.877 L62.6513,123.441 L62.7923,124.005 L63.0743,124.427 L63.3563,124.851 L63.6383,125.274 L64.0613,125.697 L64.4843,125.979 L64.9073,126.261 L65.4713,126.402 L65.8943,126.543 L66.4593,126.684 L67.0233,126.684 L68.1513,126.543 L69.2793,126.402 L70.5483,126.261 L71.6763,125.979 L72.8043,125.697 L73.9333,125.274 L75.0613,124.851 L76.6133,124.146 L78.3053,123.3 L79.8563,122.454 L81.4083,121.467 L82.8183,120.479 L84.7923,119.069 L86.7663,117.659 L88.6003,116.107 L90.4333,114.556 L92.2663,113.005 L93.9593,111.312 L95.6513,109.62 L97.3433,107.787 L98.8953,105.953 L100.4463,104.12 L101.5743,102.71 L102.5613,101.3 L103.5483,99.748 L104.5363,98.197 L105.3813,96.646 L105.9463,95.517 L106.3693,94.389 L106.7933,93.402 L107.0743,92.274 L107.3563,91.005 L107.6383,89.877 L107.7793,88.748 L107.7793,88.184 L107.7793,87.761 L107.6383,87.197 L107.4983,86.633 L107.2153,86.21 L106.9333,85.787 L106.6513,85.363 Z M111.3053,70.273 L111.1643,70.556 L110.6003,71.684 L110.3183,72.812 L109.8953,73.94 L109.6133,75.068 L109.4713,76.197 L109.1903,77.325 L109.1903,77.889 L109.3313,78.453 L109.3313,79.017 L109.4713,79.44 L109.7543,80.005 L110.0363,80.427 L110.3183,80.851 L111.3053,81.415 L111.3053,70.273 Z M111.3053,81.556 L111.1643,81.415 L110.7413,81.133 L110.3183,80.851 L111.3053,81.415 L111.3053,81.556 Z M111.3053,81.415 L112.1513,81.979 L112.7153,82.12 L113.1383,82.12 L113.7033,82.12 L114.8313,82.12 L116.1003,81.979 L117.2283,81.697 L118.3563,81.556 L119.4843,81.133 L120.6133,80.851 L121.7413,80.287 L123.2933,79.582 L124.9843,78.735 L126.5363,77.889 L128.0873,77.043 L129.6383,76.056 L131.4713,74.645 L133.4463,73.094 L135.2793,71.684 L137.1133,70.133 L138.9463,68.44 L140.6383,66.889 L142.3313,65.056 L144.0233,63.363 L145.5753,61.53 L147.1263,59.697 L148.2543,58.287 L149.2413,56.735 L150.2283,55.325 L151.2153,53.773 L152.0613,52.082 L152.6263,51.094 L153.0483,49.967 L153.4723,48.838 L153.7543,47.71 L154.0363,46.582 L154.3183,45.453 L154.4593,44.325 L154.4593,43.76 L154.4593,43.197 L154.3183,42.633 L154.1773,42.21 L153.8953,41.645 L153.6133,41.222 L153.3313,40.8 L152.9083,40.517 L152.4853,40.235 L152.0613,39.953 L151.4983,39.672 L151.0753,39.53 L150.5103,39.53 L149.9463,39.53 L148.8183,39.53 L147.6903,39.672 L146.5613,39.953 L145.2933,40.094 L144.1643,40.517 L143.0363,40.8 L142.0483,41.363 L140.3563,42.068 L138.8053,42.915 L137.1133,43.76 L135.5613,44.607 L134.1513,45.594 L132.1763,47.005 L130.2033,48.556 L128.3693,49.967 L126.5363,51.517 L124.7033,53.21 L123.0103,54.902 L121.3183,56.594 L119.6263,58.287 L118.0743,60.12 L116.5233,61.953 L115.3953,63.363 L114.4083,64.915 L113.4213,66.467 L112.5743,68.017 L111.5873,69.568 L111.3053,70.273 L111.3053,81.415 Z M112.1513,81.979 L111.5873,81.697 L111.3053,81.556 L111.3053,81.415 L112.1513,81.979 Z" id="Fill-4" fill="#00070F"></path>
                <polygon id="Fill-5" fill="#00070F" points="116.5234 99.3259 114.8314 101.0169 113.2794 102.8509 111.7284 104.5429 110.1764 106.5169 109.0484 107.9279 108.0614 109.3379 107.0744 110.8889 106.0864 112.4409 105.2414 113.9919 104.6764 115.1199 104.2534 116.1069 103.8314 117.2359 103.5484 118.3639 103.2664 119.4919 102.9844 120.7619 102.8434 121.8889 102.8434 122.4539 102.8434 122.8769 102.9844 123.4409 103.1264 124.0049 103.4084 124.4279 103.6904 124.8509 103.9714 125.2739 104.3954 125.6969 104.8184 125.9789 105.2414 126.2619 105.6644 126.4019 106.2284 126.5429 106.7934 126.6839 107.2154 126.6839 108.4844 126.5429 109.6134 126.4019 110.7414 126.2619 112.0104 125.9789 113.1384 125.6969 114.1264 125.2739 115.2534 124.8509 116.9464 124.1459 118.4984 123.2999 120.1904 122.4539 121.6004 121.4669 123.1514 120.4789 125.1264 119.0689 127.1004 117.6589 128.9334 116.1069 130.7664 114.5559 132.6004 113.0049 134.2934 111.3119 135.9854 109.6199 137.5364 107.7869 139.2284 105.9529 140.7804 104.1199 141.7664 102.7099 142.8954 101.2999 143.8824 99.7479 144.7284 98.1969 145.5754 96.6459 146.1384 95.5169 146.5614 94.3889 146.9854 93.4019 147.4084 92.2739 147.6904 91.0049 147.8314 89.8769 147.9714 88.7479 148.1134 88.1839 147.9714 87.7619 147.9714 87.1969 147.6904 86.6329 147.5484 86.2099 147.2664 85.7869 146.8434 85.3629 146.5614 84.9399 146.1384 84.6579 145.5754 84.3769 145.1514 84.2349 144.5874 84.0949 144.1644 83.9529 143.6004 83.9529 142.3314 84.0949 141.2034 84.2349 140.0754 84.3769 138.9464 84.6579 137.8184 84.9399 136.6904 85.3629 135.5614 85.7869 134.0104 86.4919 132.3184 87.3379 130.7664 88.1839 129.2154 89.1719 127.6644 90.1579 125.6904 91.5679 123.8564 92.9789 121.8814 94.5299 120.0484 96.0819 118.3564 97.6329"></polygon>
                <polygon id="Fill-6" fill="#00070F" points="56.587 98.902 160.946 98.902 160.946 96.504 56.587 96.504"></polygon>
                <polygon id="Fill-7" fill="#00070F" points="56.587 103.697 160.946 103.697 160.946 101.299 56.587 101.299"></polygon>
                <polygon id="Fill-8" fill="#00070F" points="56.587 108.633 160.946 108.633 160.946 106.235 56.587 106.235"></polygon>
                <polygon id="Fill-9" fill="#00070F" points="56.587 113.569 160.946 113.569 160.946 111.03 56.587 111.03"></polygon>
                <polygon id="Fill-10" fill="#00070F" points="56.587 118.364 160.946 118.364 160.946 115.967 56.587 115.967"></polygon>
                <polygon id="Fill-11" fill="#00070F" points="56.587 123.299 160.946 123.299 160.946 120.761 56.587 120.761"></polygon>
                <polygon id="Fill-12" fill="#00070F" points="56.587 128.094 160.946 128.094 160.946 125.696 56.587 125.696"></polygon>
                <polygon id="Fill-13" fill="#00070F" points="56.587 133.03 160.946 133.03 160.946 130.492 56.587 130.492"></polygon>
                <polygon id="Fill-14" fill="#00070F" points="56.587 93.966 160.946 93.966 160.946 91.568 56.587 91.568"></polygon>
                <polygon id="Fill-15" fill="#00070F" points="56.587 89.171 160.946 89.171 160.946 86.773 56.587 86.773"></polygon>
                <polygon id="Fill-16" fill="#00070F" points="56.587 84.235 160.946 84.235 160.946 81.838 56.587 81.838"></polygon>
                <polygon id="Fill-17" fill="#00070F" points="56.587 79.44 160.946 79.44 160.946 76.902 56.587 76.902"></polygon>
                <polygon id="Fill-18" fill="#00070F" points="56.587 74.505 160.946 74.505 160.946 72.107 56.587 72.107"></polygon>
                <polygon id="Fill-19" fill="#00070F" points="56.587 69.71 160.946 69.71 160.946 67.172 56.587 67.172"></polygon>
                <polygon id="Fill-20" fill="#00070F" points="56.587 64.773 160.946 64.773 160.946 62.376 56.587 62.376"></polygon>
                <polygon id="Fill-21" fill="#00070F" points="56.587 59.98 160.946 59.98 160.946 57.44 56.587 57.44"></polygon>
                <polygon id="Fill-22" fill="#00070F" points="56.587 55.042 160.946 55.042 160.946 52.645 56.587 52.645"></polygon>
                <polygon id="Fill-23" fill="#00070F" points="56.587 50.108 160.946 50.108 160.946 47.71 56.587 47.71"></polygon>
                <polygon id="Fill-24" fill="#00070F" points="56.587 45.312 160.946 45.312 160.946 42.914 56.587 42.914"></polygon>
                <polygon id="Fill-25" fill="#00070F" points="56.587 40.377 160.946 40.377 160.946 37.979 56.587 37.979"></polygon>
                <polygon id="Fill-26" fill="#00070F" points="56.587 35.582 160.946 35.582 160.946 33.183 56.587 33.183"></polygon>
                <polygon id="Fill-27" fill="#00070F" points="56.587 30.645 160.946 30.645 160.946 28.247 56.587 28.247"></polygon>
                <polygon id="Fill-28" fill="#00070F" points="56.587 25.851 160.946 25.851 160.946 23.453 56.587 23.453"></polygon>
                <polygon id="Fill-29" fill="#00070F" points="56.587 20.915 160.946 20.915 160.946 18.517 56.587 18.517"></polygon>
                <polygon id="Fill-30" fill="#00070F" points="56.587 16.12 160.946 16.12 160.946 13.582 56.587 13.582"></polygon>
                <polygon id="Fill-31" fill="#00070F" points="56.587 11.184 160.946 11.184 160.946 8.787 56.587 8.787"></polygon>
                <polygon id="Fill-32" fill="#00070F" points="56.587 6.388 160.946 6.388 160.946 3.85 56.587 3.85"></polygon>
            </g>
        </g>
    </g>
</svg>