<svg height="18" viewBox="0 0 43 18" width="43" xmlns="http://www.w3.org/2000/svg"><g fill="#f5a81c" fill-rule="evenodd"><path d="m25.722132 9.19123585c0-4.40150943 3.7006326-7.98198113 8.2498571-7.98198113s8.2498572 3.5804717 8.2498572 7.98198113c0 4.40150945-3.7006327 7.98226415-8.2498572 7.98226415s-8.2498571-3.5807547-8.2498571-7.98226415zm-21.67872792 0c0-2.63660377 2.2169864-4.78132076 4.94178231-4.78132076 2.72508841 0 4.94178231 2.14471699 4.94178231 4.78132076 0 2.63632075-2.2166939 4.78132075-4.94178231 4.78132075-2.72479591 0-4.94178231-2.145-4.94178231-4.78132075zm34.59627892-8.00037736c-1.3798027-.75650943-2.9716803-1.1909434-4.6676939-1.1909434h-4.6668163v.49811321h-15.6531701v-.49811321h-4.66681631c-1.70186394 0-3.29929932.43754717-4.68261224 1.19915095v.57198113c-2.58029252 1.52745283-4.30263265 4.27896226-4.30263265 7.4204717 0 4.80113203 4.02298639 8.69320753 8.98524489 8.69320753 1.98238771 0 3.81412921-.6229245 5.30011561-1.6746226h14.386864c1.4859864 1.0516981 3.3174354 1.6746226 5.2998231 1.6746226 4.9622585 0 8.9852449-3.8920755 8.9852449-8.69320753 0-3.14745283-1.7287755-5.90377359-4.317551-7.4295283z"/><path d="m12.4315633 7.99998113h-2.2114286v-2.13962264c0-.09764151-.0827823-.17773585-.1837007-.17773585h-2.11694556c-.10121089 0-.1839932.08009434-.1839932.17773585v2.13962264h-2.21142857c-.10091837 0-.18370068.07981132-.18370068.17773585v2.04820752c0 .0979246.08278231.1777359.18370068.1777359h2.21142857v2.1399056c0 .0976415.08278231.1777359.1839932.1777359h2.11694556c.1009184 0 .1837007-.0800944.1837007-.1777359v-2.1399056h2.2114286c.1009183 0 .1837006-.0798113.1837006-.1777359v-2.04820752c0-.09792453-.0827823-.17773585-.1837006-.17773585"/><ellipse cx="38.173469" cy="9.084906" rx="1.667347" ry="1.613208"/><ellipse cx="33.961225" cy="6.028302" rx="1.667347" ry="1.613208"/><ellipse cx="33.785714" cy="12.481132" rx="1.667347" ry="1.613208"/><ellipse cx="29.573469" cy="9.424528" rx="1.667347" ry="1.613208"/></g></svg>