<svg height="149" viewBox="0 0 245 149" width="245" xmlns="http://www.w3.org/2000/svg" xmlns:xlink="http://www.w3.org/1999/xlink"><mask id="a" fill="#fff"><path d="m0 148.338333h244.756667v-148.338333h-244.756667z" fill="#fff" fill-rule="evenodd"/></mask><g fill="#fefefe" fill-rule="evenodd"><path d="m18.493 143.89h-1.0816667-4.5683333c-.6 0-1.0816667-.36-1.0816667-1.08v-2.525-1.441667-2.043333c0-.596667.4816667-1.203333 1.0816667-1.203333h4.5683333 1.0816667 8.4016667v-4.445h-8.4016667-1.0816667-5.65c-6.24666663 0-5.64666663 5.648333-5.64666663 5.648333v2.043333 1.441667 2.525s-.6 5.528333 5.64666663 5.528333h5.65 1.0816667 8.4016667v-4.448333z"/><path d="m198.001333 143.89h-1.081666-4.568334c-.598333 0-1.081666-.36-1.081666-1.08v-2.525-1.441667-2.043333c0-.596667.483333-1.203333 1.081666-1.203333h4.568334 1.081666 8.401667v-4.445h-8.401667-1.081666-5.65c-6.246667 0-5.646667 5.648333-5.646667 5.648333v2.043333 1.441667 2.525s-.6 5.528333 5.646667 5.528333h5.65 1.081666 8.401667v-4.448333z"/><path d="m168.008333 148.338333h5.77v-17.065h-5.77z" mask="url(#a)"/><path d="m83.4806667 139.6795h-9.7316667v-2.04-.963333c0-.478334.725-1.078334 1.08-1.078334h7.3283333c.8433334 0 1.3233334.6 1.3233334 1.078334v.963333zm-.1216667-8.406667h-9.4933333c-6.1266667 0-5.645 5.651667-5.645 5.651667v.715 10.698333h5.5283333v-4.323333h9.7316667v4.323333h5.53v-10.698333-.715s.72-5.651667-5.6516667-5.651667z" mask="url(#a)"/><path d="m38.9861667 142.6905s-.5983334 5.648333 5.53 5.648333h13.5766666v-4.325h-12.6166666c-.7183334 0-1.44-.726666-1.44-1.446666v-11.295h-5.05z" mask="url(#a)"/><path d="m149.510167 138.242333h-7.811667c-.961667 0-1.681667-.355-1.681667-1.2 0-.723333.72-1.441666 1.441667-1.441666h13.703333v-4.325h-15.023333c-3.008333 0-5.41 2.285-5.41 4.926666 0 3.725 2.645 5.165 5.888333 5.165h7.811667c.961667 0 1.681667.36 1.681667 1.2 0 .72-.72 1.445-1.441667 1.445h-13.94v4.326667h15.381667c2.765 0 5.288333-2.043333 5.288333-4.926667 0-3.485-2.643333-5.17-5.888333-5.17" mask="url(#a)"/><path d="m232.623833 138.242333h-7.811666c-.963334 0-1.683334-.355-1.683334-1.2 0-.723333.72-1.441666 1.441667-1.441666h13.703333v-4.325h-15.023333c-3.006667 0-5.41 2.285-5.41 4.926666 0 3.725 2.646667 5.165 5.89 5.165h7.81c.961667 0 1.681667.36 1.681667 1.2 0 .72-.72 1.445-1.441667 1.445h-13.94v4.326667h15.381667c2.765 0 5.29-2.043333 5.29-4.926667 0-3.485-2.645-5.17-5.888334-5.17" mask="url(#a)"/><path d="m116.604167 138.242333h-7.811667c-.961667 0-1.683333-.355-1.683333-1.2 0-.723333.721666-1.441666 1.441666-1.441666h13.703334v-4.325h-15.023334c-3.006666 0-5.41 2.285-5.41 4.926666 0 3.725 2.645 5.165 5.89 5.165h7.81c.961667 0 1.683334.36 1.683334 1.2 0 .72-.721667 1.445-1.441667 1.445h-13.941667v4.326667h15.383334c2.763333 0 5.288333-2.043333 5.288333-4.926667 0-3.485-2.645-5.17-5.888333-5.17" mask="url(#a)"/><path d="m193.561333 101.132833c-25.92 0-47.005-21.0866663-47.005-47.0066663s21.085-47.00500003 47.005-47.00500003 47.005 21.08500003 47.005 47.00500003-21.085 47.0066663-47.005 47.0066663m-61.595-41.393333-10.38 8.0833333c-1.348333 1.075-3.313333.855-4.39-.4916666-1.076666-1.35-.856666-3.315.491667-4.3916667l10.38-8.0833333c1.348333-1.0766667 3.313333-.855 4.39.4916666 1.076667 1.3483334.858333 3.315-.491667 4.3916667m-26.566666 0-10.3800003 8.0833333c-1.3483334 1.075-3.3133334.855-4.39-.4916666-1.0766667-1.35-.8566667-3.315.4916666-4.3916667l10.3799997-8.0833333c1.348334-1.0766667 3.313334-.855 4.39.4916666 1.076667 1.3483334.856667 3.315-.491666 4.3916667m-54.2050003 22.5433333c-15.525 0-28.1566667-12.6316666-28.1566667-28.1566666 0-15.5266667 12.6316667-28.1566667 28.1566667-28.1566667 15.5266666 0 28.1566666 12.63 28.1566666 28.1566667 0 15.525-12.63 28.1566666-28.1566666 28.1566666m168.9616663-71.9066666v-3.36333337c-7.861666-4.455-16.931666-7.01333333-26.595-7.01333333h-26.59v2.93333333h-89.1866663v-2.93333333h-26.59c-9.6966667 0-18.7983334 2.57666667-26.68 7.06166667v3.36833333c-14.7016667 8.995-24.51500003 25.1983333-24.51500003 43.6983333 0 28.2733334 22.92166663 51.1933337 51.19500003 51.1933337 11.295 0 21.7316666-3.668334 30.1983333-9.861667h81.971667c8.466666 6.193333 18.901666 9.861667 30.196666 9.861667 28.273334 0 51.195-22.9200003 51.195-51.1933337 0-18.535-9.85-34.7666666-24.6-43.7516666" mask="url(#a)"/><path d="m199.082167 42.5586667c-4.031667 3.0866666-9.803334 2.32-12.888334-1.7116667-3.086666-4.0333333-2.32-9.8033333 1.711667-12.89 4.031667-3.085 9.803333-2.3183333 12.888333 1.715 3.086667 4.03 2.32 9.8-1.711666 12.8866667m-25.19 19.28c-4.031667 3.0866666-9.801667 2.32-12.888334-1.7116667-3.086666-4.0333333-2.318333-9.8033333 1.713334-12.8883333 4.031666-3.0866667 9.801666-2.32 12.886666 1.7133333 3.086667 4.03 2.32 9.8016667-1.711666 12.8866667m28.295-33.235c-3.67-4.7933334-10.555-5.7083334-15.348334-2.04l-25.188333 19.2833333c-4.793333 3.6683333-5.708333 10.5533333-2.04 15.3466667 3.67 4.7933333 10.553333 5.7066666 15.346667 2.0383333l25.191666-19.28c4.793334-3.67 5.706667-10.5533333 2.038334-15.3483333" mask="url(#a)"/><path d="m223.224333 61.32c-4.031666 3.0866667-9.801666 2.32-12.886666-1.7116667-3.088334-4.0316666-2.321667-9.8033333 1.711666-12.89 4.031667-3.085 9.801667-2.3183333 12.886667 1.7133334 3.086667 4.0333333 2.32 9.8016666-1.711667 12.8883333m-25.188333 19.28c-4.033333 3.0866667-9.803333 2.32-12.89-1.7116667-3.085-4.0316666-2.318333-9.8033333 1.713333-12.8883333 4.031667-3.0866667 9.801667-2.32 12.888334 1.7116667 3.086666 4.0333333 2.32 9.8033333-1.711667 12.8883333m28.293333-33.235c-3.668333-4.7933333-10.553333-5.7083333-15.348333-2.04l-25.188333 19.2816667c-4.793334 3.67-5.708334 10.5533333-2.04 15.3483333 3.67 4.7933333 10.553333 5.7066667 15.346666 2.0383333l25.191667-19.28c4.793333-3.67 5.706667-10.555 2.038333-15.3483333" mask="url(#a)"/><path d="m70.831 47.111h-12.6v-12.6c0-.575-.4716667-1.0466667-1.0466667-1.0466667h-12.0616666c-.5766667 0-1.0483334.4716667-1.0483334 1.0466667v12.6h-12.6c-.575 0-1.0466666.47-1.0466666 1.0466667v12.0616666c0 .5766667.4716666 1.0466667 1.0466666 1.0466667h12.6v12.6016667c0 .575.4716667 1.0466666 1.0483334 1.0466666h12.0616666c.575 0 1.0466667-.4716666 1.0466667-1.0466666v-12.6016667h12.6c.575 0 1.0466667-.47 1.0466667-1.0466667v-12.0616666c0-.5766667-.4716667-1.0466667-1.0466667-1.0466667" mask="url(#a)"/></g></svg>