<svg height="146" viewBox="0 0 530 146" width="530" xmlns="http://www.w3.org/2000/svg" xmlns:xlink="http://www.w3.org/1999/xlink"><mask id="a" fill="#fff"><path d="m111.845032.12601124h-111.84465941v27.40917396h111.84465941z" fill="#fff" fill-rule="evenodd"/></mask><mask id="b" fill="#fff"><path d="m0 69.5540226v-69.40501364h35.7497034v69.40501364z" fill="#fff" fill-rule="evenodd"/></mask><mask id="c" fill="#fff"><path d="m10.5269653.02248436v13.63268644h-10.01253998v-13.63268644z" fill="#fff" fill-rule="evenodd"/></mask><g fill="none" fill-rule="evenodd"><path d="m99.1741726 25.6615848h-84.0232167c-7.08297343.0271789-11.39758852-5.2554099-11.39758852-11.7338701 0-6.48710795 4.3369706-11.72522218 11.39758852-11.73387001h84.0232167c7.0593764.00864783 11.4062824 5.24676206 11.4062824 11.73387001 0 6.4784602-4.320825 11.761049-11.4062824 11.7338701" fill="#fefefe"/><path d="m97.1959576 24.1761209h-82.5502364c-6.9600181.0247081-11.19763085-4.6290599-11.19763085-10.3366278 0-5.71498025 4.25872629-10.33045072 11.19763085-10.33786315h82.5502364c6.9351784.00741243 11.2063244 4.6228829 11.2063244 10.33786315 0 5.7075679-4.246306 10.3613359-11.2063244 10.3366278zm.0360172-24.0508509h-82.6247547c-8.73976585-.01976647-14.60684751 6.2326147-14.60684751 13.7302834 0 7.4914917 5.85341996 13.6759256 14.62423511 13.6796318h82.5937054c8.7708149-.0037062 14.6267189-6.1881401 14.6267189-13.6796318 0-7.4976687-5.877017-13.75004987-14.6130572-13.7302834zm4.3506322 10.9234448c-.892979 0-1.618291-.7202407-1.618291-1.60479016 0-.88825569.725312-1.61590882 1.618291-1.61590882.888011 0 1.613323.72765313 1.613323 1.61590882 0 .88454946-.725312 1.60479016-1.613323 1.60479016zm0-3.59132027c-1.104114 0-1.9946089.88949109-1.9946089 1.98653011 0 1.09827446.8904949 1.98282386 1.9946089 1.98282386s1.997093-.8845494 1.997093-1.98282386c0-1.09703902-.892979-1.98653011-1.997093-1.98653011zm-.018629 1.83333998h-.260815v-.63499781h.232249c.326639 0 .488096.10006775.488096.32491133 0 .22237277-.146553.31008648-.45953.31008648zm1.00724-.34220699c0-.42497908-.306768-.6312916-.942658-.6312916h-.866897v2.20025508h.5415v-.90431597h.260815l.427238.90431597h.594906l-.491822-.98461725c.3018-.08277209.476918-.29279082.476918-.58434623zm-46.1281288 4.03112428c.2980736-.5213407.8644134-.7783048 1.3686545-.7783048.510451 0 1.0656131.2569641 1.3748644.7783048.2434267.4336269.2533625.9376718.2471527 1.6875622h-3.2490021c-.0062098-.7498904.0074519-1.2539353.2583305-1.6875622zm7.0891833 3.0292113c0-2.6635317-2.5783365-4.8711992-5.7553041-4.8711992-3.1707577 0-5.7441263 2.1545451-5.7441263 4.8205476 0 2.6598255 2.5733686 4.8143706 5.7441263 4.8143706 2.6317414 0 4.8585994-1.491133 5.5367168-3.5196669l-3.8948281.0012354s.0111777.0420038.0111777.5176344c0 1.5751405-1.0432575 1.9198183-1.6182911 1.9198183-.5800015 0-1.626985-.3446778-1.626985-1.9198183v-1.7592157zm8.1647322-4.7278923c-1.2866843.0358268-2.3585072.5818755-3.112385 1.2909975-.0037259-.2063125 0-.8981389 0-.8981389h-3.8699886v8.5811183h3.8699886s-.0037259-5.2702348-.0037259-5.634679c0-.7461842.7923789-1.5776113 1.8468142-1.5776113 1.0718229 0 1.7896835.8314271 1.7896835 1.5776113v5.634679h3.8724726v-4.6685929c.0260814-3.3998326-2.9298149-4.3510939-4.3928594-4.305384zm-31.7026093 0c-1.2916522.0358268-2.3597492.5818755-3.112385 1.2909975v-.8981389h-3.8737146l.0074518 8.5811183h3.8662628v-5.634679c0-.7461842.788653-1.5776113 1.8542661-1.5776113 1.0618871 0 1.7785057.8314271 1.7785057 1.5776113v5.634679h3.8761985v-4.6685929c.0211135-3.3998326-2.9372668-4.3510939-4.3965853-4.305384zm44.532193 4.6389432v1.5257243c0 1.3255888-.9203022 1.671502-1.5226592 1.671502-.6284385 0-1.5276271-.3459132-1.5276271-1.671502v-1.5281951-1.5257243c0-1.3305305.8991886-1.6640896 1.5276271-1.6640896.602357 0 1.5226592.3335591 1.5226592 1.6640896zm-.0211135-3.8149285c-.6271965-.3533256-1.2866843-.684414-2.2082285-.7708923-2.8180373-.2495516-4.9629251 2.2299048-4.9629251 4.4906947 0 2.9933846 2.3162801 4.0990714 2.6677586 4.2584386 1.3164916.6065835 3.0018493.6065835 4.4897333-.3187343 0 .076595.0037259.4941617.0037259.4941617h3.8513591v-12.90379793h-3.8414233zm12.3824733 5.6149126c0 1.3614155-.8147344 1.9247599-1.5959356 1.9247599-.7824431 0-1.5946937-.5633444-1.5946937-1.9247599v-1.8555773-1.7913362c0-1.3577094.8159765-1.9173475 1.5946937-1.9173475s1.5897258.5596381 1.5897258 1.9173475c0 .5250468 0 1.4787789.0062098 1.8271629zm-1.5673702-6.6353565c-3.1484022 0-5.6969313 2.1644283-5.6969313 4.8193121 0 2.6635317 2.5485291 4.8267246 5.6969313 4.8267246s5.710593-2.1631929 5.710593-4.8267246c0-2.6548838-2.5621908-4.8193121-5.710593-4.8193121zm-68.3644179-1.09456826h3.9084899v-2.64005899h-3.9084899zm.0074519 10.26868056h3.901038v-8.5848245h-3.901038zm25.585891-8.565058v-1.2724665h-2.1088706v-1.73450759h-3.9084898l.0062099 1.73821389h-2.1262583v1.2687602h2.1225323l-.0024839 8.565058h3.9122157l-.0037259-8.565058zm-31.8255647 4.6685928-5.5913636-9.00733273h-4.036413v12.90379793h4.0090896v-9.0023911l5.622413 9.0023911h4.0003958v-12.90379793h-4.0078477z" fill="#ed1c24" mask="url(#a)" transform="translate(1.241973 .088469)"/><g fill="#e02625"><path d="m389.789829 145.866176h-13.326373v-8.109194l5.800015-12.166261c-1.253151 3.430718-2.038078 6.70701-3.135983 9.82517l-1.097904 5.14793h2.824247l4.232645-16.376519h-4.546864l-3.450202 7.642211c-.156488.468218-.469466 1.090862-.625954 1.714741v-7.485315-1.871637-5.459252h13.326373zm-13.326373 0h-22.108366v-5.302355h1.723859l.627196-2.339856h-2.351055v-4.991033h3.44896l.627196-2.651178h-4.076156v-2.028534l.627196-2.182959h4.861084l.469466-2.182959h-5.957746v-5.459252h22.108366v5.459252h-4.235129l-4.546864 16.376519h2.980736l1.409639-5.14793c.783685-3.11816 1.568613-6.394452 2.195809-9.82517l-.784927 14.9731h1.568612l1.412124-2.806839zm0-19.807237-.470708 5.770574c0 1.403419-.314219 3.275056-.627197 4.522815.312978-.936437.627197-1.871638 1.097905-2.808074zm-22.108366 19.807237h-17.405013v-15.128761l1.097904-4.367154h3.292471l.627197-2.182959h-5.017572v-5.459252h17.405013v5.459252h-1.568612l-4.546865 16.376519h6.115477zm0-17.312956-.537775 2.028534h.537775zm0 4.679712h-1.254393l-1.255635 4.991033h2.510028zm-17.405013 12.633244h-19.598338v-5.146694c1.723859-.623879 3.291229-2.184195 3.605448-4.367154.314219-1.55908.314219-2.651178-.156489-3.431953-.627196-.935201-1.959833-2.047065-2.901249-2.827841-.156489-.155661-.305526-.337265-.54771-.602877v-2.494281c.470707-.625115 1.097904-.936437 1.723859-.936437 1.7251 0 1.410881 1.714741.783685 3.119396h2.823005c.314219-1.714741 1.412123-5.303591-3.135983-5.303591-.783685 0-1.56737.156897-2.194566.312558v-5.459252h19.598338v5.459252h-4.390376l-.469466 2.182959h3.291229l-3.605448 14.19356h2.510028l2.664033-9.826406zm-19.598338-7.797872c.470707-.311322.616018-.782011.783685-1.55908.207409-.96238-.055889-1.478779-.470708-1.872873-.160215-.151955-.156489-.155661-.312977-.311322zm0 7.797872h-17.090794v-13.881002l5.487038-7.797872h-3.134741l-2.352297 3.79022v-.670825-8.578647h17.090794v5.459252c-1.568613.623879-2.510028 1.871637-3.137225 3.8977-.312977.936437-.312977 1.715977 0 2.496752.784927 1.715977 2.03932 2.495517 3.137225 3.743275v3.743275c-.31422.311322-.784927.466983-1.412124.466983-1.410882 0-1.538805-1.022915-1.087969-2.878492l.147795-.863547h-2.821763l-.314219 1.247758c-.470708 2.805603 0 4.991033 3.44896 4.991033.784927 0 1.412123-.156896 2.03932-.312557zm0-18.8708c-.156489.311321-.252121.565815-.29559.862312-.111778.788188-.01863 1.320647.29559 1.631969zm-17.090794 18.8708h-21.637658v-5.146694c1.881589-.623879 3.439024-2.147133 3.918425-4.367154.37135-1.712271.021114-2.998327-.649552-3.729686-.896704-.97844-1.701503-1.72833-2.485188-2.509106-.312978-.312557-.470708-.466983-.783685-.77954v-2.027299c.398673-.74989.783685-1.247758 1.56737-1.247758 1.412123 0 1.412123 1.714741.941416 3.119396h2.821763c.156488-1.714741 1.410881-5.303591-2.821763-5.303591-.941416 0-1.725101.156897-2.508786.312558v-5.459252h21.637658v9.240824c-.607325 1.030327-1.097905 1.989001-1.568613 2.925438l-.2397-2.557287-.387496-4.149723h-2.821763l1.410881 9.201291-2.038078 7.175228h2.823005l1.723859-7.175228 1.097905-1.403419zm-21.637658-7.797872c.312977-.311322.570065-.793129.783685-1.55908.235975-.853664-.150279-1.333001-.536533-1.744391-.086938-.095126-.247152-.284143-.247152-.284143zm0 7.797872h-29.634724v-15.128761l1.254393-4.367154h3.292471l.627196-2.182959h-5.17406v-5.459252h29.634724v5.459252c-1.568613.623879-2.665275 1.871637-3.293713 3.8977-.156489.936437-.243427 1.925995.078244 2.574583.870623 1.751803 2.117564 2.417686 3.215469 3.821105v3.587614c-.31422.311322-.784927.466983-1.568613.466983-1.410881 0-1.410881-1.090862-.783685-2.806838l.314219-.935201h-2.823005l-.312977 1.247758c-.941416 2.805603-.314219 4.991033 3.135982 4.991033.625955 0 1.410882-.156896 2.038079-.312557zm0-18.559479c-.124198.197665-.11923.172957-.193748.389153-.271992.7956-.120472 1.325589.193748 1.638146zm-29.634724 18.559479h-21.010462v-5.302355h2.352298l4.546864-16.376519h-2.821764l-.784927 3.276292c-.627196 1.557845-.940173 3.11816-1.254393 4.52158-.312977 1.403419-.469466 3.119395-.783685 4.52405 0-2.496752-.312977-4.52405-.312977-6.395688l-.627197-5.926234h-.314219v-5.459252h21.010462v5.459252h-4.232645l-.470708 2.182959h3.292471l-3.60669 14.19356h2.508786l2.508786-9.826406zm-21.010462 0h-18.814653v-5.302355h1.88159l.625954-2.339856h-2.507544v-4.991033h3.292471l.941416-2.651178h-4.233887v-2.652413l.469466-1.55908h5.174061l.470708-2.182959h-6.114235v-5.459252h18.814653v5.459252h-2.665274l-4.390376 16.376519h2.979494l.783685-3.119396c.312977-1.092097.627197-2.808074 1.097904-4.52405.312978-1.714742.627197-3.430718.940174-4.835373 0 2.80931 0 4.835373.157731 6.708246l.940174 5.770573h.156488zm-18.814653 0h-21.794146v-8.109194l5.801257-12.166261c-1.097905 3.430718-1.88159 6.70701-2.823005 9.82517l-1.410882 5.14793h2.821763l4.077398-16.376519h-4.077398l-3.605448 7.642211c-.157731.468218-.470708 1.247758-.783685 2.027298v-5.92747l.470708-3.742039h-.470708v-5.459252h21.794146v5.459252h-1.725101l-4.232644 16.376519h5.957745zm0-17.936835-.627196 2.652413h.627196zm0 5.303591h-1.254393l-1.412123 4.991033h2.666516zm-21.794146 12.633244h-23.206271v-5.302355h2.508786l4.390376-16.376519h-2.821763l-.784928 3.276292c-.625954 1.557845-.783685 3.11816-1.096662 4.52158-.314219 1.403419-.627196 3.119395-.941416 4.52405 0-2.496752-.156488-4.52405-.156488-6.395688l-.627197-5.926234h-.470708v-5.459252h23.206271v5.459252h-4.077399l-4.232644 16.376519h2.508786l1.409639-5.14793c.941416-3.11816 1.726343-6.394452 2.352298-9.82517h.314219l-1.254393 14.9731h1.725101l1.254393-2.806839zm0-17.936835-.31422 3.900172c0 1.403419-.312977 3.275056-.627196 4.522815.314219-.77954.627196-1.715977.941416-2.495517zm-23.206271 17.936835h-18.658164v-8.109194l3.605448-13.56968h-2.978251l-.627197 2.651177v-8.110429h18.658164v5.459252h-2.665274l-4.233887 16.376519h2.823005l.783685-3.119396c.314219-1.092097.627197-2.808074.940174-4.52405.470708-1.714742.784927-3.430718 1.097904-4.835373 0 2.80931 0 4.835373.31422 6.708246l.783685 5.770573h.156488zm-18.658164 0h-18.030968v-5.302355h2.821764l1.097904-16.376519h-3.60669l-.312978.623879v-6.083131h18.030968v8.110429l-3.60669 13.725342h2.823005l.783685-2.806839zm-18.030968-5.302355.312978-4.054597h-.312978zm0-6.551349h.625955s.961287-7.45443 1.097904-8.421751h-.312977c-.308009.832662-1.410882 4.522815-1.410882 4.522815zm0 11.853704h-1.881589v-9.356952h1.881589v4.054597zm-1.881589-27.138126h1.881589v6.083131l-1.881589 3.742039zm1.881589 11.385486v3.898936h-1.7251zm-1.881589 15.75264h-15.523424v-14.503646l1.254393-4.992269h3.135983l.783685-2.182959h-5.174061v-5.459252h15.523424v9.82517l-5.802499 12.010601h2.823005l2.038078-4.054597h.941416zm-15.523424 0h-20.5397535v-12.321922c.3601722.058064.5265967.088949.7836851.156896.9588034.253258.6271965 1.714741.3142193 2.808074-.3142193.935201-.7836852 3.118161-.7836852 4.054597h3.1359825v-.312557c-.6284385-.311322.4694659-4.210258.7824432-5.146695.3142192-1.715976.3142192-2.888375-1.4108817-2.888375v-.134659c2.0393201-.155661 2.8230052-2.280556 3.4502017-3.996533.4694659-2.805603-.9414157-3.8977-3.1359824-3.8977h-3.1359825v-5.459252h20.5397535v5.459252h-4.076156l-.627197 2.182959h3.135983l-3.60669 14.19356h2.823005l2.351055-9.201291zm-20.5397535-14.660543h.7836851c1.254393 0 2.0380781-.77954 2.3522974-2.495516.6271965-1.714741-.3142193-2.339856-1.0979044-2.339856h-2.0380781v.017296zm0 14.660543h-18.8146528v-5.302355h1.8803475l.4707078-2.339856h-2.3510553v-4.991033h3.2924711l.4694658-2.651178h-3.7619369v-2.652413l.4694658-1.55908h5.017572l.6271965-2.182959h-6.1142343v-5.459252h18.8146528v5.459252h-2.1945667l-4.3903755 16.376519h2.9782519l1.5686122-7.175228h.6271965c.4694659 0 .9376898.063005 1.4108816.155661zm0-19.478619-1.4108816 4.818076h1.4108816zm-18.8146528 19.478619h-16.7778168v-14.503646l1.254393-4.992269h3.4502017l.6271965-2.182959h-5.3317912v-5.459252h16.7778168v5.459252h-1.8815895l-4.2338869 16.376519h6.1154764zm0-17.936835-.7849271 2.652413h.7849271zm0 5.303591h-1.254393l-1.4121236 4.991033h2.6665166zm-16.7778168 12.633244h-20.6962423v-5.302355h2.8217632l4.2338869-16.376519h-2.8230052l-.9401738 3.276292c-.3142192 1.557845-.7836851 3.11816-1.0979043 4.52158-.3129773 1.403419-.6271965 3.119395-.7836852 4.52405 0-2.496752-.3800438-4.488224-.510451-6.443869l-.4309647-5.878053h-.4694659v-5.459252h20.6962423v5.459252h-4.0761562l-.7849271 2.182959h3.2937131l-3.6066903 14.19356h2.8230052l2.3510553-9.201291zm-20.6962423 0h-20.6974843v-5.302355h1.5686122l.9401738-2.339856h-2.508786v-4.991033h3.2924711l.9414157-2.651178h-4.2338868v-2.652413l.4707079-1.55908h4.8610833l.7836851-2.182959h-6.1154763v-5.459252h20.6974843v5.459252h-2.6652746l-4.2338868 16.376519h2.8217632l.9165763-3.16387c.3874956-1.330531.6619717-2.882199 1.0345637-4.530228.3850117-1.699916.789895-3.34671.8718652-4.784721-.1217134 2.134779 0 4.835373.3129773 6.708246l.7849271 5.770573h.1564886zm-20.6974843 0h-12.22971064v-27.138126h12.22971064v5.459252h-1.7238589l-4.2338868 16.376519h5.9577457zm0-17.936835-.6271965 2.652413h.6271965zm0 5.303591h-1.254393l-1.4108816 4.991033h2.6652746z"/><path d="m18.1882015 26.6632561c1.4108817 2.4955167 7.9958239 13.4127845 8.780751 15.4400829.9401737 1.7159766 1.5673702 4.8353725.9401737 7.7991074l-2.508786 13.4127845c-.7836851 3.5863787-3.7631789 6.2387917-7.6828465 6.2387917h-11.60251418c-3.60669033 0-6.11547631-2.808074-6.11547631-6.2387917v-1.2477583l3.13598247-17.4673815h7.99706582l-2.66527463 14.9718648v.1568963c0 1.246523.94017375 2.181724 2.03807813 2.181724h4.3903754c1.5673703 0 2.8217633-1.090862 3.1359825-2.4942813l1.8815895-9.8251704c.3129773-2.0285338 0-2.808074-1.7251009-5.9274698-1.4108816-2.4955167-6.8991614-12.7901408-8.62302027-15.9083012-2.03932009-4.0545969-2.19580872-5.9274699-1.72634283-9.3581876l2.1958087-12.00936522c.7836851-3.58637868 4.0761562-6.23879172 7.6828466-6.23879172h11.7602447c3.2924711 0 6.271965 2.65241304 6.271965 6.23879172 0 .31255729 0 .77954012-.1577306 1.24775835l-3.1359825 16.84350227h-8.1535544l2.6665166-14.3479856v-.31255727c0-.93520106-.9414158-1.87040211-2.0380782-1.87040211h-4.546864c-1.4121236 0-2.6665166 1.09086199-2.8230053 2.18295938l-1.5686122 7.7991074c-.6259545 4.0545969.3142193 5.9262344 2.1958087 8.733073" mask="url(#b)" transform="translate(0 42.9361)"/><path d="m39.1986631 102.507686v.155661c0 1.247758.9401738 2.184194 2.0380781 2.184194h4.3903755c1.5673702 0 2.8230052-1.092097 3.1359824-2.495516l10.8188291-59.2672863h8.1535544l-11.6037561 63.1662223c-.6271965 3.587614-3.763179 6.238791-7.6816046 6.238791h-11.6037561c-3.4489598 0-6.270723-2.806838-6.270723-6.238791v-1.246523l11.2882949-61.9196993h8.1535544z"/><path d="m102.856499 43.0851094h18.815895l-1.254393 7.7978719h-10.505852l-4.076156 21.9901966h10.50461l-1.410882 7.7991073h-10.348121l-4.390375 24.1743918h10.348121l-1.410882 7.642211h-18.9723834z"/><path d="m157.420731 112.488641 12.700419-69.4037787h8.310043c3.60669 37.1189576 3.763179 46.1645879 3.763179 53.0284942.312977-7.1739928 1.254393-17.6242777 7.682846-53.0284942h8.310043l-12.542688 69.4037787h-8.467773c-3.44896-37.1189581-3.606691-44.9168301-3.606691-51.7795009-.312977 8.2648547-1.253151 16.3765194-7.682846 51.7795009z"/><path d="m200.226457 112.488641h-8.310043l12.54393-69.4037787h8.466532z"/><path d="m269.528937 50.883599h-5.801257l-11.289537 61.605906h-8.624262l11.447268-61.605906h-5.958988l1.254393-7.7978719h20.383265z"/><path d="m274.3894 43.0851094h19.128872l-1.410882 7.7978719h-10.66234l-3.763179 21.9901966h10.348121l-1.40964 7.7991073h-10.505851l-4.233887 24.1743918h10.191632l-1.410881 7.642211h-18.815895z"/><path d="m206.654662 112.488641 12.700419-69.4037787h8.310043c3.763179 37.1189576 3.919668 46.1645879 3.919668 53.0284942.314219-7.1739928 1.254393-17.6242777 7.682846-53.0284942h8.310043l-12.699176 69.4037787h-8.311285c-3.605449-37.1189581-3.763179-44.9168301-3.763179-51.7795009-.312978 8.2648547-1.253151 16.3765194-7.682847 51.7795009z"/><path d="m286.305885 112.488641 12.70166-69.4037787h8.466532c3.44896 37.1189576 3.605448 46.1645879 3.761937 53.0284942.156489-7.1739928 1.097904-17.6242777 7.526358-53.0284942h8.466532l-12.699177 69.4037787h-8.467774c-3.448959-37.1189581-3.605448-44.9168301-3.605448-51.7795009-.314219 8.2648547-1.255635 16.3765194-7.5276 51.7795009z"/><path d="m82.3172422 42.929572h8.7795089c3.764421 0 6.5861842 2.8068385 6.5861842 6.551349 0 .1556609 0 .4682182-.3142192 1.090862l-4.5468641 24.4869486c-.6271965 3.7432751-3.6054484 6.2387918-7.3686273 6.2387918h-3.1359825v-7.6434465h.3129773c1.4121236 0 2.5087859-1.0920974 2.8230052-2.4942812l3.4489597-18.092496v-.3125573c0-1.0920974-.9414157-1.8716375-2.0380781-1.8716375h-4.5468641zm-22.1083659 69.092456 12.8569071-69.092456h9.2514588v7.9535329h-2.508786l-3.9196676 22.770972h6.4284536v7.6434465h-7.8393352l-5.802499 30.7245046z"/><path d="m136.253905 84.4156838v-.1556609c0-.7795401-.156488-1.4046547-.627196-1.7159766v-8.5774121h.470708c1.410881 0 2.508785-1.0920974 2.821763-2.4967521l3.135982-17.9355996v-.3113219c0-1.0920974-.627196-2.0272985-2.038078-2.0272985h-4.390375v-7.7978719h9.407947c3.44896 0 5.763998 2.7228311 6.078217 6.3092098 0 .3125573 0 .6831785-.120471 1.1761049l-3.919668 21.6788746c-.314219 3.1206313-2.195809 5.1466944-5.331791 5.9274699 2.195809.935201 3.60669 3.1193958 3.293713 5.7705735v1.0920974l-5.017572 26.9824657h-4.390375v-24.0199662zm-.627196-1.8716375c-.312978-.1568963-.783685-.3113219-1.254393-.3113219h-6.899162l-5.330549 30.1018616h-8.467774l12.700419-68.9367958h9.251459v7.7978719h-2.194567l-4.233887 22.7709721h6.428454zm0 29.7905397v-24.0199662l-4.390376 24.0199662z"/><path d="m339.616096 43.2407703h12.073222c3.292472 0 6.115477 2.808074 6.115477 6.3956881 0 .3125573-.156489.6238791-.156489 1.0920974l-10.036386 55.5227752c-.782443 3.430718-3.605448 5.926235-7.525116 5.926235h-.470708v-8.578648c.31422-.311322.470708-.778304.627197-1.246523l9.049017-48.7959988c.028565-.1334236.044711-.1766628.044711-.4892201 0-1.0920974-1.097904-2.0285338-2.194567-2.0285338h-7.526358zm-6.899161 0h6.899161v7.797872h-.156488l-9.564436 53.6523737h7.368627c.941416 0 1.725101-.466983 2.352297-1.092098v8.578648h-19.756068z"/><path d="m371.445263 43.2407703h11.760245c3.292471 0 5.801257 2.808074 5.801257 6.3956881v1.0920974l-9.877414 55.5227752c-.784927 3.430718-3.920909 5.926235-7.684088 5.926235v-9.356952-.468219l9.093728-48.9726616v-.3125573c0-1.0920974-.783685-2.0285338-1.880348-2.0285338h-4.548106c-1.253151 0-2.351055.7807755-2.665274 1.7159765zm-.156489 0h.156489v9.5138485c-.156489.1568964-.156489.3125573-.156489.6251146l-9.093728 48.9726616v.312558c0 1.090862.784927 2.026063 1.880347 2.026063h4.548107c1.254393 0 2.351055-.77954 2.821763-1.870402v9.356952h-11.759003c-3.44896 0-5.958988-2.495517-5.958988-5.926235v-1.404654l9.878656-55.2102186c.783685-3.5876141 3.919667-6.3956881 7.682846-6.3956881z"/><path d="m385.399329 104.691263h.784927c.783685 0 1.410882.623879 1.568612 1.55908 0 .468218 0 1.092097-.784927 1.55908 1.253151.625115.156489 2.184195.941416 2.652413v.155661h-.941416c-.312977-.935201.31422-2.339856-1.097904-2.495517h-.470708v-.623879h.627197c.941415 0 1.568612-1.871637-.312978-2.027298h-.314219zm0 8.109194c2.821763 0 4.861083-2.338621 4.861083-4.834137 0-2.651178-2.03932-5.146695-4.861083-5.146695v.622644c2.510028 0 4.233887 2.184195 4.233887 4.524051 0 2.495516-1.723859 4.211493-4.233887 4.367154zm-2.195809-2.18296v-5.926234h2.195809v.77954h-1.410882v2.027298h1.410882v.623879h-1.410882v2.495517zm2.195809-7.797872c-2.821763 0-5.01633 2.495517-5.01633 5.146695 0 2.495516 2.194567 4.834137 5.01633 4.834137v-.466983c-2.508786 0-4.232645-1.871638-4.232645-4.367154 0-2.339856 1.723859-4.524051 4.232645-4.524051z"/><path d="m444.460995 132.144047h-4.736886l7.151282-39.5724711h4.82755z"/><path d="m466.73032 132.144047h-4.736886l7.15004-39.5724711h4.828792z"/><path d="m465.359803 97.0170548h-3.307375l-6.437147 35.1274862h-4.916972l6.526569-35.1274862h-3.396797l.715377-4.4462201h11.621144z"/><path d="m414.727534 92.5713289h10.907009l-.804799 4.44622h-6.079459l-2.144887 12.5393541h5.900614l-.80604 4.44622h-5.988795l-2.413154 13.783405h5.809951l-.804799 4.357271h-10.728165z"/><path d="m488.593397 132.144047 7.240704-39.5724711h4.82755c1.967285 21.1649461 2.056707 26.3215241 2.144887 30.2340491.090665-4.089188.625955-10.047543 4.29226-30.2340491h4.82755l-7.241946 39.5724711h-4.82755c-1.967286-21.164947-2.055466-25.609932-2.055466-29.523692-.178844 4.713067-.715376 9.337185-4.292259 29.523692z"/><path d="m432.651319 92.8379291h6.884258c1.877864 0 3.486219 1.601084 3.486219 3.6456781 0 .1791336-.016146.3471486-.070792.638704l-5.740401 31.6424108c-.445868 1.955645-2.055466 3.37883-4.291017 3.37883h-.268267v-4.890965c.180087-.177898.268267-.444746.357689-.711593 0 0 5.025023-27.9819076 5.025023-28.1610412 0-.6226438-.465739-1.0945682-1.091694-1.0945682h-4.291018zm-3.933329 0h3.933329v4.4474555h-.089422l-5.453504 30.5898454h4.201595c.537775 0 .983643-.266847 1.341331-.622643v4.890965h-11.263455z"/><path d="m481.380513 92.8379291h6.704171c1.877864 0 3.308617 1.601084 3.308617 3.6456781v.6226438l-5.633591 31.658471c-.445868 1.955645-2.233068 3.37883-4.379197 3.37883v-5.335711-.266847l5.185238-27.9226082v-.1778982c0-.6226438-.448352-1.155103-1.073065-1.155103h-2.591998c-.716619 0-1.341331.4435101-1.520175.9772048zm-.089422 0h.089422v5.4246603c-.089422.0889491-.089422.1778982-.089422.3557964l-5.185239 27.9226082v.179133c0 .622644.445869 1.155103 1.071823 1.155103h2.59324c.715377 0 1.341331-.444745 1.609598-1.067389v5.335711h-6.705414c-1.966044 0-3.398039-1.423185-3.398039-3.37883v-.799307l5.632349-31.4818078c.448352-2.0445941 2.235552-3.6456781 4.381682-3.6456781z"/><path d="m459.941943 56.4514427.392463-4.4017456-1.224585 4.4017456-3.457654 11.837644h3.471316zm-1.956108 26.205396.799831-9.7065716h-4.435087l-2.871442 9.7065716h-4.946779l.018629-.103774 12.401103-37.5550553c.386254-1.1699279 1.481674-1.9593512 2.71868-1.9593512h1.029596c1.005998 0 1.812039.8314271 1.771053 1.8321045l-1.468012 37.682302-.019872.103774z"/><path d="m505.136977 82.6567152h-4.736886l7.15004-39.5724706h4.828792z"/><path d="m441.528199 43.0839975 5.072219.0382975-6.502972 35.1769021h5.809951l-.803557 4.357271h-10.728165z"/><path d="m2.03460059 4.46870444h2.59199818c.62595452 0 1.07306489.53493006 1.07306489 1.15633843v.17789822l-1.4580766 7.85222971h4.62014051l1.66548613-9.36436458v-.62140836c0-2.04582953-1.42951121-3.6469135-3.30737477-3.6469135h-6.70541361v5.42466029c.17884415-.53369466.80479867-.97844021 1.52017527-.97844021" mask="url(#c)" transform="translate(519.144821 43.327619)"/><path d="m521.266856 68.3952079-1.607113 8.6589488v.2668473 5.3357112c2.14613 0 3.933329-1.4231858 4.379198-3.3788308l1.936236-10.8826765z"/><path d="m518.05027 78.3882698h-2.59324c-.625955 0-1.071823-.5349301-1.071823-1.1575739v-.1766628l5.185238-27.9238434c0-.1778982 0-.2656119.089422-.3557964v-5.4234249h-.089422c-2.14613 0-3.933329 1.6010839-4.381682 3.6456781l-5.632348 31.479337v.8017774c0 1.955645 1.430753 3.3788307 3.396797 3.3788307h6.706655v-5.3357111c-.269508.6226437-.895463 1.0673893-1.609597 1.0673893"/><path d="m428.955704 47.7963237h2.591998c.625954 0 1.073065.53493 1.073065 1.1563384v.1778982l-1.458077 7.8522298h4.620141l1.665486-9.3643646v-.6214084c0-2.0458295-1.429511-3.6469135-3.307375-3.6469135h-6.705413v5.4246603c.178844-.5336947.804798-.9784402 1.520175-.9784402"/><path d="m429.043014 68.3952079-1.607113 8.6589488v.2668473 5.3357112c2.14613 0 3.933329-1.4231858 4.379198-3.3788308l1.937478-10.8826765z"/><path d="m425.826552 78.3882698h-2.59324c-.625955 0-1.071823-.5349301-1.071823-1.1575739v-.1766628l5.185238-27.9238434c0-.1778982 0-.2656119.089422-.3557964v-5.4234249h-.089422c-2.146129 0-3.933329 1.6010839-4.381681 3.6456781l-5.632349 31.479337v.8017774c0 1.955645 1.430753 3.3788307 3.396797 3.3788307h6.706655v-5.3357111c-.269508.6226437-.89422 1.0673893-1.609597 1.0673893"/><path d="m475.931107 58.2610629c.802314 1.4182441 4.548106 7.629857 4.993974 8.7812538.535291.9759694.891737 2.7512453.535291 4.4363368l-1.427028 7.6286216c-.445868 2.0396525-2.13992 3.5493165-4.370504 3.5493165h-6.598604c-2.051739 0-3.478767-1.5973777-3.478767-3.5493165v-.7091221l1.783474-9.9351214h4.549348l-1.516449 8.5144065v.0901845c0 .709122.53529 1.2428167 1.158761 1.2428167h2.497608c.891737 0 1.604629-.6214084 1.783474-1.4207149l1.07058-5.5889691c.178845-1.1526322 0-1.5961424-.981158-3.3714183-.802315-1.4182442-3.923394-7.2740606-4.904553-9.0481012-1.160003-2.3052644-1.249425-3.3714183-.981159-5.3221217l1.248183-6.8305504c.445869-2.0396525 2.318765-3.5480811 4.369262-3.5480811h6.689268c1.872896 0 3.566948 1.5084286 3.566948 3.5480811 0 .1778983 0 .4422748-.088181.7091221l-1.784715 9.5805604h-4.636286l1.515207-8.1598455v-.1791336c0-.5312238-.53529-1.0636831-1.158761-1.0636831h-2.58703c-.802315 0-1.51645.6214084-1.60463 1.2428167l-.891737 4.4351015c-.357688 2.3064998.178845 3.3701829 1.248184 4.9675607"/><path d="m493.478823 58.2610629c.802314 1.4182441 4.548106 7.629857 4.993974 8.7812538.53529.9759694.891737 2.7512453.53529 4.4363368l-1.427027 7.6286216c-.445868 2.0396525-2.13992 3.5493165-4.369262 3.5493165h-6.599846c-2.051739 0-3.477525-1.5973777-3.477525-3.5493165v-.7091221l1.782232-9.9351214h4.549348l-1.516449 8.5144065v.0901845c0 .709122.53529 1.2428167 1.158761 1.2428167h2.497608c.891737 0 1.605871-.6214084 1.784715-1.4207149l1.069339-5.5889691c.178845-1.1526322 0-1.5961424-.981158-3.3714183-.802315-1.4182442-3.923394-7.2740606-4.904553-9.0481012-1.160003-2.3052644-1.249425-3.3714183-.981159-5.3221217l1.248183-6.8305504c.445869-2.0396525 2.318764-3.5480811 4.370504-3.5480811h6.688026c1.872896 0 3.566947 1.5084286 3.566947 3.5480811 0 .1778983 0 .4422748-.08818.7091221l-1.784715 9.5805604h-4.636286l1.515207-8.1598455v-.1791336c0-.5312238-.53529-1.0636831-1.158761-1.0636831h-2.58703c-.802315 0-1.515208.6214084-1.60463 1.2428167l-.891737 4.4351015c-.357688 2.3064998.178845 3.3701829 1.248184 4.9675607"/></g></g></svg>