<?xml version="1.0" encoding="UTF-8"?>
<svg width="530px" height="146px" viewBox="0 0 530 146" version="1.1" xmlns="http://www.w3.org/2000/svg" xmlns:xlink="http://www.w3.org/1999/xlink">
    <!-- Generator: Sketch 43.2 (39069) - http://www.bohemiancoding.com/sketch -->
    <title>SNES CLASSIC LOGO</title>
    <desc>Created with Sketch.</desc>
    <defs>
        <polygon id="path-1" points="111.845032 0.126011239 0.000372591977 0.126011239 0.000372591977 27.5351852 111.845032 27.5351852 111.845032 0.126011239"></polygon>
        <polygon id="path-3" points="0 69.5540226 0 0.14900896 35.7497034 0.14900896 35.7497034 69.5540226 1.0885511e-15 69.5540226"></polygon>
        <polygon id="path-5" points="10.5269653 0.0224843583 10.5269653 13.6551708 0.514425322 13.6551708 0.514425322 0.0224843583 10.5269653 0.0224843583"></polygon>
    </defs>
    <g id="Page-1" stroke="none" stroke-width="1" fill="none" fill-rule="evenodd">
        <g id="Clover2_ver04" transform="translate(-177.000000, -72.000000)">
            <g id="HEADER-GRAPHIC">
                <g id="SNES-CLASSIC-LOGO" transform="translate(177.000000, 72.000000)">
                    <path d="M99.1741726,25.6615848 L15.1509559,25.6615848 C8.06798247,25.6887637 3.75336738,20.4061749 3.75336738,13.9277147 C3.75336738,7.44060675 8.09033798,2.20249252 15.1509559,2.19384469 L99.1741726,2.19384469 C106.233549,2.20249252 110.580455,7.44060675 110.580455,13.9277147 C110.580455,20.4061749 106.25963,25.6887637 99.1741726,25.6615848" id="Fill-1" fill="#FEFEFE"></path>
                    <g id="Group-5" transform="translate(1.241973, 0.088469)">
                        <mask id="mask-2" fill="white">
                            <use xlink:href="#path-1"></use>
                        </mask>
                        <g id="Clip-4"></g>
                        <path d="M97.1959576,24.1761209 L14.6457212,24.1761209 C7.6857031,24.200829 3.44809035,19.547061 3.44809035,13.8394931 C3.44809035,8.12451285 7.70681664,3.50904238 14.6457212,3.50162995 L97.1959576,3.50162995 C104.131136,3.50904238 108.402282,8.12451285 108.402282,13.8394931 C108.402282,19.547061 104.155976,24.200829 97.1959576,24.1761209 L97.1959576,24.1761209 Z M97.2319748,0.125269996 L14.6072201,0.125269996 C5.86745425,0.105503527 0.000372591977,6.3578847 0.000372591977,13.8555534 C0.000372591977,21.3470451 5.85379255,27.531479 14.6246077,27.5351852 L97.2183131,27.5351852 C105.989128,27.531479 111.845032,21.3470451 111.845032,13.8555534 C111.845032,6.3578847 105.968015,0.105503527 97.2319748,0.125269996 L97.2319748,0.125269996 Z M101.582607,11.0487148 C100.689628,11.0487148 99.964316,10.3284741 99.964316,9.44392464 C99.964316,8.55566895 100.689628,7.82801582 101.582607,7.82801582 C102.470618,7.82801582 103.19593,8.55566895 103.19593,9.44392464 C103.19593,10.3284741 102.470618,11.0487148 101.582607,11.0487148 L101.582607,11.0487148 Z M101.582607,7.45739453 C100.478493,7.45739453 99.5879981,8.34688562 99.5879981,9.44392464 C99.5879981,10.5421991 100.478493,11.4267485 101.582607,11.4267485 C102.686721,11.4267485 103.5797,10.5421991 103.5797,9.44392464 C103.5797,8.34688562 102.686721,7.45739453 101.582607,7.45739453 L101.582607,7.45739453 Z M101.563978,9.29073451 L101.303163,9.29073451 L101.303163,8.6557367 L101.535412,8.6557367 C101.862051,8.6557367 102.023508,8.75580445 102.023508,8.98064803 C102.023508,9.2030208 101.876955,9.29073451 101.563978,9.29073451 L101.563978,9.29073451 Z M102.571218,8.94852752 C102.571218,8.52354844 102.26445,8.31723592 101.62856,8.31723592 L100.761663,8.31723592 L100.761663,10.517491 L101.303163,10.517491 L101.303163,9.61317503 L101.563978,9.61317503 L101.991216,10.517491 L102.586122,10.517491 L102.0943,9.53287375 C102.3961,9.45010166 102.571218,9.24008293 102.571218,8.94852752 L102.571218,8.94852752 Z M56.4430892,12.9796518 C56.7411628,12.4583111 57.3075026,12.201347 57.8117437,12.201347 C58.3221947,12.201347 58.8773568,12.4583111 59.1866081,12.9796518 C59.4300348,13.4132787 59.4399706,13.9173236 59.4337608,14.667214 L56.1847587,14.667214 C56.1785489,13.9173236 56.1922106,13.4132787 56.4430892,12.9796518 L56.4430892,12.9796518 Z M63.5322725,16.0088631 C63.5322725,13.3453314 60.953936,11.1376639 57.7769684,11.1376639 C54.6062107,11.1376639 52.0328421,13.292209 52.0328421,15.9582115 C52.0328421,18.618037 54.6062107,20.7725821 57.7769684,20.7725821 C60.4087098,20.7725821 62.6355678,19.2814491 63.3136852,17.2529152 L59.4188571,17.2541506 C59.4188571,17.2541506 59.4300348,17.2961544 59.4300348,17.771785 C59.4300348,19.3469255 58.3867773,19.6916033 57.8117437,19.6916033 C57.2317422,19.6916033 56.1847587,19.3469255 56.1847587,17.771785 L56.1847587,16.0125693 L63.5322725,16.0088631 Z M71.6970047,11.2809708 C70.4103204,11.3167976 69.3384975,11.8628463 68.5846197,12.5719683 C68.5808938,12.3656558 68.5846197,11.6738294 68.5846197,11.6738294 L64.7146311,11.6738294 L64.7146311,20.2549477 L68.5846197,20.2549477 C68.5846197,20.2549477 68.5808938,14.9847129 68.5808938,14.6202687 C68.5808938,13.8740845 69.3732727,13.0426574 70.427708,13.0426574 C71.4995309,13.0426574 72.2173915,13.8740845 72.2173915,14.6202687 L72.2173915,20.2549477 L76.0898641,20.2549477 L76.0898641,15.5863548 C76.1159455,12.1865222 73.1600492,11.2352609 71.6970047,11.2809708 L71.6970047,11.2809708 Z M39.9943954,11.2809708 C38.7027432,11.3167976 37.6346462,11.8628463 36.8820104,12.5719683 L36.8820104,11.6738294 L33.0082958,11.6738294 L33.0157476,20.2549477 L36.8820104,20.2549477 L36.8820104,14.6202687 C36.8820104,13.8740845 37.6706634,13.0426574 38.7362765,13.0426574 C39.7981636,13.0426574 40.5147822,13.8740845 40.5147822,14.6202687 L40.5147822,20.2549477 L44.3909807,20.2549477 L44.3909807,15.5863548 C44.4120942,12.1865222 41.4537139,11.2352609 39.9943954,11.2809708 L39.9943954,11.2809708 Z M84.5265884,15.919914 L84.5265884,17.4456383 C84.5265884,18.7712271 83.6062862,19.1171403 83.0039292,19.1171403 C82.3754907,19.1171403 81.4763021,18.7712271 81.4763021,17.4456383 L81.4763021,15.9174432 L81.4763021,14.3917189 C81.4763021,13.0611884 82.3754907,12.7276293 83.0039292,12.7276293 C83.6062862,12.7276293 84.5265884,13.0611884 84.5265884,14.3917189 L84.5265884,15.919914 Z M84.5054749,12.1049855 C83.8782784,11.7516599 83.2187906,11.4205715 82.2972464,11.3340932 C79.4792091,11.0845416 77.3343213,13.563998 77.3343213,15.8247879 C77.3343213,18.8181725 79.6506014,19.9238593 80.0020799,20.0832265 C81.3185715,20.68981 83.0039292,20.68981 84.4918132,19.7644922 C84.4918132,19.8410872 84.4955391,20.2586539 84.4955391,20.2586539 L88.3468982,20.2586539 L88.3468982,7.35485597 L84.5054749,7.35485597 L84.5054749,12.1049855 Z M96.8879482,17.7198981 C96.8879482,19.0813136 96.0732138,19.644658 95.2920126,19.644658 C94.5095695,19.644658 93.6973189,19.0813136 93.6973189,17.7198981 L93.6973189,15.8643208 L93.6973189,14.0729846 C93.6973189,12.7152752 94.5132954,12.1556371 95.2920126,12.1556371 C96.0707298,12.1556371 96.8817384,12.7152752 96.8817384,14.0729846 C96.8817384,14.5980314 96.8817384,15.5517635 96.8879482,15.9001475 L96.8879482,17.7198981 Z M95.320578,11.0845416 C92.1721758,11.0845416 89.6236467,13.2489699 89.6236467,15.9038537 C89.6236467,18.5673854 92.1721758,20.7305783 95.320578,20.7305783 C98.4689802,20.7305783 101.031171,18.5673854 101.031171,15.9038537 C101.031171,13.2489699 98.4689802,11.0845416 95.320578,11.0845416 L95.320578,11.0845416 Z M26.9561601,9.98997334 L30.86465,9.98997334 L30.86465,7.34991435 L26.9561601,7.34991435 L26.9561601,9.98997334 Z M26.963612,20.2586539 L30.86465,20.2586539 L30.86465,11.6738294 L26.963612,11.6738294 L26.963612,20.2586539 Z M52.549503,11.6935959 L52.549503,10.4211294 L50.4406324,10.4211294 L50.4406324,8.68662181 L46.5321426,8.68662181 L46.5383525,10.4248357 L44.4120942,10.4248357 L44.4120942,11.6935959 L46.5346265,11.6935959 L46.5321426,20.2586539 L50.4443583,20.2586539 L50.4406324,11.6935959 L52.549503,11.6935959 Z M20.7239383,16.3621887 L15.1325747,7.35485597 L11.0961617,7.35485597 L11.0961617,20.2586539 L15.1052513,20.2586539 L15.1052513,11.2562628 L20.7276643,20.2586539 L24.7280601,20.2586539 L24.7280601,7.35485597 L20.7202124,7.35485597 L20.7239383,16.3621887 Z" id="Fill-3" fill="#ED1C24" mask="url(#mask-2)"></path>
                    </g>
                    <path d="M389.789829,145.866176 L376.463456,145.866176 L376.463456,137.756982 L382.263471,125.590721 C381.01032,129.021439 380.225393,132.297731 379.127488,135.415891 L378.029584,140.563821 L380.853831,140.563821 L385.086476,124.187302 L380.539612,124.187302 L377.08941,131.829513 C376.932922,132.297731 376.619944,132.920375 376.463456,133.544254 L376.463456,126.058939 L376.463456,124.187302 L376.463456,118.72805 L389.789829,118.72805 L389.789829,145.866176 Z M376.463456,145.866176 L354.35509,145.866176 L354.35509,140.563821 L356.078949,140.563821 L356.706145,138.223965 L354.35509,138.223965 L354.35509,133.232932 L357.80405,133.232932 L358.431246,130.581754 L354.35509,130.581754 L354.35509,128.55322 L354.982286,126.370261 L359.84337,126.370261 L360.312836,124.187302 L354.35509,124.187302 L354.35509,118.72805 L376.463456,118.72805 L376.463456,124.187302 L372.228327,124.187302 L367.681463,140.563821 L370.662199,140.563821 L372.071838,135.415891 C372.855523,132.297731 373.640451,129.021439 374.267647,125.590721 L373.48272,140.563821 L375.051332,140.563821 L376.463456,137.756982 L376.463456,145.866176 Z M376.463456,126.058939 L375.992748,131.829513 C375.992748,133.232932 375.678529,135.104569 375.365551,136.352328 C375.678529,135.415891 375.992748,134.48069 376.463456,133.544254 L376.463456,126.058939 Z M354.35509,145.866176 L336.950077,145.866176 L336.950077,130.737415 L338.047981,126.370261 L341.340452,126.370261 L341.967649,124.187302 L336.950077,124.187302 L336.950077,118.72805 L354.35509,118.72805 L354.35509,124.187302 L352.786478,124.187302 L348.239613,140.563821 L354.35509,140.563821 L354.35509,145.866176 Z M354.35509,128.55322 L353.817315,130.581754 L354.35509,130.581754 L354.35509,128.55322 Z M354.35509,133.232932 L353.100697,133.232932 L351.845062,138.223965 L354.35509,138.223965 L354.35509,133.232932 Z M336.950077,145.866176 L317.351739,145.866176 L317.351739,140.719482 C319.075598,140.095603 320.642968,138.535287 320.957187,136.352328 C321.271406,134.793248 321.271406,133.70115 320.800698,132.920375 C320.173502,131.985174 318.840865,130.87331 317.899449,130.092534 C317.74296,129.936873 317.593923,129.755269 317.351739,129.489657 L317.351739,126.995376 C317.822446,126.370261 318.449643,126.058939 319.075598,126.058939 C320.800698,126.058939 320.486479,127.77368 319.859283,129.178335 L322.682288,129.178335 C322.996507,127.463594 324.094411,123.874744 319.546305,123.874744 C318.76262,123.874744 317.978935,124.031641 317.351739,124.187302 L317.351739,118.72805 L336.950077,118.72805 L336.950077,124.187302 L332.559701,124.187302 L332.090235,126.370261 L335.381464,126.370261 L331.776016,140.563821 L334.286044,140.563821 L336.950077,130.737415 L336.950077,145.866176 Z M317.351739,138.068304 C317.822446,137.756982 317.967757,137.286293 318.135424,136.509224 C318.342833,135.546844 318.079535,135.030445 317.664716,134.636351 C317.504501,134.484396 317.508227,134.48069 317.351739,134.325029 L317.351739,138.068304 Z M317.351739,145.866176 L300.260945,145.866176 L300.260945,131.985174 L305.747983,124.187302 L302.613242,124.187302 L300.260945,127.977522 L300.260945,127.306697 L300.260945,118.72805 L317.351739,118.72805 L317.351739,124.187302 C315.783126,124.811181 314.841711,126.058939 314.214514,128.085002 C313.901537,129.021439 313.901537,129.800979 314.214514,130.581754 C314.999441,132.297731 316.253834,133.077271 317.351739,134.325029 L317.351739,138.068304 C317.037519,138.379626 316.566812,138.535287 315.939615,138.535287 C314.528733,138.535287 314.40081,137.512372 314.851646,135.656795 L314.999441,134.793248 L312.177678,134.793248 L311.863459,136.041006 C311.392751,138.846609 311.863459,141.032039 315.312419,141.032039 C316.097346,141.032039 316.724542,140.875143 317.351739,140.719482 L317.351739,145.866176 Z M317.351739,126.995376 C317.19525,127.306697 317.099618,127.561191 317.056149,127.857688 C316.944371,128.645876 317.037519,129.178335 317.351739,129.489657 L317.351739,126.995376 Z M300.260945,145.866176 L278.623287,145.866176 L278.623287,140.719482 C280.504876,140.095603 282.062311,138.572349 282.541712,136.352328 C282.913062,134.640057 282.562826,133.354001 281.89216,132.622642 C280.995456,131.644202 280.190657,130.894312 279.406972,130.113536 C279.093994,129.800979 278.936264,129.646553 278.623287,129.333996 L278.623287,127.306697 C279.02196,126.556807 279.406972,126.058939 280.190657,126.058939 C281.60278,126.058939 281.60278,127.77368 281.132073,129.178335 L283.953836,129.178335 C284.110324,127.463594 285.364717,123.874744 281.132073,123.874744 C280.190657,123.874744 279.406972,124.031641 278.623287,124.187302 L278.623287,118.72805 L300.260945,118.72805 L300.260945,127.968874 C299.65362,128.999201 299.16304,129.957875 298.692332,130.894312 L298.452632,128.337025 L298.065136,124.187302 L295.243373,124.187302 L296.654254,133.388593 L294.616176,140.563821 L297.439181,140.563821 L299.16304,133.388593 L300.260945,131.985174 L300.260945,145.866176 Z M278.623287,138.068304 C278.936264,137.756982 279.193352,137.275175 279.406972,136.509224 C279.642947,135.65556 279.256693,135.176223 278.870439,134.764833 C278.783501,134.669707 278.623287,134.48069 278.623287,134.48069 L278.623287,138.068304 Z M278.623287,145.866176 L248.988563,145.866176 L248.988563,130.737415 L250.242956,126.370261 L253.535427,126.370261 L254.162623,124.187302 L248.988563,124.187302 L248.988563,118.72805 L278.623287,118.72805 L278.623287,124.187302 C277.054674,124.811181 275.958012,126.058939 275.329574,128.085002 C275.173085,129.021439 275.086147,130.010997 275.407818,130.659585 C276.278441,132.411388 277.525382,133.077271 278.623287,134.48069 L278.623287,138.068304 C278.309067,138.379626 277.83836,138.535287 277.054674,138.535287 C275.643793,138.535287 275.643793,137.444425 276.270989,135.728449 L276.585208,134.793248 L273.762203,134.793248 L273.449226,136.041006 C272.50781,138.846609 273.135007,141.032039 276.585208,141.032039 C277.211163,141.032039 277.99609,140.875143 278.623287,140.719482 L278.623287,145.866176 Z M278.623287,127.306697 C278.499089,127.504362 278.504057,127.479654 278.429539,127.69585 C278.157547,128.49145 278.309067,129.021439 278.623287,129.333996 L278.623287,127.306697 Z M248.988563,145.866176 L227.978101,145.866176 L227.978101,140.563821 L230.330399,140.563821 L234.877263,124.187302 L232.055499,124.187302 L231.270572,127.463594 C230.643376,129.021439 230.330399,130.581754 230.016179,131.985174 C229.703202,133.388593 229.546713,135.104569 229.232494,136.509224 C229.232494,134.012472 228.919517,131.985174 228.919517,130.113536 L228.29232,124.187302 L227.978101,124.187302 L227.978101,118.72805 L248.988563,118.72805 L248.988563,124.187302 L244.755918,124.187302 L244.28521,126.370261 L247.577681,126.370261 L243.970991,140.563821 L246.479777,140.563821 L248.988563,130.737415 L248.988563,145.866176 Z M227.978101,145.866176 L209.163448,145.866176 L209.163448,140.563821 L211.045038,140.563821 L211.670992,138.223965 L209.163448,138.223965 L209.163448,133.232932 L212.455919,133.232932 L213.397335,130.581754 L209.163448,130.581754 L209.163448,127.929341 L209.632914,126.370261 L214.806975,126.370261 L215.277683,124.187302 L209.163448,124.187302 L209.163448,118.72805 L227.978101,118.72805 L227.978101,124.187302 L225.312827,124.187302 L220.922451,140.563821 L223.901945,140.563821 L224.68563,137.444425 C224.998607,136.352328 225.312827,134.636351 225.783534,132.920375 C226.096512,131.205633 226.410731,129.489657 226.723708,128.085002 C226.723708,130.894312 226.723708,132.920375 226.881439,134.793248 L227.821613,140.563821 L227.978101,140.563821 L227.978101,145.866176 Z M209.163448,145.866176 L187.369302,145.866176 L187.369302,137.756982 L193.170559,125.590721 C192.072654,129.021439 191.288969,132.297731 190.347554,135.415891 L188.936672,140.563821 L191.758435,140.563821 L195.835833,124.187302 L191.758435,124.187302 L188.152987,131.829513 C187.995256,132.297731 187.682279,133.077271 187.369302,133.856811 L187.369302,127.929341 L187.84001,124.187302 L187.369302,124.187302 L187.369302,118.72805 L209.163448,118.72805 L209.163448,124.187302 L207.438347,124.187302 L203.205703,140.563821 L209.163448,140.563821 L209.163448,145.866176 Z M209.163448,127.929341 L208.536252,130.581754 L209.163448,130.581754 L209.163448,127.929341 Z M209.163448,133.232932 L207.909055,133.232932 L206.496932,138.223965 L209.163448,138.223965 L209.163448,133.232932 Z M187.369302,145.866176 L164.163031,145.866176 L164.163031,140.563821 L166.671817,140.563821 L171.062193,124.187302 L168.24043,124.187302 L167.455502,127.463594 C166.829548,129.021439 166.671817,130.581754 166.35884,131.985174 C166.044621,133.388593 165.731644,135.104569 165.417424,136.509224 C165.417424,134.012472 165.260936,131.985174 165.260936,130.113536 L164.633739,124.187302 L164.163031,124.187302 L164.163031,118.72805 L187.369302,118.72805 L187.369302,124.187302 L183.291903,124.187302 L179.059259,140.563821 L181.568045,140.563821 L182.977684,135.415891 C183.9191,132.297731 184.704027,129.021439 185.329982,125.590721 L185.644201,125.590721 L184.389808,140.563821 L186.114909,140.563821 L187.369302,137.756982 L187.369302,145.866176 Z M187.369302,127.929341 L187.055082,131.829513 C187.055082,133.232932 186.742105,135.104569 186.427886,136.352328 C186.742105,135.572788 187.055082,134.636351 187.369302,133.856811 L187.369302,127.929341 Z M164.163031,145.866176 L145.504867,145.866176 L145.504867,137.756982 L149.110315,124.187302 L146.132064,124.187302 L145.504867,126.838479 L145.504867,118.72805 L164.163031,118.72805 L164.163031,124.187302 L161.497757,124.187302 L157.26387,140.563821 L160.086875,140.563821 L160.87056,137.444425 C161.184779,136.352328 161.497757,134.636351 161.810734,132.920375 C162.281442,131.205633 162.595661,129.489657 162.908638,128.085002 C162.908638,130.894312 162.908638,132.920375 163.222858,134.793248 L164.006543,140.563821 L164.163031,140.563821 L164.163031,145.866176 Z M145.504867,145.866176 L127.473899,145.866176 L127.473899,140.563821 L130.295663,140.563821 L131.393567,124.187302 L127.786877,124.187302 L127.473899,124.811181 L127.473899,118.72805 L145.504867,118.72805 L145.504867,126.838479 L141.898177,140.563821 L144.721182,140.563821 L145.504867,137.756982 L145.504867,145.866176 Z M127.473899,140.563821 L127.786877,136.509224 L127.473899,136.509224 L127.473899,140.563821 Z M127.473899,134.012472 L128.099854,134.012472 C128.099854,134.012472 129.061141,126.558042 129.197758,125.590721 L128.884781,125.590721 C128.576772,126.423383 127.473899,130.113536 127.473899,130.113536 L127.473899,134.012472 Z M127.473899,145.866176 L125.59231,145.866176 L125.59231,136.509224 L127.473899,136.509224 L127.473899,140.563821 L127.473899,145.866176 Z M125.59231,118.72805 L127.473899,118.72805 L127.473899,124.811181 L125.59231,128.55322 L125.59231,118.72805 Z M127.473899,130.113536 L127.473899,134.012472 L125.748799,134.012472 L127.473899,130.113536 Z M125.59231,145.866176 L110.068886,145.866176 L110.068886,131.36253 L111.323279,126.370261 L114.459262,126.370261 L115.242947,124.187302 L110.068886,124.187302 L110.068886,118.72805 L125.59231,118.72805 L125.59231,128.55322 L119.789811,140.563821 L122.612816,140.563821 L124.650894,136.509224 L125.59231,136.509224 L125.59231,145.866176 Z M110.068886,145.866176 L89.5291325,145.866176 L89.5291325,133.544254 C89.8893047,133.602318 90.0557292,133.633203 90.3128176,133.70115 C91.271621,133.954408 90.9400141,135.415891 90.6270369,136.509224 C90.3128176,137.444425 89.8433517,139.627385 89.8433517,140.563821 L92.9793342,140.563821 L92.9793342,140.251264 C92.3508957,139.939942 93.4488001,136.041006 93.7617774,135.104569 C94.0759966,133.388593 94.0759966,132.216194 92.3508957,132.216194 L92.3508957,132.081535 C94.3902158,131.925874 95.1739009,129.800979 95.8010974,128.085002 C96.2705633,125.279399 94.8596817,124.187302 92.665115,124.187302 L89.5291325,124.187302 L89.5291325,118.72805 L110.068886,118.72805 L110.068886,124.187302 L105.99273,124.187302 L105.365533,126.370261 L108.501516,126.370261 L104.894826,140.563821 L107.717831,140.563821 L110.068886,131.36253 L110.068886,145.866176 Z M89.5291325,131.205633 L90.3128176,131.205633 C91.5672106,131.205633 92.3508957,130.426093 92.665115,128.710117 C93.2923115,126.995376 92.3508957,126.370261 91.5672106,126.370261 L89.5291325,126.370261 L89.5291325,126.387557 L89.5291325,131.205633 Z M89.5291325,145.866176 L70.7144797,145.866176 L70.7144797,140.563821 L72.5948272,140.563821 L73.065535,138.223965 L70.7144797,138.223965 L70.7144797,133.232932 L74.0069508,133.232932 L74.4764166,130.581754 L70.7144797,130.581754 L70.7144797,127.929341 L71.1839455,126.370261 L76.2015175,126.370261 L76.828714,124.187302 L70.7144797,124.187302 L70.7144797,118.72805 L89.5291325,118.72805 L89.5291325,124.187302 L87.3345658,124.187302 L82.9441903,140.563821 L85.9224422,140.563821 L87.4910544,133.388593 L88.1182509,133.388593 C88.5877168,133.388593 89.0559407,133.451598 89.5291325,133.544254 L89.5291325,145.866176 Z M89.5291325,126.387557 L88.1182509,131.205633 L89.5291325,131.205633 L89.5291325,126.387557 Z M70.7144797,145.866176 L53.9366629,145.866176 L53.9366629,131.36253 L55.1910559,126.370261 L58.6412576,126.370261 L59.2684541,124.187302 L53.9366629,124.187302 L53.9366629,118.72805 L70.7144797,118.72805 L70.7144797,124.187302 L68.8328902,124.187302 L64.5990033,140.563821 L70.7144797,140.563821 L70.7144797,145.866176 Z M70.7144797,127.929341 L69.9295526,130.581754 L70.7144797,130.581754 L70.7144797,127.929341 Z M70.7144797,133.232932 L69.4600867,133.232932 L68.0479631,138.223965 L70.7144797,138.223965 L70.7144797,133.232932 Z M53.9366629,145.866176 L33.2404206,145.866176 L33.2404206,140.563821 L36.0621838,140.563821 L40.2960707,124.187302 L37.4730655,124.187302 L36.5328917,127.463594 C36.2186725,129.021439 35.7492066,130.581754 35.4349874,131.985174 C35.1220101,133.388593 34.8077909,135.104569 34.6513022,136.509224 C34.6513022,134.012472 34.2712584,132.021 34.1408512,130.065355 L33.7098865,124.187302 L33.2404206,124.187302 L33.2404206,118.72805 L53.9366629,118.72805 L53.9366629,124.187302 L49.8605067,124.187302 L49.0755796,126.370261 L52.3692927,126.370261 L48.7626024,140.563821 L51.5856076,140.563821 L53.9366629,131.36253 L53.9366629,145.866176 Z M33.2404206,145.866176 L12.5429363,145.866176 L12.5429363,140.563821 L14.1115485,140.563821 L15.0517223,138.223965 L12.5429363,138.223965 L12.5429363,133.232932 L15.8354074,133.232932 L16.7768231,130.581754 L12.5429363,130.581754 L12.5429363,127.929341 L13.0136442,126.370261 L17.8747275,126.370261 L18.6584126,124.187302 L12.5429363,124.187302 L12.5429363,118.72805 L33.2404206,118.72805 L33.2404206,124.187302 L30.575146,124.187302 L26.3412592,140.563821 L29.1630224,140.563821 L30.0795987,137.399951 C30.4670943,136.06942 30.7415704,134.517752 31.1141624,132.869723 C31.4991741,131.169807 31.9040574,129.523013 31.9860276,128.085002 C31.8643142,130.219781 31.9860276,132.920375 32.2990049,134.793248 L33.083932,140.563821 L33.2404206,140.563821 L33.2404206,145.866176 Z M12.5429363,145.866176 L0.313225655,145.866176 L0.313225655,118.72805 L12.5429363,118.72805 L12.5429363,124.187302 L10.8190774,124.187302 L6.5851906,140.563821 L12.5429363,140.563821 L12.5429363,145.866176 Z M12.5429363,127.929341 L11.9157398,130.581754 L12.5429363,130.581754 L12.5429363,127.929341 Z M12.5429363,133.232932 L11.2885433,133.232932 L9.8776617,138.223965 L12.5429363,138.223965 L12.5429363,133.232932 Z" id="Fill-6" fill="#E02625"></path>
                    <g id="Group-10" transform="translate(0.000000, 42.936100)">
                        <mask id="mask-4" fill="white">
                            <use xlink:href="#path-3"></use>
                        </mask>
                        <g id="Clip-9"></g>
                        <path d="M18.1882015,26.6632561 C19.5990832,29.1587728 26.1840254,40.0760406 26.9689525,42.103339 C27.9091262,43.8193156 28.5363227,46.9387115 27.9091262,49.9024464 L25.4003402,63.3152309 C24.6166551,66.9016096 21.6371613,69.5540226 17.7174937,69.5540226 L6.11497952,69.5540226 C2.50828919,69.5540226 -0.000496789302,66.7459486 -0.000496789302,63.3152309 L-0.000496789302,62.0674726 L3.13548568,44.6000911 L11.1325515,44.6000911 L8.46727687,59.5719559 L8.46727687,59.7288522 C8.46727687,60.9753752 9.40745062,61.9105762 10.505355,61.9105762 L14.8957304,61.9105762 C16.4631007,61.9105762 17.7174937,60.8197142 18.0317129,59.4162949 L19.9133024,49.5911245 C20.2262797,47.5625907 19.9133024,46.7830505 18.1882015,43.6636547 C16.7773199,41.168138 11.2890401,30.8735139 9.56518123,27.7553535 C7.52586114,23.7007566 7.36937251,21.8278836 7.8388384,18.3971659 L10.0346471,6.38780068 C10.8183322,2.801422 14.1108033,0.14900896 17.7174937,0.14900896 L29.4777384,0.14900896 C32.7702095,0.14900896 35.7497034,2.801422 35.7497034,6.38780068 C35.7497034,6.70035797 35.7497034,7.1673408 35.5919728,7.63555903 L32.4559903,24.4790613 L24.3024359,24.4790613 L26.9689525,10.1310757 L26.9689525,9.81851843 C26.9689525,8.88331737 26.0275367,7.94811632 24.9308743,7.94811632 L20.3840103,7.94811632 C18.9718867,7.94811632 17.7174937,9.03897831 17.561005,10.1310757 L15.9923928,17.9301831 C15.3664383,21.98478 16.3066121,23.8564175 18.1882015,26.6632561" id="Fill-8" fill="#E02625" mask="url(#mask-4)"></path>
                    </g>
                    <path d="M39.1986631,102.507686 L39.1986631,102.663347 C39.1986631,103.911105 40.1388369,104.847541 41.2367412,104.847541 L45.6271167,104.847541 C47.1944869,104.847541 48.4501219,103.755444 48.7630991,102.352025 L59.5819282,43.0847387 L67.7354826,43.0847387 L56.1317265,106.250961 C55.50453,109.838575 52.3685475,112.489752 48.4501219,112.489752 L36.8463658,112.489752 C33.397406,112.489752 30.5756428,109.682914 30.5756428,106.250961 L30.5756428,105.004438 L41.8639377,43.0847387 L50.0174921,43.0847387 L39.1986631,102.507686 Z" id="Fill-11" fill="#E02625"></path>
                    <polygon id="Fill-13" fill="#E02625" points="102.856499 43.0851094 121.672394 43.0851094 120.418001 50.8829813 109.912149 50.8829813 105.835993 72.8731779 116.340603 72.8731779 114.929721 80.6722852 104.5816 80.6722852 100.191225 104.846677 110.539346 104.846677 109.128464 112.488888 90.1560806 112.488888"></polygon>
                    <path d="M157.420731,112.488641 L170.12115,43.0848623 L178.431193,43.0848623 C182.037883,80.2038199 182.194372,89.2494502 182.194372,96.1133565 C182.507349,88.9393637 183.448765,78.4890788 189.877218,43.0848623 L198.187261,43.0848623 L185.644573,112.488641 L177.1768,112.488641 C173.72784,75.3696829 173.570109,67.5718109 173.570109,60.7091401 C173.257132,68.9739948 172.316958,77.0856595 165.887263,112.488641 L157.420731,112.488641 Z" id="Fill-15" fill="#E02625"></path>
                    <polygon id="Fill-17" fill="#E02625" points="200.226457 112.488641 191.916414 112.488641 204.460344 43.0848623 212.926876 43.0848623"></polygon>
                    <polygon id="Fill-19" fill="#E02625" points="269.528937 50.883599 263.72768 50.883599 252.438143 112.489505 243.813881 112.489505 255.261149 50.883599 249.302161 50.883599 250.556554 43.0857271 270.939819 43.0857271"></polygon>
                    <polygon id="Fill-21" fill="#E02625" points="274.3894 43.0851094 293.518272 43.0851094 292.10739 50.8829813 281.44505 50.8829813 277.681871 72.8731779 288.029992 72.8731779 286.620352 80.6722852 276.114501 80.6722852 271.880614 104.846677 282.072246 104.846677 280.661365 112.488888 261.84547 112.488888"></polygon>
                    <path d="M206.654662,112.488641 L219.355081,43.0848623 L227.665124,43.0848623 C231.428303,80.2038199 231.584792,89.2494502 231.584792,96.1133565 C231.899011,88.9393637 232.839185,78.4890788 239.267638,43.0848623 L247.577681,43.0848623 L234.878505,112.488641 L226.56722,112.488641 C222.961771,75.3696829 222.804041,67.5718109 222.804041,60.7091401 C222.491063,68.9739948 221.55089,77.0856595 215.121194,112.488641 L206.654662,112.488641 Z" id="Fill-23" fill="#E02625"></path>
                    <path d="M286.305885,112.488641 L299.007545,43.0848623 L307.474077,43.0848623 C310.923037,80.2038199 311.079525,89.2494502 311.236014,96.1133565 C311.392503,88.9393637 312.333918,78.4890788 318.762372,43.0848623 L327.228904,43.0848623 L314.529727,112.488641 L306.061953,112.488641 C302.612994,75.3696829 302.456505,67.5718109 302.456505,60.7091401 C302.142286,68.9739948 301.20087,77.0856595 294.928905,112.488641 L286.305885,112.488641 Z" id="Fill-25" fill="#E02625"></path>
                    <path d="M82.3172422,42.929572 L91.0967511,42.929572 C94.8611721,42.929572 97.6829353,45.7364105 97.6829353,49.480921 C97.6829353,49.6365819 97.6829353,49.9491392 97.3687161,50.571783 L92.821852,75.0587316 C92.1946555,78.8020067 89.2164036,81.2975234 85.4532247,81.2975234 L82.3172422,81.2975234 L82.3172422,73.6540769 L82.6302195,73.6540769 C84.0423431,73.6540769 85.1390054,72.5619795 85.4532247,71.1597957 L88.9021844,53.0672997 L88.9021844,52.7547424 C88.9021844,51.662645 87.9607687,50.8831049 86.8641063,50.8831049 L82.3172422,50.8831049 L82.3172422,42.929572 Z M60.2088763,112.022028 L73.0657834,42.929572 L82.3172422,42.929572 L82.3172422,50.8831049 L79.8084562,50.8831049 L75.8887886,73.6540769 L82.3172422,73.6540769 L82.3172422,81.2975234 L74.477907,81.2975234 L68.675408,112.022028 L60.2088763,112.022028 Z" id="Fill-27" fill="#E02625"></path>
                    <path d="M136.253905,84.4156838 L136.253905,84.2600229 C136.253905,83.4804828 136.097417,82.8553682 135.626709,82.5440463 L135.626709,73.9666342 L136.097417,73.9666342 C137.508298,73.9666342 138.606202,72.8745368 138.91918,71.4698821 L142.055162,53.5342825 L142.055162,53.2229606 C142.055162,52.1308632 141.427966,51.1956621 140.017084,51.1956621 L135.626709,51.1956621 L135.626709,43.3977902 L145.034656,43.3977902 C148.483616,43.3977902 150.798654,46.1206213 151.112873,49.707 C151.112873,50.0195573 151.112873,50.3901785 150.992402,50.8831049 L147.072734,72.5619795 C146.758515,75.6826108 144.876925,77.7086739 141.740943,78.4894494 C143.936752,79.4246504 145.347633,81.6088452 145.034656,84.2600229 L145.034656,85.3521203 L140.017084,112.334586 L135.626709,112.334586 L135.626709,88.3146198 L136.253905,84.4156838 Z M135.626709,82.5440463 C135.313731,82.38715 134.843024,82.2327244 134.372316,82.2327244 L127.473154,82.2327244 L122.142605,112.334586 L113.674831,112.334586 L126.37525,43.3977902 L135.626709,43.3977902 L135.626709,51.1956621 L133.432142,51.1956621 L129.198255,73.9666342 L135.626709,73.9666342 L135.626709,82.5440463 Z M135.626709,112.334586 L135.626709,88.3146198 L131.236333,112.334586 L135.626709,112.334586 Z" id="Fill-29" fill="#E02625"></path>
                    <path d="M339.616096,43.2407703 L351.689318,43.2407703 C354.98179,43.2407703 357.804795,46.0488443 357.804795,49.6364584 C357.804795,49.9490157 357.648306,50.2603375 357.648306,50.7285558 L347.61192,106.251331 C346.829477,109.682049 344.006472,112.177566 340.086804,112.177566 L339.616096,112.177566 L339.616096,103.598918 C339.930316,103.287596 340.086804,102.820614 340.243293,102.352395 L349.29231,53.5563962 C349.320875,53.4229726 349.337021,53.3797334 349.337021,53.0671761 C349.337021,51.9750787 348.239117,51.0386423 347.142454,51.0386423 L339.616096,51.0386423 L339.616096,43.2407703 Z M332.716935,43.2407703 L339.616096,43.2407703 L339.616096,51.0386423 L339.459608,51.0386423 L329.895172,104.691016 L337.263799,104.691016 C338.205215,104.691016 338.9889,104.224033 339.616096,103.598918 L339.616096,112.177566 L319.860028,112.177566 L332.716935,43.2407703 Z" id="Fill-31" fill="#E02625"></path>
                    <path d="M371.445263,43.2407703 L383.205508,43.2407703 C386.497979,43.2407703 389.006765,46.0488443 389.006765,49.6364584 L389.006765,50.7285558 L379.129351,106.251331 C378.344424,109.682049 375.208442,112.177566 371.445263,112.177566 L371.445263,102.820614 L371.445263,102.352395 L380.538991,53.3797334 L380.538991,53.0671761 C380.538991,51.9750787 379.755306,51.0386423 378.658643,51.0386423 L374.110537,51.0386423 C372.857386,51.0386423 371.759482,51.8194178 371.445263,52.7546188 L371.445263,43.2407703 Z M371.288774,43.2407703 L371.445263,43.2407703 L371.445263,52.7546188 C371.288774,52.9115152 371.288774,53.0671761 371.288774,53.3797334 L362.195046,102.352395 L362.195046,102.664953 C362.195046,103.755815 362.979973,104.691016 364.075393,104.691016 L368.6235,104.691016 C369.877893,104.691016 370.974555,103.911476 371.445263,102.820614 L371.445263,112.177566 L359.68626,112.177566 C356.2373,112.177566 353.727272,109.682049 353.727272,106.251331 L353.727272,104.846677 L363.605928,49.6364584 C364.389613,46.0488443 367.525595,43.2407703 371.288774,43.2407703 L371.288774,43.2407703 Z" id="Fill-33" fill="#E02625"></path>
                    <path d="M385.399329,104.691263 L386.184256,104.691263 C386.967941,104.691263 387.595138,105.315142 387.752868,106.250343 C387.752868,106.718561 387.752868,107.34244 386.967941,107.809423 C388.221092,108.434538 387.12443,109.993618 387.909357,110.461836 L387.909357,110.617497 L386.967941,110.617497 C386.654964,109.682296 387.282161,108.277641 385.870037,108.12198 L385.399329,108.12198 L385.399329,107.498101 L386.026526,107.498101 C386.967941,107.498101 387.595138,105.626464 385.713548,105.470803 L385.399329,105.470803 L385.399329,104.691263 Z M385.399329,112.800457 C388.221092,112.800457 390.260412,110.461836 390.260412,107.96632 C390.260412,105.315142 388.221092,102.819625 385.399329,102.819625 L385.399329,103.442269 C387.909357,103.442269 389.633216,105.626464 389.633216,107.96632 C389.633216,110.461836 387.909357,112.177813 385.399329,112.333474 L385.399329,112.800457 Z M383.20352,110.617497 L383.20352,104.691263 L385.399329,104.691263 L385.399329,105.470803 L383.988447,105.470803 L383.988447,107.498101 L385.399329,107.498101 L385.399329,108.12198 L383.988447,108.12198 L383.988447,110.617497 L383.20352,110.617497 Z M385.399329,102.819625 L385.399329,102.819625 C382.577566,102.819625 380.382999,105.315142 380.382999,107.96632 C380.382999,110.461836 382.577566,112.800457 385.399329,112.800457 L385.399329,112.333474 C382.890543,112.333474 381.166684,110.461836 381.166684,107.96632 C381.166684,105.626464 382.890543,103.442269 385.399329,103.442269 L385.399329,102.819625 Z" id="Fill-35" fill="#E02625"></path>
                    <polygon id="Fill-37" fill="#E02625" points="444.460995 132.144047 439.724109 132.144047 446.875391 92.5715759 451.702941 92.5715759"></polygon>
                    <polygon id="Fill-39" fill="#E02625" points="466.73032 132.144047 461.993434 132.144047 469.143474 92.5715759 473.972266 92.5715759"></polygon>
                    <polygon id="Fill-41" fill="#E02625" points="465.359803 97.0170548 462.052428 97.0170548 455.615281 132.144541 450.698309 132.144541 457.224878 97.0170548 453.828081 97.0170548 454.543458 92.5708347 466.164602 92.5708347"></polygon>
                    <polygon id="Fill-43" fill="#E02625" points="414.727534 92.5713289 425.634543 92.5713289 424.829744 97.0175489 418.750285 97.0175489 416.605398 109.556903 422.506012 109.556903 421.699972 114.003123 415.711177 114.003123 413.298023 127.786528 419.107974 127.786528 418.303175 132.143799 407.57501 132.143799"></polygon>
                    <path d="M488.593397,132.144047 L495.834101,92.5715759 L500.661651,92.5715759 C502.628936,113.736522 502.718358,118.8931 502.806538,122.805625 C502.897203,118.716437 503.432493,112.758082 507.098798,92.5715759 L511.926348,92.5715759 L504.684402,132.144047 L499.856852,132.144047 C497.889566,110.9791 497.801386,106.534115 497.801386,102.620355 C497.622542,107.333422 497.08601,111.95754 493.509127,132.144047 L488.593397,132.144047 Z" id="Fill-45" fill="#E02625"></path>
                    <path d="M432.651319,92.8379291 L439.535577,92.8379291 C441.413441,92.8379291 443.021796,94.4390131 443.021796,96.4836072 C443.021796,96.6627408 443.00565,96.8307558 442.951004,97.1223112 L437.210603,128.764722 C436.764735,130.720367 435.155137,132.143552 432.919586,132.143552 L432.651319,132.143552 L432.651319,127.252587 C432.831406,127.074689 432.919586,126.807841 433.009008,126.540994 C433.009008,126.540994 438.034031,98.5590864 438.034031,98.3799528 C438.034031,97.757309 437.568292,97.2853846 436.942337,97.2853846 L432.651319,97.2853846 L432.651319,92.8379291 Z M428.71799,92.8379291 L432.651319,92.8379291 L432.651319,97.2853846 L432.561897,97.2853846 L427.108393,127.87523 L431.309988,127.87523 C431.847763,127.87523 432.293631,127.608383 432.651319,127.252587 L432.651319,132.143552 L421.387864,132.143552 L428.71799,92.8379291 Z" id="Fill-47" fill="#E02625"></path>
                    <path d="M481.380513,92.8379291 L488.084684,92.8379291 C489.962548,92.8379291 491.393301,94.4390131 491.393301,96.4836072 L491.393301,97.106251 L485.75971,128.764722 C485.313842,130.720367 483.526642,132.143552 481.380513,132.143552 L481.380513,126.807841 L481.380513,126.540994 L486.565751,98.6183858 L486.565751,98.4404876 C486.565751,97.8178438 486.117399,97.2853846 485.492686,97.2853846 L482.900688,97.2853846 C482.184069,97.2853846 481.559357,97.7288947 481.380513,98.2625894 L481.380513,92.8379291 Z M481.291091,92.8379291 L481.380513,92.8379291 L481.380513,98.2625894 C481.291091,98.3515385 481.291091,98.4404876 481.291091,98.6183858 L476.105852,126.540994 L476.105852,126.720127 C476.105852,127.342771 476.551721,127.87523 477.177675,127.87523 L479.770915,127.87523 C480.486292,127.87523 481.112246,127.430485 481.380513,126.807841 L481.380513,132.143552 L474.675099,132.143552 C472.709055,132.143552 471.27706,130.720367 471.27706,128.764722 L471.27706,127.965415 L476.909409,96.4836072 C477.357761,94.4390131 479.144961,92.8379291 481.291091,92.8379291 L481.291091,92.8379291 Z" id="Fill-49" fill="#E02625"></path>
                    <path d="M459.941943,56.4514427 L460.334406,52.0496971 L459.109821,56.4514427 L455.652167,68.2890867 L459.123483,68.2890867 L459.941943,56.4514427 Z M457.985835,82.6568387 L458.785666,72.9502671 L454.350579,72.9502671 L451.479137,82.6568387 L446.532358,82.6568387 L446.550987,82.5530647 L458.95209,44.9980094 C459.338344,43.8280815 460.433764,43.0386582 461.67077,43.0386582 L462.700366,43.0386582 C463.706364,43.0386582 464.512405,43.8700853 464.471419,44.8707627 L463.003407,82.5530647 L462.983535,82.6568387 L457.985835,82.6568387 Z" id="Fill-51" fill="#E02625"></path>
                    <polygon id="Fill-53" fill="#E02625" points="505.136977 82.6567152 500.400091 82.6567152 507.550131 43.0842446 512.378923 43.0842446"></polygon>
                    <polygon id="Fill-55" fill="#E02625" points="441.528199 43.0839975 446.600418 43.122295 440.097446 78.2991971 445.907397 78.2991971 445.10384 82.6564681 434.375675 82.6564681"></polygon>
                    <g id="Group-59" transform="translate(519.144821, 43.327619)">
                        <mask id="mask-6" fill="white">
                            <use xlink:href="#path-5"></use>
                        </mask>
                        <g id="Clip-58"></g>
                        <path d="M2.03460059,4.46870444 L4.62659877,4.46870444 C5.25255329,4.46870444 5.69966366,5.0036345 5.69966366,5.62504287 L5.69966366,5.80294109 L4.24158706,13.6551708 L8.86172757,13.6551708 L10.5272137,4.29080622 L10.5272137,3.66939786 C10.5272137,1.62356833 9.09770249,0.0224843583 7.21983893,0.0224843583 L0.514425322,0.0224843583 L0.514425322,5.44714465 C0.693269471,4.91344999 1.31922399,4.46870444 2.03460059,4.46870444" id="Fill-57" fill="#E02625" mask="url(#mask-6)"></path>
                    </g>
                    <path d="M521.266856,68.3952079 L519.659743,77.0541567 L519.659743,77.321004 L519.659743,82.6567152 C521.805873,82.6567152 523.593072,81.2335294 524.038941,79.2778844 L525.975177,68.3952079 L521.266856,68.3952079 Z" id="Fill-60" fill="#E02625"></path>
                    <path d="M518.05027,78.3882698 L515.45703,78.3882698 C514.831075,78.3882698 514.385207,77.8533397 514.385207,77.2306959 L514.385207,77.0540331 L519.570445,49.1301897 C519.570445,48.9522915 519.570445,48.8645778 519.659867,48.7743933 L519.659867,43.3509684 L519.570445,43.3509684 C517.424315,43.3509684 515.637116,44.9520523 515.188763,46.9966465 L509.556415,78.4759835 L509.556415,79.2777609 C509.556415,81.2334059 510.987168,82.6565916 512.953212,82.6565916 L519.659867,82.6565916 L519.659867,77.3208805 C519.390359,77.9435242 518.764404,78.3882698 518.05027,78.3882698" id="Fill-62" fill="#E02625"></path>
                    <path d="M428.955704,47.7963237 L431.547702,47.7963237 C432.173656,47.7963237 432.620767,48.3312537 432.620767,48.9526621 L432.620767,49.1305603 L431.16269,56.9827901 L435.782831,56.9827901 L437.448317,47.6184255 L437.448317,46.9970171 C437.448317,44.9511876 436.018806,43.3501036 434.140942,43.3501036 L427.435529,43.3501036 L427.435529,48.7747639 C427.614373,48.2410692 428.240327,47.7963237 428.955704,47.7963237" id="Fill-64" fill="#E02625"></path>
                    <path d="M429.043014,68.3952079 L427.435901,77.0541567 L427.435901,77.321004 L427.435901,82.6567152 C429.582031,82.6567152 431.36923,81.2335294 431.815099,79.2778844 L433.752577,68.3952079 L429.043014,68.3952079 Z" id="Fill-66" fill="#E02625"></path>
                    <path d="M425.826552,78.3882698 L423.233312,78.3882698 C422.607357,78.3882698 422.161489,77.8533397 422.161489,77.2306959 L422.161489,77.0540331 L427.346727,49.1301897 C427.346727,48.9522915 427.346727,48.8645778 427.436149,48.7743933 L427.436149,43.3509684 L427.346727,43.3509684 C425.200598,43.3509684 423.413398,44.9520523 422.965046,46.9966465 L417.332697,78.4759835 L417.332697,79.2777609 C417.332697,81.2334059 418.76345,82.6565916 420.729494,82.6565916 L427.436149,82.6565916 L427.436149,77.3208805 C427.166641,77.9435242 426.541929,78.3882698 425.826552,78.3882698" id="Fill-68" fill="#E02625"></path>
                    <path d="M475.931107,58.2610629 C476.733421,59.679307 480.479213,65.8909199 480.925081,67.0423167 C481.460372,68.0182861 481.816818,69.793562 481.460372,71.4786535 L480.033344,79.1072751 C479.587476,81.1469276 477.893424,82.6565916 475.66284,82.6565916 L469.064236,82.6565916 C467.012497,82.6565916 465.585469,81.0592139 465.585469,79.1072751 L465.585469,78.398153 L467.368943,68.4630316 L471.918291,68.4630316 L470.401842,76.9774381 L470.401842,77.0676226 C470.401842,77.7767446 470.937132,78.3104393 471.560603,78.3104393 L474.058211,78.3104393 C474.949948,78.3104393 475.66284,77.6890309 475.841685,76.8897244 L476.912265,71.3007553 C477.09111,70.1481231 476.912265,69.7046129 475.931107,67.929337 C475.128792,66.5110928 472.007713,60.6552764 471.026554,58.8812358 C469.866551,56.5759714 469.777129,55.5098175 470.045395,53.5591141 L471.293578,46.7285637 C471.739447,44.6889112 473.612343,43.1804826 475.66284,43.1804826 L482.352108,43.1804826 C484.225004,43.1804826 485.919056,44.6889112 485.919056,46.7285637 C485.919056,46.906462 485.919056,47.1708385 485.830875,47.4376858 L484.04616,57.0182462 L479.409874,57.0182462 L480.925081,48.8584007 L480.925081,48.6792671 C480.925081,48.1480433 480.389791,47.615584 479.76632,47.615584 L477.17929,47.615584 C476.376975,47.615584 475.66284,48.2369924 475.57466,48.8584007 L474.682923,53.2935022 C474.325235,55.600002 474.861768,56.6636851 475.931107,58.2610629" id="Fill-70" fill="#E02625"></path>
                    <path d="M493.478823,58.2610629 C494.281137,59.679307 498.026929,65.8909199 498.472797,67.0423167 C499.008087,68.0182861 499.364534,69.793562 499.008087,71.4786535 L497.58106,79.1072751 C497.135192,81.1469276 495.44114,82.6565916 493.211798,82.6565916 L486.611952,82.6565916 C484.560213,82.6565916 483.134427,81.0592139 483.134427,79.1072751 L483.134427,78.398153 L484.916659,68.4630316 L489.466007,68.4630316 L487.949558,76.9774381 L487.949558,77.0676226 C487.949558,77.7767446 488.484848,78.3104393 489.108319,78.3104393 L491.605927,78.3104393 C492.497664,78.3104393 493.211798,77.6890309 493.390642,76.8897244 L494.459981,71.3007553 C494.638826,70.1481231 494.459981,69.7046129 493.478823,67.929337 C492.676508,66.5110928 489.555429,60.6552764 488.57427,58.8812358 C487.414267,56.5759714 487.324845,55.5098175 487.593111,53.5591141 L488.841294,46.7285637 C489.287163,44.6889112 491.160058,43.1804826 493.211798,43.1804826 L499.899824,43.1804826 C501.77272,43.1804826 503.466771,44.6889112 503.466771,46.7285637 C503.466771,46.906462 503.466771,47.1708385 503.378591,47.4376858 L501.593876,57.0182462 L496.95759,57.0182462 L498.472797,48.8584007 L498.472797,48.6792671 C498.472797,48.1480433 497.937507,47.615584 497.314036,47.615584 L494.727006,47.615584 C493.924691,47.615584 493.211798,48.2369924 493.122376,48.8584007 L492.230639,53.2935022 C491.872951,55.600002 492.409484,56.6636851 493.478823,58.2610629" id="Fill-72" fill="#E02625"></path>
                </g>
            </g>
        </g>
    </g>
</svg>