<?xml version="1.0" encoding="UTF-8" standalone="no"?>
<svg width="313px" height="161px" viewBox="0 0 313 161" version="1.1" xmlns="http://www.w3.org/2000/svg" xmlns:xlink="http://www.w3.org/1999/xlink">
    <!-- Generator: Sketch 3.6.1 (26313) - http://www.bohemiancoding.com/sketch -->
    <title>character pattern</title>
    <desc>Created with Sketch.</desc>
    <defs></defs>
    <g id="Page-1" stroke="none" stroke-width="1" fill="none" fill-rule="evenodd">
        <g id="B1.-Canada" transform="translate(-792.000000, -134.000000)" fill="#B1B1B1">
            <g id="MODAL-canada" transform="translate(293.000000, 48.000000)">
                <g id="character-pattern" transform="translate(499.000000, 86.000000)">
                    <g id="pipe" transform="translate(201.500000, 140.500000) scale(-1, 1) translate(-201.500000, -140.500000) translate(0.000000, 120.000000)">
                        <path d="M13.4925699,4.4534175 L382.373401,4.4534175 L382.373401,10.4640675 L10.9071808,10.4640675 L13.4925699,4.4534175 Z" id="Fill-1"></path>
                        <path d="M8.43102156,15.5167875 L0.000282247717,37.6862625 L382.372555,37.6862625 L382.372555,15.5167875 L8.43102156,15.5167875 Z" id="Fill-2"></path>
                        <path d="M400.242222,0.375 L386.979402,0.375 C386.03105,0.375 385.268981,1.104825 385.184306,2.020575 L385.184306,7.215375 L402.071187,7.215375 L402.071187,2.164875 C402.071187,1.182525 401.244202,0.375 400.242222,0.375" id="Fill-3"></path>
                        <path d="M385,39.18945 C385.084674,40.09965 385.846743,40.823925 386.795095,40.823925 L400.057916,40.823925 C401.059895,40.823925 401.886881,40.024725 401.886881,39.03405 L401.886881,12 L385,12 L385,39.18945 Z" id="Fill-6"></path>
                    </g>
                    <g id="characters" transform="translate(29.000000, 0.000000)">
                        <path d="M202.513607,50.9920957 C200.580901,50.9920957 199.030399,49.397973 200.640536,48.0078121 C199.030399,47.5730513 198.152142,47.1356069 197.157327,46.2392483 C189.865631,48.238611 185.943294,41.282439 191.828154,36.5000707 C187.436872,17.0807572 201.196223,3.92253518 207.666587,18.849321 C210.653743,15.6879125 214.166768,14.0669527 215.180558,14.6010107 C216.107607,15.0921293 215.259168,19.2438261 212.114793,24.0369292 C212.965943,24.9064507 214.898649,26.9353342 215.481442,27.6599354 C216.896411,23.4948201 221.382566,21.4927737 224.060706,23.4277274 C227.104786,25.6310519 225.554284,30.7623023 223.209556,31.9780222 C223.767954,32.6731026 224.586576,34.7610277 223.388461,35.9203897 C224.030889,37.0207101 224.147448,40.4692754 222.011441,40.9335569 C221.688872,42.8765617 220.547681,44.934966 218.967361,45.6890881 C219.054103,45.8608454 219.346855,46.4136893 219.433596,46.5854467 C220.254928,46.2392483 221.39612,45.3992476 221.894883,44.3257642 C221.951807,45.1362442 221.951807,45.7159252 221.951807,46.3841685 C224.147448,47.25369 226.871669,49.4838517 228.21616,51.6576554 C229.506438,49.9186124 230.983752,48.4989307 233.632075,49.223532 C235.009094,49.6019348 236.532489,50.3265361 237.46767,50.7612968 C237.849874,49.9481332 238.904324,49.2825735 240.102439,50.1225742 C241.918586,42.4122802 248.445875,43.8910035 249.822894,47.6884508 C250.524957,47.9192497 251.22702,48.1527323 251.462848,48.2681318 C251.695965,48.3835312 251.931793,48.5874931 251.988717,49.1376533 C252.070038,49.8998265 251.7556,56.2092248 249.589776,59.5128697 C249.822894,59.7168316 250.115646,59.9207934 250.262022,60.1220715 C250.408398,60.3260334 250.524957,60.5568323 250.468033,61.0506346 C250.332499,62.1777921 249.882529,64.7031617 249.413583,65.9484023 C249.212994,66.4824603 249.061196,66.5871249 248.535327,66.7025244 C248.299498,66.7535148 247.188125,66.788403 246.748996,66.7293615 C245.754181,67.8618864 243.206154,67.8914072 241.333082,66.3536423 C239.722945,66.6730036 238.316109,65.5699994 238.082991,63.9490396 C236.678865,63.5437997 235.242211,62.8755563 234.073913,62.150955 C231.994831,66.9923649 229.536255,70.3523677 226.196712,72.3812512 C225.071785,75.5077714 224.068838,77.8103932 222.61592,79.7050913 C221.062708,81.7339748 218.674609,83.5132734 216.096764,85.1932748 C216.194348,86.103052 215.841961,87.1845864 214.966415,87.6864399 C217.248798,91.7254209 215.191401,96.5507285 211.784091,97.1921348 C210.553448,97.4256174 208.721037,97.2511764 207.745196,96.2447858 C207.002473,96.3628689 206.33836,96.4353291 205.966998,96.4192268 C205.479078,96.4004409 205.180904,96.2528369 204.855624,95.7617183 C203.391864,93.5610774 202.180195,88.9799873 202.475658,86.0037547 C201.868468,86.0815823 201.394101,85.8803042 200.933288,85.2523164 C200.152615,84.1895679 199.512898,82.2519305 199.350258,81.0013224 C199.23641,80.094229 199.507476,79.7265609 199.838178,79.4742924 C200.17159,79.2220238 200.678485,78.9321833 201.301939,78.6825984 C201.751909,76.9032998 203.25633,76.0928198 205.24596,76.2484749 C205.576662,75.2232983 206.964524,74.9898157 207.84278,75.5507108 C208.875545,74.7965887 210.379965,73.7928818 211.336831,73.0978013 C211.784091,72.1128804 212.46718,70.6448919 212.838541,69.8129423 C210.360991,66.1604153 210.789276,63.6108924 210.789276,60.4414328 C210.065528,59.3786843 209.265881,58.2193223 208.563818,57.3685868 C207.257276,58.1414948 203.275305,60.8091009 202.359099,61.7349802 C203.128929,63.715557 202.310307,64.9930022 200.551084,65.1379224 C201.402233,69.2225265 198.91384,72.3812512 195.720673,70.9052116 C192.763335,74.555055 189.369578,73.9190161 189.106644,71.6593337 C187.320314,71.831091 185.973112,70.7871285 186.236046,68.8468073 C184.742468,68.2080847 183.923847,66.613962 184.596092,64.8185611 C183.257022,62.7440546 184.219309,59.6604737 187.027561,57.8033475 C188.778653,56.6466692 191.031218,56.0804068 193.23228,56.4695445 C193.39492,54.6365717 195.34118,53.7751013 197.067875,54.9639841 C198.005766,54.1803413 201.136588,51.891138 202.513607,50.9920957 M208.699351,16.4232486 C210.146848,14.9552602 214.302302,12.6553221 215.863646,13.7583262 C217.530707,14.9337905 215.668478,20.6366707 213.44302,23.8061303 C213.892991,24.2113702 215.004365,25.4083041 215.218508,25.6793587 C216.188927,23.8759067 218.460466,22.1824867 220.119395,22.0080457 C220.119395,20.8298977 220.078735,18.2991608 220.05976,17.137115 C221.444912,16.7318751 221.913857,14.6654197 220.431122,13.6026712 C221.992467,11.9414557 222.187635,9.1396642 221.092525,7.07052507 C222.870723,2.10566464 219.726348,-0.425072325 217.717743,1.33275664 C217.034655,-0.309672867 214.771247,-0.390184117 213.814382,0.849689136 C212.643373,-0.331142534 210.748616,-0.057404283 209.772776,1.50719768 C204.817675,0.192180593 204.427339,11.9012001 208.525868,14.0857387 C207.704536,14.7432472 207.726221,16.0555806 208.699351,16.4232486" id="mario"></path>
                        <path d="M131.924891,72.7707928 C131.512496,71.9066459 130.70824,70.6027252 130.023768,69.7009323 C129.500146,70.760154 127.162671,72.1718791 126.27799,70.4452965 C124.587342,71.6619469 122.157464,70.8114894 123.216686,69.3073605 C123.661593,68.6793567 124.103078,68.3268532 124.103078,67.0708457 C124.103078,66.6002706 123.983295,66.4428419 123.861801,65.4623346 C120.680714,65.10812 119.070492,62.5584588 118.74879,61.2630941 C111.057027,61.1056653 108.882114,54.3550525 114.118331,49.7263053 C114.164533,35.6757901 120.234096,29.2212118 125.513092,29.0056028 C129.123686,28.8584412 132.104565,31.6100218 133.446132,37.2860124 C138.588233,33.8910274 142.50684,33.0474146 143.593441,33.8722044 C144.654373,34.6764599 143.552372,38.7764519 136.344874,45.1728501 C137.070415,46.507572 137.996164,48.4702977 138.559143,49.7263053 C142.746405,42.7395493 150.116466,44.6235606 149.914547,49.9607372 C149.825565,52.3136124 148.747521,54.9847674 144.599616,56.3571354 C145.405582,57.5344286 145.566433,59.8496578 143.593441,61.026951 C144.438764,62.5191016 144.034926,64.440759 142.344278,64.873688 C142.746405,67.4627063 141.940439,70.0534358 139.767238,71.2700862 C139.888732,71.5438753 139.928089,71.7013041 139.969157,71.89809 C140.773413,71.9768044 142.465772,72.5637398 141.579379,74.1346048 C146.059254,76.5969957 151.677064,83.4246117 152.582279,89.7816527 C154.560406,88.7070304 157.111778,87.9866228 160.012232,88.0465142 C162.765523,88.101272 164.842898,89.2819876 165.327163,97.1397352 C166.263179,96.8163218 167.351491,97.1996265 167.774153,97.8755434 C171.333411,95.5740037 174.470008,96.6452036 175.927935,98.6421529 C176.893042,99.9666078 177.225011,102.114141 176.078519,103.585758 C176.591874,104.468728 176.680855,104.675781 176.80406,104.999194 C177.014536,105.55875 177.146297,105.979701 176.711656,106.410919 C173.994299,109.11972 169.132831,111.414415 166.203288,112.033863 C166.353872,112.415457 166.779956,112.981858 166.143397,113.474678 C165.114976,114.270378 162.871617,115.480183 161.884265,115.800175 C161.160435,116.036318 160.886646,116.005516 160.556387,115.682103 C160.282598,115.41687 159.770955,114.799133 159.58957,114.535611 C157.536151,114.270378 155.542624,112.210115 156.055979,108.972558 C154.454313,108.649145 153.549097,107.030367 155.299636,104.910212 C155.208944,103.732919 155.169587,102.880751 154.998468,101.585386 C152.854357,101.966979 146.119145,104.292476 143.764559,105.587841 C142.43497,108.618344 140.443155,111.915791 138.90138,113.799803 C136.372253,116.89362 133.069671,117.540447 129.78078,116.594163 C127.426193,115.918246 125.764636,115.153348 124.707125,114.564701 C124.224572,115.182438 122.775201,115.682103 121.686889,115.35869 C118.274792,121.775622 110.875641,120.067862 110.695967,115.329599 C109.819842,114.917205 109.352689,114.63486 109.154192,114.47572 C108.822223,114.210486 108.640838,113.733067 108.851313,112.916833 C109.547764,110.237122 112.174429,105.204536 114.378431,103.233254 C113.6238,102.849949 113.269585,102.666853 113.502306,101.966979 C113.895878,100.789686 114.879807,98.7739139 115.648128,97.8173632 C116.190573,97.1397352 116.493452,96.9343933 117.248083,97.0524649 C117.607431,97.1089339 118.456177,97.3176981 118.969532,97.4939498 C121.264227,96.7290515 123.861801,97.8755434 124.556541,100.437183 C126.067515,99.9956979 127.275609,101.05492 127.426193,102.468356 C127.968638,102.791769 129.992966,103.614848 130.566212,103.821901 C130.778399,103.380416 131.592921,101.643566 131.805108,101.143901 C129.479612,96.8762131 130.263333,92.4305624 132.106276,88.693341 C131.502229,86.3096645 130.501187,83.850696 129.75169,81.9820853 C126.640761,81.9820853 122.806002,83.1302884 120.99386,84.2784915 C121.204336,85.7791981 120.268319,87.1926344 118.516069,86.9274012 C118.245702,90.4011006 116.281265,93.7259271 113.32092,92.5195439 C111.479689,94.3145737 107.461833,94.6978785 106.707202,92.0198787 C104.86597,92.6085253 103.325907,91.5185024 103.476491,89.6344911 C102.057921,88.9294841 101.69515,87.6050293 102.299197,85.9862511 C100.788224,82.1309581 105.138048,77.0093905 112.23432,77.7742889 C112.92906,76.1264206 114.590617,75.6849357 116.553343,76.5679056 C120.63109,74.2714994 126.368683,72.9470445 131.924891,72.7707928 M145.747819,76.0579733 C148.318014,78.2037955 151.464878,82.3157658 153.015208,87.0061156 C154.124054,86.888044 155.472466,86.0444313 155.913951,84.8876723 C159.115572,84.2990257 159.901005,81.0409352 158.189823,79.9218222 C158.653553,78.4707399 158.210357,77.1565522 156.618958,76.9015861 C156.94066,75.311898 155.854059,74.1534278 154.183946,74.173962 C154.700723,72.2591494 151.993633,71.6516798 148.766344,73.4860669 C147.729367,74.0764246 146.712925,74.8995032 145.747819,76.0579733" id="luigi"></path>
                        <path d="M46.4628789,22.2735859 C46.4628789,22.2735859 46.2625435,21.838572 46.1289866,21.5390229 C45.0242803,21.0944693 44.5740027,19.3677694 45.4115953,18.4004358 C45.1940883,17.532316 44.7094676,15.8781184 44.5263038,15.3438908 C44.3431401,14.8096632 44.7266392,15.0271701 44.8926313,15.1092122 C45.0605314,15.1931623 47.8327911,16.6966314 48.4166255,17.013352 C48.9851963,15.9448968 50.3741881,13.4340271 50.7538712,13.006645 C50.8874281,12.8559165 50.9122316,12.8559165 51.1049351,12.9570382 C51.5227774,13.1726372 55.0124284,15.2103339 55.4627059,15.5442261 C56.0312767,14.7600563 57.3344105,12.8902597 57.784688,12.188132 C58.0766052,11.7321306 58.1452916,12.2377389 58.1510155,12.3216889 C58.1853587,12.8387449 58.2521372,15.2103339 58.2521372,15.6453478 C59.5037561,15.8781184 59.7384347,17.6983081 59.0859138,18.566428 C61.274339,17.6143581 64.0790339,17.2480306 65.5653314,19.4345478 C67.0516289,21.622973 66.4677944,25.4961231 64.1629839,28.6366182 C63.9626486,28.4515465 63.7127064,28.2683827 63.4627642,28.1176542 C63.6459279,28.8522172 63.5886893,29.9035008 63.5619779,31.3897983 C63.5276347,33.2443312 62.9399843,34.4787785 65.0482754,35.9154692 C65.4146029,36.1673193 64.4472693,37.0182676 64.0962055,37.2014313 C64.0962055,37.2014313 63.9626486,37.3178166 64.0637702,37.5849304 C64.1629839,37.8539522 64.2602897,38.0390239 64.3461477,38.1878444 C64.5312194,38.5045651 64.3804909,38.8880642 63.729878,39.3230781 C64.0962055,39.8725693 64.0160714,40.5899607 63.3120357,40.8914177 C63.1956504,40.9429325 63.1326879,41.0116189 63.1117003,41.0593178 C63.0449219,41.2100463 63.0201185,41.6584159 62.9934071,42.0285593 C62.911365,43.2630066 60.757283,42.9958928 58.3189156,42.1773798 C58.1014087,42.6620006 57.6339595,43.6140705 57.4679674,43.9651343 C57.6015243,44.1139549 57.7503448,44.3829766 57.8171233,44.5165335 C58.3685225,44.0147412 59.6220494,43.5644636 60.4729976,44.6500904 C59.5209277,44.9668111 58.820708,45.6842024 58.5688578,46.4683722 C59.5361914,47.4376137 62.0470611,50.9482522 60.9404468,54.0334166 C59.9883769,56.687383 57.1493388,60.8295548 57.183682,62.4322376 C57.5347458,62.800473 58.000287,63.3518722 58.1681871,63.7525429 C58.217794,63.3518722 58.1357519,63.016072 58.0269984,62.7661298 C58.0479859,62.3387478 58.2254258,61.6976746 58.5497783,60.9383083 C59.5705346,61.2970039 60.371876,62.5333592 60.4901692,63.8689282 C61.8925167,64.136042 63.6459279,66.1909103 63.2776925,68.7437551 C60.455826,68.0435353 59.0706502,65.8055033 58.3685225,65.4048326 C58.2693088,67.9595853 63.0449219,70.4971664 67.4179564,70.1804457 C66.9695868,70.598288 66.6643139,71.6724671 67.9788954,71.6247682 C68.3643024,71.6095045 68.8718186,71.3824578 69.3907826,70.9493519 C73.5978249,75.4731148 77.0531327,89.9258793 77.4538034,97.6149408 C82.33817,100.896625 79.8101287,105.706581 73.1475474,105.531049 C75.7519069,108.085802 70.6920084,110.390612 67.4103246,109.362224 C67.3111109,108.335744 66.8856367,107.358871 66.5345729,106.858986 C66.183509,106.357194 66.2159443,106.736877 66.2846307,107.007807 C66.4582547,107.709934 66.7597117,109.787698 66.8341219,111.041225 C67.3855211,111.817763 68.4921354,114.322909 68.5379264,115.423799 C68.5627298,116.024805 68.3032478,115.935131 67.9617238,115.849273 C63.3024959,114.672065 62.8770218,111.340774 62.2264089,110.590948 C62.1768021,111.266364 62.0432452,112.460744 61.9249519,112.945365 C61.6254029,112.945365 61.1407821,112.760293 61.0072252,112.577129 C60.8813001,111.976123 60.5226045,109.989942 60.3985873,109.388935 C57.5843527,111.174782 53.4936956,111.607888 51.0724998,110.75694 C46.7967711,121.460571 19.1791123,124.299609 16.8743018,117.953749 C7.38985396,117.854535 -2.1957155,107.635524 2.17922693,103.794809 C-1.7607016,97.2810486 -0.390789403,92.7725492 6.55416937,95.4780304 C13.5849861,91.0534811 19.1314134,86.5239943 25.8073504,78.178596 C30.216636,72.6684199 35.0761992,68.661713 36.8773094,68.1103138 C37.2283732,65.8551101 38.5486786,63.9013635 40.6531537,63.9528783 C41.6872657,61.2798323 43.7917409,60.3792772 45.0433598,61.2970039 C46.1461582,60.045385 47.6477194,59.444379 49.0500668,59.2936505 C49.2523101,58.3415806 49.2046112,56.6263284 49.0500668,55.9375564 L48.1743151,56.0119666 C48.2735288,56.8362035 48.3651107,57.9294621 48.2258299,58.6430376 C46.972303,58.8681763 45.9954297,59.268847 45.0185564,60.2953272 C43.742134,59.268847 40.8611209,60.4956625 40.1132023,63.1763403 C37.9056975,62.976005 36.3736091,65.1949574 36.0473487,67.452069 C35.2746266,67.7916852 34.2767658,68.3717037 32.9373809,69.4630544 C32.0940644,68.5052606 31.6933937,67.2040348 31.895637,65.5803645 C30.7527716,66.4179571 30.2967702,67.7878693 30.0678155,69.2340997 C28.8753432,68.4232185 27.8870221,67.1029132 27.631356,65.5803645 C28.4288815,65.2541041 29.0298876,64.954555 30.132686,64.3859842 C30.6974409,64.095975 31.122915,63.7964259 31.767804,63.5502996 C33.1758753,63.0122561 35.2002163,62.4742126 37.6309519,61.7472815 C40.4757139,60.8963332 42.2119535,60.1655862 44.2916253,57.9084746 C45.1292178,57.7539302 46.2606356,57.7119552 46.8711814,57.761562 C46.6670301,56.5938931 45.7283159,54.9950262 43.1888269,55.0980559 C43.2155383,53.3198411 41.4888383,51.518731 40.0941227,51.4939275 C40.1437296,52.3563235 40.1189261,54.0315086 40.0674113,54.7164647 C38.9779686,55.3002992 38.2414977,55.6551789 37.0738288,56.3153316 C34.2958453,57.8855791 32.2943998,59.3737846 30.3654566,60.3124988 C29.4400981,60.262892 27.3527945,59.5645802 25.6260946,59.616095 C24.0024243,58.7765945 23.3422716,55.783012 24.4336223,54.2604633 C25.0422602,56.0367701 27.5798412,56.2142099 28.1903871,53.497281 C28.9478455,50.1221074 30.6001351,48.6758769 32.4794715,48.6243621 C30.2452554,48.3973154 28.493752,45.8578264 30.6516499,42.9138507 C31.2869992,44.7168689 33.9371497,44.7359484 34.7136876,42.6352892 C35.7535235,39.8172386 35.474962,37.2548541 39.1554085,36.3161399 C37.9877396,35.8334271 36.7685559,34.1067272 36.7437525,32.9905731 C37.5546337,33.4217711 39.5866065,33.3969677 40.3211694,33.1164982 C38.1651795,32.4830569 37.022314,30.8078718 36.8200707,28.8026103 C38.5448627,28.8026103 40.5501241,27.9898212 42.6317038,25.7823164 C44.7132835,23.5729037 45.3448168,23.0043329 46.4628789,22.2735859 M60.9137354,56.1207201 C60.5054329,56.9735763 60.0379837,57.8741314 59.6010619,58.7403433 C59.8834393,58.8414649 60.3222691,58.9921935 60.6237261,59.0933151 C61.0873593,60.3697375 61.362105,61.4725359 62.9151809,62.2738773 C64.3289761,63.0046243 69.0378108,64.9660028 69.8143487,65.7425407 C69.9154704,65.8436624 70.0413955,65.9810352 69.890667,66.118408 C69.7399385,66.2557808 68.7878686,67.3337758 68.7764208,68.3220969 C68.7630651,69.3123259 68.2002182,69.8503694 67.6869781,70.426572 C67.3740734,70.7776358 67.6030281,71.2603486 68.425357,70.9283643 C69.0149153,70.6898699 69.2915689,70.3712413 69.6407248,69.9133319 C70.2150194,70.514338 71.3311735,71.9300411 71.8329659,72.8305962 C72.2946912,71.9930036 72.0065898,71.0523815 71.8577693,70.6154596 C72.3194946,69.6385863 72.6705584,67.8985307 72.5961482,66.0439977 C72.4950265,63.5388519 65.3440085,58.9921935 64.204959,58.4675056 C64.3175284,57.7901814 64.7563582,56.6511318 65.5576996,56.1130883 C65.2829539,55.7620244 64.2297624,55.6494551 63.2776925,56.3630305 C63.1899265,56.0119666 63.0277503,55.435764 62.9266286,55.0350933 C62.4133886,55.7620244 61.6005994,56.124536 60.9137354,56.1207201 M59.2347344,46.2222459 C60.2020679,47.1895795 62.825507,50.8127873 61.8448178,53.8903199 C61.7169847,54.2948065 61.5719801,54.7565318 61.3315777,55.2144412 C61.9077803,55.0847002 62.3599658,54.7355443 62.7262933,54.2833588 C65.2657823,54.7012011 65.8667884,50.7135736 64.3633193,48.2561267 C62.9495241,45.9417764 60.0894985,45.1175396 59.2347344,46.2222459 M57.309607,47.3994546 C56.2525996,47.595974 55.6554095,49.1719454 55.9797619,50.9215408 C56.3041144,52.6711362 57.4240844,53.928479 58.4810919,53.7338675 C59.5400073,53.5373481 60.1352894,51.9613767 59.8128449,50.2117813 C59.4884925,48.4640939 58.3685225,47.2048431 57.309607,47.3994546 M31.3671333,63.0752187 C33.1300844,62.3330239 34.9750776,61.7224781 37.6290439,60.9459401 C40.7485515,60.0339373 42.2253092,59.0036412 43.742134,57.4143141 C44.1428047,57.2387822 44.9174347,57.114765 45.8943081,57.114765 C45.4440305,56.0882849 44.217215,55.6360994 42.538214,55.8116313 C42.7633527,54.1078268 41.5613407,52.6558726 40.7848027,52.4803406 C40.8859243,52.8810113 40.9107278,54.6344226 40.7848027,55.2106252 C39.9834613,55.5616891 38.531507,56.3382271 37.4287086,56.9640365 C36.117943,57.7100472 31.8937291,60.520466 30.39026,60.9974549 C28.839092,60.8715298 27.0856807,60.1942055 25.1815409,60.1694021 C24.0024243,60.1541385 22.4035574,60.3220386 21.0737123,61.0222583 C20.1216424,61.5221427 20.5433006,61.7987963 20.9496952,61.7987963 C21.474383,61.7987963 22.6019848,61.422929 23.0274589,61.6232644 C22.4016495,62.199467 21.8502503,63.1000221 21.7243252,63.8021498 C21.474383,64.2276239 21.0298293,65.0766642 21.4991864,65.2044972 C21.4991864,65.5059542 21.3980648,66.2557808 22.9015339,65.2541041 C24.4050029,64.2524273 26.0076857,63.3766757 26.9101488,63.7010281 C26.2576279,64.1016988 25.5058934,64.7542197 25.2063443,65.3056189 C25.0823272,65.5345736 24.8667282,66.074525 26.1832177,65.4792428 C26.9597556,65.130087 27.6103685,64.8038265 28.7875772,64.3287456 C30.090711,63.8021498 30.8920523,63.275554 31.3671333,63.0752187" id="peach"></path>
                    </g>
                </g>
            </g>
        </g>
    </g>
</svg>