<svg height="161" viewBox="0 0 313 161" width="313" xmlns="http://www.w3.org/2000/svg"><g fill="#b1b1b1" fill-rule="evenodd"><g transform="matrix(-1 0 0 1 403 120)"><path d="m13.4925699 4.4534175h368.8808311v6.01065h-371.4662202z"/><path d="m8.43102156 15.5167875-8.43073931 22.169475h382.37227275v-22.169475z"/><path d="m400.242222.375h-13.26282c-.948352 0-1.710421.729825-1.795096 1.645575v5.1948h16.886881v-5.0505c0-.98235-.826985-1.789875-1.828965-1.789875"/><path d="m385 39.18945c.084674.9102.846743 1.634475 1.795095 1.634475h13.262821c1.001979 0 1.828965-.7992 1.828965-1.789875v-27.03405h-16.886881z"/></g><g transform="translate(29)"><path d="m202.513607 50.9920957c-1.932706 0-3.483208-1.5941227-1.873071-2.9842836-1.610137-.4347608-2.488394-.8722052-3.483209-1.7685638-7.291696 1.9993627-11.214033-4.9568093-5.329173-9.7391776-4.391282-19.4193135 9.368069-32.57753552 15.838433-17.6507497 2.987156-3.1614085 6.500181-4.7823683 7.513971-4.2483103.927049.4911186.07861 4.6428154-3.065765 9.4359185.85115.8695215 2.783856 2.898405 3.366649 3.6230062 1.414969-4.1651153 5.901124-6.1671617 8.579264-4.232208 3.04408 2.2033245 1.493578 7.3345749-.85115 8.5502948.558398.6950804 1.37702 2.7830055.178905 3.9423675.642428 1.1003204.758987 4.5488857-1.37702 5.0131672-.322569 1.9430048-1.46376 4.0014091-3.04408 4.7555312.086742.1717573.379494.7246012.466235.8963586.821332-.3461984 1.962524-1.1861991 2.461287-2.2596825.056924.81048.056924 1.390161.056924 2.0584043 2.195641.8695215 4.919862 3.0996832 6.264353 5.2734869 1.290278-1.739043 2.767592-3.1587247 5.415915-2.4341234 1.377019.3784028 2.900414 1.1030041 3.835595 1.5377648.382204-.8131636 1.436654-1.4787233 2.634769-.6387226 1.816147-7.710294 8.343436-6.2315707 9.720455-2.4341234.702063.2307989 1.404126.4642815 1.639954.579681.233117.1153994.468945.3193613.525869.8695215.081321.7621732-.233117 7.0715715-2.398941 10.3752164.233118.2039619.52587.4079237.672246.6092018.146376.2039619.262935.4347608.206011.9285631-.135534 1.1271575-.585504 3.6525271-1.05445 4.8977677-.200589.534058-.352387.6387226-.878256.7541221-.235829.0509904-1.347202.0858786-1.786331.0268371-.994815 1.1325249-3.542842 1.1620457-5.415914-.3757192-1.610137.3193613-3.016973-.7836429-3.250091-2.4046027-1.404126-.4052399-2.84078-1.0734833-4.009078-1.7980846-2.079082 4.8414099-4.537658 8.2014127-7.877201 10.2302962-1.124927 3.1265202-2.127874 5.429142-3.580792 7.3238401-1.553212 2.0288835-3.941311 3.8081821-6.519156 5.4881835.097584.9097772-.254803 1.9913116-1.130349 2.4931651 2.282383 4.038981.224986 8.8642886-3.182324 9.5056949-1.230643.2334826-3.063054.0590416-4.038895-.947349-.742723.1180831-1.406836.1905433-1.778198.174441-.48792-.0187859-.786094-.1663899-1.111374-.6575085-1.46376-2.2006409-2.675429-6.781731-2.379966-9.7579636-.60719.0778276-1.081557-.1234505-1.54237-.7514383-.780673-1.0627485-1.42039-3.0003859-1.58303-4.250994-.113848-.9070934.157218-1.2747615.48792-1.52703.333412-.2522686.840307-.5421091 1.463761-.791694.44997-1.7792986 1.954391-2.5897786 3.944021-2.4341235.330702-1.0251766 1.718564-1.2586592 2.59682-.6977641 1.032765-.7541221 2.537185-1.757829 3.494051-2.4529095.44726-.9849209 1.130349-2.4529094 1.50171-3.284859-2.47755-3.652527-2.049265-6.2020499-2.049265-9.3715095-.723748-1.0627485-1.523395-2.2221105-2.225458-3.072846-1.306542.772908-5.288513 3.4405141-6.204719 4.3663934.76983 1.9805768-.048792 3.258022-1.808015 3.4029422.851149 4.0846041-1.637244 7.2433288-4.830411 5.7672892-2.957338 3.6498434-6.351095 3.0138045-6.614029.7541221-1.78633.1717573-3.133532-.8722052-2.870598-2.8125264-1.493578-.6387226-2.312199-2.2328453-1.639954-4.0282462-1.33907-2.0745065-.376783-5.1580874 2.431469-7.0152136 1.751092-1.1566783 4.003657-1.7229407 6.204719-1.333803.16264-1.8329728 2.1089-2.6944432 3.835595-1.5055604.937891-.7836428 4.068713-3.0728461 5.445732-3.9718884m6.185744-34.5688471c1.447497-1.4679884 5.602951-3.7679265 7.164295-2.6649224 1.667061 1.1754643-.195168 6.8783445-2.420626 10.0478041.449971.4052399 1.561345 1.6021738 1.775488 1.8732284.970419-1.803452 3.241958-3.496872 4.900887-3.671313 0-1.178148-.04066-3.7088849-.059635-4.8709307 1.385152-.4052399 1.854097-2.4716953.371362-3.5344438 1.561345-1.6612155 1.756513-4.463007.661403-6.53214613 1.778198-4.96486043-1.366177-7.4955974-3.374782-5.73776843-.683088-1.64242951-2.946496-1.72294076-3.903361-.4830675-1.171009-1.18083167-3.065766-.90709342-4.041606.65750854-4.955101-1.31501709-5.345437 10.39400242-1.246908 12.57854102-.821332.6575085-.799647 1.9698419.173483 2.3375099"/><path d="m131.924891 72.7707928c-.412395-.8641469-1.216651-2.1680676-1.901123-3.0698605-.523622 1.0592217-2.861097 2.4709468-3.745778.7443642-1.690648 1.2166504-4.120526.3661929-3.061304-1.137936.444907-.6280038.886392-.9805073.886392-2.2365148 0-.4705751-.119783-.6280038-.241277-1.6085111-3.181087-.3542146-4.791309-2.9038758-5.113011-4.1992405-7.691763-.1574288-9.866676-6.9080416-4.630459-11.5367888.046202-14.0505152 6.115765-20.5050935 11.394761-20.7207025 3.610594-.1471616 6.591473 2.604419 7.93304 8.2804096 5.142101-3.394985 9.060708-4.2385978 10.147309-3.413808 1.060932.8042555-.041069 4.9042475-7.248567 11.3006457.725541 1.3347219 1.65129 3.2974476 2.214269 4.5534552 4.187262-6.986756 11.557323-5.1027447 11.355404.2344319-.088982 2.3528752-1.167026 5.0240302-5.314931 6.3963982.805966 1.1772932.966817 3.4925224-1.006175 4.6698156.845323 1.4921506.441485 3.413808-1.249163 3.846737.402127 2.5890183-.403839 5.1797478-2.57704 6.3963982.121494.2737891.160851.4312179.201919.6280038.804256.0787144 2.496615.6656498 1.610222 2.2365148 4.479875 2.4623909 10.097685 9.2900069 11.0029 15.6470479 1.978127-1.0746223 4.529499-1.7950299 7.429953-1.7351385 2.753291.0547578 4.830666 1.2354734 5.314931 9.093221.936016-.3234134 2.024328.0598913 2.44699.7358082 3.559258-2.3015397 6.695855-1.2303398 8.153782.7666095.965107 1.3244549 1.297076 3.4719881.150584 4.9436051.513355.88297.602336 1.090023.725541 1.413436.210476.559556.342237.980507-.092404 1.411725-2.717357 2.708801-7.578825 5.003496-10.508368 5.622944.150584.381594.576668.947995-.059891 1.440815-1.028421.7957-3.27178 2.005505-4.259132 2.325497-.72383.236143-.997619.205341-1.327878-.118072-.273789-.265233-.785432-.88297-.966817-1.146492-2.053419-.265233-4.046946-2.325496-3.533591-5.563053-1.601666-.323413-2.506882-1.942191-.756343-4.062346-.090692-1.177293-.130049-2.029461-.301168-3.324826-2.144111.381593-8.879323 2.70709-11.233909 4.002455-1.329589 3.030503-3.321404 6.32795-4.863179 8.211962-2.529127 3.093817-5.831709 3.740644-9.1206 2.79436-2.354587-.675917-4.016144-1.440815-5.073655-2.029462-.482553.617737-1.931924 1.117402-3.020236.793989-3.412097 6.416932-10.811248 4.709172-10.990922-.029091-.876125-.412394-1.343278-.694739-1.541775-.853879-.331969-.265234-.513354-.742653-.302879-1.558887.696451-2.679711 3.323116-7.712297 5.527118-9.683579-.754631-.383305-1.108846-.566401-.876125-1.266275.393572-1.177293 1.377501-3.1930651 2.145822-4.1496158.542445-.677628.845324-.8829699 1.599955-.7648983.359348.056469 1.208094.2652332 1.721449.4414849 2.294695-.7648983 4.892269.3815936 5.587009 2.9432332 1.510974-.4414851 2.719068.617737 2.869652 2.031173.542445.323413 2.566773 1.146492 3.140019 1.353545.212187-.441485 1.026709-2.178335 1.238896-2.678-2.325496-4.2676879-1.541775-8.7133386.301168-12.45056-.604047-2.3836765-1.605089-4.842645-2.354586-6.7112557-3.110929 0-6.945688 1.1482031-8.75783 2.2964062.210476 1.5007066-.725541 2.9141429-2.477791 2.6489097-.270367 3.4736994-2.234804 6.7985259-5.195149 5.5921427-1.841231 1.7950298-5.859087 2.1783346-6.613718-.4996652-1.841232.5886466-3.381295-.5013763-3.230711-2.3853876-1.41857-.705007-1.781341-2.0294618-1.177294-3.64824-1.510973-3.855293 2.838851-8.9768606 9.935123-8.2119622.69474-1.6478683 2.356297-2.0893532 4.319023-1.2063833 4.077747-2.2964062 9.81534-3.6208611 15.371548-3.7971128m13.822928 3.2871805c2.570195 2.1458222 5.717059 6.2577925 7.267389 10.9481423 1.108846-.1180716 2.457258-.9616843 2.898743-2.1184433 3.201621-.5886466 3.987054-3.8467371 2.275872-4.9658501.46373-1.4510823.020534-2.76527-1.570865-3.0202361.321702-1.5896881-.764899-2.7481583-2.435012-2.7276241.516777-1.9148126-2.190313-2.5222822-5.417602-.6878951-1.036977.5903577-2.053419 1.4134363-3.018525 2.5719064"/><path d="m46.4628789 22.2735859s-.2003354-.4350139-.3338923-.734563c-1.1047063-.4445536-1.5549839-2.1712535-.7173913-3.1385871-.217507-.8681198-.7021277-2.5223174-.8852915-3.056545-.1831637-.5342276.2003354-.3167207.3663275-.2346786.1679001.0839501 2.9401598 1.5874192 3.5239942 1.9041398.5685708-1.0684552 1.9575626-3.5793249 2.3372457-4.006707.1335569-.1507285.1583604-.1507285.3510639-.0496068.4178423.215599 3.9074933 2.2532957 4.3577708 2.5871879.5685708-.7841698 1.8717046-2.6539664 2.3219821-3.3560941.2919172-.4560014.3606036.0496069.3663275.1335569.0343432.517056.1011217 2.888645.1011217 3.3236589 1.2516189.2327706 1.4862975 2.0529603.8337766 2.9210802 2.1884252-.9520699 4.9931201-1.3183974 6.4794176.8681198 1.4862975 2.1884252.902463 6.0615753-1.4023475 9.2020704-.2003353-.1850717-.4502775-.3682355-.7002197-.518964.1831637.734563.1259251 1.7858466.0992137 3.2721441-.0343432 1.8545329-.6219936 3.0889802 1.4862975 4.5256709.3663275.2518501-.6010061 1.1027984-.9520699 1.2859621 0 0-.1335569.1163853-.0324353.3834991.0992137.2690218.1965195.4540935.2823775.602914.1850717.3167207.0343432.7002198-.6162697 1.1352337.3663275.5494912.2861934 1.2668826-.4178423 1.5683396-.1163853.0515148-.1793478.1202012-.2003354.1679001-.0667784.1507285-.0915818.5990981-.1182932.9692415-.0820421 1.2344473-2.2361241.9673335-4.6744915.1488205-.2175069.4846208-.6849561 1.4366907-.8509482 1.7877545.1335569.1488206.2823774.4178423.3491559.5513992.5513992-.5017923 1.8049261-.9520699 2.6558743.1335569-.9520699.3167207-1.6522896 1.034112-1.9041398 1.8182818.9673336.9692415 3.4782033 4.47988 2.371589 7.5650444-.9520699 2.6539664-3.791108 6.7961382-3.7567648 8.398821.3510638.3682354.816605.9196346.9845051 1.3203053.0496069-.4006707-.0324352-.7364709-.1411887-.9864131.0209875-.427382.1984274-1.0684552.5227799-1.8278215 1.0207563.3586956 1.8220977 1.5950509 1.9403909 2.9306199 1.4023475.2671138 3.1557587 2.3219821 2.7875233 4.8748269-2.8218665-.7002198-4.2070423-2.9382518-4.90917-3.3389225-.0992137 2.5547527 4.6763994 5.0923338 9.0494339 4.7756131-.4483696.4178423-.7536425 1.4920214.560939 1.4443225.385407-.0152637.8929232-.2423104 1.4118872-.6754163 4.2070423 4.5237629 7.6623501 18.9765274 8.0630208 26.6655889 4.8843666 3.2816842 2.3563253 8.0916402-4.306256 7.9161082 2.6043595 2.554753-2.455539 4.859563-5.7372228 3.831175-.0992137-1.02648-.5246879-2.003353-.8757517-2.503238-.3510639-.501792-.3186286-.122109-.2499422.148821.173624.702127.475081 2.779891.5494912 4.033418.5513992.776538 1.6580135 3.281684 1.7038045 4.382574.0248034.601006-.2346786.511332-.5762026.425474-4.6592279-1.177208-5.084702-4.508499-5.7353149-5.258325-.0496068.675416-.1831637 1.869796-.301457 2.354417-.299549 0-.7841698-.185072-.9177267-.368236-.1259251-.601006-.4846207-2.587187-.6086379-3.188194-2.8142346 1.785847-6.9048917 2.218953-9.3260875 1.368005-4.2757287 10.703631-31.8933875 13.542669-34.198198 7.196809-9.48444784-.099214-19.0700173-10.318225-14.69507487-14.15894-3.93992853-6.5137604-2.57001633-11.0222598 4.37494244-8.3167786 7.03081673-4.4245493 12.57724403-8.9540361 19.25318103-17.2994344 4.4092856-5.5101761 9.2688488-9.516883 11.069959-10.0682822.3510638-2.2552037 1.6713692-4.2089503 3.7758443-4.1574355 1.034112-2.673046 3.1385872-3.5736011 4.3902061-2.6558744 1.1027984-1.2516189 2.6043596-1.8526249 4.006707-2.0033534.2022433-.9520699.1545444-2.6673221 0-3.3560941l-.8757517.0744102c.0992137.8242369.1907956 1.9174955.0515148 2.631071-1.2535269.2251387-2.2304002.6258094-3.2072735 1.6522896-1.2764224-1.0264802-4.1574355.2003353-4.9053541 2.8810131-2.2075048-.2003353-3.7395932 2.0186171-4.0658536 4.2757287-.7727221.3396162-1.7705829.9196347-3.1099678 2.0109854-.8433165-.9577938-1.2439872-2.2590196-1.0417439-3.8826899-1.1428654.8375926-1.5988668 2.2075048-1.8278215 3.6537352-1.1924723-.8108812-2.1807934-2.1311865-2.4364595-3.6537352.7975255-.3262604 1.3985316-.6258095 2.50133-1.1943803.5647549-.2900092.990229-.5895583 1.635118-.8356846 1.4080713-.5380435 3.4324123-1.076087 5.8631479-1.8030181 2.844762-.8509483 4.5810016-1.5816953 6.6606734-3.8388069.8375925-.1545444 1.9690103-.1965194 2.5795561-.1469126-.2041513-1.1676689-1.1428655-2.7665358-3.6823545-2.6635061.0267114-1.7782148-1.6999886-3.5793249-3.0947042-3.6041284.0496069.862396.0248034 2.5375811-.0267114 3.2225372-1.0894427.5838345-1.8259136.9387142-2.9935825 1.5988669-2.7779835 1.5702475-4.779429 3.058453-6.7083722 3.9971672-.9253585-.0496068-3.0126621-.7479186-4.739362-.6964038-1.6236703-.8395005-2.283823-3.833083-1.1924723-5.3556317.6086379 1.7763068 3.1462189 1.9537466 3.7567648-.7631823.7574584-3.3751736 2.409748-4.8214041 4.2890844-4.8729189-2.2342161-.2270467-3.9857195-2.7665357-1.8278216-5.7105114.6353493 1.8030182 3.2854998 1.8220977 4.0620377-.2785615 1.0398359-2.8180506.7612744-5.3804351 4.4417209-6.3191493-1.1676689-.4827128-2.3868526-2.2094127-2.411656-3.3255668.8108812.431198 2.842854.4063946 3.5774169.1259251-2.1559899-.6334413-3.2988554-2.3086264-3.5010987-4.3138879 1.724792 0 3.7300534-.8127891 5.8116331-3.0202939 2.0815797-2.2094127 2.713113-2.7779835 3.8311751-3.5087305m14.4508565 33.8471342c-.4083025.8528562-.8757517 1.7534113-1.3126735 2.6196232.2823774.1011216.7212072.2518502 1.0226642.3529718.4636332 1.2764224.7383789 2.3792208 2.2914548 3.1805622 1.4137952.730747 6.1226299 2.6921255 6.8991678 3.4686634.1011217.1011217.2270468.2384945.0763183.3758673s-1.1027984 1.2153678-1.1142462 2.2036889c-.0133557.990229-.5762026 1.5282725-1.0894427 2.1044751-.3129047.3510638-.08395.8337766.7383789.5017923.5895583-.2384944.8662119-.557123 1.2153678-1.0150324.5742946.6010061 1.6904487 2.0167092 2.1922411 2.9172643.4617253-.8375926.1736239-1.7782147.0248034-2.2151366.4617253-.9768733.8127891-2.7169289.7383789-4.5714619-.1011217-2.5051458-7.2521397-7.0518042-8.3911892-7.5764921.1125694-.6773242.5513992-1.8163738 1.3527406-2.3544173-.2747457-.3510639-1.3279372-.4636332-2.2800071.2499422-.087766-.3510639-.2499422-.9272665-.3510639-1.3279372-.51324.7269311-1.3260292 1.0894427-2.0128932 1.0856268m-1.679001-9.8984742c.9673335.9673336 3.5907726 4.5905414 2.6100834 7.668074-.1278331.4044866-.2728377.8662119-.5132401 1.3241213.5762026-.129741 1.0283881-.4788969 1.3947156-.9310824 2.539489.4178423 3.1404951-3.5697852 1.637026-6.0272321-1.4137952-2.3143503-4.2738208-3.1385871-5.1285849-2.0338808m-1.9251274 1.1772087c-1.0570074.1965194-1.6541975 1.7724908-1.3298451 3.5220862.3243525 1.7495954 1.4443225 3.0069382 2.50133 2.8123267 1.0589154-.1965194 1.6541975-1.7724908 1.331753-3.5220862-.3243524-1.7476874-1.4443224-3.0069382-2.5032379-2.8123267m-25.9424737 15.6757641c1.7629511-.7421948 3.6079443-1.3527406 6.2619106-2.1292786 3.1195076-.9120028 4.5962653-1.9422989 6.1130901-3.531626.4006707-.1755319 1.1753007-.2995491 2.1521741-.2995491-.4502776-1.0264801-1.6770931-1.4786656-3.3560941-1.3031337.2251387-1.7038045-.9768733-3.1557587-1.7534113-3.3312907.1011216.4006707.1259251 2.154082 0 2.7302846-.8013414.3510639-2.2532957 1.1276019-3.3560941 1.7534113-1.3107656.7460107-5.5349795 3.5564295-7.0384486 4.0334184-1.551168-.1259251-3.3045793-.8032494-5.2087191-.8280528-1.1791166-.0152636-2.7779835.1526365-4.1078286.8528562-.9520699.4998844-.5304117.776538-.1240171.776538.5246878 0 1.6522896-.3758673 2.0777637-.1755319-.6258094.5762026-1.1772086 1.4767577-1.3031337 2.1788854-.2499422.4254741-.6944959 1.2745144-.2251388 1.4023474 0 .301457-.1011216 1.0512836 1.4023475.0496069 1.503469-1.0016768 3.1061518-1.8774284 4.0086149-1.553076-.6525209.4006707-1.4042554 1.0531916-1.7038045 1.6045908-.1240171.2289547-.3396161.7689061.9768734.1736239.7765379-.3491558 1.4271508-.6754163 2.6043595-1.1504972 1.3031338-.5265958 2.1044751-1.0531916 2.5795561-1.2535269"/></g></g></svg>