<svg width="120" height="30" viewBox="0 0 120 30" xmlns="http://www.w3.org/2000/svg"><path d="M22.24 17.762l-6.002-9.849h-4.332l-.002 14.126h4.308v-9.85l6.03 9.85h4.298V7.913h-4.306l.006 9.849zm34.144-5.097v-1.397h-2.267V9.367h-4.189l.004 1.903h-2.277v1.395h2.275l-.002 9.374h4.196l-.007-9.374h2.267zm-27.45 9.374h4.183v-9.391l-4.183-.004v9.395zm-.011-11.241h4.194v-2.89h-4.194v2.89zm73.35 1.209c-3.377 0-6.119 2.358-6.119 5.27 0 2.913 2.742 5.272 6.119 5.272 3.378 0 6.114-2.359 6.114-5.272 0-2.912-2.736-5.27-6.114-5.27zm1.676 7.247c0 1.497-.871 2.114-1.71 2.114-.837 0-1.712-.617-1.712-2.114v-2.025l.002-1.956c0-1.49.874-2.107 1.71-2.107.835 0 1.71.617 1.71 2.107 0 .566 0 1.619.005 1.995 0 .026-.005 1.42-.005 1.986zM90.663 13.11c-.668-.381-1.375-.75-2.367-.838-3.018-.267-5.32 2.437-5.32 4.917a5.014 5.014 0 0 0 2.86 4.657c1.41.666 3.215.668 4.817-.352l.002.543h4.135V7.913h-4.127v5.197zm.032 4.184v1.668c0 1.45-.991 1.828-1.642 1.828-.666 0-1.64-.378-1.64-1.828v-3.346c0-1.455.974-1.823 1.64-1.823.65 0 1.64.368 1.64 1.823l.002 1.678zm-47.778-5.082a5.016 5.016 0 0 0-3.339 1.417c-.005-.234 0-.988 0-.988l-4.16.003.008 9.39h4.152l-.005-6.168c0-.818.849-1.728 1.986-1.728 1.14 0 1.912.91 1.912 1.728v6.168h4.163s-.005-4.448 0-5.109c.021-3.718-3.153-4.758-4.717-4.713zm34.012 0a5.014 5.014 0 0 0-3.34 1.417c-.005-.234 0-.988 0-.988l-4.153.003-.002 9.39h4.155l-.005-6.168c0-.818.85-1.728 1.99-1.728 1.139 0 1.91.91 1.91 1.728v6.168h4.159s-.005-4.448 0-5.109c.02-3.718-3.152-4.758-4.714-4.713zm-8.76 5.17c0-2.913-2.773-5.325-6.177-5.325-3.401 0-6.162 2.359-6.162 5.272 0 2.912 2.76 5.273 6.162 5.273 2.825 0 5.21-1.637 5.94-3.853l-4.174.004s.005.04.005.57c0 1.716-1.113 2.096-1.733 2.096-.62 0-1.751-.38-1.751-2.097 0-.515.005-1.94.005-1.94s7.885.003 7.885 0zm-7.611-3.307c.329-.578.928-.85 1.472-.856a1.714 1.714 0 0 1 1.473.856c.263.472.277 1.023.27 1.843h-3.49c-.008-.82.01-1.37.275-1.843zm49.495-4.417c0-.461-.336-.694-1.011-.694h-.932v2.41h.579v-.986h.281l.455.986h.64l-.53-1.076c.326-.086.518-.323.518-.64zm-1.083.377h-.281v-.7h.25c.347 0 .518.107.518.359 0 .239-.157.34-.487.34zm.018-2.01c-1.182 0-2.146.975-2.146 2.175 0 1.2.964 2.174 2.146 2.174 1.183 0 2.139-.974 2.139-2.174s-.956-2.176-2.139-2.176zm0 3.93a1.744 1.744 0 0 1-1.733-1.755c0-.972.776-1.76 1.733-1.76.956 0 1.732.788 1.732 1.76 0 .97-.776 1.755-1.732 1.755zM104.318 0H15.68C6.3-.022 0 6.822 0 15.025 0 23.232 6.286 29.996 15.696 30h88.608C113.717 29.996 120 23.232 120 15.025 120 6.822 113.7-.022 104.318 0zm-.04 26.32H15.724c-7.478.03-12.021-5.065-12.021-11.314 0-6.25 4.57-11.3 12.021-11.316h88.554c7.448.016 12.018 5.067 12.018 11.316 0 6.25-4.542 11.344-12.018 11.314z" fill="#FFF" fill-rule="evenodd"/></svg>
