<svg height="61" viewBox="0 0 70 61" width="70" xmlns="http://www.w3.org/2000/svg"><path d="m4.523 58.503c.324 0 .654-.11.95-.774l1.706-3.832h.036v4.553h1.832v-6.9c0-.926-.504-1.322-1.146-1.322-.435 0-.918.169-1.3 1.032-.263.592-2.06 4.615-2.06 4.615h-.035s-1.797-4.025-2.06-4.617c-.384-.861-.892-1.03-1.3-1.03-.594 0-1.146.388-1.146 1.314v6.908h1.832v-4.553h.036l1.707 3.832c.295.664.625.774.948.774m63.233-.058v-1.068h.273v-.31h-.905v.31h.276v1.068zm-32.078.003v-3.112c0-1.951-1.365-2.866-2.688-2.866-.64 0-1.212.256-1.56.673h-.018v-.494h-1.707v5.802h1.707v-2.825c0-1.127.62-1.613 1.325-1.613.49 0 1.233.305 1.233 1.447v2.988zm28.547-32.006c0-6.68-5.438-13.82-13.613-14.224-4.255-7.679-11.892-12.218-20.7-12.218-10.365 0-21.088 6.816-21.088 18.22 0 8.008 6.95 11.284 7.247 11.42a2.321 2.321 0 0 0 3.002-.99l3.974-7.317 2.873 5.561a2.31 2.31 0 0 0 2.054 1.243c.867 0 1.66-.48 2.054-1.243l2.857-5.53 3.886 7.272a2.321 2.321 0 0 0 3.116.951 2.264 2.264 0 0 0 .963-3.077l-5.96-11.154a2.339 2.339 0 0 0 -2.056-1.214 2.31 2.31 0 0 0 -2.039 1.243l-2.82 5.461-2.822-5.461a2.31 2.31 0 0 0 -2.03-1.243 2.317 2.317 0 0 0 -2.056 1.201l-4.847 8.925c-1.286-1.14-2.783-3.1-2.783-6.047 0-8.554 8.377-13.666 16.477-13.666 7.466 0 13.898 4.08 17.204 10.912a2.316 2.316 0 0 0 2.235 1.29c.222-.014.302-.01.346-.008.075.004.134.006.181.006 5.736 0 9.733 5.105 9.733 9.687 0 5.555-4.412 9.905-10.043 9.905-2.225 0-4.406-.888-5.492-1.714a2.33 2.33 0 0 0 -2.83.012c-2.009 1.556-7.54 5.175-15.508 5.175-9.285 0-16.125-5.106-18.702-8.124a2.327 2.327 0 0 0 -3.25-.272 2.258 2.258 0 0 0 -.275 3.21c.851.997 8.712 9.741 22.227 9.741 7.885 0 13.696-2.912 17.025-5.18 2 1.062 4.507 1.708 6.805 1.708 8.218 0 14.656-6.352 14.656-14.46m-.663 30.669c-.853 0-1.546-.7-1.546-1.559 0-.86.694-1.559 1.546-1.559.853 0 1.546.7 1.546 1.56 0 .859-.693 1.558-1.546 1.558m3.134-1.562c0-1.698-1.402-3.082-3.133-3.082-1.732 0-3.135 1.384-3.135 3.082 0 1.7 1.403 3.081 3.135 3.081 1.731 0 3.133-1.382 3.133-3.08m-10.095 1.569a1.559 1.559 0 0 1 -1.575-1.57c0-.866.683-1.571 1.575-1.571.894 0 1.554.693 1.554 1.57s-.66 1.57-1.554 1.57zm3.253 1.332v-8.168h-1.708v2.79h-.03c-.135-.198-.765-.605-1.573-.605-1.684 0-3.1 1.386-3.1 3.08s1.416 3.082 3.1 3.082c.808 0 1.438-.409 1.573-.607h.03v.428zm-6.985-.004v-3.112c0-1.951-1.365-2.866-2.689-2.866-.639 0-1.21.256-1.559.673h-.019v-.494h-1.705v5.802h1.705v-2.825c0-1.127.622-1.613 1.325-1.613.49 0 1.234.305 1.234 1.447v2.988h1.707zm-11.12-3.526c.264-.734.862-1.027 1.463-1.027.848 0 1.329.53 1.5 1.027zm4.56.465c-.024-1.205-1.086-2.918-3.124-2.918-1.767 0-3.07 1.543-3.07 3.071 0 1.58 1.332 3.092 3.087 3.092 1.278 0 2.326-.709 2.78-1.592l-1.394-.485c-.365.449-.81.654-1.401.654-.597 0-1.295-.389-1.463-1.128h3.464c.745 0 1.122-.144 1.122-.694zm-7.486 3.063v-4.434h1.154v-1.366h-1.154v-1.6h-1.703v1.6h-1.14v1.367h1.14v4.434h1.703zm-11.084-8.532a.99.99 0 0 0 -.996.985c0 .544.446.985.997.985a.991.991 0 0 0 .997-.985.99.99 0 0 0 -.997-.985m-.853 8.535h1.707v-5.806h-1.707zm-2.196.052c.653 0 .996-.388.996-.946v-7.275h-1.832v5.05l-3.462-4.498c-.357-.464-.698-.606-.974-.606-.652 0-.995.388-.995.945v7.275h1.832v-5.05l3.462 4.499c.356.463.697.606.973.606m-13.758.873h-.25v1.449h.324c1.304 0 1.98-.231 2.387-1.213.1-.24 2.87-6.974 2.87-6.974h-1.925l-1.285 3.601-1.43-3.6h-1.907l2.55 5.692c-.163.752-.652 1.045-1.334 1.045m58.014-1.423-.262-.887h-.477v1.377h.328l-.012-1.032.302 1.032h.235l.302-1.032-.012 1.032h.329v-1.377h-.479z" fill="#fff" fill-rule="evenodd"/></svg>