<svg width="227" height="49" viewBox="0 0 227 49" xmlns="http://www.w3.org/2000/svg" xmlns:xlink="http://www.w3.org/1999/xlink"><title>HORIZONTAL</title><defs><path id="a" d="M47.59 48.387H0V.8h47.59z"/></defs><g fill="none" fill-rule="evenodd"><g transform="translate(0 -.187)"><mask id="b" fill="#fff"><use xlink:href="#a"/></mask><path d="M7.408 15.076a4.474 4.474 0 0 0 8.95 0 4.473 4.473 0 0 0-4.476-4.474 4.472 4.472 0 0 0-4.474 4.474zM19.116 44.55h-6.913a8.305 8.305 0 0 1-5.916-2.448 8.308 8.308 0 0 1-2.452-5.916V13c0-2.235.871-4.335 2.449-5.912a8.321 8.321 0 0 1 5.92-2.452h6.912V44.55zM22.603.8h-10.4C5.463.8 0 6.262 0 13v23.186c0 6.739 5.463 12.202 12.203 12.202h10.4a.348.348 0 0 0 .349-.35V1.148A.347.347 0 0 0 22.603.8zM37.13 22.16a4.813 4.813 0 0 1 0 9.624 4.813 4.813 0 0 1 0-9.624zm-9.066 26.228h7.324c6.739 0 12.203-5.463 12.203-12.202V13C47.59 6.262 42.126.8 35.387.8h-7.361a.306.306 0 0 0-.31.309v46.929c0 .193.155.35.347.35z" fill="#FFF" mask="url(#b)"/></g><path d="M187.622 12.124h-2.896V4.427h2.896a3.852 3.852 0 0 1 3.846 3.85 3.851 3.851 0 0 1-3.846 3.847zm-.136-10.484H182v13.274h5.487c3.765 0 6.828-2.976 6.828-6.637 0-3.66-3.063-6.637-6.828-6.637zm-10.168 24.81c2.828 0 5.465 1.508 6.875 3.887l4.077-3.539a13.312 13.312 0 0 0-11.095-5.911c-7.373 0-13.371 5.993-13.371 13.364s5.998 13.365 13.37 13.365c4.481 0 8.6-2.207 11.096-5.911l-4.077-3.544c-1.41 2.379-4.047 3.887-6.875 3.887-4.38 0-7.942-3.497-7.942-7.797 0-4.303 3.562-7.801 7.942-7.801zm-38.622.566h8.001v19.727h5.388V27.016h7.824V21.7h-21.213v5.315zm72.172 4.558h-11.693V21.7h-5.18v25.042h5.18v-9.987h11.693v9.987h5.183V21.701h-5.183v9.873zm14.421 11.443l-.938 2.728-.942-2.728h-1.03v3.73h.664v-2.859l.974 2.823.008.035h.648l.013-.035.97-2.823v2.858h.666v-3.729h-1.033zM209.962 12.41a4.134 4.134 0 0 1-4.123-4.132c0-2.274 1.854-4.132 4.123-4.132a4.138 4.138 0 0 1 4.127 4.132 4.135 4.135 0 0 1-4.127 4.132zm0-11.213c-3.897 0-7.068 3.176-7.068 7.081 0 3.91 3.171 7.087 7.068 7.087 3.902 0 7.073-3.177 7.073-7.087 0-3.905-3.171-7.08-7.073-7.08zm8.545 42.538h1.145v3.012h.721v-3.012h1.124v-.717h-2.99v.717zm-70.642-31.28h-7.624V9.343h7.05v-2.4h-7.05V4.077h7.624V1.64l-10.32.005v13.27l10.32-.004v-2.456zm22.908 2.46V1.64h-2.697v8.718l-6.529-8.718h-2.68v13.274h2.69V6.04l6.592 8.874h2.624zm-88.514 0h2.953V1.64h-2.953v13.274zM70.74 31.534c-3.615-.594-5.948-1.265-5.948-2.95 0-1.949 2.6-2.696 6.09-2.696 3.247 0 6.505 1.237 7.664 1.721l1.781-4.33c-1.264-.504-5.26-1.93-9.7-1.93-5.41 0-11.163 2.641-11.163 7.53 0 3.964 2.795 5.993 9.98 7.226 5.062.874 7.848 1.35 7.77 3.529-.045 1.196-.974 3.208-6.677 3.208-4.594 0-7.824-1.663-8.949-2.34L59.22 44.78c1.265.666 5.5 2.655 10.955 2.655 7.97 0 12.179-2.76 12.179-7.982 0-3.028-1.02-6.18-11.613-7.92zm39.761 8.34l-5.3-18.174h-4.444l-5.284 18.1-4.816-18.1h-5.45l7.087 25.042h6.021l4.666-16.497 4.639 16.497h6.044l7.122-25.042h-5.445l-4.839 18.173zM97.915 6.04l6.594 8.874h2.622V1.64h-2.695v8.718L97.907 1.64h-2.682v13.274h2.69V6.04zm29.092 40.703h5.573v-25.04h-5.573v25.04zm.82-45.103H116.58v2.818h4.242v10.456h2.858V4.458h4.145V1.64zm-64.788 4.4l6.597 8.874h2.615V1.64h-2.692v8.718L63.03 1.64h-2.679v13.274h2.687V6.04z" fill="#FFF"/></g></svg>