<svg width="84" height="86" viewBox="0 0 84 86" xmlns="http://www.w3.org/2000/svg"><title>Fill 2</title><path d="M59.921 71.934a6.724 6.724 0 0 1 5.61 2.993l-2.06 1.794a4.058 4.058 0 0 0-3.476-1.968c-2.214 0-4.016 1.77-4.016 3.946s1.802 3.946 4.016 3.946c1.43 0 2.762-.763 3.475-1.967l2.06 1.793a6.723 6.723 0 0 1-5.609 2.992c-3.726 0-6.757-3.034-6.757-6.764 0-3.73 3.031-6.765 6.757-6.765zm-9.254-3.02v-6.718h1.355l3.3 4.412v-4.412h1.362v6.717H55.36l-3.333-4.492v4.492h-1.36zm.526 6.124H47.24v9.985h-2.724v-9.985H40.47v-2.69h10.724v2.69zm-16.63 9.985h2.817V72.348h-2.817v12.675zm-5.271-22.827h5.684v1.426H32.88v5.291h-1.444v-5.291h-2.144v-1.426zM18.622 81.51l2.668-9.161h2.246l2.683 9.195 2.444-9.195h2.755l-3.602 12.674h-3.055l-2.345-8.35-2.36 8.35h-3.042L13.43 72.349h2.757l2.435 9.161zm5.89-19.314v6.717h-1.324l-3.332-4.492v4.492h-1.36v-6.717h1.354l3.301 4.412v-4.412h1.361zM2.225 64.421v4.492H.865v-6.717H2.22l3.3 4.412v-4.412h1.362v6.717H5.557l-3.332-4.492zm3.894 12.903l.078.014c4.845.852 5.792 2.11 5.792 3.993 0 2.643-2.129 4.04-6.156 4.04-2.757 0-4.9-1.006-5.539-1.342l1.198-2.166c.568.342 2.203 1.184 4.522 1.184 2.885 0 3.353-1.018 3.375-1.624.04-1.101-1.369-1.345-3.927-1.785-3.63-.625-5.044-1.65-5.044-3.657 0-2.475 2.907-3.81 5.643-3.81 2.242 0 4.265.723 4.902.975l-.9 2.194c-.587-.247-2.232-.873-3.874-.873-1.458 0-2.415.247-2.842.735a.889.889 0 0 0-.231.708c.12.908 1.456 1.142 3.003 1.414zm5.822-8.41h1.494v-6.718H11.94v6.717zm10.013-52.57a5.054 5.054 0 0 1 5.052-5.058 5.054 5.054 0 0 1 5.051 5.057 5.054 5.054 0 0 1-5.051 5.058 5.054 5.054 0 0 1-5.052-5.058zM35.173 4.542h-7.807a9.379 9.379 0 0 0-6.68 2.77 9.396 9.396 0 0 0-2.765 6.686v26.206c0 2.527.982 4.902 2.766 6.687a9.377 9.377 0 0 0 6.679 2.769h7.807V4.543zm3.937 49.455H27.366c-7.609 0-13.778-6.176-13.778-13.793V13.999C13.588 6.38 19.757.206 27.366.206H39.11c.218 0 .394.176.394.394v53.003a.394.394 0 0 1-.394.395zm5.996 9.431H41.25v1.45h3.566v1.215H41.25v1.575h3.856v1.242l-5.218.002v-6.715l5.218-.002v1.233zm10.405-39.077c-3 0-5.433 2.435-5.433 5.44a5.436 5.436 0 0 0 5.433 5.438c3 0 5.432-2.435 5.432-5.439a5.436 5.436 0 0 0-5.432-5.439zm-1.968 29.646h-8.27a.394.394 0 0 1-.393-.395V.556a.35.35 0 0 1 .35-.35h8.313c7.61 0 13.777 6.175 13.777 13.793v26.206c0 7.617-6.168 13.793-13.777 13.793zm11.66 9.61h-1.464v3.894h1.464a1.948 1.948 0 0 0 0-3.894zm-.068 5.305h-2.774v-6.717h2.774c1.902 0 3.45 1.507 3.45 3.359s-1.548 3.358-3.45 3.358zm11.821 3.436h2.62v12.674h-2.62v-5.056h-5.913v5.056h-2.618V72.349h2.618v4.995h5.913v-4.995zm-.457-8.885a2.09 2.09 0 0 0-2.085 2.09 2.09 2.09 0 0 0 2.085 2.092 2.09 2.09 0 0 0 2.084-2.092 2.09 2.09 0 0 0-2.084-2.09zm0 5.676a3.584 3.584 0 0 1-3.574-3.585 3.584 3.584 0 0 1 3.574-3.585 3.583 3.583 0 0 1 3.573 3.585A3.583 3.583 0 0 1 76.5 69.14zm4.787 15.883h-.244V84.01h-.41v-.24h1.055v.24h-.401v1.013zm1.688-.014v-.962l-.326.95-.004.012h-.216l-.004-.012-.327-.95v.962h-.224v-1.253h.348l.315.916.315-.916h.347v1.253h-.224z" fill="#FFF" fill-rule="evenodd"/></svg>